<?xml version="1.0" encoding="utf-8"?>
<!-- Generator: Adobe Illustrator 19.0.1, SVG Export Plug-In . SVG Version: 6.00 Build 0)  -->
<svg version="1.1" id="Layer_1" xmlns="http://www.w3.org/2000/svg" xmlns:xlink="http://www.w3.org/1999/xlink" x="0px" y="0px"
	 width="144px" height="154px" viewBox="0 0 144 154" style="enable-background:new 0 0 144 154;" xml:space="preserve">
<style type="text/css">
	.st0{fill:#71B82F;}
	.st1{fill:#DFD91A;}
	.st2{fill:#373838;}
	.st3{fill:#61D31E;}
	.st4{fill:#E0D919;}
	.st5{fill:none;stroke:#61D31E;stroke-linecap:round;stroke-linejoin:round;stroke-miterlimit:10;}
	.st6{fill:none;stroke:#61D31E;stroke-width:2;stroke-linecap:round;stroke-linejoin:round;stroke-miterlimit:10;}
</style>
<path class="st5" d="M11.3799706,61.3333359c0-1.0195007,0.8271008-1.8483009,1.8482008-1.8483009l42.4024048-1.9020653"/>
<line class="st5" x1="84.0905685" y1="73.7232819" x2="84.0905685" y2="83.8480301"/>
<g>
	<polyline class="st5" points="56.9190445,59.3430176 53.8597755,52.185936 120.3983765,23.7511349 132.7549744,52.6688347 
		80.6301346,74.9404984 	"/>
	<path class="st5" d="M97.6419678,56.8197365c-0.0052948-0.0034027-0.0052948-0.0034027-0.0052948-0.010601l-0.7272949-1.7075005
		c2.2296906-2.2332001,2.841095-6.1862984,1.2636948-9.8809013c-1.9587021-4.5858994-6.0365982-5.7996979-9.7454987-4.2151985
		c-3.7073059,1.5862007-5.6517029,5.3700981-3.6875992,9.9575996c1.5754013,3.6893997,4.8584976,5.9886017,8.0131989,5.9137001
		l0.7253952,1.7109985c0.0035019,0.0018997,0.0106049,0.0018997,0.0088043,0.0053024
		c-3.111702,2.1422997-4.9599991,5.6677971-5.0794983,9.4319954l19.5625-8.3607979
		C105.1739731,57.1495361,101.3366699,56.0481339,97.6419678,56.8197365z"/>
	<path class="st5" d="M120.2664719,32.3293343c0.9178009,2.1547012-0.0856018,4.6570015-2.2405014,5.5732002
		c-2.1583023,0.9304008-4.6551971-0.072998-5.5748978-2.2331009c-0.9232025-2.1601982,0.0783005-4.657299,2.2332001-5.5805988
		C116.8425674,29.1763344,119.3431702,30.165535,120.2664719,32.3293343z"/>
	<path class="st5" d="M127.2974701,48.7870331c0.4385986,1.0319023-0.0373993,2.2243004-1.0692978,2.6626015
		c-1.0284042,0.4368019-2.2277985-0.0390015-2.6679993-1.0710983c-0.4385986-1.0337029,0.0444946-2.2189026,1.0728989-2.6609001
		C125.6649704,47.2792358,126.8572693,47.7550354,127.2974701,48.7870331z"/>
	<path class="st5" d="M61.2552643,59.2809601c-0.3769341-0.3741608-0.6895294-0.8256111-0.9112892-1.3437271
		c-0.9233017-2.1617966,0.0765991-4.6535988,2.2420998-5.5749969c2.1565018-0.9267998,4.6499023,0.0732002,5.5749969,2.2332993
		c0.7480774,1.7572708,0.2259293,3.7337799-1.1557541,4.9098511"/>
</g>
<g>
	<polyline class="st5" points="80.6270065,83.1583862 81.503418,83.3296356 133.4251709,93.475235 127.3938675,124.337532 
		56.3799706,110.4587326 56.7190094,108.7229843 	"/>
	<path class="st5" d="M96.0164642,108.0365372c-0.0018005-0.0053024-0.0018005-0.0053024,0.0018997-0.0106049l0.3563995-1.8215942
		c3.0993042-0.5935059,5.8282013-3.5200043,6.5979996-7.4623032c0.960701-4.8943024-1.7304916-8.1879959-5.6907959-8.9633026
		c-3.9566956-0.771698-7.6905975,1.2673035-8.6441956,6.1632004c-0.7717056,3.9371033,0.6523972,7.683403,3.3043976,9.3944016
		l-0.3619003,1.8234024c0.0018997,0.0052948,0.0072021,0.0087967,0.0037003,0.0087967
		c-3.7785034,0.0250015-7.2879028,1.9017029-9.5031967,4.9477005l20.8795929,4.0796051
		C102.0601654,112.5422363,99.5061646,109.4748383,96.0164642,108.0365372z"/>
	<path class="st5" d="M128.4952698,100.4957352c-0.4544983,2.2974014-2.6894073,3.8051987-4.9868011,3.3524017
		c-2.3064041-0.4473038-3.8087997-2.6788025-3.3562012-4.9814987c0.4491959-2.3080063,2.6822968-3.8087006,4.985199-3.3614044
		C127.4346695,95.9633331,128.9443665,98.1875381,128.4952698,100.4957352z"/>
	<path class="st5" d="M125.0608673,118.0583344c-0.217598,1.1016006-1.281601,1.8198013-2.3812027,1.6041031
		c-1.0960999-0.2192001-1.8216019-1.2851028-1.605896-2.3865051c0.2173996-1.1013947,1.2850952-1.8107986,2.384697-1.5988007
		C124.5582657,115.8947372,125.2763672,116.9569321,125.0608673,118.0583344z"/>
</g>
<path class="st5" d="M80.6666641,106.8388367c0,1.0193024-0.8268967,1.8463974-1.8481979,1.8463974H13.2281713
	c-1.0211,0-1.8482008-0.827095-1.8482008-1.8463974V61.3333359c0-1.0195007,0.8271008-1.8483009,1.8482008-1.8483009h43.6513596
	h21.9389343c1.0213013,0,1.8481979,0.8288002,1.8481979,1.8483009v21.8900223V106.8388367z"/>
<path class="st5" d="M52.2996712,103.4203339c0,0.6753998,0.5471001,1.2244034,1.222599,1.2244034h19.2381973
	c0.6736984,0,1.2226028-0.5490036,1.2226028-1.2244034l0,0c0-0.6736984-0.5489044-1.2225952-1.2226028-1.2225952H53.5222702
	C52.8467712,102.1977386,52.2996712,102.7466354,52.2996712,103.4203339L52.2996712,103.4203339z"/>
</svg>
