<?xml version="1.0" encoding="utf-8"?>
<!-- Generator: Adobe Illustrator 19.0.1, SVG Export Plug-In . SVG Version: 6.00 Build 0)  -->
<svg version="1.1" id="Layer_1" xmlns="http://www.w3.org/2000/svg" xmlns:xlink="http://www.w3.org/1999/xlink" x="0px" y="0px"
	 width="356px" height="182px" viewBox="0 0 356 182" style="enable-background:new 0 0 356 182;" xml:space="preserve">
<style type="text/css">
	.st0{fill:#71B82F;}
	.st1{fill:#DFD91A;}
	.st2{fill:#373838;}
	.st3{fill:#61D31E;}
	.st4{fill:#E0D919;}
	.st5{fill:none;stroke:#61D31E;stroke-linecap:round;stroke-linejoin:round;stroke-miterlimit:10;}
	.st6{fill:none;stroke:#61D31E;stroke-width:2;stroke-linecap:round;stroke-linejoin:round;stroke-miterlimit:10;}
</style>
<g>
	<path class="st3" d="M98.6536942,76.4601135v2.5487823c0.9977951,0,1.8142014,0.7486572,1.8201141,1.6526413v7.2476349
		c0.0031052,0.4792175-0.1929016,0.9593735-0.5377884,1.317482c-0.1957016,0.2032471-0.6154175,0.5448685-1.210144,0.5486832
		h-12.380043c-0.5785522,0-1.1399841,0.1968613-1.5919037,0.5582428l-2.7886581,2.2301865V80.7959518
		c-0.0062256-0.9624863,0.8017807-1.780838,1.7479248-1.7869797h14.9247818L98.6536942,76.4601135 M98.6536942,76.4601135
		l-0.0294037,0.0000763H83.7131958c-2.3784332,0.0152435-4.3119583,1.9736557-4.2967072,4.3520966v13.9536591
		c0.0056,0.8803482,0.7672424,1.4600601,1.544136,1.4600601c0.3761597,0,0.7558975-0.1358109,1.0551987-0.4390869
		l4.3300095-3.4627991h12.380043c2.3784332-0.0151749,4.3119583-2.0528412,4.2967148-4.431282v-7.2313004
		C103.0073395,78.292984,101.0192184,76.4601135,98.6536942,76.4601135z"/>
	<path class="st3" d="M161.297348,147.351059l0.0258331,2.5488586l13.0945435-0.0000763
		c0.4463196,0.0028839,0.743454,0.2368469,0.8809662,0.3760834c0.1373749,0.1392365,0.3675995,0.4393921,0.3646545,0.901886
		v9.6928101l-1.9520416-1.5611725c-0.4519196-0.3613739-1.0131989-0.5582428-1.5918884-0.5582428l-10.8692017,0.0000763
		c-0.42453-0.0028076-0.7202606-0.2444763-0.8588715-0.3882904c-0.2479706-0.2575378-0.388916-0.6012573-0.386734-0.9593811
		v-6.3419952c0.0040436-0.6405487,0.584137-1.1616974,1.2928925-1.1617737L161.297348,147.351059 M161.297348,147.351059
		c-2.0797424,0.0001678-3.8281403,1.6116638-3.8415222,3.6942139v6.3583374
		c-0.013382,2.0913544,1.6866302,3.8829956,3.7780609,3.8963776h10.8855286l3.8071442,3.0447235
		c0.2632141,0.2666321,0.5970612,0.3860321,0.9277954,0.3860321c0.6832428,0,1.3527832-0.5096283,1.3577728-1.2837219v-12.2692108
		c0.0133667-2.0912628-1.6866455-3.8132935-3.7780609-3.8266602h-13.1108856L161.297348,147.351059z"/>
	<path class="st3" d="M233.1749725,2.5093412l0.0399933,2.5489373l20.2987823-0.0000777
		c0.8864136,0.0056782,1.7219543,0.3605227,2.3526154,0.9992738c0.6304932,0.638751,0.974762,1.4786482,0.9690247,2.3813939
		v17.9320908l-5.3001251-4.2386093c-0.4519196-0.3613777-1.0133514-0.5582466-1.5919037-0.5582466l-16.8505249,0.0000782
		c-1.8124847-0.0115891-3.3336029-1.6016998-3.3216248-3.4885521V8.2499342
		c0.0112-1.7599101,1.5382233-3.1917334,3.4039307-3.1918111L233.1749725,2.5093412 M233.1749725,2.5093412
		c-3.2226868,0.0001554-5.9318542,2.4972119-5.9525452,5.7241812v9.8521061
		c-0.0206909,3.2404251,2.6136475,6.0165653,5.8540802,6.0372562h16.8668518l5.899353,4.7178288
		c0.4078979,0.4131813,0.9251404,0.5981483,1.4375916,0.5981483c1.0585938,0,2.0960693-0.7897263,2.1038513-1.9891357V8.4388685
		c0.0206909-3.2404256-2.6136475-5.9086819-5.8540802-5.9293718h-20.3151093L233.1749725,2.5093412z"/>
	<path class="st3" d="M239.7049866,151.6267395v2.5487823c1.9076996,0,3.4691162,1.4649506,3.4806213,3.2493744v9.9957733
		c0.0122833,1.9125977-1.5435181,3.5384064-3.3809052,3.5502319h-17.0848083c-0.578537,0-1.1399689,0.1968689-1.5918884,0.5582428
		l-5.4220734,4.3362274v-18.2487488c-0.0059204-0.9067078,0.3461304-1.7658234,0.9911041-2.4190369
		c0.6448212-0.6532135,1.4993439-1.0161591,2.3897858-1.0219116l20.5920258-0.0000763L239.7049866,151.6267395
		 M239.7049866,151.6267395l-0.040451,0.0001526h-20.577713c-3.2824249,0.0209961-5.9506836,2.7237244-5.9296722,6.006073
		v19.2565613c0.007782,1.2148895,1.0586243,2.0148926,2.1309357,2.0148926c0.5191193,0,1.0430603-0.1874542,1.4562378-0.6059265
		l5.9755707-4.7788086h17.0848083c3.2822723-0.0210114,5.9506836-2.8330078,5.9296875-6.1153564v-9.9794312
		C245.7135468,154.1562347,242.9693756,151.6267395,239.7049866,151.6267395z"/>
	<path class="st3" d="M102.0786209,17.5314274v2.5487823c1.1886673,0,2.1615753,0.8988552,2.1685791,1.9874249v7.8237667
		c0.0074615,1.1750641-0.9769516,2.2122173-2.0904922,2.2193737h-13.366478c-0.5787048,0-1.1399841,0.1968689-1.5919037,0.5582466
		l-3.3409195,2.671833V22.2141762c-0.0074692-1.1692295,0.9375916-2.1264992,2.090332-2.1338882l16.1176529-0.0000782
		L102.0786209,17.5314274 M102.0786209,17.5314274l-0.0315857,0.0000782H85.9477386
		c-2.5679169,0.0164108-4.6554489,2.1309338-4.6391144,4.6988487v15.0656471
		c0.0060654,0.9505005,0.8283844,1.5763397,1.6671982,1.5763397c0.4061813,0,0.8160934-0.1466179,1.1393585-0.4740067
		l4.6750488-3.7387772h13.366478c2.5680771-0.0164146,4.6556091-2.2164192,4.6392746-4.7844124v-7.8075104
		C106.7794876,19.5102959,104.6325302,17.5314274,102.0786209,17.5314274z"/>
	<path class="st3" d="M311.8186035,29.8602886v2.5487843c1.1886902,0,2.1615906,0.8988533,2.1685791,1.9874229v7.8237686
		c0.0074768,1.1750603-0.9769287,2.2122154-2.0904846,2.2193718h-13.3664856c-0.5787048,0-1.1399841,0.1968689-1.5918884,0.5582466
		l-3.3409119,2.671833V34.5430374c-0.0074768-1.1692276,0.9375916-2.1264992,2.090332-2.1338882l16.1176453-0.0000763
		L311.8186035,29.8602886 M311.8186035,29.8602886l-0.0315857,0.0000782h-16.0992737
		c-2.5679321,0.0164127-4.6554565,2.1309338-4.6391296,4.6988487v15.0656471
		c0.006073,0.9505043,0.8283997,1.5763435,1.6672058,1.5763435c0.4061584,0,0.8161011-0.1466217,1.1393433-0.4740105
		l4.6750488-3.7387772h13.3664856c2.5680847-0.0164108,4.6556091-2.2164154,4.6392822-4.7844124v-7.8075104
		C316.5194702,31.8391571,314.3725281,29.8602886,311.8186035,29.8602886z"/>
	<path class="st3" d="M24.8100281,40.4015503l0.0280018,2.5488586l14.2149372-0.0000763
		c0.8557625,0.0055199,1.5740089,0.7330246,1.5685654,1.6049652v10.9743156l-2.4728661-1.9776993
		c-0.4519196-0.3613777-1.0133553-0.5582466-1.5918999-0.5582466H24.7574482
		c-0.5405903-0.0034218-0.9134808-0.3073196-1.0877132-0.488163c-0.3083305-0.320076-0.4834976-0.748661-0.4806957-1.1923332
		v-6.885437c0.0051327-0.8146172,0.7324009-1.4774017,1.6211452-1.4774017L24.8100281,40.4015503 M24.8100281,40.4015503
		c-2.257719,0.0000763-4.155304,1.7493324-4.1697712,4.0099297v6.9016914
		c-0.0146236,2.2700119,1.8308468,4.2147331,4.1008568,4.2292786h11.8156528l4.1325912,3.3049049
		c0.2857742,0.2894287,0.6482391,0.4190178,1.0071297,0.4190178c0.741581,0,1.46838-0.5531921,1.4738274-1.3933983V44.5552979
		c0.0144653-2.2700081-1.8310051-4.1391258-4.1010132-4.1536713H24.8380299L24.8100281,40.4015503z"/>
	<path class="st3" d="M193.2924652,98.1455994v-1.2743912h-40.3557434
		c-1.7514191-0.0003433-3.3384247-0.7139206-4.4990997-1.8728867c-1.1589661-1.1607132-1.8725433-2.7477112-1.8729248-4.4990616
		V21.5464115c0.0003815-1.7514305,0.7139587-3.3384304,1.8729248-4.4991035
		c1.160675-1.1589613,2.7476807-1.8725395,4.4990997-1.8729286h40.3557434
		c1.751358,0.0003891,3.3383636,0.7139673,4.4990234,1.8729286c1.1589661,1.1606731,1.8725433,2.747673,1.8729401,4.4991035
		v68.9528503c-0.0003967,1.7513504-0.713974,3.3383484-1.8729401,4.4990616
		c-1.1606598,1.1589661-2.7476654,1.8725433-4.4990234,1.8728867V98.1455994v1.274353
		c4.914856-0.0048599,8.9158325-4.005806,8.9206696-8.9206924V21.5464115
		c-0.004837-4.9149303-4.0058136-8.9159136-8.9206696-8.9207363h-40.3557434
		c-4.914917,0.0048227-8.9159088,4.005806-8.9207306,8.9207363v68.9528503
		c0.0048218,4.9148865,4.0058136,8.9158325,8.9207306,8.9206924h40.3557434V98.1455994z"/>
	<path class="st3" d="M149.6700897,87.5687561h46.8889465c0.7037659,0,1.2743835-0.5705719,1.2743835-1.2743912
		c0-0.7038574-0.5706177-1.2743912-1.2743835-1.2743912h-46.8889465c-0.7038574,0-1.2743988,0.5705338-1.2743988,1.2743912
		C148.3956909,86.9981842,148.9662323,87.5687561,149.6700897,87.5687561"/>
	<circle class="st3" cx="173.1145935" cy="91.8336182" r="3.0915883"/>
	<path class="st3" d="M345.285614,140.4693298v-1.2743988H267.92276c-1.7514343-0.000351-3.3384399-0.7139282-4.4992065-1.8728943
		c-1.1588745-1.1607056-1.8724365-2.7477112-1.8728333-4.499054V84.0360641
		c0.0003967-1.7513962,0.7139587-3.3383942,1.8728333-4.4991074c1.1607666-1.1589584,2.7477722-1.8725357,4.4992065-1.8728867
		h77.362854c1.7513428,0.000351,3.3383484,0.7139282,4.4990234,1.8728867
		c1.1589661,1.1607132,1.8725281,2.7477112,1.8729248,4.4991074v48.7869186
		c-0.0003967,1.7513428-0.7139587,3.3383484-1.8729248,4.499054c-1.160675,1.1589661-2.7476807,1.8725433-4.4990234,1.8728943
		V140.4693298v1.2743378c4.914856-0.0048523,8.9158325-4.0057983,8.9206543-8.9206848V84.0360641
		c-0.0048218-4.9149323-4.0057983-8.9159164-8.9206543-8.9207382H267.92276
		c-4.9150085,0.0048218-8.9159241,4.0058441-8.9207458,8.9207382v48.7869186
		c0.0048218,4.9148407,4.0057373,8.915863,8.9207458,8.9206848h77.362854V140.4693298z"/>
	<path class="st3" d="M317.2386475,156.7542877v-1.2743835H295.969696c-0.8082275-0.0015259-1.4833984-0.676712-1.4849548-1.4848785
		c0.0015564-0.8082428,0.6767273-1.4833984,1.4849548-1.4849091h21.2689514
		c0.8081055,0.0015106,1.4833374,0.676712,1.4848938,1.4849091c-0.0015564,0.8081207-0.6767883,1.4833527-1.4848938,1.4848785
		V156.7542877v1.274353c2.2269287-0.0048676,4.0287781-1.8066254,4.0335999-4.0336151
		c-0.0048218-2.227066-1.8066711-4.0287933-4.0335999-4.0336456H295.969696
		c-2.2270813,0.0048218-4.0288391,1.8066101-4.0336609,4.0336456c0.0048218,2.2269592,1.8065796,4.0287933,4.0336609,4.0336151
		h21.2689514V156.7542877z"/>
	<path class="st3" d="M298.8258057,140.4693298v10.7664337c0,0.7038116,0.5705261,1.2743988,1.2743835,1.2743988
		c0.7037659,0,1.2743835-0.5705872,1.2743835-1.2743988v-10.7664337c0-0.7038574-0.5706177-1.2743988-1.2743835-1.2743988
		C299.3963318,139.194931,298.8258057,139.7654724,298.8258057,140.4693298"/>
	<path class="st3" d="M311.8337708,140.4693298v10.7664337c0,0.7038116,0.5705566,1.2743988,1.2743835,1.2743988
		c0.7037964,0,1.2744141-0.5705872,1.2744141-1.2743988v-10.7664337c0-0.7038574-0.5706177-1.2743988-1.2744141-1.2743988
		C312.4043274,139.194931,311.8337708,139.7654724,311.8337708,140.4693298"/>
	<path class="st3" d="M34.4498672,171.2630157h-1.2743912c-0.0069237,3.8036804-3.0844707,6.8811493-6.8880444,6.8880768
		c-3.8038044-0.0069275-6.8812752-3.0844269-6.8881969-6.8880768c0.0069218-3.8037415,3.0843925-6.8812103,6.8881969-6.8881226
		c3.8035736,0.0069122,6.8811207,3.0843811,6.8880444,6.8881226H34.4498672h1.2743111
		c-0.0007782-5.2123413-4.224453-9.4360504-9.4367466-9.4368744c-5.2123699,0.000824-9.4361248,4.2245026-9.4369011,9.4368744
		c0.0007763,5.2122803,4.2245312,9.4360046,9.4369011,9.4368134c5.2122936-0.0008087,9.4359684-4.2245331,9.4367466-9.4368134
		H34.4498672z"/>
	<path class="st3" d="M108.3573074,171.2630157h-1.2743912c-0.0069199,3.8036804-3.084465,6.8811493-6.8880386,6.8880768
		c-3.8038025-0.0069275-6.881279-3.0844269-6.8881989-6.8880768c0.0069199-3.8037415,3.0843964-6.8812103,6.8881989-6.8881226
		c3.8035736,0.0069122,6.8811188,3.0843811,6.8880386,6.8881226H108.3573074h1.2743149
		c-0.0007782-5.2123413-4.2244492-9.4360504-9.4367447-9.4368744c-5.2123718,0.000824-9.4361267,4.2245026-9.4369049,9.4368744
		c0.0007782,5.2122803,4.2245331,9.4360046,9.4369049,9.4368134c5.2122955-0.0008087,9.4359665-4.2245331,9.4367447-9.4368134
		H108.3573074z"/>
	<path class="st3" d="M38.5292549,171.616806h48.3288536c0.7037735,0,1.2743912-0.5705719,1.2743912-1.2743988
		c0-0.7038574-0.5706177-1.2743835-1.2743912-1.2743835H38.5292549c-0.7038536,0-1.2743912,0.5705261-1.2743912,1.2743835
		C37.2548637,171.0462341,37.8254013,171.616806,38.5292549,171.616806"/>
	<path class="st3" d="M112.2777863,171.6167603h5.4365463c4.114624-0.0008087,7.4484634-3.3346558,7.4492416-7.449234
		l0.0000763-0.0000458c-0.0000763-1.9757233-0.7849045-3.8704224-2.1818771-5.2674408l-5.6075058-5.6075439
		c-1.1860352-1.1858826-2.7374039-1.9369507-4.4032822-2.1315155l-21.4726791-2.5082245
		c-0.866806-0.1012268-1.6907578-0.4320831-2.3869095-0.9583893L68.335022,131.9863129
		c-1.2998276-0.9827118-2.8787308-1.5072784-4.492569-1.5072327c-0.2928505-0.0000458-0.5872574,0.0171814-0.881588,0.0524139
		l0.1515198,1.2653809l-0.059269-1.2730408l-49.8890152,2.3207703l-0.0914726,0.0075378
		c-3.0493908,0.3632812-5.5631704,2.5601807-6.3315854,5.533493l1.2339439,0.3188324l-1.2295103-0.3355103l-5.311933,19.4654999
		l-0.0043558,0.0166016c-0.1602323,0.6196594-0.2378594,1.2462769-0.2377816,1.8649139
		c-0.0004667,2.8188934,1.6062119,5.4655151,4.247633,6.724472l7.4303432,3.5379791
		c0.6354065,0.3025818,1.3958883,0.0327454,1.6984625-0.6026917c0.3025742-0.6354828,0.0327463-1.3959351-0.6026602-1.6985016
		l-7.4304214-3.5380249c-1.7382088-0.8264771-2.7941861-2.571228-2.7946529-4.423233
		c0.000078-0.4057922,0.0507922-0.8169403,0.1567321-1.2271271l-1.2337885-0.3188782l1.2294328,0.3354797l5.3119326-19.4654999
		l0.0044336-0.0166779c0.5051985-1.9558563,2.1593246-3.4015198,4.1651831-3.6401978l-0.1506643-1.2654419l0.0591927,1.272995
		l49.8890152-2.3207703l0.0922508-0.0076599l0.5786247-0.0343781c1.0615005,0.0000458,2.100441,0.3450775,2.9554291,0.9916077
		l20.7764511,15.7080536c1.0581512,0.7999573,2.3106842,1.3029327,3.6283264,1.4568329l21.4726791,2.5082245
		c1.0958786,0.1279907,2.1164627,0.6220551,2.8967056,1.4022522l5.6074295,5.6075134
		c0.919075,0.9190369,1.4353943,2.1655121,1.4353943,3.4651794v0.0000458
		c-0.0049744,2.7059021-2.1946335,4.8955536-4.9005356,4.9004974h-5.4365463c-0.7038498,0-1.2743912,0.5705261-1.2743912,1.2743835
		c0,0.7038269,0.5705414,1.2743988,1.2743912,1.2743988V171.6167603z"/>
	<path class="st4" d="M30.4533157,69.4850693l12.7439117,49.701088c0.5244102,2.0452957,2.6075859,3.2782288,4.6529579,2.7537842
		c2.0452957-0.5244522,3.2782249-2.6076279,2.7537384-4.6529617L37.8600121,67.5858841
		c-0.5244102-2.0452881-2.6075859-3.2782211-4.6529579-2.7537766
		C31.1617603,65.3565598,29.9288273,67.4397354,30.4533157,69.4850693"/>
	<path class="st4" d="M69.8538895,102.6366959L57.1346321,115.296875c-1.4965363,1.4895706-1.5021362,3.9102859-0.0125999,5.4067841
		s3.9102898,1.5021439,5.4067497,0.0126038l12.7192497-12.6601791c1.4965439-1.4895782,1.5021439-3.9102859,0.0126038-5.4067841
		C73.7710953,101.1527939,71.3503494,101.1471558,69.8538895,102.6366959"/>
	<path class="st4" d="M132.9647064,93.4962616l-56.3593674,32.6722565
		c-1.8267212,1.0589676-2.4490585,3.3982849-1.3901291,5.2250061c1.0590134,1.8267212,3.3983231,2.4491119,5.2250519,1.3901367
		l56.3593597-32.6722565c1.8267365-1.0589752,2.4490662-3.3982849,1.3901367-5.2250137
		C137.1307526,93.0596695,134.7914276,92.4372864,132.9647064,93.4962616"/>
	<path class="st4" d="M76.1484451,71.2625198L54.9086494,57.6689873c-1.7784233-1.1381912-4.1428604-0.6191864-5.2810555,1.1592331
		c-1.1381912,1.7784615-0.6191483,4.1428604,1.1592751,5.2810555l21.2397957,13.5935287
		c1.7784271,1.1381912,4.1428604,0.6191864,5.2810516-1.1592331C78.4459152,74.7651062,77.9268723,72.4007111,76.1484451,71.2625198
		"/>
	<path class="st4" d="M133.9911346,28.9226971l-15.7174683-3.3984013c-2.0638046-0.4462395-4.098526,0.8650208-4.5447617,2.9288273
		c-0.4462433,2.0638065,0.8650208,4.0985241,2.9288254,4.5447636l15.7174683,3.3983994
		c2.063797,0.4462395,4.098526-0.8650208,4.544754-2.9288254C137.3661957,31.4036522,136.0549316,29.3689365,133.9911346,28.9226971
		"/>
	<path class="st4" d="M131.3805084,68.1745453l-18.6907806,7.2214203c-1.9695358,0.7609482-2.9493637,2.9745255-2.1883392,4.9440994
		c0.7609482,1.969574,2.9744873,2.9493637,4.9440994,2.1883774l18.6907883-7.2214203
		c1.9695282-0.7609482,2.9493561-2.9745255,2.1883392-4.9440994
		C135.5636597,68.3933487,133.3501282,67.413559,131.3805084,68.1745453"/>
	<path class="st4" d="M70.6786118,29.0081024l-16.9918518,8.4958115c-1.8885612,0.9442787-2.6540222,3.2408142-1.709816,5.1293755
		c0.9442787,1.8885651,3.2408142,2.6540222,5.1293755,1.7098198l16.9918556-8.4958115
		c1.8885651-0.9442825,2.6540222-3.2408142,1.709816-5.1293774C74.8637085,28.8293571,72.5671768,28.0638981,70.6786118,29.0081024"
		/>
	<path class="st4" d="M89.3806763,42.6801147l0.350647,23.4117203c0.0316544,2.1112213,1.7687759,3.7971191,3.8800278,3.7654648
		c2.1111755-0.0316238,3.7971191-1.7687454,3.7654572-3.8799973l-0.3506393-23.4117622
		c-0.031662-2.1111755-1.7687759-3.7971153-3.8800354-3.7654572C91.0349579,38.8317413,89.3490219,40.5688591,89.3806763,42.6801147
		"/>
	<path class="st4" d="M163.364975,111.6502304l2.9741669,28.0365982c0.222702,2.0996704,2.105423,3.6212463,4.2051697,3.3985138
		c2.0996552-0.2227325,3.6212463-2.1054535,3.3984833-4.2051544l-2.9741821-28.0366058
		c-0.2226868-2.0996628-2.105423-3.6212463-4.2051697-3.3985214
		C164.6637878,107.6677933,163.1421967,109.5505219,163.364975,111.6502304"/>
	<path class="st4" d="M191.0180969,113.7252731l26.7622223,31.4350052c1.3687439,1.6077271,3.7816315,1.8014832,5.3894043,0.4327087
		c1.6077576-1.3687439,1.8015137-3.7816772,0.4326935-5.3894501l-26.762207-31.4350052
		c-1.3687439-1.6077271-3.7816315-1.8014832-5.3894043-0.4327011
		C189.8430481,109.7045746,189.649292,112.1175079,191.0180969,113.7252731"/>
	<path class="st4" d="M137.1124725,162.1012573l13.1687622-3.3983612c2.0445099-0.5276031,3.2741699-2.6127167,2.746582-4.657196
		c-0.5276031-2.0445099-2.6127319-3.2741852-4.6571655-2.746582l-13.1687622,3.3983612
		c-2.0445099,0.5276031-3.2741852,2.6127167-2.746582,4.657196
		C132.9829102,161.3992004,135.0680237,162.6288605,137.1124725,162.1012573"/>
	<path class="st4" d="M187.1886292,160.4401703l14.0182953,2.9735565c2.0655212,0.4381561,4.0951843-0.8811188,4.5333405-2.94664
		c0.4381409-2.0655212-0.881134-4.0951385-2.94664-4.5332947l-14.0183105-2.9735413
		c-2.0655212-0.4381561-4.0951691,0.8811188-4.5333252,2.94664
		C183.803833,157.9723969,185.1231079,160.0020294,187.1886292,160.4401703"/>
	<path class="st4" d="M215.3492126,51.0032463l20.8147278-15.7175407c1.6849976-1.2724457,2.0195465-3.669939,0.7471771-5.3549461
		c-1.2724457-1.6850052-3.6699524-2.0195484-5.35495-0.747179l-20.8147125,15.7175388
		c-1.6850128,1.2724495-2.0195465,3.6699409-0.7471771,5.35495
		C211.2667236,51.9411125,213.6642151,52.2756157,215.3492126,51.0032463"/>
	<path class="st4" d="M265.342926,26.6304417l15.7174683,13.5934544c1.5970459,1.3812637,4.0114136,1.2063293,5.3925781-0.3907814
		c1.3812866-1.5970345,1.2063599-4.0114059-0.3907776-5.3925934l-15.7174377-13.5934525
		c-1.5970459-1.3812656-4.0114136-1.2063313-5.3926086,0.3907795
		C263.5708923,22.8348827,263.7458191,25.2492561,265.342926,26.6304417"/>
	<path class="st4" d="M211.5149994,69.7219925l36.9570312,16.1422729c1.9349976,0.8451462,4.1887512-0.0383072,5.0338593-1.9732285
		c0.8451843-1.9349594-0.038269-4.1887131-1.9731903-5.0338593l-36.9570312-16.1422729
		c-1.9349976-0.8451462-4.1887512,0.0383072-5.0338593,1.9732285
		C208.6966248,66.6230927,209.5800781,68.8768463,211.5149994,69.7219925"/>
	<path class="st4" d="M300.5531921,55.5985298v11.0447121c0,2.1114502,1.7117004,3.8231735,3.8231812,3.8231735
		c2.1113892,0,3.8231506-1.7117233,3.8231506-3.8231735V55.5985298c0-2.1114883-1.7117615-3.8231735-3.8231506-3.8231735
		C302.2648926,51.7753563,300.5531921,53.4870415,300.5531921,55.5985298"/>
	<path class="st4" d="M246.8589783,117.5666885l-15.2926941,22.0894241
		c-1.2019043,1.7360229-0.7688141,4.117691,0.9672241,5.3195496c1.7360229,1.201889,4.1176605,0.7688446,5.3195496-0.9671936
		l15.2926941-22.0894165c1.2019043-1.7360306,0.7687988-4.117691-0.9672241-5.3195572
		C250.4424896,115.3975983,248.0608673,115.830658,246.8589783,117.5666885"/>
</g>
</svg>
