<?xml version="1.0" encoding="utf-8"?>
<!-- Generator: Adobe Illustrator 19.0.1, SVG Export Plug-In . SVG Version: 6.00 Build 0)  -->
<svg version="1.1" id="Layer_1" xmlns="http://www.w3.org/2000/svg" xmlns:xlink="http://www.w3.org/1999/xlink" x="0px" y="0px"
	 width="76.5px" height="89.5px" viewBox="0 0 76.5 89.5" style="enable-background:new 0 0 76.5 89.5;" xml:space="preserve">
<style type="text/css">
	.st0{fill:#71B82F;}
	.st1{fill:#DFD91A;}
	.st2{fill:#373838;}
	.st3{fill:#61D31E;}
	.st4{fill:#E0D919;}
	.st5{fill:none;stroke:#61D31E;stroke-linecap:round;stroke-linejoin:round;stroke-miterlimit:10;}
	.st6{fill:none;stroke:#61D31E;stroke-width:2;stroke-linecap:round;stroke-linejoin:round;stroke-miterlimit:10;}
</style>
<g>
	<path class="st2" d="M29.6999149,12.4090061h44.5265808c0.6362457,0,1.1521072-0.5158606,1.1521072-1.1521072
		c0-0.6363878-0.5158615-1.1521072-1.1521072-1.1521072H29.6999149c-0.6363888,0-1.1521072,0.5157194-1.1521072,1.1521072
		C28.5478077,11.8931456,29.0635262,12.4090061,29.6999149,12.4090061"/>
	<path class="st2" d="M29.6999149,25.336319h15.4611874c0.6362457,0,1.1521072-0.5158615,1.1521072-1.1521072
		c0-0.6363888-0.5158615-1.1521072-1.1521072-1.1521072H29.6999149c-0.6363888,0-1.1521072,0.5157185-1.1521072,1.1521072
		C28.5478077,24.8204575,29.0635262,25.336319,29.6999149,25.336319"/>
	<path class="st2" d="M29.6999149,38.2636299h27.289835c0.6362457,0,1.1521072-0.5158615,1.1521072-1.1521072
		c0-0.6363869-0.5158615-1.1521072-1.1521072-1.1521072h-27.289835c-0.6363888,0-1.1521072,0.5157204-1.1521072,1.1521072
		C28.5478077,37.7477684,29.0635262,38.2636299,29.6999149,38.2636299"/>
	<path class="st2" d="M29.6999149,63.0195923h44.5265808c0.6362457,0,1.1521072-0.5158615,1.1521072-1.1521072
		c0-0.6363869-0.5158615-1.1521072-1.1521072-1.1521072H29.6999149c-0.6363888,0-1.1521072,0.5157204-1.1521072,1.1521072
		C28.5478077,62.5037308,29.0635262,63.0195923,29.6999149,63.0195923"/>
	<path class="st2" d="M29.6999149,75.946907h35.1755524c0.6362534,0,1.1521072-0.5158615,1.1521072-1.1521072
		c0-0.636322-0.5158539-1.1521072-1.1521072-1.1521072H29.6999149c-0.6363888,0-1.1521072,0.5157852-1.1521072,1.1521072
		C28.5478077,75.4310455,29.0635262,75.946907,29.6999149,75.946907"/>
	<path class="st2" d="M29.6999149,88.8742142h27.289835c0.6362457,0,1.1521072-0.5158615,1.1521072-1.1521072
		c0-0.6363144-0.5158615-1.1521072-1.1521072-1.1521072h-27.289835c-0.6363888,0-1.1521072,0.5157928-1.1521072,1.1521072
		C28.5478077,88.3583527,29.0635262,88.8742142,29.6999149,88.8742142"/>
	<path class="st2" d="M19.7964611,10.5393629h-1.1521072c-0.0077343,4.2019844-3.4073792,7.6016302-7.6093645,7.6093645
		c-4.2021255-0.0077343-7.6017699-3.4073801-7.6095047-7.6093645c0.007735-4.2022662,3.4073794-7.6017699,7.6095047-7.6095052
		c4.2019854,0.0077353,7.6016302,3.407239,7.6093645,7.6095052H19.7964611h1.1519661
		c-0.0007019-5.4757438-4.4379749-9.9128761-9.9134378-9.913579c-5.4756031,0.0007032-9.9128761,4.4378352-9.913579,9.913579
		c0.0007031,5.4754629,4.4379759,9.9127359,9.913579,9.9134378c5.4754629-0.0007019,9.9127359-4.4379749,9.9134378-9.9134378
		H19.7964611z"/>
	<path class="st2" d="M19.7964611,61.867485h-1.1521072c-0.0077343,4.2019806-3.4073792,7.6016998-7.6093645,7.6093597
		c-4.2021255-0.0076599-7.6017699-3.4073792-7.6095047-7.6093597c0.007735-4.2021255,3.4073794-7.6017723,7.6095047-7.6095047
		c4.2019854,0.0077324,7.6016302,3.4073792,7.6093645,7.6095047H19.7964611h1.1519661
		c-0.0007019-5.475605-4.4379749-9.9128761-9.9134378-9.9135818c-5.4756031,0.0007057-9.9128761,4.4379768-9.913579,9.9135818
		c0.0007031,5.4754639,4.4379759,9.9128036,9.913579,9.9135056c5.4754629-0.0007019,9.9127359-4.4380417,9.9134378-9.9135056
		H19.7964611z"/>
</g>
</svg>
