<?xml version="1.0" encoding="utf-8"?>
<!-- Generator: Adobe Illustrator 19.0.1, SVG Export Plug-In . SVG Version: 6.00 Build 0)  -->
<svg version="1.1" id="Layer_1" xmlns="http://www.w3.org/2000/svg" xmlns:xlink="http://www.w3.org/1999/xlink" x="0px" y="0px"
	 width="67.3333359px" height="71.6666641px" viewBox="0 0 67.3333359 71.6666641"
	 style="enable-background:new 0 0 67.3333359 71.6666641;" xml:space="preserve">
<style type="text/css">
	.st0{fill:#71B82F;}
	.st1{fill:#DFD91A;}
	.st2{fill:#373838;}
	.st3{fill:#61D31E;}
	.st4{fill:#E0D919;}
	.st5{fill:none;stroke:#61D31E;stroke-linecap:round;stroke-linejoin:round;stroke-miterlimit:10;}
	.st6{fill:none;stroke:#61D31E;stroke-width:2;stroke-linecap:round;stroke-linejoin:round;stroke-miterlimit:10;}
</style>
<g>
	<path class="st2" d="M47.7555923,42.9484787l0.0143471,17.6163483c0.0059319,4.9480057-4.0317764,9.0110703-8.9727707,9.0440674
		l-0.0576782,0.0002441L10.924262,69.6318054c-4.9480791,0.0059738-9.0112228-4.0317535-9.0442657-8.9727707L1.8799329,60.606739
		l-0.0000319-0.0045166L1.8654714,42.852951c-0.0002398-0.2761269-0.224297-0.4997711-0.5003642-0.4995308
		c-0.2761284,0.0002251-0.4997727,0.2242355-0.4995328,0.5003624l0.0143685,17.7492561L0.879911,60.598526l0.0001717,0.0675659
		c0.0406141,5.4949799,4.5422678,9.9682465,10.0449505,9.9657135l27.8160858-0.0226746l0.0631065-0.0002747
		c5.4949684-0.040657,9.9681931-4.5422363,9.9656715-10.0448456l-0.0143471-17.6163483
		c-0.0002365-0.2761269-0.2242966-0.4997711-0.5003624-0.4995346c-0.2761269,0.0002251-0.4997711,0.2242355-0.4995346,0.5003662
		L47.7555923,42.9484787z"/>
	<path class="st2" d="M14.1972485,23.7391205l24.5056591-0.0199547c0.2761879-0.0002251,0.4998322-0.2242661,0.4995918-0.5004101
		c-0.0001793-0.276144-0.2242355-0.4998188-0.5003662-0.4995937l-24.5056572,0.0199547
		c-0.2761889,0.0002251-0.4998331,0.2242661-0.4995928,0.5004101
		C13.6970625,23.5156708,13.9211197,23.7393456,14.1972485,23.7391205"/>
	<path class="st2" d="M0.949212,27.3935795l23.4711475,32.0469055c0.0947876,0.1294594,0.2466984,0.2057381,0.4071541,0.2045441
		c0.1603966-0.0011787,0.3110905-0.0797424,0.4039803-0.2105751L66.2924805,1.5835729
		c0.1597977-0.225163,0.1068115-0.5372663-0.1183243-0.6970888c-0.2251282-0.1598378-0.537262-0.1068676-0.6970596,0.1182954
		L24.8174019,58.2901649L1.7560359,26.8027115c-0.1631975-0.2227917-0.4760464-0.271122-0.6988382-0.1079407
		c-0.222792,0.163168-0.2711222,0.4760323-0.1079246,0.6988239L0.949212,27.3935795z"/>
</g>
</svg>
