<?xml version="1.0" encoding="utf-8"?>
<!-- Generator: Adobe Illustrator 19.0.1, SVG Export Plug-In . SVG Version: 6.00 Build 0)  -->
<svg version="1.1" id="Layer_1" xmlns="http://www.w3.org/2000/svg" xmlns:xlink="http://www.w3.org/1999/xlink" x="0px" y="0px"
	 width="51.3333321px" height="65.6666641px" viewBox="0 0 51.3333321 65.6666641"
	 style="enable-background:new 0 0 51.3333321 65.6666641;" xml:space="preserve">
<style type="text/css">
	.st0{fill:#71B82F;}
	.st1{fill:#DFD91A;}
	.st2{fill:#373838;}
	.st3{fill:#61D31E;}
	.st4{fill:#E0D919;}
	.st5{fill:none;stroke:#61D31E;stroke-linecap:round;stroke-linejoin:round;stroke-miterlimit:10;}
	.st6{fill:none;stroke:#61D31E;stroke-width:2;stroke-linecap:round;stroke-linejoin:round;stroke-miterlimit:10;}
</style>
<g>
	<path class="st2" d="M9.8859148,35.8246193l2.6114531,3.5720673c0.55721,0.7624817,1.451046,1.2123184,2.3955383,1.2060738
		c0.9441319-0.0062408,1.831501-0.4678879,2.3790112-1.2375565l4.5794735-6.4407463
		c0.941618-1.3246326,0.6315765-3.161972-0.6930103-4.1038151c-1.3249474-0.9418869-3.1621971-0.6316223-4.1038151,0.6930103
		l-2.2144709,3.1140099l-0.2022629-0.2768517c-0.9595804-1.312149-2.8007822-1.5981636-4.1127949-0.6388531
		c-1.3123732,0.9592648-1.5983429,2.8005581-0.6387625,4.1127071L9.8859148,35.8246193z"/>
	<path class="st2" d="M9.8859148,19.8461323l2.6114531,3.5721111c0.55721,0.7624817,1.451046,1.2123184,2.3955383,1.2060757
		c0.9441319-0.0062408,1.831501-0.4678898,2.3790112-1.2375565l4.5794735-6.4407482
		c0.941618-1.3246326,0.6315765-3.161972-0.6930103-4.1038141c-1.3249474-0.9418869-3.1621971-0.6316214-4.1038151,0.6930103
		l-2.2144709,3.1140108l-0.2022629-0.2768993c-0.9595804-1.3121471-2.8007822-1.5981617-4.1127949-0.6388512
		c-1.3123732,0.9592667-1.5983429,2.8005581-0.6387625,4.1127052L9.8859148,19.8461323z"/>
	<path class="st2" d="M9.8859148,51.8030624l2.6114531,3.5720634c0.55721,0.7624817,1.451046,1.2123184,2.3955383,1.2060776
		c0.9441319-0.0062408,1.831501-0.4678879,2.3790112-1.2375565l4.5794735-6.4407043
		c0.941618-1.3246307,0.6315765-3.161972-0.6930103-4.1038132c-1.3249474-0.9418869-3.1621971-0.6316223-4.1038151,0.6930122
		l-2.2144709,3.1139641l-0.2022629-0.2768517c-0.9595804-1.312149-2.8007822-1.5981636-4.1127949-0.638855
		c-1.3123732,0.9592667-1.5983429,2.80056-0.6387625,4.1127052L9.8859148,51.8030624z"/>
	<path class="st2" d="M47.6170769,61.8584938v-2.9430504H6.6583333L6.6586924,6.7512808h20.7831268L27.4414577,23.037384
		c0,0.7749653,0.3139935,1.5330467,0.8618622,2.0810509c0.5478706,0.5480042,1.3059063,0.8619518,2.0811882,0.8619518h14.2895222
		v35.8781052H47.6170769v-2.9430504V61.8584938h2.942688V23.037384c0-0.7749214-0.313633-1.5329132-0.8618584-2.0809631
		c-0.5478706-0.5480499-1.3059082-0.8620853-2.0808296-0.8620853H33.3268356L33.327198,3.8082769
		c0-0.7749212-0.313633-1.5329125-0.8618622-2.0809619c-0.5478706-0.5480494-1.3059063-0.8620866-2.0808277-0.8620866H3.7163625
		c-0.7752807,0-1.5333169,0.3139474-2.0811868,0.8619967c-0.548229,0.5480046-0.8618619,1.3060408-0.8618619,2.0810518v58.0502167
		c0,0.7749634,0.3139923,1.5330467,0.8618619,2.0810509s1.3059061,0.8619537,2.0811868,0.8619537h43.9007149
		c0.7749214,0,1.532959-0.3140411,2.0808296-0.8620872c0.5482254-0.5480499,0.8618584-1.3060417,0.8618584-2.0809174H47.6170769z"/>
	<path class="st2" d="M28.1926689,5.7723904l17.2325706,19.2291069c1.0846024,1.2104778,2.9452019,1.3123722,4.1559067,0.2275906
		c1.2103424-1.0847836,1.3123703-2.9454288,0.2274094-4.1558628L32.575985,1.844119
		c-1.0846004-1.2104778-2.9452019-1.3123727-4.1559048-0.2275904C27.2097359,2.7013106,27.107708,4.5619574,28.1926689,5.7723904"/>
	<path class="st2" d="M25.6667194,38.1642036h14.3311977c1.6252861,0,2.9430466-1.3176727,2.9430466-2.9430504
		c0-1.6254196-1.3177605-2.9430466-2.9430466-2.9430466H25.6667194c-1.6256466,0-2.9430485,1.317627-2.9430485,2.9430466
		C22.723671,36.8465309,24.0410728,38.1642036,25.6667194,38.1642036"/>
	<path class="st2" d="M25.6667194,53.3609428h14.3311977c1.6252861,0,2.9430466-1.3176727,2.9430466-2.9430504
		c0-1.6254196-1.3177605-2.9430466-2.9430466-2.9430466H25.6667194c-1.6256466,0-2.9430485,1.317627-2.9430485,2.9430466
		C22.723671,52.0432701,24.0410728,53.3609428,25.6667194,53.3609428"/>
</g>
</svg>
