<?xml version="1.0" encoding="utf-8"?>
<!-- Generator: Adobe Illustrator 19.0.1, SVG Export Plug-In . SVG Version: 6.00 Build 0)  -->
<svg version="1.1" id="Layer_1" xmlns="http://www.w3.org/2000/svg" xmlns:xlink="http://www.w3.org/1999/xlink" x="0px" y="0px"
	 width="42.3333321px" height="72.3333359px" viewBox="0 0 42.3333321 72.3333359"
	 style="enable-background:new 0 0 42.3333321 72.3333359;" xml:space="preserve">
<style type="text/css">
	.st0{fill:#71B82F;}
	.st1{fill:#DFD91A;}
	.st2{fill:#373838;}
	.st3{fill:#61D31E;}
	.st4{fill:#E0D919;}
	.st5{fill:none;stroke:#61D31E;stroke-linecap:round;stroke-linejoin:round;stroke-miterlimit:10;}
	.st6{fill:none;stroke:#61D31E;stroke-width:2;stroke-linecap:round;stroke-linejoin:round;stroke-miterlimit:10;}
</style>
<g>
	<path class="st2" d="M3.3734732,3.2413101L0.4322208,3.1350143c-0.0140111,0.4167404-0.049937,0.9261696-0.0506555,1.5388405
		c0.0068259,7.8374567,2.1207051,14.9786701,5.7291012,20.3406086c1.8085093,2.6778259,4.003581,4.9169064,6.5482111,6.5132732
		c2.537446,1.5952873,5.4495974,2.5301247,8.5079699,2.5268936c3.0580101,0.003231,5.9701633-0.9316063,8.5076084-2.5268936
		c3.8160458-2.4006119,6.8485508-6.2200279,8.9653034-10.8514137c2.112442-4.6382561,3.3102112-10.1240501,3.3120079-16.0024681
		c-0.0007172-0.6126709-0.036644-1.1221001-0.0506554-1.5388405c-0.0571213-1.5795264-1.3605118-2.8367529-2.9408913-2.8367529
		H3.3734732c-1.580739,0-2.8844895,1.2570019-2.9412522,2.8367529L3.3734732,3.2413101v2.9430037h35.5867462V3.2413101
		l-2.9412537,0.1062508c0.0204773,0.5376308,0.0477829,0.9716158,0.0470619,1.3262939
		c0.0068283,6.7636318-1.8731728,12.841259-4.722456,17.0479565c-1.4205093,2.1064682-3.0698681,3.7391205-4.7946701,4.8184242
		c-1.7316265,1.0803356-3.5131912,1.6251068-5.3820553,1.6283417c-1.8692245-0.0032349-3.6507893-0.5480061-5.3824177-1.6283417
		c-2.5877409-1.6128922-5.0041161-4.4981003-6.7350254-8.3057499C7.3141837,14.4337959,6.2655072,9.7462311,6.2673035,4.6738548
		C6.2665849,4.3191767,6.2938886,3.8851917,6.3143663,3.3475609L3.3734732,3.2413101v2.9430037V3.2413101z"/>
	<path class="st2" d="M24.1098957,67.5775223V31.1116257c0-1.6254234-1.3177624-2.9430485-2.9430485-2.9430485
		c-1.6256466,0-2.9430504,1.317625-2.9430504,2.9430485v36.4658966c0,1.6253738,1.3174038,2.9430466,2.9430504,2.9430466
		C22.7921333,70.5205688,24.1098957,69.2028961,24.1098957,67.5775223"/>
	<path class="st2" d="M9.0267706,72.0350723h24.2801514c1.6252861,0,2.9430466-1.3176727,2.9430466-2.9430466
		c0-1.6254272-1.3177605-2.9430542-2.9430466-2.9430542H9.0267706c-1.6256461,0-2.9430485,1.317627-2.9430485,2.9430542
		C6.0837221,70.7173996,7.4011245,72.0350723,9.0267706,72.0350723"/>
</g>
</svg>
