<?xml version="1.0" encoding="utf-8"?>
<!-- Generator: Adobe Illustrator 19.0.1, SVG Export Plug-In . SVG Version: 6.00 Build 0)  -->
<svg version="1.1" id="Layer_1" xmlns="http://www.w3.org/2000/svg" xmlns:xlink="http://www.w3.org/1999/xlink" x="0px" y="0px"
	 width="71.6666641px" height="61px" viewBox="0 0 71.6666641 61" style="enable-background:new 0 0 71.6666641 61;"
	 xml:space="preserve">
<style type="text/css">
	.st0{fill:#71B82F;}
	.st1{fill:#DFD91A;}
	.st2{fill:#373838;}
	.st3{fill:#61D31E;}
	.st4{fill:#E0D919;}
	.st5{fill:none;stroke:#61D31E;stroke-linecap:round;stroke-linejoin:round;stroke-miterlimit:10;}
	.st6{fill:none;stroke:#61D31E;stroke-width:2;stroke-linecap:round;stroke-linejoin:round;stroke-miterlimit:10;}
</style>
<g>
	<path class="st2" d="M58.0339127,0.9863452v5.8860974c3.9252625,0,7.1377563,3.0048413,7.1611099,6.6608386v21.6329517
		c0.0122147,1.9046135-0.7293015,3.7309036-2.0883751,5.1420746c-1.3350067,1.3860207-3.073101,2.1557312-4.8568192,2.1672287
		H21.2788563c-1.3360844,0-2.6326485,0.4546394-3.6762962,1.2891998L6.471643,52.6662712V13.9458904
		c-0.0247889-3.8753252,3.1079488-7.0484796,6.9455514-7.0730886L57.9814606,6.872622L58.0339127,0.9863452 M58.0339127,0.9863452
		l-0.0876579,0.0003592H13.4171944C6.3142877,1.0321507,0.5402791,6.8807054,0.5855457,13.9834328v41.6702576
		c0.0168852,2.629055,2.2909937,4.3599663,4.6114469,4.3599663c1.1230435,0,2.2568641-0.405426,3.1510596-1.3111153
		l12.9308043-10.3409081h36.9709702c7.1025429-0.0454483,12.8769112-6.1305733,12.8312874-13.2333031V13.5332813
		C71.0362091,6.4600134,65.0980225,0.9863452,58.0339127,0.9863452z"/>
	<path class="st2" d="M21.3183746,18.0031796c0-3.3856544,2.7562351-5.9435778,6.9408817-5.9435778
		c4.1832104,0,6.9394436,2.5579233,6.9394436,5.9435778c0,3.3482933-2.7562332,5.9062157-6.9394436,5.9062157
		C24.0746098,23.9093952,21.3183746,21.3514729,21.3183746,18.0031796z M32.3936081,18.0031796
		c0-2.3768559-1.625288-4.1788988-4.1343517-4.1788988c-2.5593605,0-4.1846466,1.802043-4.1846466,4.1788988
		c0,2.305006,1.6252861,4.1415367,4.1846466,4.1415367C30.7683201,22.1447163,32.3936081,20.3081856,32.3936081,18.0031796z
		 M26.1425037,36.4432182L43.368248,12.4217348h2.362484L28.456131,36.4432182H26.1425037z M36.5279579,31.0054779
		c0-3.3856564,2.7562332-5.9780674,6.9394455-5.9780674c4.1343498,0,6.9394417,2.592411,6.9394417,5.9780674
		c0,3.3482933-2.8050919,5.8688507-6.9394417,5.8688507C39.2841911,36.8743286,36.5279579,34.3537712,36.5279579,31.0054779z
		 M47.6506119,31.0054779c0-2.3768578-1.623848-4.2133884-4.1832085-4.2133884s-4.1832123,1.8365307-4.1832123,4.2133884
		c0,2.3050041,1.6238518,4.1041718,4.1832123,4.1041718S47.6506119,33.310482,47.6506119,31.0054779z"/>
</g>
</svg>
