<?xml version="1.0" encoding="utf-8"?>
<!-- Generator: Adobe Illustrator 19.0.1, SVG Export Plug-In . SVG Version: 6.00 Build 0)  -->
<svg version="1.1" id="Layer_1" xmlns="http://www.w3.org/2000/svg" xmlns:xlink="http://www.w3.org/1999/xlink" x="0px" y="0px"
	 width="81.3333359px" height="72.3333359px" viewBox="0 0 81.3333359 72.3333359"
	 style="enable-background:new 0 0 81.3333359 72.3333359;" xml:space="preserve">
<style type="text/css">
	.st0{fill:#71B82F;}
	.st1{fill:#DFD91A;}
	.st2{fill:#373838;}
	.st3{fill:#61D31E;}
	.st4{fill:#E0D919;}
	.st5{fill:none;stroke:#61D31E;stroke-linecap:round;stroke-linejoin:round;stroke-miterlimit:10;}
	.st6{fill:none;stroke:#61D31E;stroke-width:2;stroke-linecap:round;stroke-linejoin:round;stroke-miterlimit:10;}
</style>
<g>
	<path class="st2" d="M68.8411865,68.7582703v-2.9430466H43.4426613c-1.6166649-0.0008087-3.0741806-0.6554718-4.1544724-1.7316284
		c-1.0763397-1.0802917-1.7309074-2.5379829-1.731987-4.1544685V12.4042969
		c0.0010796-1.6165743,0.6556473-3.0742674,1.731987-4.1545591c1.0802917-1.07616,2.5378075-1.7308192,4.1544724-1.7316275
		h25.3985252c1.6163025,0.0008082,3.074173,0.6554675,4.1544647,1.7316275
		c1.0759811,1.0802021,1.7305527,2.5378942,1.7316284,4.1545591v47.5248299
		c-0.0010757,1.6165733-0.6556473,3.0742683-1.7316284,4.1544685c-1.0802917,1.0761566-2.5381622,1.7308197-4.1544647,1.7316284
		V68.7582703v2.9429626c6.4943237-0.0111389,11.7606964-5.2778778,11.7718353-11.7721062V12.4042969
		C80.6018829,5.9099746,75.3355103,0.6432397,68.8411865,0.6321027H43.4426613
		c-6.4943237,0.0112268-11.7610588,5.2776928-11.7721958,11.7721939v47.5248299
		c0.011137,6.4944115,5.2778721,11.7608757,11.7721958,11.7721062h25.3985252V68.7582703z"/>
	<circle class="st2" cx="48.6741867" cy="29.5973492" r="3.4334369"/>
	<circle class="st2" cx="63.1442375" cy="29.5973492" r="3.4336166"/>
	<path class="st2" d="M43.7706642,40.0285187c3.6784515,1.9972992,7.883934,3.1309433,12.3714371,3.1315727
		c4.4871445-0.0006294,8.6926308-1.1342735,12.3710823-3.1315727c1.1083069-0.6022072,2.4954071-0.1917534,3.0975266,0.9167404
		s0.1914825,2.4952316-0.9168243,3.0974388c-4.325119,2.3502731-9.2907982,3.6860886-14.5517845,3.6854591
		c-5.2609863,0.0006294-10.2270203-1.335186-14.5517807-3.6855469c-1.1086731-0.6021194-1.5189476-1.9888573-0.9168282-3.0973511
		S42.6623497,39.426403,43.7706642,40.0285187z"/>
	<path class="st2" d="M44.4924126,15.6171494h23.299015c1.6252899,0,2.9430542-1.3176718,2.9430542-2.9430485
		c0-1.6254673-1.3177643-2.9430485-2.9430542-2.9430485h-23.299015c-1.6256447,0-2.9430466,1.3175812-2.9430466,2.9430485
		C41.549366,14.2994776,42.8667679,15.6171494,44.4924126,15.6171494"/>
	<path class="st2" d="M44.4924126,62.9516602h23.299015c1.6252899,0,2.9430542-1.3176727,2.9430542-2.9430466
		c0-1.6254692-1.3177643-2.9430504-2.9430542-2.9430504h-23.299015c-1.6256447,0-2.9430466,1.3175812-2.9430466,2.9430504
		C41.549366,61.6339874,42.8667679,62.9516602,44.4924126,62.9516602"/>
	<path class="st2" d="M3.6633627,27.8601532h21.3690777c1.6252861,0,2.9430485-1.3176727,2.9430485-2.9430485
		c0-1.6254673-1.3177624-2.9430485-2.9430485-2.9430485H3.6633627c-1.6256464,0-2.9430487,1.3175812-2.9430487,2.9430485
		C0.720314,26.5424805,2.0377164,27.8601532,3.6633627,27.8601532"/>
	<path class="st2" d="M16.8639698,19.324522l5.6633568,5.6633568l-5.6367702,5.4956722
		c-1.1639996,1.1347179-1.1877108,2.9980164-0.0528126,4.1618347c1.1348991,1.1637268,2.9980164,1.1873512,4.162014,0.0526314
		l7.7704105-7.5765915c0.5625992-0.5488567,0.8834171-1.3022232,0.8884468-2.0885506
		c0.0050297-0.7862377-0.3060875-1.5438251-0.8618622-2.0996876l-7.7707691-7.7707701
		c-1.1496277-1.1492691-3.0127449-1.1490898-4.162014,0.0002699c-1.1492682,1.1492691-1.1492682,3.0126553,0.0003605,4.1619244
		L16.8639698,19.324522z"/>
	<path class="st2" d="M3.6633627,52.9855499h21.3690777c1.6252861,0,2.9430485-1.3176727,2.9430485-2.9430466
		c0-1.6254692-1.3177624-2.9430504-2.9430485-2.9430504H3.6633627c-1.6256464,0-2.9430487,1.3175812-2.9430487,2.9430504
		C0.720314,51.6678772,2.0377164,52.9855499,3.6633627,52.9855499"/>
	<path class="st2" d="M16.8639698,44.4499168l5.6629982,5.6630898l-5.6364117,5.4957619
		c-1.1639996,1.1347198-1.1877108,2.9980164-0.0528126,4.1619225c1.1345406,1.1638222,2.9980164,1.1874428,4.162014,0.0527229
		l7.7704105-7.5764999c0.5629597-0.5488586,0.8834171-1.3023148,0.8884468-2.0886421
		c0.0050297-0.7862358-0.3060875-1.5438232-0.8618622-2.0996857l-7.7707691-7.770771
		c-1.1496277-1.1492691-3.0127449-1.1490898-4.162014,0.0002708c-1.1492682,1.1492691-1.1492682,3.0126534,0.0003605,4.1619225
		L16.8639698,44.4499168z"/>
</g>
</svg>
