<?xml version="1.0" encoding="utf-8"?>
<!-- Generator: Adobe Illustrator 19.0.1, SVG Export Plug-In . SVG Version: 6.00 Build 0)  -->
<svg version="1.1" id="Layer_1" xmlns="http://www.w3.org/2000/svg" xmlns:xlink="http://www.w3.org/1999/xlink" x="0px" y="0px"
	 width="71.6666641px" height="60.3333321px" viewBox="0 0 71.6666641 60.3333321"
	 style="enable-background:new 0 0 71.6666641 60.3333321;" xml:space="preserve">
<style type="text/css">
	.st0{fill:#71B82F;}
	.st1{fill:#DFD91A;}
	.st2{fill:#373838;}
	.st3{fill:#61D31E;}
	.st4{fill:#E0D919;}
	.st5{fill:none;stroke:#61D31E;stroke-linecap:round;stroke-linejoin:round;stroke-miterlimit:10;}
	.st6{fill:none;stroke:#61D31E;stroke-width:2;stroke-linecap:round;stroke-linejoin:round;stroke-miterlimit:10;}
</style>
<g>
	<path class="st2" d="M58.0337334,0.6529221v5.886097c3.9252625,0,7.1377602,3.0050206,7.1614647,6.6608396v21.6325912
		c0.0251541,3.938015-3.1726112,7.2854118-6.945549,7.3096619H21.2786789c-1.3360844,0-2.6326485,0.4546394-3.6762962,1.2891998
		L6.4714656,52.33321V13.6124668C6.4466767,9.7371416,9.5794134,6.5639877,13.417017,6.5393786l44.56427-0.0001798
		L58.0337334,0.6529221 M58.0337334,0.6529221l-0.0876579,0.0003592H13.417017
		C6.3141098,0.6987275,0.5401015,6.5472822,0.5853682,13.6500101v41.6702576
		c0.0168852,2.629055,2.2909937,4.3601456,4.6114469,4.3601456c1.1234026,0,2.2572236-0.4056053,3.1514192-1.3111153
		l12.9304447-10.3410873H58.249649c7.1029053-0.0454483,12.876915-6.1305733,12.8316498-13.2332993V13.1998587
		C71.0360336,6.1265903,65.0978394,0.6529221,58.0337334,0.6529221z"/>
	<g>
		<path class="st2" d="M19.4425068,37.3363953V17.0957508l-3.7104254,3.9619064l-1.7273169-1.8006039l5.7625122-5.9435797h2.5205593
			v24.0229225H19.4425068z"/>
		<path class="st2" d="M26.7167797,37.3363953v-2.3409309c7.8519611-9.04039,10.5535908-11.957571,10.5535908-15.4869308
			c0-2.5564861-1.8020439-3.9978323-3.8541298-3.9978323c-2.2705173,0-3.9259815,1.1165762-5.0784836,3.0249605l-1.8738956-1.728754
			c1.5864887-2.4487085,3.9259815-3.8526926,6.9868679-3.8526926c3.6759377,0,6.7368202,2.3768568,6.7368202,6.5543184
			c0,4.0337582-3.0263939,7.6349697-9.4010849,15.2713776h9.5074272v2.5564842H26.7167797z"/>
		<path class="st2" d="M43.4639931,33.7711105l1.8738937-1.6928291c1.115139,1.8006058,2.8826904,3.13274,5.1503334,3.13274
			c2.9171829,0,4.3570938-1.8006058,4.3570938-4.5740852c0-3.2764397-2.1239395-4.3570919-4.5726471-4.3570919
			c-0.7558823,0-1.5864868,0-1.9083862,0.0359268v-2.5938492c0.3218994,0.0373631,1.2243576,0.0373631,1.8365326,0.0373631
			c2.4113464,0,4.3570938-1.2976437,4.3570938-4.0351963c0-2.8453293-1.7273178-4.2133875-4.1415367-4.2133875
			c-2.1239395,0-3.6385765,1.1165762-4.8629303,2.8453302l-1.7991676-1.6209755
			c1.4399109-2.3050051,3.8541298-3.7808409,6.8431625-3.7808409c3.8886185,0,6.8058014,2.1239386,6.8058014,6.3746901
			c0,2.9890327-2.0894508,5.0770454-4.2852402,5.5828819c2.1239395,0.3233337,4.6100082,2.4846344,4.6100082,5.9421425
			c0,3.9978313-2.5579224,6.9150143-7.1305695,6.9150143C47.1744156,37.7689438,44.6883469,35.968338,43.4639931,33.7711105z"/>
	</g>
</g>
</svg>
