<?xml version="1.0" encoding="utf-8"?>
<!-- Generator: Adobe Illustrator 19.0.1, SVG Export Plug-In . SVG Version: 6.00 Build 0)  -->
<svg version="1.1" id="Layer_1" xmlns="http://www.w3.org/2000/svg" xmlns:xlink="http://www.w3.org/1999/xlink" x="0px" y="0px"
	 width="42.3333321px" height="83.3333359px" viewBox="0 0 42.3333321 83.3333359"
	 style="enable-background:new 0 0 42.3333321 83.3333359;" xml:space="preserve">
<style type="text/css">
	.st0{fill:#71B82F;}
	.st1{fill:#DFD91A;}
	.st2{fill:#373838;}
	.st3{fill:#61D31E;}
	.st4{fill:#E0D919;}
	.st5{fill:none;stroke:#61D31E;stroke-linecap:round;stroke-linejoin:round;stroke-miterlimit:10;}
	.st6{fill:none;stroke:#61D31E;stroke-width:2;stroke-linecap:round;stroke-linejoin:round;stroke-miterlimit:10;}
</style>
<g>
	<path class="st2" d="M38.8154373,21.5144005l-2.9430466-0.0185032c0.009697,1.8089581-0.7641449,5.3844833-2.0707703,9.367136
		c-1.9464645,6.0151634-5.0148945,13.1917152-7.9389019,18.736248c-1.4567947,2.7691689-2.890955,5.1427917-4.0506439,6.6951485
		c-0.572298,0.7732162-1.0871162,1.3389587-1.3892536,1.5987015l-0.1684914,0.1352615l-0.0348492,0.0236206l0.7016335,1.2295647
		v-1.37677c-0.491827,0.0083542-0.6919327,0.1473846-0.7016335,0.1472054l0.7016335,1.2295647v-1.37677h0.018322
		l-0.0107784,1.7024384l0.6067886-1.5994225c-0.1070595-0.0400543-0.3068066-0.100502-0.5960102-0.1030159l-0.0107784,1.7024384
		l0.6067886-1.5994225l-0.3262081,0.8603363l0.4293156-0.8148003l-0.1031075-0.045536l-0.3262081,0.8603363l0.4293156-0.8148003
		l-0.1562786,0.2963905l0.1713676-0.2879448l-0.015089-0.0084457l-0.1562786,0.2963905l0.1713676-0.2879448l-0.1092148-0.0823631
		c-0.2942333-0.2310905-0.9380245-0.93964-1.6382217-1.943409c-1.248064-1.7645912-2.773119-4.4355888-4.2974539-7.5093193
		c-2.2935085-4.6158485-4.6200686-10.1691818-6.3459482-15.2245827c-0.8636589-2.5263977-1.5775061-4.9308281-2.0653796-7.0085106
		c-0.491107-2.0703201-0.7418694-3.8405685-0.7364807-4.932085v-0.0229034l-2.1853714,0.0043106l2.1803417,0.1412792
		l0.0050297-0.1455898l-2.1853714,0.0043106l2.1803417,0.1412792l0.0061078-0.1719952
		C6.5101624,13.2232437,13.088192,6.6966782,21.16469,6.6985641l0.0711346,0.0002694l0.0229912,0.0002694
		c8.0887146,0.0482306,14.6153717,6.6262603,14.613575,14.70294v0.140379L38.8154373,21.5144005l-2.9430466-0.0185032
		L38.8154373,21.5144005l2.9426918-0.0281124v-0.0842457C41.7563324,10.0876331,32.6250496,0.886115,21.2958202,0.8130956
		l0.0229931,0.0002695L21.16469,0.8125567C9.8501921,0.8144428,0.6488539,9.9461746,0.5762836,21.2756729l2.9430485,0.018322
		L0.582391,21.1036777L0.5752059,21.361536c0.0201185,3.0663643,0.9171879,6.8623829,2.2475235,11.1821995
		c2.0082572,6.4400749,5.0633945,13.8231163,8.0818872,19.727356c1.5142765,2.9554405,3.006279,5.5283623,4.4328957,7.4946785
		c0.7206736,0.9862556,1.4140425,1.8228798,2.1990232,2.5289116c0.3966217,0.3523445,0.8183918,0.6775627,1.344347,0.9588623
		c0.5223618,0.274025,1.1794472,0.5269432,2.0215492,0.5372734h0.0186825
		c1.1266346-0.0166168,1.9008389-0.420784,2.5187626-0.8115692c1.1438808-0.7659378,1.9813137-1.730011,2.9099979-2.9260712
		c1.5864868-2.0860367,3.2606335-4.9086456,4.9624424-8.1729584c2.5435524-4.8894234,5.1014748-10.7322311,7.0576401-16.1863213
		c0.9779015-2.728302,1.8045578-5.3565483,2.4005661-7.742836c0.5924187-2.3947296,0.9692841-4.5174999,0.987606-6.4182491
		v-0.046524L38.8154373,21.5144005z"/>
	<path class="st2" d="M29.706789,21.4574566l-2.9430485-0.0185013c-0.0172443,3.0775909-2.5230751,5.5634823-5.5958157,5.5615959
		l-0.0538902-0.0000896h0.018322c-3.0781288-0.0169735-5.5642004-2.5231647-5.5624046-5.5952759v-0.0246105l-2.307519,0.0084438
		l2.3032084,0.1389427l0.0043106-0.1473866l-2.307519,0.0084438l2.3032084,0.1389427l0.0050297-0.1589718
		c0.0168848-3.0777702,2.5227165-5.563303,5.5954571-5.5615072v-0.1125374l-0.0021553,0.1122684l0.0021553,0.0002689v-0.1125374
		l-0.0021553,0.1122684l0.0380802,0.0005388c3.0774117,0.0168848,5.5631237,2.5227146,5.561327,5.5950966l-0.0003586,0.0272141
		l0.0028744,0.1427155L29.706789,21.4574566l-2.9430485-0.0185013L29.706789,21.4574566l2.9405346-0.1154118l-2.2428532,0.0880184
		h2.2446499l-0.0017967-0.0880184l-2.2428532,0.0880184h2.2446499v-0.0272141
		c-0.0017967-6.310112-5.0921364-11.4394302-11.4100628-11.4811039l-0.018322,2.9430485l0.0564041-2.9425097l-0.1110115-0.0008087
		C14.8553867,9.9232721,9.7262478,15.0141497,9.6849327,21.3326149l2.9430485,0.0182323l-2.9380188-0.1772041l-0.0061073,0.1895981
		l0.0003595,0.0419445c0.0017958,6.3105602,5.0932131,11.4395218,11.4111395,11.4812851h0.0186806l0.0538902,0.0000877
		c6.3100224-0.0018845,11.4398785-5.0924034,11.481554-11.4106884l-0.0021553-0.1338253L29.706789,21.4574566z"/>
	<path class="st2" d="M36.5449219,74.2522507h-2.9430466h0.766655l-0.6804352-0.3898849l-0.0862198,0.3898849h0.766655
		l-0.6804352-0.3898849l0.0186806,0.0106888l-0.017601-0.0124817l-0.0010796,0.0017929l0.0186806,0.0106888l-0.017601-0.0124817
		c-0.0154495,0.040596-0.3344727,0.3758774-0.9689217,0.7147446c-0.9444923,0.5237961-2.5187645,1.0753555-4.4418774,1.4513168
		c-1.9259872,0.3818054-4.2083588,0.6086731-6.6448517,0.6081314c-3.8286228,0.0061111-7.2947521-0.5739136-9.5541306-1.3883514
		c-1.1266356-0.3959961-1.9385614-0.8656387-2.2870417-1.1699295l-0.1807079-0.1734314L9.5753593,73.857338l-0.6110992,0.3948288
		l0.7005539,0.0000839L9.5753593,73.857338l-0.6110992,0.3948288l0.7005539,0.0000839H8.8988743l0.679718,0.389801
		l0.0862217-0.389801H8.8988743l0.679718,0.389801l-0.0190411-0.0107803l0.0179634,0.0126648l0.0010777-0.0018845
		l-0.0190411-0.0107803l0.0179634,0.0126648c0.0154476-0.040596,0.3344698-0.3758774,0.9689207-0.7148361
		c0.9444923-0.5237122,2.5187645-1.075264,4.4418774-1.4512253c1.9259863-0.3818054,4.2083578-0.6086731,6.6452112-0.608139
		c3.8282623-0.0061035,7.2943916,0.5739212,9.5537701,1.3883591c1.1266365,0.3959961,1.9385605,0.8656311,2.2870407,1.169838
		l0.1807098,0.1735229l0.0362854,0.0456238l0.6107407-0.3949127l-0.7001953,0.0000839l0.0894547,0.3948288l0.6107407-0.3949127
		l-0.7001953,0.0000839H36.5449219h2.942688c0.0035934-0.9300308-0.2777061-1.821167-0.6922913-2.5364532
		c-0.7389946-1.2613602-1.7754555-2.079567-2.9179001-2.7622528c-1.7273178-1.0069122-3.8189201-1.7031555-6.229908-2.2041397
		c-2.4073925-0.4936218-5.1248264-0.7650452-8.0139866-0.7656708c-4.4070282,0.0061035-8.3965988,0.6181946-11.5340061,1.7311783
		C8.527401,68.2827225,7.1557503,68.96064,5.9949851,69.9306412c-0.5769696,0.4889526-1.1079545,1.0630417-1.5236168,1.7851562
		c-0.4145846,0.7152863-0.6958845,1.6064224-0.692292,2.5364532c-0.0035925,0.9299469,0.2777073,1.8209991,0.692292,2.5363693
		c0.7389956,1.2613602,1.7750978,2.0796585,2.9179006,2.7623444c1.7273169,1.0069122,3.818922,1.7031555,6.229908,2.2041397
		c2.4073944,0.4936218,5.1248283,0.7650452,8.0143471,0.7656708c4.4066696-0.0061951,8.3962383-0.6181946,11.5336475-1.7312698
		c1.5721169-0.5677185,2.9437675-1.245636,4.1045303-2.2157288c0.5769691-0.488945,1.1079559-1.0630417,1.5236168-1.7851562
		c0.4145851-0.7153702,0.6958847-1.6064224,0.6922913-2.5363693H36.5449219z"/>
</g>
</svg>
