<?xml version="1.0" encoding="utf-8"?>
<!-- Generator: Adobe Illustrator 19.0.1, SVG Export Plug-In . SVG Version: 6.00 Build 0)  -->
<svg version="1.1" id="Layer_1" xmlns="http://www.w3.org/2000/svg" xmlns:xlink="http://www.w3.org/1999/xlink" x="0px" y="0px"
	 width="73.6666641px" height="64.6666641px" viewBox="0 0 73.6666641 64.6666641"
	 style="enable-background:new 0 0 73.6666641 64.6666641;" xml:space="preserve">
<style type="text/css">
	.st0{fill:#71B82F;}
	.st1{fill:#DFD91A;}
	.st2{fill:#373838;}
	.st3{fill:#61D31E;}
	.st4{fill:#E0D919;}
	.st5{fill:none;stroke:#61D31E;stroke-linecap:round;stroke-linejoin:round;stroke-miterlimit:10;}
	.st6{fill:none;stroke:#61D31E;stroke-width:2;stroke-linecap:round;stroke-linejoin:round;stroke-miterlimit:10;}
</style>
<g>
	<path class="st2" d="M27.1227455,14.1415644h17.6697884c2.8187447,0.0180082,5.1097374,2.3388205,5.0917778,5.1572962V35.834198
		c-0.0097008,1.5482254-1.9924507,2.3115616-3.0802879,1.2098503l-5.1309357-4.1034546H27.0023937
		c-2.8183861-0.018055-5.1097393-2.4326763-5.0917759-5.2511978v-8.5691776
		C21.9289398,16.3017426,24.3043594,14.1235123,27.1227455,14.1415644z"/>
	<path class="st2" d="M61.3877792,46.7942886v-2.9430504h-49.108532c-1.6166649-0.0007629-3.0741777-0.6554222-4.1544695-1.7315826
		c-1.0763397-1.0802917-1.7309093-2.5379829-1.731987-4.1545143V12.3916149
		c0.0010777-1.6165752,0.6556473-3.0742683,1.731987-4.1545601c1.0802917-1.0761595,2.5378046-1.7308187,4.1544695-1.7315822
		h49.108532c1.6163063,0.0007634,3.0741806,0.6554227,4.1544724,1.7315822
		c1.0759735,1.0802469,1.730545,2.5378952,1.7316208,4.1545601v25.5735264
		c-0.0010757,1.6165771-0.6556473,3.0742683-1.7316208,4.1545143c-1.0802917,1.0761604-2.538166,1.7308197-4.1544724,1.7315826
		V46.7942886v2.9430046c6.4943237-0.0111847,11.7606964-5.2778282,11.7718353-11.7721519V12.3916149
		C73.1484756,5.8972473,67.882103,0.630602,61.3877792,0.6194201h-49.108532
		C5.7849245,0.6306918,0.5181897,5.8971124,0.5070527,12.3916149v25.5735264
		c0.011137,6.4944572,5.2778721,11.7608795,11.7721949,11.7721519h49.108532V46.7942886z"/>
	<path class="st2" d="M45.0515594,61.1042442v-2.9430504H28.6154671v1.5098305h1.5092449
		c-0.0114956-0.8509483-0.6595993-1.4984245-1.5092449-1.5098305v1.5098305h1.5092449v-1.1101532h-1.5092449v1.5097847
		c0.8496456-0.0114059,1.4977493-0.6588821,1.5092449-1.5097847h-1.5092449v1.5097847h16.4360924v-1.5098305l-1.5096054,0.0000458
		c0.0107765,0.8499146,0.6603165,1.4988251,1.5096054,1.5097847v-1.5098305l-1.5096054,0.0000458v1.1101532h1.5096054v-1.5098305
		c-0.8492889,0.0109596-1.4988289,0.6598701-1.5096054,1.5098305h1.5096054v-1.5098305V61.1042442v2.9430046
		c2.426075-0.0109634,4.3653564-1.949791,4.376133-4.3762245v-1.1101532
		c-0.0107765-2.4264793-1.950058-4.3653107-4.376133-4.3762665H28.6154671
		c-2.4264355,0.0114059-4.364996,1.9487991-4.3764915,4.3762665v1.1101532
		c0.0114956,2.4274216,1.9500561,4.3648186,4.3764915,4.3762245h16.4360924V61.1042442z"/>
	<path class="st2" d="M29.2039318,49.3694572v7.758194c0,1.6253777,1.3174038,2.9430504,2.9430485,2.9430504
		c1.6252861,0,2.9430504-1.3176727,2.9430504-2.9430504v-7.758194c0-1.6254234-1.3177643-2.9430504-2.9430504-2.9430504
		C30.5213356,46.4264069,29.2039318,47.7440338,29.2039318,49.3694572"/>
	<path class="st2" d="M38.5773544,49.3694572v7.758194c0,1.6253777,1.3174019,2.9430504,2.9430504,2.9430504
		c1.6252861,0,2.9430466-1.3176727,2.9430466-2.9430504v-7.758194c0-1.6254234-1.3177605-2.9430504-2.9430466-2.9430504
		C39.8947563,46.4264069,38.5773544,47.7440338,38.5773544,49.3694572"/>
</g>
</svg>
