<?xml version="1.0" encoding="utf-8"?>
<!-- Generator: Adobe Illustrator 19.0.1, SVG Export Plug-In . SVG Version: 6.00 Build 0)  -->
<svg version="1.1" id="Layer_1" xmlns="http://www.w3.org/2000/svg" xmlns:xlink="http://www.w3.org/1999/xlink" x="0px" y="0px"
	 width="73.3333359px" height="30px" viewBox="0 0 73.3333359 30" style="enable-background:new 0 0 73.3333359 30;"
	 xml:space="preserve">
<style type="text/css">
	.st0{fill:#71B82F;}
	.st1{fill:#DFD91A;}
	.st2{fill:#373838;}
	.st3{fill:#61D31E;}
	.st4{fill:#E0D919;}
	.st5{fill:none;stroke:#61D31E;stroke-linecap:round;stroke-linejoin:round;stroke-miterlimit:10;}
	.st6{fill:none;stroke:#61D31E;stroke-width:2;stroke-linecap:round;stroke-linejoin:round;stroke-miterlimit:10;}
</style>
<g>
	<path class="st2" d="M11.2298813,15.0000229H3.679338c-1.9403572,0-3.5275629-1.5875206-3.5275629-3.527833V3.9217813
		c0-1.9402673,1.5872056-3.5277872,3.5275629-3.5277872h7.5505433c1.9403572,0,3.5275631,1.58752,3.5275631,3.5277872v7.5504084
		C14.7574444,13.4125023,13.1702385,15.0000229,11.2298813,15.0000229z"/>
	<path class="st2" d="M25.8359108,29.6060066h-7.5505447c-1.9403572,0-3.5279217-1.5875206-3.5279217-3.5277882v-7.5504093
		c0-1.9403114,1.5875645-3.5277863,3.5279217-3.5277863h7.5505447c1.9403572,0,3.5275612,1.5874748,3.5275612,3.5277863v7.5504093
		C29.363472,28.018486,27.776268,29.6060066,25.8359108,29.6060066z"/>
	<path class="st2" d="M40.4419403,15.0000229h-7.5505447c-1.9403572,0-3.5279236-1.5875206-3.5279236-3.527833V3.9217813
		c0-1.9402673,1.5875664-3.5277872,3.5279236-3.5277872h7.5505447c1.9403534,0,3.5275612,1.58752,3.5275612,3.5277872v7.5504084
		C43.9695015,13.4125023,42.3822937,15.0000229,40.4419403,15.0000229z"/>
	<path class="st2" d="M55.047966,29.6060066h-7.5505409c-1.9403572,0-3.5279236-1.5875206-3.5279236-3.5277882v-7.5504093
		c0-1.9403114,1.5875664-3.5277863,3.5279236-3.5277863h7.5505409c1.9399986,0,3.527565,1.5874748,3.527565,3.5277863v7.5504093
		C58.575531,28.018486,56.9879646,29.6060066,55.047966,29.6060066z"/>
	<path class="st2" d="M69.6539917,15.0000229h-7.5505409c-1.9403572,0-3.5279198-1.5875206-3.5279198-3.527833V3.9217813
		c0-1.9402673,1.5875626-3.5277872,3.5279198-3.5277872h7.5505409c1.9400024,0,3.527565,1.58752,3.527565,3.5277872v7.5504084
		C73.1815567,13.4125023,71.5939941,15.0000229,69.6539917,15.0000229z"/>
</g>
</svg>
