<?xml version="1.0" encoding="utf-8"?>
<!-- Generator: Adobe Illustrator 19.0.1, SVG Export Plug-In . SVG Version: 6.00 Build 0)  -->
<svg version="1.1" id="Layer_1" xmlns="http://www.w3.org/2000/svg" xmlns:xlink="http://www.w3.org/1999/xlink" x="0px" y="0px"
	 width="50.3333321px" height="72px" viewBox="0 0 50.3333321 72" style="enable-background:new 0 0 50.3333321 72;"
	 xml:space="preserve">
<style type="text/css">
	.st0{fill:#71B82F;}
	.st1{fill:#DFD91A;}
	.st2{fill:#373838;}
	.st3{fill:#61D31E;}
	.st4{fill:#E0D919;}
	.st5{fill:none;stroke:#61D31E;stroke-linecap:round;stroke-linejoin:round;stroke-miterlimit:10;}
	.st6{fill:none;stroke:#61D31E;stroke-width:2;stroke-linecap:round;stroke-linejoin:round;stroke-miterlimit:10;}
</style>
<g>
	<path class="st2" d="M37.8659286,68.5915604v-2.9430466H12.4677639c-1.6166649-0.0007629-3.0745373-0.655426-4.154829-1.7315865
		c-1.0759802-1.080246-1.7305498-2.5379372-1.7316275-4.1545143V12.2376308
		c0.0010777-1.6166201,0.6556473-3.0743132,1.7316275-4.1545591c1.0802917-1.0761604,2.5381641-1.7308197,4.154829-1.7315831
		h25.3981647c1.6163063,0.0007634,3.0741768,0.6554227,4.1544685,1.7315831
		c1.0759811,1.080246,1.7305527,2.5379391,1.7316284,4.1545591V59.762413
		c-0.0010757,1.6165771-0.6556473,3.0742683-1.7316284,4.1545143c-1.0802917,1.0761604-2.5381622,1.7308235-4.1544685,1.7315865
		V68.5915604v2.9430008c6.4943237-0.0111771,11.7607002-5.2778244,11.7718353-11.7721481V12.2376308
		C49.6266289,5.7433081,44.3602524,0.476618,37.8659286,0.4654361H12.4677639
		C5.9730821,0.476618,0.7067063,5.7433081,0.6955693,12.2376308V59.762413
		c0.011137,6.4943237,5.2775126,11.7609711,11.7721949,11.7721481h25.3981647V68.5915604z"/>
	<circle class="st2" cx="17.6989326" cy="29.4306374" r="3.4334369"/>
	<circle class="st2" cx="32.1689796" cy="29.4306374" r="3.4336166"/>
	<path class="st2" d="M12.7957668,39.8618546c3.678093,1.9972992,7.8835773,3.1308937,12.3710804,3.1315231
		c4.4871426-0.0006294,8.6929855-1.1342239,12.3710785-3.1315231c1.1086731-0.6022072,2.4954109-0.1917572,3.0975304,0.9167366
		c0.6021156,1.108448,0.1914825,2.4952316-0.9168282,3.0973969c-4.3247604,2.3502693-9.2907944,3.6861763-14.5517807,3.6855469
		c-5.2609882,0.0006294-10.2270231-1.3352776-14.5517817-3.6855927c-1.1086721-0.6021614-1.5189457-1.988903-0.9168282-3.0973511
		C10.300355,39.6700974,11.6870947,39.2596893,12.7957668,39.8618546z"/>
	<path class="st2" d="M13.5171595,15.4504824h23.2993736c1.6252899,0,2.9430504-1.3176718,2.9430504-2.9430485
		c0-1.6254215-1.3177605-2.9430485-2.9430504-2.9430485H13.5171595c-1.6256466,0-2.9430494,1.317627-2.9430494,2.9430485
		C10.57411,14.1328106,11.8915129,15.4504824,13.5171595,15.4504824"/>
	<path class="st2" d="M13.5171595,62.7849922h23.2993736c1.6252899,0,2.9430504-1.3176689,2.9430504-2.9430466
		c0-1.6254234-1.3177605-2.9430504-2.9430504-2.9430504H13.5171595c-1.6256466,0-2.9430494,1.317627-2.9430494,2.9430504
		C10.57411,61.4673233,11.8915129,62.7849922,13.5171595,62.7849922"/>
</g>
</svg>
