<?xml version="1.0" encoding="utf-8"?>
<!-- Generator: Adobe Illustrator 19.0.1, SVG Export Plug-In . SVG Version: 6.00 Build 0)  -->
<svg version="1.1" id="Layer_1" xmlns="http://www.w3.org/2000/svg" xmlns:xlink="http://www.w3.org/1999/xlink" x="0px" y="0px"
	 width="85.6666641px" height="65px" viewBox="0 0 85.6666641 65" style="enable-background:new 0 0 85.6666641 65;"
	 xml:space="preserve">
<style type="text/css">
	.st0{fill:#71B82F;}
	.st1{fill:#DFD91A;}
	.st2{fill:#373838;}
	.st3{fill:#61D31E;}
	.st4{fill:#E0D919;}
	.st5{fill:none;stroke:#61D31E;stroke-linecap:round;stroke-linejoin:round;stroke-miterlimit:10;}
	.st6{fill:none;stroke:#61D31E;stroke-width:2;stroke-linecap:round;stroke-linejoin:round;stroke-miterlimit:10;}
</style>
<g>
	<path class="st2" d="M20.9133339,28.0319881c-2.2590199,2.2590199-0.6912155,5.6360531,1.1438789,7.5760517l6.4321709-6.4321728
		C26.4947796,27.2358704,23.2513905,25.6924934,20.9133339,28.0319881z"/>
	<path class="st2" d="M84.527298,1.3482146c-0.5478668-0.5480494-1.3059006-0.8618621-2.0811844-0.8618621H3.2205524
		c-0.7749212,0-1.5329574,0.3138126-2.0808272,0.8618621C0.5914962,1.896264,0.2775039,2.6543002,0.2775039,3.4294012v58.1413765
		c0,0.7749214,0.3139923,1.532959,0.8622213,2.0810089c0.5478698,0.5480499,1.3059061,0.8618622,2.0808272,0.8618622h79.225563
		c0.7752838,0,1.532959-0.3138123,2.0811844-0.8618622c0.5478745-0.5480499,0.8618622-1.3060875,0.8618622-2.0810089V3.4294012
		C85.3891602,2.6543002,85.0751724,1.896264,84.527298,1.3482146z M42.384079,4.0105023l9.4097099,16.2672424l-1.9673004,1.9658642
		l-13.0497208-7.5760508l7.548748,13.0770216l-1.9414368,1.9399986l-16.2672405-9.409708l1.994606-1.9917316l12.7565632,7.7599926
		l-7.5473099-12.9706831l1.8063545-1.8077908L48.1236,18.7861004L40.3894768,6.0022335L42.384079,4.0105023z M31.6781654,37.8411903
		c1.1165771-1.1180115,1.7014503-2.8165894,1.4887695-4.6243782l2.1253738,0.1063385
		c0.2399864,2.3107529-0.4512291,4.5439072-2.1785431,6.271225c-3.4287682,3.4287643-8.3190002,2.6843796-12.253603-1.2502213
		c-3.7204838-3.7190475-4.7580242-8.6911907-1.5160713-11.9331436c3.3755951-3.3770332,8.1077538-2.0463371,11.8555412,1.7014503
		l0.5848732,0.5863113l-8.3189983,8.3175621C26.1240234,39.5167732,29.3918419,40.1260796,31.6781654,37.8411903z
		 M6.1636014,6.3722701h29.7638779L6.1636014,36.1359711V6.3722701z M2.7377086,43.6554375l1.8868275-1.8882637l1.8350945,1.8365288
		c-0.3721924-1.8595238,0.0258665-4.3340988,1.5663686-5.8745995c2.1799831-2.1785469,4.4145727-2.0722046,6.7267628,0.2414207
		l9.6741238,9.6741219l-1.9141312,1.9112587l-9.143857-9.1424179c-1.7000132-1.7014503-3.0824413-1.5405045-4.3585291-0.2644157
		c-1.2487836,1.247345-1.4355984,3.4000244-0.9570656,5.0497437l9.409708,9.4097061l-1.8868275,1.8853912L2.7377086,43.6554375z
		 M79.503067,58.6277313H17.3157158L69.5709915,6.3722701h9.9320755V58.6277313z"/>
</g>
</svg>
