<?xml version="1.0" encoding="utf-8"?>
<!-- Generator: Adobe Illustrator 19.0.1, SVG Export Plug-In . SVG Version: 6.00 Build 0)  -->
<svg class="icon_logo_small" version="1.1" id="Layer_1" xmlns="http://www.w3.org/2000/svg" xmlns:xlink="http://www.w3.org/1999/xlink" x="0px" y="0px"
	 width="131.5px" height="30.5px" viewBox="0 0 131.5 30.5" style="enable-background:new 0 0 131.5 30.5;" xml:space="preserve">
<style type="text/css">
	.icon_logo_small .st0{fill:#71B82F;}
	.icon_logo_small .st1{fill:#DFD91A;}
	.icon_logo_small .st2{fill:#373838;}
	.icon_logo_small .st3{fill:#61D31E;}
	.icon_logo_small .st4{fill:#E0D919;}
	.icon_logo_small .st5{fill:none;stroke:#61D31E;stroke-linecap:round;stroke-linejoin:round;stroke-miterlimit:10;}
	.icon_logo_small .st6{fill:none;stroke:#61D31E;stroke-width:2;stroke-linecap:round;stroke-linejoin:round;stroke-miterlimit:10;}
</style>
<g>
	<path class="st2" d="M37.75,13.7653599c0-3.4694643,1.7345543-5.9846396,4.4926529-5.9846396
		c1.7523117,0,2.7580986,1.0579934,3.3831635,2.2552056l-1.1450043,0.5376978
		c-0.4687996-0.9368877-1.2316628-1.5612421-2.2381592-1.5612421c-1.8730621,0-3.0699196,2.0122824-3.0699196,4.7529783
		s1.1968575,4.7529793,3.0699196,4.7529793c1.0583496,0,1.8219223-0.7284145,2.2552071-1.7171535l1.1620522,0.5376987
		C45.0185089,18.6223965,44.0297699,19.75,42.2426529,19.75C39.4845543,19.75,37.75,17.2174225,37.75,13.7653599z"/>
	<path class="st2" d="M47.3269882,19.5418816V7.971436h1.2316589v11.570446H47.3269882z"/>
	<path class="st2" d="M55.3768272,19.5418816v-1.1624069C54.8732224,19.1082439,53.9888992,19.75,52.948307,19.75
		c-1.4227333,0-2.098938-0.7110119-2.098938-2.2378025v-6.3490248h1.2316628v5.9849958
		c0,1.110199,0.5199394,1.4916306,1.3353653,1.4916306c0.8324699,0,1.5960464-0.6069508,1.9604301-1.3009148v-6.1757116h1.2487068
		v8.3787088H55.3768272z"/>
	<path class="st2" d="M58.9169655,19.5418816V7.971436h1.2316628v4.4063516
		c0.520649-0.9368868,1.3531227-1.4227324,2.2033539-1.4227324c1.8908157,0,3.0010223,1.8041639,3.0010223,4.4063511
		c0,2.6366367-1.1102066,4.3885937-3.0010223,4.3885937c-0.8850365,0-1.7175102-0.5550995-2.2033539-1.4049759v1.1968575H58.9169655
		z M62.0394478,18.6397991c1.3701706,0,2.0122795-1.4745846,2.0122795-3.2783928
		c0-1.8215666-0.6421089-3.2961512-2.0122795-3.2961512c-0.7806206,0-1.5612411,0.6591587-1.8908195,1.387928v3.8334932
		C60.4782066,18.0154457,61.2588272,18.6397991,62.0394478,18.6397991z"/>
	<path class="st2" d="M71.0446396,19.5418816V7.971436h1.3879318v10.3387852h4.1808319v1.2316608H71.0446396z"/>
	<path class="st2" d="M77.5509949,15.3440037c0-2.4285183,1.2842255-4.3889484,3.4002151-4.3889484
		c2.2026443,0,3.3128433,1.9778318,3.3128433,4.423398v0.3817873h-5.428833
		c0.051857,1.682703,0.9191284,2.9488144,2.4107666,2.9488144c0.7287674,0,1.4745789-0.3640308,1.9952316-1.0231895
		l0.6591568,0.7284145C83.2234573,19.2471066,82.2695236,19.75,81.1422806,19.75
		C78.9041214,19.75,77.5509949,17.9113865,77.5509949,15.3440037z M80.9341583,11.9960003
		c-1.4745789,0-2.0641327,1.6130934-2.098938,2.8447552h4.1978836
		C83.0153427,13.5572424,82.4606018,11.9960003,80.9341583,11.9960003z"/>
	<path class="st2" d="M87.7871475,19.5418816l-2.7403412-8.3787088h1.3524094l2.0818939,6.9041243l2.098938-6.9041243h1.3360748
		l-2.7580948,8.3787088H87.7871475z"/>
	<path class="st2" d="M92.7500153,15.3440037c0-2.4285183,1.2835159-4.3889484,3.399498-4.3889484
		c2.2033539,0,3.3135529,1.9778318,3.3135529,4.423398v0.3817873h-5.4295349
		c0.0518494,1.682703,0.9191284,2.9488144,2.4114685,2.9488144c0.7280579,0,1.473877-0.3640308,1.9945297-1.0231895
		l0.6591568,0.7284145C98.4224777,19.2471066,97.4678345,19.75,96.3405838,19.75
		C94.1031418,19.75,92.7500153,17.9113865,92.7500153,15.3440037z M96.1324692,11.9960003
		c-1.4745865,0-2.0641327,1.6130934-2.098938,2.8447552h4.197876C98.2143631,13.5572424,97.658905,11.9960003,96.1324692,11.9960003
		z"/>
	<path class="st2" d="M101.2856979,19.5418816V7.971436h1.2316666v11.570446H101.2856979z"/>
	<path class="st2" d="M112.3713684,19.5418816v-2.9662151h-4.5793076v-1.1972132l4.1801147-7.4070172h1.7693634v7.3899703h1.2664642
		v1.2142601h-1.2664642v2.9662151H112.3713684z M112.3713684,9.4634228l-3.3128433,5.8979836h3.3128433V9.4634228z"/>
	<path class="st2" d="M120.8552017,19.5418816l-1.9249191-3.365406l-1.925621,3.365406h-1.3879318l2.5499802-4.2674875
		l-2.4114685-4.1112213h1.3879242l1.787117,3.1920919l1.7864075-3.1920919h1.3879318l-2.4114761,4.1112213l2.5499802,4.2674875
		H120.8552017z"/>
	<path class="st2" d="M127.4311676,19.5418816v-2.9662151H122.85186v-1.1972132l4.1801147-7.4070172h1.7693558v7.3899703h1.2664795
		v1.2142601h-1.2664795v2.9662151H127.4311676z M127.4311676,9.4634228l-3.3128433,5.8979836h3.3128433V9.4634228z"/>
</g>
<g>
	<path class="st2" d="M14.2568359,14.8439331l2.2130127-2.6972046C16.3331909,11.9205933,16.25,11.6584473,16.25,11.375
		c0-0.6533813,0.4202881-1.2034302,1.0032349-1.4091797V4.9746094C16.3126221,5.121521,15.37323,5.1630859,14.25,5.1945801
		v9.6480713C14.2521362,14.8434448,14.2546997,14.8431396,14.2568359,14.8439331z"/>
	<path class="st2" d="M11.2266235,15.2681885l1.2318726,0.230957c0.1765137-0.3028564,0.4584351-0.5305176,0.7915039-0.6514282
		V5.2457886c-0.1303711,0.0026855-0.2557983,0.0063477-0.3962402,0.0064087L10.25,5.217041v8.8745117
		C10.7589111,14.2734985,11.1408691,14.7195435,11.2266235,15.2681885z"/>
	<path class="st2" d="M8.5144043,16.3486938C8.3482056,16.1071777,8.25,15.8153076,8.25,15.5
		c0-0.6521606,0.4187622-1.2015991,1-1.4082031V5.25L7.1044922,5.217041C6.8126831,5.2188721,6.5291138,5.2590332,6.25,5.3158569
		v14.1464844L8.5144043,16.3486938z"/>
	<path class="st2" d="M22.3538818,11.0037231l2.0673828-2.1964722C24.3154297,8.6017456,24.25,8.3720703,24.25,8.125
		c0-0.6560669,0.4238892-1.2078247,1.0106201-1.411499V2.9638062C24.2526855,3.0808105,23.2244263,3.3930664,22.25,3.7531128
		v7.2166748C22.2842407,10.9821167,22.3208008,10.9891357,22.3538818,11.0037231z"/>
	<path class="st2" d="M4.25,21c0-0.6521606,0.4187622-1.2015991,1-1.4082031V5.5
		c-1.7790527,0.6348877-3.0011597,2.2918701-3,4.2756348l0.0001221,0.0257568l0.000061,0.0016479v15.8568115
		c0.0038452,0.406189,0.1740112,0.7284546,0.4403076,0.9663086C2.956604,26.8625488,3.3220825,27.0006714,3.6838379,27
		c0.3511353-0.0011597,0.692627-0.1230469,0.9708252-0.4034424l0.0128784-0.0131836L5.25,26.0957642v-3.687561
		C4.6687622,22.2015991,4.25,21.6521606,4.25,21z"/>
	<path class="st2" d="M19.2354736,11.2310181l1.2647705,0.3161621c0.175354-0.2641602,0.4366455-0.460083,0.7387695-0.5710449
		V3.9769287C20.1954346,4.3411865,19.2821045,4.6220093,18.25,4.8204346v5.1499634
		C18.7844238,10.1624146,19.1786499,10.6437378,19.2354736,11.2310181z"/>
	<path class="st2" d="M20.2645264,12.5189819l-1.2647705-0.3161621c-0.1774902,0.267395-0.442749,0.4654541-0.7497559,0.5754395
		v9.9058228c1.1328125-0.036499,2.078125-0.137207,2.9890137-0.3188477v-8.5877686
		C20.7098999,13.5828857,20.3209839,13.102478,20.2645264,12.5189819z"/>
	<path class="st2" d="M29.0626221,5.375C29.0289917,5.2059326,28.9375,4.395813,28,3.5
		c-0.6016846-0.5749512-1.5085449-0.6241455-1.7318115-0.625c-0.0059814,0-0.012207,0.0005493-0.0181885,0.0006104v3.8411865
		c0.5812378,0.206604,1,0.7560425,1,1.4082031s-0.4187622,1.2015991-1,1.4082031V21.541748
		c0.8709106-0.2849121,1.9135132-0.7438354,2.4228516-1.4151001c0.5427246-0.7171631,0.5761719-1.5776978,0.5771484-2.8597412
		V8.0528564C29.2501831,6.9437866,29.1993408,6.062439,29.0626221,5.375z"/>
	<path class="st2" d="M25.1459961,9.4962158l-2.0672607,2.1965332C23.1845703,11.8982544,23.25,12.1278687,23.25,12.375
		c0,0.6521606-0.4187622,1.2015991-1,1.4082031v8.5065918c1.2153931-0.1516113,2.1749268-0.3117065,3.0106201-0.5291748V9.5336914
		C25.2227173,9.5203857,25.1824951,9.5123291,25.1459961,9.4962158z"/>
	<path class="st2" d="M17.243042,12.7810059l-2.2129517,2.6970825C15.1668091,15.7042236,15.25,15.9664917,15.25,16.25
		c0,0.6521606-0.4187622,1.2015991-1,1.4082031v5.0843506h1.9420776c0.3825073,0,0.7008057,0.0075073,1.0611572,0v-9.9596558
		C17.25,12.7817383,17.2462158,12.7821655,17.243042,12.7810059z"/>
	<path class="st2" d="M12.2733765,16.4818115l-1.2318726-0.230957C10.8649902,16.553772,10.5830688,16.7813721,10.25,16.9022827
		V22.75h3v-5.0915527C12.7410889,17.4765015,12.3591309,17.0305176,12.2733765,16.4818115z"/>
	<path class="st2" d="M6.9855347,20.1512451C7.1517944,20.3927612,7.25,20.6846313,7.25,21
		c0,0.6521606-0.4187622,1.2015991-1,1.4082031v3.1762085l3-2.420105v-6.1268311L6.9855347,20.1512451z"/>
</g>
</svg>
