<?xml version="1.0" encoding="utf-8"?>
<!-- Generator: Adobe Illustrator 19.0.1, SVG Export Plug-In . SVG Version: 6.00 Build 0)  -->
<svg version="1.1" id="Layer_1" xmlns="http://www.w3.org/2000/svg" xmlns:xlink="http://www.w3.org/1999/xlink" x="0px" y="0px"
	 width="65.3333359px" height="67px" viewBox="0 0 65.3333359 67" style="enable-background:new 0 0 65.3333359 67;"
	 xml:space="preserve">
<style type="text/css">
	.st0{fill:#71B82F;}
	.st1{fill:#DFD91A;}
	.st2{fill:#373838;}
	.st3{fill:#61D31E;}
	.st4{fill:#E0D919;}
	.st5{fill:none;stroke:#61D31E;stroke-linecap:round;stroke-linejoin:round;stroke-miterlimit:10;}
	.st6{fill:none;stroke:#61D31E;stroke-width:2;stroke-linecap:round;stroke-linejoin:round;stroke-miterlimit:10;}
</style>
<g>
	<path class="st2" d="M39.0440521,36.4431381h21.3690758c1.6252861,0,2.9430466-1.3176727,2.9430466-2.9430466
		c0-1.6254692-1.3177605-2.9430504-2.9430466-2.9430504H39.0440521c-1.6256485,0-2.9430504,1.3175812-2.9430504,2.9430504
		C36.1010017,35.1254654,37.4184036,36.4431381,39.0440521,36.4431381"/>
	<path class="st2" d="M52.2446594,27.9075069l5.6633568,5.6632671l-5.6367722,5.4956741
		c-1.1639977,1.134716-1.1877098,2.9980125-0.0528107,4.1618347c1.1348991,1.1637268,2.9980125,1.1873474,4.162014,0.0526314
		l7.7704086-7.5765915c0.5625992-0.5488586,0.8834152-1.3022232,0.8884506-2.0885506
		c0.0050278-0.7862396-0.3060913-1.5438271-0.8618622-2.0996895l-7.770771-7.7706795
		c-1.1496277-1.1492691-3.0127449-1.1490898-4.162014,0.0002689c-1.1492691,1.1492691-1.1492691,3.0126553,0.0003586,4.1619244
		L52.2446594,27.9075069z"/>
	<path class="st2" d="M26.2892838,30.5570412H4.9205656c-1.6256464,0-2.9430487,1.3175812-2.9430487,2.9430504
		c0,1.6253738,1.3174024,2.9430466,2.9430487,2.9430466h21.3687172c1.6252861,0,2.9430485-1.3176727,2.9430485-2.9430466
		C29.2323322,31.8746223,27.9145699,30.5570412,26.2892838,30.5570412"/>
	<path class="st2" d="M13.0886755,39.0925827l-5.6637163-5.6634483l5.6371307-5.4955807
		c1.1636391-1.1345406,1.1873503-2.9976559,0.0528107-4.1613865c-1.1345387-1.1638184-2.9976559-1.187439-4.1612949-0.0529003
		L1.182477,31.2956772c-0.5633178,0.5488586-0.8834175,1.3022232-0.8884472,2.0885506
		c-0.0050296,0.7862396,0.3057293,1.5436478,0.8618621,2.0996895l7.7707696,7.770771
		c1.1492691,1.1493568,3.0127449,1.1494484,4.162014,0.0001793c1.1492691-1.1493607,1.1496277-3.0128365,0.0003586-4.1621933
		L13.0886755,39.0925827z"/>
	<path class="st2" d="M29.7237968,39.8773842v21.368988c0,1.6253738,1.3174038,2.9430504,2.9430504,2.9430504
		c1.6252861,0,2.9430466-1.3176765,2.9430466-2.9430504v-21.368988c0-1.6254654-1.3177605-2.9430504-2.9430466-2.9430504
		C31.0412006,36.9343338,29.7237968,38.2519188,29.7237968,39.8773842"/>
	<path class="st2" d="M38.2590714,53.0779915l-5.6633568,5.6631775l-5.4955845-5.6366806
		c-1.1348991-1.1637306-2.9980145-1.1872635-4.1616554-0.0524521c-1.1639977,1.1347198-1.1873493,2.9979248-0.0524502,4.1616554
		l7.5760498,7.7705841c0.5485878,0.5629654,1.3023129,0.8834229,2.0887299,0.8884506
		c0.7860603,0.0049438,1.5433769-0.3060913,2.0995102-0.8619537l7.770771-7.7706757
		c1.1492691-1.1492691,1.1492691-3.0125656,0-4.1618347c-1.1492691-1.1493607-3.0123863-1.1494484-4.1616554-0.0001793
		L38.2590714,53.0779915z"/>
	<path class="st2" d="M35.6098938,27.1227055V5.753809c0-1.6254668-1.3177605-2.9430485-2.9430466-2.9430485
		c-1.6256466,0-2.9430504,1.3175817-2.9430504,2.9430485v21.3688965c0,1.6253777,1.3174038,2.9430485,2.9430504,2.9430485
		C34.2921333,30.0657539,35.6098938,28.7480831,35.6098938,27.1227055"/>
	<path class="st2" d="M27.073904,13.9220085l5.6629963-5.6632671l5.495945,5.6367722
		c1.1345367,1.1638184,2.9980125,1.1875296,4.1616516,0.0529003c1.1640015-1.1347189,1.1877098-2.998105,0.0531731-4.1619244
		l-7.5767708-7.7707691c-0.5489464-0.5629587-1.3023148-0.8834176-2.0887299-0.8884473
		c-0.7860584-0.0049398-1.5437355,0.3059089-2.0995102,0.8619518L22.91189,9.7599049
		c-1.1496277,1.1493587-1.1496277,3.0129242,0,4.1622829c1.1492691,1.1492691,3.0127449,1.1492691,4.1623726-0.0000896
		L27.073904,13.9220085z"/>
</g>
</svg>
