<?xml version="1.0" encoding="utf-8"?>
<!-- Generator: Adobe Illustrator 19.0.1, SVG Export Plug-In . SVG Version: 6.00 Build 0)  -->
<svg version="1.1" id="Layer_1" xmlns="http://www.w3.org/2000/svg" xmlns:xlink="http://www.w3.org/1999/xlink" x="0px" y="0px"
	 width="80px" height="74.3333359px" viewBox="0 0 80 74.3333359" style="enable-background:new 0 0 80 74.3333359;"
	 xml:space="preserve">
<style type="text/css">
	.st0{fill:#71B82F;}
	.st1{fill:#DFD91A;}
	.st2{fill:#373838;}
	.st3{fill:#61D31E;}
	.st4{fill:#E0D919;}
	.st5{fill:none;stroke:#61D31E;stroke-linecap:round;stroke-linejoin:round;stroke-miterlimit:10;}
	.st6{fill:none;stroke:#61D31E;stroke-width:2;stroke-linecap:round;stroke-linejoin:round;stroke-miterlimit:10;}
</style>
<g>
	<path class="st2" d="M20.9763432,10.6602325h33.2375565c1.6252861,0,2.9430466-1.3176718,2.9430466-2.9430485
		c0-1.6254668-1.3177605-2.943049-2.9430466-2.943049H20.9763432c-1.6256466,0-2.9430485,1.3175821-2.9430485,2.943049
		C18.0332947,9.3425608,19.3506966,10.6602325,20.9763432,10.6602325"/>
	<path class="st2" d="M20.9763432,20.3101063h11.541193c1.6252861,0,2.9430466-1.3176727,2.9430466-2.9430504
		c0-1.6254663-1.3177605-2.9430475-2.9430466-2.9430475h-11.541193c-1.6256466,0-2.9430485,1.3175812-2.9430485,2.9430475
		C18.0332947,18.9924335,19.3506966,20.3101063,20.9763432,20.3101063"/>
	<path class="st2" d="M20.9763432,29.9599781h20.3710575c1.6252861,0,2.9430466-1.3176708,2.9430466-2.9430485
		c0-1.6254673-1.3177605-2.9430485-2.9430466-2.9430485H20.9763432c-1.6256466,0-2.9430485,1.3175812-2.9430485,2.9430485
		C18.0332947,28.6423073,19.3506966,29.9599781,20.9763432,29.9599781"/>
	<circle class="st2" cx="7.0433869" cy="7.181529" r="6.5401282"/>
	<path class="st2" d="M76.188324,64.4540405l2.703064-1.1640015l-7.7553177-18.0100937l4.0984192-1.733696
		c0.8970718-0.3795547,1.5426636-1.168129,1.7370224-2.1227684c0.1947174-0.9545517-0.0908966-1.9329033-0.7677383-2.6331902
		l-24.9084969-25.767662c-0.8586273-0.8880873-2.1903992-1.1454067-3.3177567-0.6409178
		c-1.1277122,0.5045795-1.823597,1.6690273-1.7334213,2.9011955l2.5769615,35.2157211
		c0.0686188,0.9419785,0.594574,1.8035698,1.4003906,2.2962036c0.8058205,0.4926338,1.8117447,0.5674515,2.6818695,0.1994781
		l4.5004349-1.9042511l7.7923279,18.0972137c1.2236328,2.8242264,3.9734039,4.5056458,6.860405,4.5046616
		c0.9811325,0.0005341,1.9845428-0.1963348,2.9340668-0.6049042c2.8259277-1.2248917,4.5072632-3.9742126,4.5061874-6.8609467
		c0.0007172-0.9824829-0.1965179-1.98526-0.6046371-2.9339752L76.188324,64.4540405l-2.7041397,1.1618423l0.1268158,0.610199
		c-0.0010757,0.6134338-0.3660812,1.2118683-0.9466476,1.45401l-0.6078644,0.1258316
		c-0.6139755-0.0009842-1.2117767-0.3659058-1.4539185-0.9462891l-8.9491386-20.7833939
		c-0.6394844-1.4846382-2.3617706-2.1765709-3.8501778-1.5465202l-3.4115219,1.443325l-1.6845665-23.0214901L68.9905701,39.796936
		l-2.8755035,1.2162704c-0.7242661,0.3063583-1.2911758,0.8836861-1.5843353,1.6132507
		c-0.2931519,0.7295647-0.2834549,1.538887,0.0276642,2.2611771l8.926506,20.7303162L76.188324,64.4540405z"/>
</g>
</svg>
