<?xml version="1.0" encoding="utf-8"?>
<!-- Generator: Adobe Illustrator 19.0.1, SVG Export Plug-In . SVG Version: 6.00 Build 0)  -->
<svg version="1.1" id="Layer_1" xmlns="http://www.w3.org/2000/svg" xmlns:xlink="http://www.w3.org/1999/xlink" x="0px" y="0px"
	 width="361px" height="103.5px" viewBox="0 0 361 103.5" style="enable-background:new 0 0 361 103.5;" xml:space="preserve">
<style type="text/css">
	.st0{fill:#71B82F;}
	.st1{fill:#DFD91A;}
	.st2{fill:#373838;}
	.st3{fill:#61D31E;}
	.st4{fill:#E0D919;}
	.st5{fill:none;stroke:#61D31E;stroke-linecap:round;stroke-linejoin:round;stroke-miterlimit:10;}
	.st6{fill:none;stroke:#61D31E;stroke-width:2;stroke-linecap:round;stroke-linejoin:round;stroke-miterlimit:10;}
</style>
<g>
	<path class="st3" d="M16.770752,60.5634766v1c0.5303955,0,0.9643555,0.4029541,0.9675293,0.8919678v3.2626953
		c0.0015869,0.2540283-0.1016846,0.5079346-0.2835693,0.6967773c-0.1800537,0.1870117-0.4135742,0.2907715-0.6513672,0.2923584
		h-5.5748291c-0.2270508,0-0.4472656,0.0771484-0.6246338,0.2189941l-1.4957275,1.1962891v-5.6057129
		c-0.001709-0.2508545,0.0959473-0.4887695,0.2747803-0.6699219s0.4155273-0.2818604,0.6600342-0.2834473h6.7213135
		L16.770752,60.5634766 M16.770752,60.5634766h-0.0131836h-6.7145996c-1.0710449,0.0068359-1.9417725,0.8887939-1.9348145,1.9598389
		v6.2835693c0.0024414,0.3963623,0.3453369,0.6573486,0.6953125,0.6573486c0.1693115,0,0.340332-0.0611572,0.4752197-0.1976318
		l1.9498291-1.5593262h5.5748291c1.0710449-0.0068359,1.9417725-0.9244385,1.9349365-1.9954834v-3.2563477
		C18.7314453,61.3887939,17.8359375,60.5634766,16.770752,60.5634766z"/>
	<path class="st3" d="M39.2139893,36.4572754v1c0.3914795,0,0.7119141,0.2938232,0.7142334,0.6484375v2.8435059
		c0.0025635,0.3878174-0.3209229,0.7299805-0.685791,0.7322998h-4.8572998c-0.2269287,0-0.4472656,0.0772705-0.6245117,0.2191162
		l-1.0941162,0.875v-4.6170654c-0.0024414-0.3841553,0.3081055-0.6987305,0.685791-0.7011719h5.8555908L39.2139893,36.4572754
		 M39.2139893,36.4572754l-0.0114746,0.0001221h-5.8502197c-0.9331055,0.0059814-1.6917725,0.774292-1.685791,1.7075195v5.4746094
		c0.0021973,0.345459,0.3010254,0.572876,0.605835,0.572876c0.147583,0,0.2965088-0.0533447,0.4140625-0.1722412
		l1.6987305-1.3586426h4.8572998c0.9331055-0.0059814,1.6917725-0.8054199,1.685791-1.7386475v-2.8371582
		C40.9222412,37.1763916,40.1420898,36.4572754,39.2139893,36.4572754z"/>
	<path class="st3" d="M71.015625,40.3035889l0.0101318,1h5.1375732c0.1750488,0.0010986,0.291626,0.0928955,0.3455811,0.1474609
		c0.0539551,0.0546875,0.1442871,0.1724854,0.1430664,0.3538818v3.8028564l-0.7658691-0.6124268
		c-0.1772461-0.1418457-0.3974609-0.2191162-0.6245117-0.2191162h-4.2645264
		c-0.1665039-0.0009766-0.2825928-0.0958252-0.3369141-0.1523438c-0.09729-0.1009521-0.1525879-0.2358398-0.1517334-0.3763428
		v-2.4881592c0.0015869-0.2513428,0.229126-0.4558105,0.5072021-0.4558105V40.3035889 M71.015625,40.3035889
		c-0.81604,0-1.5019531,0.6322021-1.5072021,1.4493408v2.4946289c-0.005249,0.8205566,0.6617432,1.5234375,1.4822998,1.5286865
		h4.270874l1.4936523,1.1947021c0.1032715,0.1046143,0.2342529,0.1514893,0.3640137,0.1514893
		c0.2680664,0,0.5307617-0.2000732,0.5327148-0.5037842v-4.8137207c0.005249-0.8205566-0.6617432-1.4960938-1.4822998-1.5013428
		h-5.1439209H71.015625z"/>
	<path class="st3" d="M92.4786377,46.2832031l0.015625,1h7.9641113c0.3477783,0.0021973,0.6756592,0.1414795,0.9229736,0.3920898
		c0.2474365,0.2506104,0.3824463,0.5800781,0.380249,0.9343262v7.0355225l-2.0794678-1.6629639
		c-0.1772461-0.1417236-0.397583-0.2189941-0.6245117-0.2189941h-6.6112061
		c-0.7111816-0.0045166-1.3079834-0.628418-1.3032227-1.3687744v-3.8590088
		c0.0043945-0.6904297,0.6035156-1.2521973,1.3355713-1.2521973L92.4786377,46.2832031 M92.4786377,46.2832031
		c-1.2645264,0.0001221-2.3273926,0.9797363-2.3354492,2.2458496v3.8653564
		c-0.0081787,1.2713623,1.0253906,2.3605957,2.2967529,2.3687744h6.6176758l2.3144531,1.8509521
		c0.1600342,0.1621094,0.3630371,0.2347412,0.5640869,0.2347412c0.4152832,0,0.8223877-0.3099365,0.8254395-0.7805176v-7.4587402
		c0.0081787-1.2713623-1.0253906-2.3182373-2.2967529-2.326416h-7.9705811H92.4786377z"/>
	<path class="st3" d="M60.9208984,26.9989014v1c0.2781982,0,0.5057373,0.2044678,0.5073242,0.4494629v2.5009766
		c0.0008545,0.1341553-0.0544434,0.269043-0.1517334,0.3699951c-0.0544434,0.0565186-0.1704102,0.1513672-0.3305664,0.1523438
		h-4.270874c-0.2270508,0-0.4472656,0.0772705-0.6246338,0.2191162l-0.7658691,0.6124268v-3.8093262
		c-0.0010986-0.1750488,0.0892334-0.2928467,0.1431885-0.3474121c0.053833-0.0546875,0.1705322-0.1464844,0.3391113-0.147583
		h5.1499023L60.9208984,26.9989014 M60.9208984,26.9989014h-0.0100098h-5.144043
		c-0.8205566,0.005249-1.4875488,0.6809082-1.4822998,1.5014648v4.8137207
		c0.0019531,0.3037109,0.2646484,0.5036621,0.5327148,0.5036621c0.1297607,0,0.2607422-0.046875,0.3640137-0.1514893
		l1.4937744-1.1945801h4.270874c0.8205566-0.005249,1.4875488-0.708252,1.4822998-1.5286865v-2.4946289
		C62.4229736,27.6312256,61.7369385,26.9989014,60.9208984,26.9989014z"/>
	<path class="st3" d="M118.9031982,1.4700928v1c0.2781982,0,0.5057373,0.2045898,0.5073242,0.4494629v2.5010986
		c0.0018311,0.2766113-0.2265625,0.5206299-0.4822998,0.5223389h-4.270874c-0.2269287,0-0.4472656,0.0771484-0.6245117,0.2189941
		l-0.7659912,0.6125488V2.96521c-0.001709-0.2666016,0.222168-0.4932861,0.4822998-0.4949951h5.1499023L118.9031982,1.4700928
		 M118.9031982,1.4700928l-0.0100098,0.0001221h-5.144043c-0.8204346,0.005249-1.4875488,0.6809082-1.4822998,1.5013428v4.8137207
		c0.0019531,0.3037109,0.2646484,0.5037842,0.5327148,0.5037842c0.1297607,0,0.2607422-0.046875,0.3640137-0.1514893
		l1.4937744-1.1945801h4.270874c0.8205566-0.005249,1.4875488-0.708252,1.4822998-1.5288086V2.9195557
		C120.4052734,2.1025391,119.7193604,1.4700928,118.9031982,1.4700928z"/>
	<path class="st3" d="M39.2543945,53.8269043v1c0.2780762,0,0.5056152,0.2044678,0.5072021,0.4494629v2.5009766
		c0.0008545,0.1341553-0.0544434,0.2689209-0.1517334,0.3699951c-0.0544434,0.0563965-0.1705322,0.1512451-0.3305664,0.1523438
		h-4.270874c-0.2270508,0-0.4472656,0.0771484-0.6246338,0.2189941l-0.7658691,0.6125488v-3.8093262
		c-0.0012207-0.1750488,0.0891113-0.2928467,0.1430664-0.3474121c0.0539551-0.0546875,0.1705322-0.1464844,0.3392334-0.147583
		h5.1499023L39.2543945,53.8269043 M39.2543945,53.8269043h-0.0101318h-5.144043
		c-0.8205566,0.005249-1.4875488,0.6809082-1.4822998,1.5014648v4.8137207
		c0.0019531,0.3035889,0.2646484,0.5036621,0.5327148,0.5036621c0.1297607,0,0.2607422-0.046875,0.3640137-0.1514893
		l1.4937744-1.1945801h4.270874c0.8204346-0.005249,1.4875488-0.708252,1.4822998-1.5286865v-2.4946289
		C40.7563477,54.4592285,40.0703125,53.8269043,39.2543945,53.8269043z"/>
	<path class="st3" d="M8.4910889,85.2281494v1c0.2648926,0,0.4902344,0.2237549,0.4919434,0.4951172l0.0487061,3.8027344
		l-0.7740479-0.6029053c-0.1756592-0.1368408-0.3919678-0.2110596-0.614502-0.2110596l-0.0128174,0.0001221l-4.267334,0.0545654
		c-0.2607422,0-0.4909668-0.2410889-0.4926758-0.5224609L2.838501,86.7562256
		c-0.0009766-0.1513672,0.072876-0.2547607,0.1350098-0.3149414c0.09729-0.0941162,0.2287598-0.1464844,0.3765869-0.1473389
		l5.1375732-0.0657959L8.4910889,85.2281494 M8.4910889,85.2281494H8.4814453l-5.144165,0.0657959
		c-0.8205566,0.005249-1.5040283,0.6481934-1.4987793,1.46875l0.0318604,2.4943848
		c0.005249,0.8175049,0.6761475,1.5096436,1.4926758,1.5096436h0.0092773l4.270874-0.0546875l1.5091553,1.175415
		c0.1027832,0.1014404,0.2315674,0.1468506,0.3590088,0.1468506c0.2705078,0,0.5351562-0.2042236,0.5332031-0.510498
		l-0.0616455-4.8133545C9.9776611,85.8931885,9.307251,85.2281494,8.4910889,85.2281494z"/>
	<path class="st3" d="M91.477417,9.7745361l0.0168457,1.0001221h8.5490723
		c0.3929443,0.0024414,0.7630615,0.159668,1.0424805,0.442627c0.2792969,0.282959,0.4317627,0.6551514,0.4291992,1.0544434
		v7.7044678l-2.3511963-1.8803711c-0.1773682-0.1417236-0.397583-0.2189941-0.6246338-0.2189941h-7.0968018
		c-0.8031006-0.005127-1.4770508-0.7086182-1.4716797-1.5426025v-4.1425781
		c0.0050049-0.7813721,0.6809082-1.4169922,1.5068359-1.4171143L91.477417,9.7745361 M91.477417,9.7745361
		c-1.3570557,0.0001221-2.4980469,1.0517578-2.5067139,2.4106445v4.1490479
		c-0.0087891,1.3647461,1.100708,2.5338135,2.465332,2.5426025h7.1031494l2.484375,1.9868164
		c0.1717529,0.1739502,0.3896484,0.2518311,0.6054688,0.2518311c0.4458008,0,0.8828125-0.3325195,0.8859863-0.8376465v-8.0061035
		c0.0087891-1.364624-1.1005859-2.4884033-2.465332-2.4970703h-8.5554199L91.477417,9.7745361z"/>
	<path class="st3" d="M133.2474365,64.8223877v1c2.0330811,0,3.6972656,1.5859375,3.7097168,3.5290527v7.8015137
		c0.0062866,0.9827881-0.3731689,1.9216309-1.0685425,2.6435547c-0.6939087,0.720459-1.6064453,1.1207275-2.5631714,1.1268311
		h-13.3453369c-0.2270508,0-0.4472656,0.0771484-0.6246338,0.2189941l-4.6676025,3.7327881l-0.0870361,0.0783691
		c-0.1152344,0.1166992-0.2585449,0.1759033-0.4259033,0.1759033c-0.2664795,0-0.6619873-0.1844482-0.6644287-0.5738525V69.5074463
		c-0.0062256-0.9729004,0.3701172-1.8934326,1.0598145-2.5919189c0.6898193-0.6986084,1.6054688-1.086792,2.5718994-1.0930176
		h16.0802002L133.2474365,64.8223877 M133.2474365,64.8223877l-0.0316162,0.0001221h-16.0736084
		c-2.5638428,0.0163574-4.6481934,2.1275635-4.6317139,4.6914062v15.041626
		c0.0059814,0.9489746,0.8269043,1.5738525,1.6644287,1.5738525c0.4055176,0,0.8148193-0.1463623,1.1375732-0.4732666
		l4.6676025-3.7327881h13.3453369c2.5638428-0.0163574,4.6481323-2.2128906,4.6317139-4.7768555v-7.7950439
		C137.9407959,66.7980957,135.7973633,64.8223877,133.2474365,64.8223877z"/>
	<path class="st3" d="M118.3746338,37.0622559l0.0136719,1.0001221h7.0167236
		c0.5717773,0.0036621,1.0340576,0.4716797,1.0302734,1.0498047v5.9521484l-1.6391602-1.3109131
		c-0.1772461-0.1417236-0.397583-0.2189941-0.6245117-0.2189941h-5.8248291
		c-0.2677002-0.001709-0.5236816-0.1153564-0.7208252-0.3199463c-0.1983643-0.2059326-0.3111572-0.4832764-0.3093262-0.7672119
		v-3.3996582c0.003418-0.5432129,0.4780273-0.9852295,1.0579834-0.9853516V37.0622559 M118.3746338,37.0622559
		c-1.1141357,0.0001221-2.0509033,0.8634033-2.0579834,1.9790039v3.4060059
		c-0.0072021,1.1202393,0.9035645,2.0799561,2.0238037,2.0871582h5.8311768l2.0394287,1.6309814
		c0.1409912,0.1428223,0.3198242,0.2067871,0.4969482,0.2067871c0.3659668,0,0.7247314-0.2729492,0.7272949-0.6876221v-6.5723877
		c0.0072021-1.1202393-0.9034424-2.0426025-2.0238037-2.0498047h-7.0231934L118.3746338,37.0622559z"/>
	<path class="st3" d="M350.692749,6.5463867l0.0131836,1h6.7081909c0.5223999,0.003418,0.9446411,0.4310303,0.9412842,0.9598389
		v5.5992432l-1.4957886-1.1962891c-0.1773071-0.1417236-0.397522-0.2189941-0.6245728-0.2189941h-5.5684814
		c-0.2440796-0.0015869-0.4777222-0.1053467-0.6577759-0.2923584c-0.1818237-0.1888428-0.2851562-0.442749-0.2835083-0.703125
		l-0.000061-3.2498779c0.0031738-0.4953613,0.4372559-0.8984375,0.9675903-0.8984375L350.692749,6.5463867 M350.692749,6.5463867
		c-1.0651855,0.0001221-1.9606323,0.8254395-1.9674683,1.8919678v3.2563477
		c-0.0068359,1.0710449,0.8638306,1.9886475,1.9348755,1.9954834h5.5748901l1.9498291,1.5593262
		c0.1348267,0.1365967,0.3057861,0.1977539,0.4751587,0.1977539c0.3499146,0,0.6928711-0.2611084,0.6953735-0.6574707V8.5062256
		c0.006897-1.0710449-0.8638306-1.9528809-1.9348755-1.9598389h-6.7145996H350.692749z"/>
	<path class="st3" d="M332.2496948,28.4432373l0.0115356,1h5.8438721c0.3776245,0.0024414,0.6946411,0.3234863,0.6921997,0.7075195
		v4.6105957l-1.0941162-0.875c-0.1773071-0.1417236-0.397522-0.2189941-0.6245728-0.2189941h-4.8508301
		c-0.3712158-0.0023193-0.6947021-0.3444824-0.6921997-0.7385254l-0.000061-2.8308105
		c0.0023193-0.3609619,0.3227539-0.6547852,0.7142334-0.6547852L332.2496948,28.4432373 M332.2496948,28.4432373
		c-0.9280396,0-1.7081909,0.7191162-1.7141113,1.6484375v2.8371582c-0.0059814,0.9331055,0.7526245,1.7325439,1.685791,1.7385254
		h4.8572388l1.6988525,1.3586426c0.1174927,0.1190186,0.2664185,0.1722412,0.4140015,0.1722412
		c0.3048096,0,0.6036377-0.227417,0.605835-0.5727539v-5.4747314c0.0059814-0.9331055-0.7526245-1.7015381-1.685791-1.7075195
		h-5.8502808H332.2496948z"/>
	<path class="st3" d="M310.7814941,60.9572754v1c0.2780762,0,0.5056763,0.2044678,0.5072632,0.4494629v2.5009766
		c0.00177,0.2766113-0.2266235,0.520752-0.4822998,0.5223389h-4.270874c-0.2270508,0-0.4472656,0.0772705-0.6245728,0.2191162
		l-0.7659302,0.6124268v-3.8093262c-0.0011597-0.1750488,0.0891724-0.2928467,0.1431274-0.3474121
		c0.053894-0.0546875,0.1705322-0.1464844,0.3391724-0.147583h5.1498413L310.7814941,60.9572754 M310.7814941,60.9572754h-0.0101318
		h-5.1439819c-0.8204956,0.005249-1.4875488,0.6809082-1.4822998,1.5014648v4.8137207
		c0.0019531,0.3037109,0.2646484,0.5036621,0.5327148,0.5036621c0.1297607,0,0.2607422-0.046875,0.3640137-0.1514893
		l1.4937744-1.1945801h4.270874c0.8204956-0.005249,1.4875488-0.7081299,1.4822998-1.5286865v-2.4946289
		C312.2835083,61.5895996,311.5975342,60.9572754,310.7814941,60.9572754z"/>
	<path class="st3" d="M288.3297729,54.3946533v1c0.7319946,0,1.3311157,0.5617676,1.3355103,1.2458496v3.8718262
		c0.0046997,0.7338867-0.5921021,1.357666-1.296814,1.3623047h-6.6176147c-0.2270508,0-0.4472656,0.0772705-0.6245728,0.2189941
		l-2.0794678,1.6629639v-7.0419922c-0.0021973-0.3477783,0.1328125-0.6772461,0.380249-0.9278564
		c0.2473755-0.2506104,0.5751343-0.3898926,0.9165649-0.3920898h7.9761963L288.3297729,54.3946533 M288.329834,54.3946533h-0.015686
		h-7.97052c-1.2713623,0.0081787-2.3049316,1.0550537-2.296814,2.326416v7.4587402
		c0.0030518,0.4705811,0.4100952,0.7803955,0.8254395,0.7803955c0.2009888,0,0.4039917-0.0725098,0.5640259-0.2346191
		l2.3145752-1.8509521h6.6176147c1.2713623-0.0081787,2.3049316-1.0974121,2.296814-2.3687744v-3.8653564
		C290.6571655,55.3743896,289.5942383,54.3946533,288.329834,54.3946533z"/>
	<path class="st3" d="M310.5427856,38.986084l0.0101318,1h5.1376343c0.1750488,0.0010986,0.291626,0.0928955,0.3455811,0.1474609
		c0.053894,0.0546875,0.1442261,0.1724854,0.1430664,0.3538818l0.000061,3.8029785l-0.7659302-0.6125488
		c-0.1773071-0.1418457-0.397583-0.2191162-0.6245728-0.2191162h-4.2644653
		c-0.1665649-0.0009766-0.2825928-0.0958252-0.3369751-0.1523438c-0.09729-0.1009521-0.1526489-0.2358398-0.1517334-0.3763428
		l-0.000061-2.4881592c0.0016479-0.2513428,0.229187-0.4558105,0.5073242-0.4558105L310.5427856,38.986084 M310.5427856,38.986084
		c-0.81604,0-1.5020142,0.6322021-1.5072021,1.4493408v2.4946289c-0.005249,0.8205566,0.6617432,1.5234375,1.4822998,1.5286865
		h4.270874l1.4937134,1.1947021c0.1032715,0.1046143,0.2342529,0.1513672,0.3640137,0.1513672
		c0.2680054,0,0.5307617-0.1999512,0.5327148-0.5036621v-4.8137207c0.005249-0.8205566-0.6617432-1.4960938-1.4822998-1.5013428
		h-5.1439819H310.5427856z"/>
	<path class="st3" d="M267.1011353,76.0119629l0.0158691,1.0001221h8.0671387
		c0.3557739,0.0021973,0.69104,0.1446533,0.9440918,0.4008789c0.2529907,0.2563477,0.3911133,0.5933838,0.3887939,0.9555664
		l0.000061,7.1533203l-2.1273804-1.7012939c-0.1773071-0.1417236-0.397522-0.2189941-0.6245728-0.2189941h-6.6967163
		c-0.3485107-0.0021973-0.6807251-0.1490479-0.9354248-0.4134521c-0.258667-0.2686768-0.3998413-0.6164551-0.3974609-0.9858398
		l-0.000061-3.9089355c0.0045166-0.706543,0.6171875-1.28125,1.3657227-1.2813721L267.1011353,76.0119629 M267.1011353,76.0119629
		c-1.2807617,0.0001221-2.3574219,0.9924316-2.3656006,2.2749023v3.9154053
		c-0.0082397,1.2877197,1.0386353,2.3911133,2.3264771,2.399292h6.703125l2.3444824,1.8748779
		c0.1621094,0.1641846,0.3676758,0.237793,0.5713501,0.237793c0.4207153,0,0.8330078-0.3138428,0.8360596-0.7905273v-7.5551758
		c0.0082397-1.2878418-1.0386353-2.3482666-2.3264771-2.3564453h-8.0735474L267.1011353,76.0119629z"/>
	<path class="st3" d="M252.5604858,20.4576416l0.0101318,1.0001221h5.1375732
		c0.1750488,0.0010986,0.291687,0.0928955,0.3456421,0.1474609c0.053894,0.0546875,0.1442261,0.1724854,0.1430664,0.3538818
		l0.000061,3.8029785l-0.7659302-0.6125488c-0.1773071-0.1418457-0.397583-0.2189941-0.6245728-0.2189941h-4.2644653
		c-0.262146-0.001709-0.4905396-0.2457275-0.4887085-0.5288086l-0.000061-2.4881592
		c0.0016479-0.2513428,0.229248-0.4558105,0.5073853-0.4559326L252.5604858,20.4576416 M252.5604858,20.4576416
		c-0.815979,0.0001221-1.5020142,0.6324463-1.5072021,1.4494629v2.4946289
		c-0.005249,0.8205566,0.6617432,1.5235596,1.4822998,1.5288086h4.270874l1.4937134,1.1945801
		c0.1033325,0.1046143,0.234314,0.1514893,0.3640747,0.1514893c0.2680664,0,0.5307617-0.2000732,0.5326538-0.5036621v-4.8138428
		c0.005249-0.8204346-0.6617432-1.4960938-1.4822998-1.5013428h-5.1439819L252.5604858,20.4576416z"/>
	<path class="st3" d="M333.5604858,52.4559326l0.0101318,1.0001221h5.1375732
		c0.1750488,0.0010986,0.291687,0.0928955,0.3456421,0.1474609c0.053894,0.0546875,0.1442261,0.1724854,0.1430664,0.3538818
		l0.000061,3.8029785l-0.7659302-0.6125488c-0.1773071-0.1418457-0.397583-0.2189941-0.6245728-0.2189941h-4.2644653
		c-0.262146-0.001709-0.4905396-0.2457275-0.4887085-0.5288086l-0.000061-2.4881592
		c0.0016479-0.2513428,0.229248-0.4558105,0.5073853-0.4559326L333.5604858,52.4559326 M333.5604858,52.4559326
		c-0.815979,0.0001221-1.5020142,0.6324463-1.5072021,1.4494629v2.4946289
		c-0.005249,0.8205566,0.6617432,1.5235596,1.4822998,1.5288086h4.270874l1.4937134,1.1945801
		c0.1033325,0.1046143,0.234314,0.1514893,0.3640747,0.1514893c0.2680664,0,0.5307617-0.2000732,0.5326538-0.5036621v-4.8138428
		c0.005249-0.8204346-0.6617432-1.4960938-1.4822998-1.5013428h-5.1439819L333.5604858,52.4559326z"/>
	<path class="st3" d="M350.8095093,27.4044189v-0.0001221l5.1472778,0.065918
		c0.1414795,0.0008545,0.2729492,0.0532227,0.3701782,0.1472168c0.0621338,0.0601807,0.1361084,0.1636963,0.1351929,0.3085938
		l-0.0319824,2.5008545c-0.00177,0.2749023-0.2319946,0.5161133-0.4891357,0.5161133l-4.2709961-0.0546875h-0.0127563
		c-0.2224731,0-0.4387817,0.0742188-0.614502,0.2110596l-0.7739868,0.6027832l0.0487061-3.809082
		C350.3192139,27.6281738,350.5444946,27.4044189,350.8095093,27.4044189 M350.8095093,26.4044189
		c-0.8162842,0-1.4867554,0.664917-1.4919434,1.4822998l-0.0615845,4.8133545
		c-0.0020142,0.3062744,0.2626953,0.510498,0.5331421,0.510498c0.1275024,0,0.2562866-0.0454102,0.3590698-0.1468506
		l1.5090942-1.175415l4.2709351,0.0546875H355.9375c0.8164062,0,1.4873657-0.6922607,1.4926147-1.5096436l0.0319214-2.4945068
		c0.005249-0.8204346-0.6782227-1.4633789-1.4988403-1.4686279l-5.144104-0.0657959H350.8095093z"/>
	<path class="st3" d="M279.9863281,28.762085v1c0.8258667,0,1.5018311,0.6357422,1.5067749,1.4106445l0.000061,4.1555176
		c0.005249,0.8275146-0.6687012,1.5310059-1.4653931,1.5361328h-7.1032104c-0.2269897,0-0.4472656,0.0772705-0.6245728,0.2189941
		l-2.3511963,1.8803711l-0.000061-7.7109375c-0.0025024-0.3928223,0.1499634-0.7650146,0.4293213-1.0479736
		s0.6495361-0.4401855,1.0360718-0.442627h8.562439L279.9863281,28.762085 M279.9863281,28.762085l-0.0168457,0.0001221h-8.5553589
		c-1.3646851,0.008667-2.4740601,1.1324463-2.465332,2.4970703v8.0061035
		c0.0032349,0.505127,0.4401245,0.8376465,0.8859863,0.8376465c0.2157593,0,0.4336548-0.0778809,0.6054077-0.2518311
		l2.484375-1.9868164h7.1032104c1.3646851-0.0087891,2.4740601-1.1778564,2.465332-2.5426025v-4.1490479
		C282.484436,29.8138428,281.3435059,28.762085,279.9863281,28.762085z"/>
	<path class="st3" d="M253.0892334,56.0498047v1c0.579895,0,1.0544434,0.4420166,1.0579224,0.9790039v3.4123535
		c0.00177,0.2775879-0.1109619,0.5549316-0.3093872,0.7608643c-0.1970215,0.2045898-0.4530029,0.3182373-0.7144165,0.3199463
		h-5.8311157c-0.2269897,0-0.4472656,0.0772705-0.6245728,0.2189941l-1.6392212,1.3109131v-5.9584961
		c-0.0036621-0.5717773,0.4584961-1.0397949,1.0238037-1.043457h7.0296631L253.0892334,56.0498047 M253.0892334,56.0498047
		l-0.0137329,0.0001221h-7.0232544c-1.1202393,0.0072021-2.0309448,0.9295654-2.0238037,2.0498047v6.5723877
		c0.0026855,0.4146729,0.3613892,0.6876221,0.727356,0.6876221c0.177124,0,0.355957-0.0639648,0.4970093-0.2067871
		l2.0394287-1.6309814h5.8311157c1.1202393-0.0072021,2.0309448-0.9669189,2.0238037-2.0871582v-3.4060059
		C255.1400146,56.913208,254.2033691,56.0498047,253.0892334,56.0498047z"/>
	<path class="st3" d="M141.3336182,13.439209l0.0281372,1.0001221h14.2840576
		c1.7338867,0.0111084,3.135437,1.4306641,3.1243286,3.1708984v13.3665771
		c-0.00177,0.2767334-0.2873535,0.4056396-0.4798584,0.4056396c-0.119751,0-0.2177734-0.0404053-0.2997437-0.1234131
		l-0.0870361-0.0783691l-4.1497192-3.3186035c-0.1773071-0.1418457-0.397522-0.2191162-0.6245728-0.2191162H141.270813
		c-0.8261719-0.005249-1.609375-0.348999-2.2053833-0.9677734c-0.5980225-0.6209717-0.9243774-1.4279785-0.9189453-2.2790527
		V17.472168c0.0106812-1.6722412,1.4404907-3.0328369,3.1871948-3.032959L141.3336182,13.439209 M141.3336182,13.439209
		c-2.2669678,0.0001221-4.1726074,1.7565918-4.1871338,4.0266113v6.9302979
		c-0.0145874,2.2794189,1.8384399,4.2322998,4.1179199,4.2468262h11.8648071l4.1497192,3.3187256
		c0.2869263,0.2906494,0.6508789,0.4207764,1.0113525,0.4207764c0.7446289,0,1.4744873-0.555542,1.4798584-1.399292V17.6102295
		c0.0145874-2.2794189-1.838501-4.1563721-4.1179199-4.1708984h-14.2904663L141.3336182,13.439209z"/>
	<path class="st3" d="M157.4862671,63.1522217l0.0333862,1.0001221h17.0956421
		c2.1835327,0.013916,3.9485474,1.8017578,3.9345703,3.9916992v15.9976807
		c-0.0029907,0.4644775-0.461853,0.6807861-0.7710571,0.6807861c-0.1958618,0-0.3635864-0.0693359-0.4986572-0.2060547
		l-0.0870972-0.0784912l-4.9661865-3.9715576c-0.1773071-0.1417236-0.397583-0.2189941-0.6245728-0.2189941h-14.192749
		c-2.1467896-0.0136719-3.9486084-1.8803711-3.9345093-4.0825195l-0.000061-8.2874756
		c0.0134888-2.1091309,1.8129883-3.8251953,4.0113525-3.8251953L157.4862671,63.1522217 M157.4862671,63.1522217
		c-2.7132568,0-4.9938965,2.1020508-5.0112305,4.8188477v8.2938232c-0.0174561,2.7280273,2.2001953,5.0650635,4.9281006,5.0825195
		h14.1991577l4.9662476,3.9715576c0.3433838,0.3477783,0.7788696,0.50354,1.2102661,0.50354
		c0.8911743,0,1.7645874-0.6647949,1.7710571-1.6744385V68.144043c0.0174561-2.7280273-2.2002563-4.9742432-4.9281616-4.9916992
		h-17.1020508L157.4862671,63.1522217z"/>
	<path class="st3" d="M229.1615601,79.9980469v1c2.1982422,0,3.9975586,1.7159424,4.0110474,3.8187256v8.300293
		c0.0068359,1.0625-0.4033203,2.0772705-1.1547852,2.8575439c-0.7503662,0.7791748-1.7375488,1.2119141-2.7733154,1.2185059
		h-14.1991577c-0.2270508,0-0.4472656,0.0772705-0.6245728,0.2189941l-4.9662476,3.9715576l-0.0870361,0.0784912
		c-0.1350708,0.1367188-0.3028564,0.2060547-0.4986572,0.2060547c-0.3092041,0-0.7680664-0.2163086-0.7710571-0.6744385v-16.010376
		c-0.0067749-1.0522461,0.4003296-2.0478516,1.1461792-2.8033447c0.7458496-0.7553711,1.736084-1.1751709,2.7819824-1.1818848
		h17.1082153L229.1615601,79.9980469 M229.1615601,79.9980469l-0.0336304,0.0001221h-17.1019897
		c-2.7279663,0.0174561-4.9456177,2.2636719-4.9281616,4.9915771v16.0040283
		c0.0064697,1.0096436,0.8798828,1.6744385,1.7710571,1.6744385c0.4313354,0,0.8668823-0.1557617,1.2102661-0.50354
		l4.9662476-3.9715576h14.1991577c2.7279053-0.0174561,4.9455566-2.3544922,4.9281006-5.0823975v-8.2939453
		C234.1552124,82.1002197,231.8745728,79.9980469,229.1615601,79.9980469z"/>
	<path class="st3" d="M229.1205444,22.7423096v1c3.2896118,0,5.9823608,2.5750732,6.0026245,5.7338867v11.5965576
		c0.0101929,1.5891113-0.602417,3.1060791-1.7249756,4.2716064c-1.1235352,1.166626-2.6038208,1.8144531-4.1618042,1.8244629
		h-19.8425903c-0.2269897,0-0.4472656,0.0772705-0.6245728,0.2189941l-6.9400024,5.5501709l-0.0869751,0.0783691
		c-0.331543,0.3358154-0.7157593,0.4063721-0.9797363,0.4063721c-0.7207642,0-1.4695435-0.5036621-1.4749146-1.3400879V29.7115479
		c-0.0101318-1.5766602,0.5994263-3.0679932,1.7163086-4.1992188c1.1168823-1.1313477,2.6002197-1.7598877,4.1704712-1.7698975
		h23.9054565L229.1205444,22.7423096 M229.1205444,22.7423096l-0.0469971,0.0001221h-23.8991699
		c-3.8121338,0.024292-6.9111938,3.1633301-6.8867798,6.9754639v22.3647461
		c0.0090332,1.4110107,1.2295532,2.3400879,2.4749146,2.3400879c0.6028442,0,1.2114258-0.2176514,1.6912842-0.7037354
		l6.9400024-5.5501709h19.8425903c3.8121338-0.024292,6.9111938-3.2902832,6.8867798-7.102417v-11.59021
		C236.098877,25.6800537,232.9118652,22.7423096,229.1205444,22.7423096z"/>
	<path class="st3" d="M174.7463379,54.8394775l14.5488892-14.5489502c0.1952515-0.1953125,0.1952515-0.5118408,0-0.7071533
		c-0.1952515-0.1951904-0.5118408-0.1951904-0.7070923,0l-14.5488892,14.5489502
		c-0.1952515,0.1953125-0.1952515,0.5118408,0,0.7071533C174.2344971,55.034668,174.5510864,55.034668,174.7463379,54.8394775"/>
	<path class="st3" d="M217.1566772,57.1660156v13.7832031c0,0.276123,0.2238159,0.5,0.5,0.5c0.276123,0,0.5-0.223877,0.5-0.5
		V57.1660156c0-0.2762451-0.223877-0.5-0.5-0.5C217.3804932,56.6660156,217.1566772,56.8897705,217.1566772,57.1660156"/>
	<path class="st3" d="M188.5588379,85.2322998h10.7202759c0.276123,0,0.5-0.223877,0.5-0.5c0-0.2762451-0.223877-0.5-0.5-0.5
		h-10.7202759c-0.2761841,0-0.5,0.2237549-0.5,0.5C188.0588379,85.0084229,188.2826538,85.2322998,188.5588379,85.2322998"/>
	<path class="st3" d="M149.0187988,36.7299805l13.5,19.25c0.1585693,0.2260742,0.4703979,0.2808838,0.6964722,0.1223145
		s0.2808228-0.4703369,0.1223145-0.6964111l-13.5-19.25c-0.1585693-0.2260742-0.4703979-0.2808838-0.6964722-0.1223145
		S148.8602905,36.5039062,149.0187988,36.7299805"/>
	<path class="st3" d="M123.1783447,49.4429932v12c0,0.276123,0.2237549,0.5,0.5,0.5c0.276123,0,0.5-0.223877,0.5-0.5v-12
		c0-0.2762451-0.223877-0.5-0.5-0.5C123.4020996,48.9429932,123.1783447,49.166748,123.1783447,49.4429932"/>
	<path class="st3" d="M129.0150146,34.6303711l4.833374-7.5c0.1496582-0.2320557,0.0827637-0.5415039-0.1494141-0.69104
		c-0.2320557-0.1496582-0.5415039-0.0827637-0.69104,0.1494141l-4.833374,7.5
		c-0.1496582,0.2320557-0.0827637,0.5415039,0.1494141,0.69104
		C128.5560303,34.9294434,128.8654785,34.8625488,129.0150146,34.6303711"/>
	<path class="st3" d="M117.2399902,11.1561279l16,6.5c0.2558594,0.1040039,0.5474854-0.019165,0.6513672-0.2750015
		c0.1040039-0.2558823-0.019165-0.5475082-0.2750244-0.6513901l-16-6.5
		c-0.2558594-0.1040039-0.5474854,0.019165-0.6513672,0.2750244
		C116.8609619,10.7606201,116.9841309,11.0522461,117.2399902,11.1561279"/>
	<path class="st3" d="M116.1916504,15.8081055l4.416626,18.666626c0.0634766,0.2686768,0.3328857,0.4349365,0.6016846,0.3713379
		c0.2686768-0.0634766,0.4349365-0.3328857,0.3713379-0.6016846l-4.416626-18.666626
		c-0.0634766-0.2686768-0.3328857-0.4349365-0.6016846-0.3713379
		C116.2943115,15.2698975,116.1280518,15.5393066,116.1916504,15.8081055"/>
	<path class="st3" d="M95.1782227,24.1929932v16.75c0,0.276123,0.2237549,0.5,0.5,0.5c0.276123,0,0.5-0.223877,0.5-0.5v-16.75
		c0-0.2762451-0.223877-0.5-0.5-0.5C95.4019775,23.6929932,95.1782227,23.916748,95.1782227,24.1929932"/>
	<path class="st3" d="M104.3498535,26.3200684l9.666626,8.416626c0.208252,0.1812744,0.5240479,0.1594238,0.7054443-0.0488281
		c0.1812744-0.208252,0.1594238-0.5240479-0.0488281-0.7054443l-9.666626-8.416626
		c-0.208252-0.1812744-0.5240479-0.1594238-0.7054443,0.0488281
		C104.119751,25.822876,104.1416016,26.1386719,104.3498535,26.3200684"/>
	<path class="st3" d="M96.5568848,59.277832l11.5,12.75c0.1849365,0.2050781,0.5010986,0.2213135,0.7061768,0.036377
		s0.2213135-0.5010986,0.036377-0.7061768l-11.5-12.75c-0.1849365-0.2050781-0.5010986-0.2213135-0.7061768-0.036377
		S96.3719482,59.0727539,96.5568848,59.277832"/>
	<path class="st3" d="M66.916748,27.6323242l17.5-9.5c0.2426758-0.1317139,0.3326416-0.4353027,0.2008057-0.6779785
		c-0.1317139-0.2426758-0.4353027-0.3326416-0.6779785-0.2008057l-17.5,9.5
		c-0.2426758,0.1317139-0.3326416,0.4353027-0.2008057,0.6779785C66.3704834,27.6741943,66.6740723,27.7641602,66.916748,27.6323242
		"/>
	<path class="st3" d="M36.6782227,46.1929932v3.7498779c0,0.276123,0.2237549,0.5,0.5,0.5c0.276123,0,0.5-0.223877,0.5-0.5
		v-3.7498779c0-0.2762451-0.223877-0.5-0.5-0.5C36.9019775,45.6929932,36.6782227,45.916748,36.6782227,46.1929932"/>
	<path class="st3" d="M15.5522461,58.2747803l13.75-15.5c0.1832275-0.206665,0.1643066-0.522583-0.0422363-0.7059326
		c-0.206665-0.1832275-0.522583-0.1643066-0.7059326,0.0422363l-13.75,15.5
		c-0.1832275,0.206665-0.1643066,0.522583,0.0422363,0.7059326C15.0529785,58.5002441,15.3688965,58.4813232,15.5522461,58.2747803"
		/>
	<path class="st3" d="M56.206665,35.8778076l-12.25,15.0831299c-0.1740723,0.2143555-0.1414795,0.5292969,0.072876,0.7033691
		s0.5292969,0.1414795,0.7033691-0.072876l12.25-15.0831299c0.1740723-0.2143555,0.1414795-0.5292969-0.072876-0.7033691
		S56.3807373,35.6634521,56.206665,35.8778076"/>
	<path class="st3" d="M44.4377441,37.1202393l6.9998779-4.2498779c0.236084-0.1433105,0.3112793-0.4509277,0.1679688-0.6868896
		c-0.1433105-0.236084-0.4509277-0.3112793-0.6868896-0.1679688l-6.9998779,4.2498779
		c-0.236084,0.1433105-0.3112793,0.4509277-0.1679688,0.6868896C43.894165,37.1883545,44.2017822,37.2635498,44.4377441,37.1202393"
		/>
	<path class="st3" d="M9.418457,81.7908936l2-9.9998779c0.0541992-0.270752-0.12146-0.5341797-0.3922119-0.5883789
		s-0.5341797,0.12146-0.5883789,0.3922119l-2,9.9998779c-0.0541992,0.270752,0.12146,0.5341797,0.3922119,0.5883789
		S9.3642578,82.0616455,9.418457,81.7908936"/>
	<path class="st3" d="M21.3959961,63.8930664l7.75-3.75c0.2485352-0.1203613,0.3525391-0.4193115,0.2322998-0.6679688
		c-0.1203613-0.2485352-0.4193115-0.3525391-0.6679688-0.2322998l-7.75,3.75
		c-0.2485352,0.1203613-0.3525391,0.4193115-0.2322998,0.6679688
		C20.8483887,63.9093018,21.1473389,64.0133057,21.3959961,63.8930664"/>
	<path class="st3" d="M44.5054932,55.4996338l23.333374-7.916626c0.2614746-0.088623,0.4014893-0.3725586,0.3127441-0.6341553
		c-0.088623-0.2614746-0.3725586-0.4014893-0.6341553-0.3127441l-23.333374,7.916626
		c-0.2614746,0.088623-0.4014893,0.3725586-0.3127441,0.6341553C43.9599609,55.4483643,44.2438965,55.5883789,44.5054932,55.4996338
		"/>
	<path class="st3" d="M77.0528564,38.5239258l13.25-15c0.1828613-0.2069092,0.1633301-0.5229492-0.0437012-0.7056885
		c-0.2069092-0.1828613-0.5229492-0.1633301-0.7056885,0.0437012l-13.25,15
		c-0.1828613,0.2069092-0.1633301,0.5229492,0.0437012,0.7056885C76.5540771,38.7504883,76.8701172,38.730957,77.0528564,38.5239258
		"/>
	<path class="st3" d="M63.6435547,36.604126l3.2498779,2.2498779c0.2270508,0.1572266,0.5385742,0.1005859,0.6956787-0.1264648
		c0.1572266-0.2270508,0.1005859-0.5385742-0.1264648-0.6956787l-3.2498779-2.2498779
		c-0.2270508-0.1572266-0.5385742-0.1005859-0.6956787,0.1264648C63.3598633,36.135498,63.4165039,36.4470215,63.6435547,36.604126"
		/>
	<path class="st3" d="M80.2573242,47.6628418l5.5,2c0.2595215,0.0943604,0.5463867-0.0395508,0.6407471-0.2990723
		s-0.0395508-0.5463867-0.2990723-0.6407471l-5.5-2c-0.2595215-0.0943604-0.5463867,0.0395508-0.6407471,0.2990723
		S79.9978027,47.5684814,80.2573242,47.6628418"/>
	<path class="st3" d="M107.2055664,50.6090088c0.7626953-0.508667,7.2543945-5.0030518,7.2572021-5.0050049
		c0.2269287-0.1572266,0.2835693-0.4686279,0.1264648-0.6955566c-0.1572266-0.2270508-0.4686279-0.2836914-0.6955566-0.1264648
		c-0.003418,0.0021973-1.625,1.1247559-3.3435059,2.3121338c-1.7166748,1.1861572-3.534668,2.4396973-3.8994141,2.6827393
		c-0.2298584,0.1531982-0.2919922,0.4637451-0.1386719,0.6936035c0.1531982,0.2297363,0.4637451,0.2918701,0.6936035,0.1386719
		L107.2055664,50.6090088z"/>
	<path class="st3" d="M135.4231567,61.2636719c0.0079956-0.0617676,0.0527344-0.2615967,0.124939-0.53125
		c0.5470581-2.0617676,2.6409912-8.6143799,4.5911865-14.6253662c0.975647-3.0075684,1.916626-5.8846436,2.6136475-8.0096436
		s1.1489258-3.4942627,1.1500854-3.4978027c0.0864868-0.2623291-0.0559692-0.5449219-0.3181763-0.6314697
		c-0.2622681-0.0865479-0.5449219,0.0559082-0.6314087,0.3182373c0,0-2.0628662,6.2508545-4.1571655,12.7213135
		c-1.0471802,3.2353516-2.1022339,6.5253906-2.9117432,9.1182861c-0.4048462,1.2965088-0.7481689,2.418457-0.9991455,3.2744141
		c-0.1254883,0.4281006-0.2278442,0.7895508-0.303772,1.0754395c-0.0761108,0.2888184-0.1251221,0.4893799-0.1483765,0.6463623
		c-0.0391235,0.2733154,0.1507568,0.5266113,0.4241943,0.5657959c0.2733765,0.0390625,0.5266724-0.1508789,0.5657959-0.4241943
		L135.4231567,61.2636719z"/>
	<path class="st3" d="M141.9498901,72.4425049l5.75-0.25c0.2758789-0.012085,0.4898071-0.2453613,0.4778442-0.5212402
		c-0.0120239-0.2758789-0.2453613-0.4898682-0.5212402-0.4779053l-5.75,0.25
		c-0.2758789,0.012085-0.4898071,0.2453613-0.4778442,0.5212402
		C141.4406738,72.2404785,141.6740112,72.4544678,141.9498901,72.4425049"/>
	<path class="st3" d="M240.440918,30.3682861l8.5-5.25c0.2349854-0.1450195,0.3078003-0.453125,0.1626587-0.6881104
		c-0.1450806-0.2349854-0.453186-0.3077393-0.6881104-0.1625977l-8.5,5.25
		c-0.2349854,0.1450195-0.3078003,0.453125-0.1626587,0.6881104
		C239.8978882,30.4406738,240.2059937,30.5134277,240.440918,30.3682861"/>
	<path class="st3" d="M262.3658447,25.083374l3.75,3c0.2156372,0.1724854,0.5302734,0.1375732,0.7027588-0.078125
		c0.1725464-0.2155762,0.1375732-0.5302734-0.078064-0.7027588l-3.75-3
		c-0.2156372-0.1724854-0.5302734-0.1375732-0.7027588,0.078125
		C262.1152344,24.5961914,262.1502075,24.9108887,262.3658447,25.083374"/>
	<path class="st3" d="M284.7494507,34.6599121l20.25,7.75c0.2579346,0.0986328,0.5469971-0.0303955,0.6456909-0.288208
		c0.0986938-0.2579346-0.0303345-0.5469971-0.288208-0.645752l-20.25-7.75
		c-0.2579346-0.0986328-0.5469971,0.0303955-0.6456909,0.288208
		C284.3625488,34.2720947,284.4915771,34.5611572,284.7494507,34.6599121"/>
	<path class="st3" d="M321.6817627,42.3739014l8.499939-5c0.2380371-0.1400146,0.3174438-0.4464111,0.1774292-0.6844482
		c-0.1399536-0.2380371-0.4464111-0.3175049-0.6844482-0.1774902l-8.499939,5
		c-0.2380371,0.1400146-0.3174438,0.4464111-0.1774292,0.6844482
		C321.1372681,42.4344482,321.4437256,42.513916,321.6817627,42.3739014"/>
	<path class="st3" d="M342.7817383,26.5465088l7.7498779-7.75c0.1952515-0.1953125,0.1952515-0.5118408,0-0.7071533
		c-0.1952515-0.1951904-0.5118408-0.1951904-0.7070923,0l-7.7498779,7.75c-0.1952515,0.1953125-0.1952515,0.5118408,0,0.7071533
		C342.2698975,26.7416992,342.5864868,26.7416992,342.7817383,26.5465088"/>
	<path class="st3" d="M354.6802979,18.4903564l0.5001221,5.25c0.0261841,0.2749023,0.2702637,0.4765625,0.545166,0.4503174
		c0.2749023-0.026123,0.4765625-0.2702637,0.4503784-0.545166l-0.5001221-5.25
		c-0.0261841-0.2749023-0.2702637-0.4765625-0.545166-0.4503174
		C354.8557739,17.9713135,354.6541138,18.2154541,354.6802979,18.4903564"/>
	<path class="st3" d="M352.5316162,35.3884277l-10.75,14c-0.1681519,0.2189941-0.1269531,0.532959,0.092041,0.7010498
		c0.2190552,0.1682129,0.532959,0.1269531,0.7011108-0.092041l10.75-14c0.1681519-0.2189941,0.1269531-0.532959-0.092041-0.7010498
		C353.0136719,35.1281738,352.6997681,35.1694336,352.5316162,35.3884277"/>
	<path class="st3" d="M343.2542114,31.9371338l3.25-0.5c0.2729492-0.0419922,0.460144-0.2972412,0.4181519-0.5701904
		s-0.2972412-0.4602051-0.5701904-0.4182129l-3.25,0.5c-0.2729492,0.0419922-0.460144,0.2972412-0.4181519,0.5701904
		S342.9812622,31.979126,343.2542114,31.9371338"/>
	<path class="st3" d="M334.4283447,38.7043457l0.25,11c0.0062256,0.276001,0.2351074,0.494751,0.5112305,0.4884033
		c0.276062-0.0062256,0.494751-0.2351074,0.4884644-0.5112305l-0.25-11c-0.0062256-0.276001-0.2351074-0.494751-0.5112305-0.4884033
		C334.6407471,38.1993408,334.4220581,38.4282227,334.4283447,38.7043457"/>
	<path class="st3" d="M321.1771851,48.3753662l7.749939,4.5c0.2388306,0.1386719,0.5447998,0.0574951,0.6834717-0.1813965
		c0.1386719-0.2387695,0.0574951-0.5447998-0.1813354-0.6834717l-7.749939-4.5
		c-0.2388306-0.1386719-0.5447998-0.0574951-0.6834717,0.1813965
		C320.8571777,47.9306641,320.9383545,48.2366943,321.1771851,48.3753662"/>
	<path class="st3" d="M311.6868896,48.0999756l-1.75,9.25c-0.0513306,0.2713623,0.1270142,0.532959,0.3983765,0.5842285
		c0.2713013,0.0513916,0.5328979-0.1269531,0.5842285-0.3983154l1.75-9.25
		c0.0513306-0.2713623-0.1270142-0.532959-0.3983765-0.5842285
		C311.9998169,47.6502686,311.7382202,47.8286133,311.6868896,48.0999756"/>
	<path class="st3" d="M315.8414307,63.1655273l13.75-4.75c0.2610474-0.09021,0.3995361-0.3748779,0.3093262-0.6358643
		c-0.0901489-0.2609863-0.3748169-0.3995361-0.6358032-0.3093262l-13.75,4.75
		c-0.2610474,0.09021-0.3995361,0.3748779-0.3093262,0.6358643
		C315.2957764,63.1171875,315.5804443,63.2557373,315.8414307,63.1655273"/>
	<path class="st3" d="M300.1343994,65.7883301l-18.249939,13.25c-0.2235107,0.1622314-0.2731323,0.4748535-0.1109009,0.6983643
		c0.1622925,0.2235107,0.4749146,0.2730713,0.6983643,0.1108398l18.249939-13.25
		c0.2235107-0.1622314,0.2731323-0.4748535,0.1109009-0.6983643
		C300.6704712,65.6756592,300.3578491,65.6260986,300.1343994,65.7883301"/>
	<path class="st3" d="M272.9373169,62.597168l-1.9998779,10.25c-0.0528564,0.2709961,0.1239624,0.5335693,0.3950195,0.5865479
		c0.2709961,0.0528564,0.5335693-0.1240234,0.5864868-0.3950195l1.9998779-10.25
		c0.0528564-0.2709961-0.1239624-0.5335693-0.3950195-0.5865479
		C273.2528076,62.149292,272.9902344,62.3261719,272.9373169,62.597168"/>
	<path class="st3" d="M259.5942993,56.7203369l-0.0158691-0.0106201l0.0153198,0.0114746L259.5942993,56.7203369
		l-0.0158691-0.0106201l0.0153198,0.0114746c0.0175781-0.0249023,0.1137085-0.1376953,0.25-0.2861328
		c1.0441284-1.1435547,4.6644287-4.8149414,8.0090942-8.1844482c1.6735229-1.6861572,3.2808228-3.2998047,4.4697266-4.4918213
		c1.1888428-1.1920166,1.9572144-1.9603271,1.9591675-1.9622803c0.1951904-0.1953125,0.1951904-0.5118408,0-0.7070312
		c-0.1952515-0.1953125-0.5118408-0.1953125-0.7070312,0c0,0-3.5631104,3.5629883-7.1890259,7.2202148
		c-1.8130493,1.8286133-3.6417236,3.6807861-5.0496826,5.1239014c-0.7041016,0.7216797-1.3027954,1.3409424-1.7432251,1.8054199
		c-0.2203369,0.2324219-0.4009399,0.4259033-0.5370483,0.5761719c-0.1395874,0.1561279-0.2199707,0.2440186-0.2935181,0.3503418
		c-0.1532593,0.2297363-0.0911865,0.5402832,0.1386108,0.6934814c0.2297363,0.1531982,0.5402832,0.0911865,0.6935425-0.1385498
		L259.5942993,56.7203369z"/>
	<path class="st3" d="M279.2424316,42.9381104l4.5,8c0.135376,0.2406006,0.4401855,0.3260498,0.6809082,0.1905518
		c0.2406616-0.135376,0.3260498-0.4401855,0.1906128-0.6809082l-4.5-8c-0.135376-0.2406006-0.4401855-0.3260498-0.6809082-0.1905518
		C279.1923828,42.3925781,279.1069946,42.6973877,279.2424316,42.9381104"/>
	<path class="st3" d="M295.4783325,55.8428955l11.9998779-9c0.2208862-0.1656494,0.265686-0.4790039,0.0999756-0.6999512
		s-0.4790649-0.2657471-0.7000122-0.0999756l-11.9998779,9c-0.2208862,0.1656494-0.265686,0.4790039-0.0999756,0.6999512
		S295.2573853,56.008667,295.4783325,55.8428955"/>
	<path class="st3" d="M294.9462891,59.1358643l5.2498169,2.75c0.2446289,0.1281738,0.546814,0.0336914,0.6749268-0.2109375
		c0.1281738-0.2446289,0.0337524-0.5467529-0.2108765-0.6749268l-5.2498169-2.75
		c-0.2446289-0.1281738-0.546814-0.0336914-0.6749268,0.2109375
		C294.6072388,58.7055664,294.7016602,59.0076904,294.9462891,59.1358643"/>
	<path class="st3" d="M273.3671265,58.1966553l-14.2498169,1.75c-0.2741089,0.0336914-0.4689941,0.2830811-0.4353027,0.557251
		c0.0336304,0.2740479,0.2830811,0.4689941,0.5571899,0.4353027l14.2498169-1.75
		c0.2741089-0.0336914,0.4689941-0.2830811,0.4353027-0.557251
		C273.890686,58.3579102,273.6412354,58.1629639,273.3671265,58.1966553"/>
	<path class="st3" d="M254.1895752,30.5869141l-4.5,20.75c-0.0585327,0.2698975,0.112793,0.5361328,0.3826294,0.5946045
		c0.2698975,0.0585938,0.5361328-0.112793,0.5946045-0.3825684l4.5-20.75
		c0.0585327-0.2698975-0.112793-0.5361328-0.3826294-0.5946045
		C254.5142822,30.145752,254.2480469,30.3171387,254.1895752,30.5869141"/>
	<path class="st3" d="M240.5892944,57.1583252l-4.5-6.5c-0.1571655-0.2270508-0.468689-0.2836914-0.6956787-0.1264648
		c-0.2270508,0.1571045-0.2836914,0.4686279-0.1265259,0.6956787l4.5,6.5
		c0.1571655,0.2270508,0.468689,0.2836914,0.6956787,0.1264648C240.6898193,57.6968994,240.74646,57.385376,240.5892944,57.1583252"
		/>
	<path class="st3" d="M238.0419922,77.5358887l8.25-8.75c0.1894531-0.2009277,0.1801147-0.517334-0.020813-0.7067871
		s-0.517334-0.1800537-0.7067871,0.020874l-8.25,8.75c-0.1894531,0.2009277-0.1801147,0.517334,0.020813,0.7067871
		S237.8525391,77.7368164,238.0419922,77.5358887"/>
	<path class="st3" d="M237.7944946,88.1791992l23-5.5c0.2685547-0.064209,0.4342041-0.3339844,0.3699951-0.6025391
		s-0.3339844-0.4342041-0.6026001-0.3699951l-23,5.5c-0.2685547,0.064209-0.4342041,0.3339844-0.3699951,0.6025391
		S237.5258789,88.2434082,237.7944946,88.1791992"/>
	<path class="st3" d="M165.623291,23.0900879l24.333374,7c0.2653809,0.0762939,0.5423584-0.0769043,0.6187134-0.3422852
		s-0.0769043-0.5423584-0.3422852-0.6187744l-24.333374-7c-0.2653809-0.0762939-0.5423584,0.0769043-0.6187134,0.3422852
		S165.3579102,23.0136719,165.623291,23.0900879"/>
</g>
</svg>
