<?xml version="1.0" encoding="utf-8"?>
<!-- Generator: Adobe Illustrator 19.0.1, SVG Export Plug-In . SVG Version: 6.00 Build 0)  -->
<svg version="1.1" id="Layer_1" xmlns="http://www.w3.org/2000/svg" xmlns:xlink="http://www.w3.org/1999/xlink" x="0px" y="0px"
	 width="89px" height="110.5px" viewBox="0 0 89 110.5" style="enable-background:new 0 0 89 110.5;" xml:space="preserve">
<style type="text/css">
	.st0{fill:#71B82F;}
	.st1{fill:#DFD91A;}
	.st2{fill:#373838;}
	.st3{fill:#61D31E;}
	.st4{fill:#E0D919;}
	.st5{fill:none;stroke:#61D31E;stroke-linecap:round;stroke-linejoin:round;stroke-miterlimit:10;}
	.st6{fill:none;stroke:#61D31E;stroke-width:2;stroke-linecap:round;stroke-linejoin:round;stroke-miterlimit:10;}
</style>
<g>
	<path class="st2" d="M67.3305664,108.4702072V107.3181H21.6695976c-5.0709877-0.000351-9.676322-2.0721588-13.0243521-5.4185715
		C5.298903,98.5514984,3.2270224,93.946228,3.2266006,88.8753128V57.2723885
		c0.0004218-5.0709877,2.0723023-9.6763229,5.4186449-13.0242119c3.3480301-3.3464851,7.9532251-5.4182243,13.0243521-5.4186478
		h45.6609688c5.0708466,0.0004234,9.6761856,2.0721626,13.0242157,5.4186478
		c3.3463364,3.3478889,5.4182205,7.953083,5.4186401,13.0242119v31.6029243
		c-0.0004196,5.0709152-2.0723038,9.6761856-5.4186401,13.0242157c-3.3480301,3.3464127-7.9533691,5.4182205-13.0242157,5.4185715
		V108.4702072v1.1520386c11.4185486-0.004364,20.742569-9.3283844,20.746933-20.746933V57.2723885
		c-0.004364-11.4186897-9.3283844-20.7425728-20.746933-20.746933H21.6695976
		c-11.4186869,0.0043602-20.7427101,9.3282433-20.7470703,20.746933v31.6029243
		c0.0043598,11.4185486,9.3283844,20.742569,20.7470703,20.746933h45.6609688V108.4702072z"/>
	<path class="st2" d="M2.1030428,82.194931h1.1519666v-16.922905H85.745018l-0.000145,15.7707291L2.1030428,81.0428238V82.194931
		h1.1519666H2.1030428v1.1520386h84.7939377c0.30336,0,0.6001053-0.1229172,0.8145752-0.3374634
		c0.2146149-0.2145386,0.3373947-0.5112839,0.3373947-0.8145752V64.1201935c0-0.3033524-0.1227798-0.6001015-0.3373947-0.8147125
		c-0.2144699-0.2144737-0.5112152-0.3373909-0.8145752-0.3373909H2.1030428c-0.303497,0-0.6002433,0.122776-0.8147165,0.3373909
		c-0.2146137,0.2144737-0.3373907,0.511219-0.3373907,0.8147125V82.194931c0,0.30336,0.1229177,0.6001053,0.3373907,0.8146515
		c0.2146138,0.2145386,0.5112195,0.3373871,0.8147165,0.3373871V82.194931z"/>
	<path class="st2" d="M53.537487,108.6375656v-1.1521072H36.6145058V38.8293915h15.7710152l-0.0001411,69.8081741H53.537487
		v-1.1521072V108.6375656h1.1519661V37.6775627c0-0.3033562-0.122776-0.6001015-0.3373909-0.8147163
		c-0.2144737-0.2144737-0.511219-0.3373909-0.8145752-0.3373909h-18.07481c-0.3034935,0-0.6002426,0.1227798-0.8147163,0.3373909
		c-0.2146111,0.2144737-0.3373909,0.511219-0.3373909,0.8147163v70.9600067c0,0.30336,0.122921,0.6001053,0.3373909,0.8146439
		c0.2146149,0.2145462,0.5112228,0.3373947,0.8147163,0.3373947h18.07481c0.3033562,0,0.6001015-0.1229172,0.8145752-0.3374634
		c0.2146149-0.2145386,0.3373909-0.5112915,0.3373909-0.8145752H53.537487z"/>
	<path class="st2" d="M45.1228294,37.2591667l0.1476669-1.1426849c-0.001545-0.0001411-0.5361099-0.0691948-1.4934349-0.216301
		c-3.3485909-0.5131912-11.772953-1.9765282-19.2717781-4.5916939c-3.7468796-1.3030128-7.2598782-2.9030514-9.7502975-4.7452698
		c-1.2463341-0.9187889-2.2315044-1.8935509-2.8844872-2.8864555c-0.6538267-0.9972649-0.9851694-1.9908733-0.9874201-3.0601444
		c0.0002813-0.4656525,0.0641308-0.9491673,0.2050505-1.4608078c0.419383-1.4979362,1.1359339-2.4381027,2.1047897-3.079834
		c0.9709654-0.6368093,2.2634296-0.9678717,3.8311214-0.9678717c4.5344543-0.0264397,11.0820007,2.8840647,16.5123177,7.2065763
		c5.4606972,4.3005733,9.7946014,10.0031643,10.4443474,15.0966549L45.1228294,37.2591667l0.1476669-1.1426849
		L45.1228294,37.2591667l1.1419792-0.1523132C45.422245,31.010334,40.6903381,25.0613422,34.966507,20.5080433
		c-5.7542076-4.5316401-12.5098972-7.6775732-17.9424667-7.7040129c-1.8820181,0-3.6395721,0.3944893-5.0927858,1.3437967
		c-1.4553232,0.9443846-2.5372515,2.4510403-3.0646448,4.3962059c-0.1930962,0.6993923-0.2878857,1.3938637-0.2876043,2.0725842
		c-0.0028133,1.7965107,0.6714058,3.4488678,1.7537565,4.874094c1.9028339,2.4988575,5.0113573,4.4444447,8.5922852,6.081049
		c10.7315292,4.8673458,25.9962482,6.8151836,26.0499706,6.8299503c0.3548279,0.045845,0.7114868-0.0759468,0.963932-0.3295174
		c0.2525864-0.2535706,0.3731155-0.6106491,0.3258591-0.9653397L45.1228294,37.2591667z"/>
	<path class="st2" d="M44.541851,37.2591667l0.1476707,1.1425438c0.034317-0.0056267,8.9196892-1.1514053,17.8787575-3.8356247
		c4.4827003-1.3463287,8.9834023-3.0673161,12.4566002-5.2886944c1.7358932-1.1138535,3.2221527-2.3554077,4.3066177-3.7866802
		c1.0823517-1.4252262,1.7565689-3.0775833,1.7537537-4.874094c0.000145-0.6794224-0.0950699-1.3731918-0.287178-2.0721626
		c-0.5275345-1.9455872-1.6096039-3.4522429-3.0650711-4.3966274c-1.4533539-0.9493074-3.210907-1.3437967-5.0927811-1.3437967
		c-5.4328537,0.0264397-12.1885452,3.1723728-17.9427528,7.7040129
		c-5.7238274,4.553299-10.4555969,10.5022907-11.2977371,16.5988102c-0.0473938,0.3546906,0.0732727,0.7117691,0.3258591,0.9653397
		c0.2524452,0.2535706,0.608963,0.3753624,0.963932,0.3295174L44.541851,37.2591667l1.141983,0.1521683
		c0.6494675-5.0934906,4.9832268-10.7960815,10.4437828-15.0966549c5.4303169-4.3225117,11.9778671-7.233016,16.5126038-7.2065763
		c1.567688,0,2.8601532,0.3310623,3.8312607,0.9678717c0.9688568,0.6417313,1.6854019,1.5818977,2.1047897,3.0791302
		c0.1404953,0.5123444,0.2047653,0.9965611,0.2049103,1.4615116c-0.0028152,1.2197533-0.4345703,2.3499203-1.2876816,3.4844494
		c-1.4841537,1.9807453-4.3031082,3.8328094-7.7080917,5.3730774c-5.1048813,2.323904-11.4786034,4.0001678-16.5524025,5.0768929
		c-2.5379562,0.5394897-4.7531471,0.9317284-6.3311043,1.1885338c-0.7888412,0.1284027-1.4184761,0.2229118-1.8495331,0.2852135
		s-0.6577644,0.0915565-0.6583252,0.0916977L44.541851,37.2591667l1.141983,0.1521683L44.541851,37.2591667z"/>
	<path class="st2" d="M35.7387505,9.2190247l8.0331078,27.1122093c0.1452789,0.490406,0.5943375,0.825264,1.1058388,0.8247032
		c0.5115013-0.0004234,0.9598541-0.3362656,1.1041489-0.8269539L56.0234032,2.1878233
		c0.1794548-0.61051-0.1698875-1.2508352-0.7802582-1.4302895c-0.6105118-0.1795948-1.2508354,0.1697502-1.4302902,0.7802601
		l-8.9405022,30.3966732L37.9480362,8.5643539c-0.1808624-0.6100879-0.8220291-0.9580264-1.4319763-0.7771659
		c-0.6100883,0.1807199-0.9580269,0.8218894-0.7771683,1.4319768L35.7387505,9.2190247z"/>
</g>
</svg>
