<?xml version="1.0" encoding="utf-8"?>
<!-- Generator: Adobe Illustrator 19.0.1, SVG Export Plug-In . SVG Version: 6.00 Build 0)  -->
<svg version="1.1" id="Layer_1" xmlns="http://www.w3.org/2000/svg" xmlns:xlink="http://www.w3.org/1999/xlink" x="0px" y="0px"
	 width="365.5px" height="97.5px" viewBox="0 0 365.5 97.5" style="enable-background:new 0 0 365.5 97.5;" xml:space="preserve">
<style type="text/css">
	.st0{fill:#71B82F;}
	.st1{fill:#DFD91A;}
	.st2{fill:#373838;}
	.st3{fill:#61D31E;}
	.st4{fill:#E0D919;}
	.st5{fill:none;stroke:#61D31E;stroke-linecap:round;stroke-linejoin:round;stroke-miterlimit:10;}
	.st6{fill:none;stroke:#61D31E;stroke-width:2;stroke-linecap:round;stroke-linejoin:round;stroke-miterlimit:10;}
</style>
<g>
	<g>
		<path class="st3" d="M39.8602257,37.1262817l1.0266228-0.9274254c0.6125107,0.9864731,1.5792999,1.7162895,2.82164,1.7162895
			c1.5981979,0,2.3870583-0.9864731,2.3870583-2.5059395c0-1.7950172-1.1636124-2.3870583-2.5051498-2.3870583
			c-0.4141121,0-0.8691673,0-1.045517,0.0196838v-1.4210548c0.1763496,0.0204678,0.6707687,0.0204678,1.0061531,0.0204678
			c1.3210678,0,2.3870583-0.7109203,2.3870583-2.2107048c0-1.5588303-0.9463234-2.3083286-2.2689667-2.3083286
			c-1.1636124,0-1.993412,0.6117229-2.6641808,1.5588303l-0.9856873-0.8880596
			c0.7888641-1.2628098,2.1099319-2.0713558,3.7490654-2.0713558c2.1304016,0,3.7285995,1.1636124,3.7285995,3.4924107
			c0,1.637558-1.1447182,2.7814884-2.3476944,3.0586147c1.1636124,0.1771393,2.5256195,1.3612213,2.5256195,3.2554359
			c0,2.1902351-1.401371,3.7884293-3.9065247,3.7884293C41.8930054,39.3165169,40.5309944,38.3300438,39.8602257,37.1262817z"/>
		<path class="st3" d="M49.1927376,37.1262817l1.0266228-0.9274254c0.6109352,0.9864731,1.5792999,1.7162895,2.82164,1.7162895
			c1.5981979,0,2.3870583-0.9864731,2.3870583-2.5059395c0-1.7950172-1.1636124-2.3870583-2.5051498-2.3870583
			c-0.4141121,0-0.8691673,0-1.045517,0.0196838v-1.4210548c0.1763496,0.0204678,0.6707687,0.0204678,1.0061531,0.0204678
			c1.3210678,0,2.3870583-0.7109203,2.3870583-2.2107048c0-1.5588303-0.9463196-2.3083286-2.2689667-2.3083286
			c-1.1636086,0-1.993412,0.6117229-2.6641808,1.5588303l-0.9856834-0.8880596
			c0.7888603-1.2628098,2.1115036-2.0713558,3.7490654-2.0713558c2.1304016,0,3.7285957,1.1636124,3.7285957,3.4924107
			c0,1.637558-1.1447182,2.7814884-2.3476944,3.0586147c1.1636124,0.1771393,2.5256195,1.3612213,2.5256195,3.2554359
			c0,2.1902351-1.401371,3.7884293-3.9065208,3.7884293C51.2255173,39.3165169,49.8635063,38.3300438,49.1927376,37.1262817z"/>
		<path class="st3" d="M63.6174278,39.0795441v-3.3743172h-5.2086945v-1.3612213l4.7552185-8.4255562h2.01231v8.4058723h1.4407349
			v1.3809052h-1.4407349v3.3743172H63.6174278z M63.6174278,27.6158428l-3.7679596,6.7084789h3.7679596V27.6158428z"/>
		<path class="st3" d="M72.7326508,39.0795441v-3.3743172h-5.2086945v-1.3612213l4.7552185-8.4255562h2.0123062v8.4058723h1.4407349
			v1.3809052H74.291481v3.3743172H72.7326508z M72.7326508,27.6158428l-3.7679596,6.7084789h3.7679596V27.6158428z"/>
	</g>
	<g>
		<path class="st3" d="M41.2427025,79.925621l4.1238174-11.7794037h-5.5645523v-1.381691h7.3202019v1.0856705L42.9196281,79.925621
			H41.2427025z"/>
		<path class="st3" d="M48.5424385,73.3549118c0-3.1767044,1.045517-6.7872086,4.1238136-6.7872086
			s4.1238174,3.6105042,4.1238174,6.7872086c0,3.1570282-1.0455208,6.8076859-4.1238174,6.8076859
			S48.5424385,76.51194,48.5424385,73.3549118z M55.1918716,73.3549118c0-2.6043472-0.4928398-5.3866196-2.5256195-5.3866196
			c-2.0123062,0-2.5051498,2.7822723-2.5051498,5.3866196c0,2.584671,0.472374,5.406311,2.5051498,5.406311
			C54.6990318,78.7612228,55.1918716,75.9395828,55.1918716,73.3549118z"/>
		<path class="st3" d="M58.9803047,78.5053558l0.867588-1.1053543c0.4944191,0.82901,1.1053543,1.3415375,2.190239,1.3415375
			c2.1319733,0,2.8610001-2.7822723,2.8610001-5.2480621c0-0.1779251,0-0.2369766,0-0.4149017
			c-0.453476,0.9471054-1.5383568,1.9532623-2.9003677,1.9532623c-1.9131088,0-3.4530449-1.4005814-3.4530449-4.2025452
			c0-2.229599,1.362011-4.2812729,3.7884293-4.2812729c3.138134,0,4.1631813,3.2947998,4.1631813,6.8068924
			c0,3.5317764-1.2817078,6.788002-4.459198,6.788002C60.6572266,80.1429138,59.6321793,79.4918289,58.9803047,78.5053558z
			 M64.8597717,71.6583099c-0.0787277-1.4801025-0.592041-3.7097015-2.4468918-3.7097015
			c-1.5777245,0-2.2689667,1.4801025-2.2689667,2.8413239c0,2.0918198,1.0061569,2.8806839,2.2500725,2.8806839
			C63.4993362,73.6706161,64.3873978,72.7235107,64.8597717,71.6583099z"/>
		<path class="st3" d="M68.4718475,79.925621v-1.2824936c4.3017426-4.9528275,5.7818451-6.5510254,5.7818451-8.4846039
			c0-1.4005814-0.9872589-2.1902313-2.1115112-2.1902313c-1.2423401,0-2.1508713,0.6117172-2.7822723,1.6572418l-1.0266266-0.947113
			c0.8691711-1.3415375,2.1508713-2.1107178,3.8293686-2.1107178c2.0123138,0,3.6892319,1.3021774,3.6892319,3.5908203
			c0,2.2099228-1.6580276,4.1828613-5.1504364,8.3665085h5.2087021v1.400589H68.4718475z"/>
	</g>
	<g>
		<path class="st3" d="M245.641571,37.4671783v-1.2824936c4.3017426-4.9528294,5.7818451-6.5510235,5.7818451-8.4846039
			c0-1.4005852-0.9856873-2.1902351-2.1099396-2.1902351c-1.2439117,0-2.1508636,0.6117229-2.783844,1.6572418l-1.0266266-0.9471073
			c0.8691711-1.3415394,2.1508789-2.1107197,3.8293762-2.1107197c2.0122986,0,3.6907959,1.3021755,3.6907959,3.5908203
			c0,2.209919-1.6595917,4.1828613-5.1520081,8.3665123h5.2086945v1.4005852H245.641571z"/>
		<path class="st3" d="M254.8182068,35.513916l1.0266113-0.9274254c0.6109314,0.9864731,1.5777283,1.7162857,2.8216553,1.7162857
			c1.5966187,0,2.3870544-0.9864693,2.3870544-2.5059357c0-1.7950172-1.1651917-2.3870583-2.5067444-2.3870583
			c-0.4125366,0-0.8691406,0-1.0455017,0.0196819v-1.4210548c0.1763611,0.0204697,0.6707764,0.0204697,1.0077209,0.0204697
			c1.3194885,0,2.3870544-0.7109203,2.3870544-2.2107048c0-1.5588303-0.947876-2.3083286-2.2705383-2.3083286
			c-1.1620178,0-1.9934082,0.6117229-2.6641693,1.5588303l-0.9856873-0.8880596
			c0.7904358-1.2628098,2.1099396-2.0713558,3.7506256-2.0713558c2.1288452,0,3.7286072,1.1636124,3.7286072,3.4924107
			c0,1.637558-1.1463013,2.7814884-2.3492737,3.0586128c1.1651917,0.1771412,2.5256348,1.3612232,2.5256348,3.2554379
			c0,2.1902351-1.4013672,3.7884293-3.9049683,3.7884293C256.8493958,37.7041512,255.4889679,36.7176781,254.8182068,35.513916z"/>
		<path class="st3" d="M269.241333,37.4671783v-3.3743172h-5.2087097v-1.3612213l4.7552185-8.4255562h2.0122986v8.4058723h1.4391785
			v1.3809052h-1.4391785v3.3743172H269.241333z M269.241333,26.0034752l-3.7695618,6.7084808h3.7695618V26.0034752z"/>
		<path class="st3" d="M274.648407,37.4671783l4.1253967-11.7794056h-5.5645447v-1.3816891h7.318634v1.0856705
			l-4.2009888,12.0754242H274.648407z"/>
	</g>
	<path class="st3" d="M21.7645092,31.0419464v7.4320488c-0.0002956,0.8841743-0.3601837,1.6847229-0.9458294,2.2715225
		c-0.5868244,0.5856705-1.3872986,0.9455566-2.2714233,0.9457779H6.8120394
		c-0.884223-0.0002213-1.6846981-0.3601074-2.271523-0.9457779c-0.5856438-0.5867996-0.9455328-1.3873482-0.945828-2.2715225
		v-7.488142c0-0.4452114-0.3609717-0.8060856-0.8060846-0.8060856c-0.4452114,0-0.8060845,0.3608742-0.8060845,0.8060856
		l-0.0000985,7.488142c0.0030508,2.6616745,2.1678958,4.8265686,4.8296185,4.8296432h11.7352171
		c2.661623-0.0030746,4.8264694-2.1679688,4.8295193-4.8296432v-7.4320488c0-0.4452114-0.3609715-0.8060837-0.8060837-0.8060837
		c-0.4452114,0-0.8060856,0.3608723-0.8060856,0.8060837H21.7645092z"/>
	<path class="st3" d="M8.2086887,23.5215511h10.3385677c0.4452114,0,0.8061829-0.3609715,0.8061829-0.8061829
		c0-0.445261-0.3609715-0.8061829-0.8061829-0.8061829H8.2086887c-0.4453101,0-0.8061833,0.3609219-0.8061833,0.8061829
		C7.4025054,23.1605797,7.7633786,23.5215511,8.2086887,23.5215511"/>
	<path class="st3" d="M2.1378119,24.8148193l9.8910933,13.5281181c0.1526356,0.208828,0.3973837,0.3320618,0.656106,0.3303413
		c0.2587233-0.0017242,0.5016994-0.1282043,0.6516781-0.3390274l17.3427734-24.3922729
		c0.2579365-0.3628912,0.1729088-0.8661642-0.1899319-1.1240997c-0.3628426-0.2579842-0.8661156-0.173007-1.1240501,0.1898842
		l-16.695034,23.4810104l-9.2311487-12.625639c-0.2628558-0.359396-0.7672124-0.4376831-1.1266093-0.1748257
		c-0.3593969,0.2628059-0.4376336,0.7671623-0.174778,1.1265583L2.1378119,24.8148193z"/>
	<path class="st3" d="M21.7645092,71.3510971v7.432045c-0.0002956,0.8841782-0.3601837,1.6847229-0.9458294,2.2715225
		c-0.5868244,0.5856705-1.3872986,0.9455566-2.2714233,0.9457779H6.8120394
		c-0.884223-0.0002213-1.6846981-0.3601074-2.271523-0.9457779c-0.5856438-0.5867996-0.9455328-1.3873444-0.945828-2.2715225
		v-7.4881439c0-0.4452057-0.3609717-0.8060837-0.8060846-0.8060837c-0.4452114,0-0.8060845,0.360878-0.8060845,0.8060837
		l-0.0000985,7.4881439c0.0030508,2.6616745,2.1678958,4.8265686,4.8296185,4.8296432h11.7352171
		c2.661623-0.0030746,4.8264694-2.1679688,4.8295193-4.8296432v-7.432045c0-0.4452133-0.3609715-0.8060837-0.8060837-0.8060837
		c-0.4452114,0-0.8060856,0.3608704-0.8060856,0.8060837H21.7645092z"/>
	<path class="st3" d="M8.2086887,63.8306732h10.3385677c0.4452114,0,0.8061829-0.3609467,0.8061829-0.8061829
		c0-0.4452591-0.3609715-0.8061829-0.8061829-0.8061829H8.2086887c-0.4453101,0-0.8061833,0.3609238-0.8061833,0.8061829
		C7.4025054,63.4697266,7.7633786,63.8306732,8.2086887,63.8306732"/>
	<path class="st3" d="M2.1378119,65.1239395l9.8910933,13.5281448c0.1526356,0.2088242,0.3973837,0.3320618,0.656106,0.3303375
		c0.2587233-0.0017166,0.5016994-0.1282043,0.6516781-0.3390198l17.3427734-24.3922272
		c0.2579365-0.3628654,0.1729088-0.8661423-0.1899319-1.1241264c-0.3628426-0.258007-0.8661156-0.1730042-1.1240501,0.1898613
		l-16.695034,23.4810104L3.4392974,64.1722794C3.1764417,63.812912,2.672085,63.734623,2.3126881,63.9974289
		c-0.3592985,0.2627869-0.4376336,0.7671661-0.174778,1.1265335L2.1378119,65.1239395z"/>
	<path class="st3" d="M227.0724945,28.3546619v7.4320507c-0.0002899,0.8841705-0.3601837,1.6846962-0.9458313,2.2715225
		c-0.5868225,0.5856667-1.3873901,0.9455566-2.2715149,0.9457779h-11.7351227
		c-0.8842163-0.0002213-1.6847992-0.3601112-2.2716217-0.9457779c-0.5856476-0.5868263-0.9455261-1.387352-0.9458313-2.2715225
		v-7.4881191c0-0.4452114-0.3609619-0.8060856-0.806076-0.8060856c-0.4452057,0-0.8060913,0.3608742-0.8060913,0.8060856
		l-0.0000916,7.4881191c0.0030518,2.6616707,2.1678925,4.8265915,4.8297119,4.8296394h11.7351227
		c2.6617279-0.0030479,4.8265686-2.1679688,4.8296204-4.8296394v-7.4320507c0-0.4452114-0.3609772-0.8060837-0.8060913-0.8060837
		c-0.4452057,0-0.806076,0.3608723-0.806076,0.8060837H227.0724945z"/>
	<path class="st3" d="M213.5165863,20.8342419h10.338562c0.4452057,0,0.8061829-0.3609715,0.8061829-0.8061829
		c0-0.445261-0.3609772-0.8061829-0.8061829-0.8061829h-10.338562c-0.4453125,0-0.8061829,0.3609219-0.8061829,0.8061829
		C212.7104034,20.4732704,213.0712738,20.8342419,213.5165863,20.8342419"/>
	<path class="st3" d="M207.4457092,22.1275101l9.8910828,13.5281677c0.1526337,0.208828,0.3973846,0.3320618,0.6561127,0.3303413
		c0.2587128-0.0017242,0.5016937-0.1282082,0.6516724-0.3390274l17.3428802-24.3922749
		c0.2579346-0.3628902,0.1728973-0.8661642-0.1899414-1.1240997c-0.3628387-0.2579842-0.8661041-0.1730061-1.124054,0.1898842
		l-16.6951294,23.4810123l-9.2311401-12.6256886c-0.2628632-0.359396-0.7672119-0.4376831-1.1266174-0.1748257
		c-0.3593903,0.2628059-0.4376221,0.7671623-0.1747742,1.1265583L207.4457092,22.1275101z"/>
	<g>
		<path class="st3" d="M247.87117,76.1639557V65.0750046l-2.0312042,2.1705551l-0.9478912-0.9864731l3.1585999-3.2562218h1.3793335
			v13.1610909H247.87117z"/>
		<path class="st3" d="M254.0876007,76.1639557V65.0750046l-2.0343475,2.1705551l-0.9447479-0.9864731l3.1554413-3.2562218
			h1.3824768v13.1610909H254.0876007z"/>
		<path class="st3" d="M262.6910706,76.1639557v-3.3743134h-5.2086792V71.428421l4.7552185-8.4255562h2.0122986v8.4058723h1.4391785
			v1.3809052h-1.4391785v3.3743134H262.6910706z M262.6910706,64.7002563l-3.7695312,6.7084808h3.7695312V64.7002563z"/>
		<path class="st3" d="M267.1691895,74.250061l1.0455017-0.9471054c0.6329956,1.0848846,1.4989929,1.6966019,2.783844,1.6966019
			c1.4391785,0,2.3461304-1.3218536,2.3461304-2.8610001c0-1.8745346-0.8880615-2.9003754-2.2485046-2.9003754
			c-0.9289856,0-1.6564331,0.3353882-2.3870544,1.2234497l-1.1651917-0.3944321v-7.0643349h6.7077026v1.3816872h-5.1488647
			v4.6166611c0.5133057-0.6314087,1.3824768-1.1439285,2.428009-1.1439285c1.8926392,0,3.4136658,1.4997787,3.4136658,4.2419052
			c0,2.4862595-1.6186523,4.3017426-3.9080811,4.3017426C269.1027527,76.4009323,267.9785156,75.5719147,267.1691895,74.250061z"/>
	</g>
	<path class="st3" d="M227.0724945,67.5888901v7.4320526c-0.0002899,0.8841705-0.3601837,1.6846924-0.9458313,2.2715225
		c-0.5868225,0.5856628-1.3873901,0.9455566-2.2715149,0.9457779h-11.7351227
		c-0.8842163-0.0002213-1.6847992-0.3601151-2.2716217-0.9457779c-0.5856476-0.5868301-0.9455261-1.387352-0.9458313-2.2715225
		v-7.488121c0-0.4452133-0.3609619-0.8060837-0.806076-0.8060837c-0.4452057,0-0.8060913,0.3608704-0.8060913,0.8060837
		l-0.0000916,7.488121c0.0030518,2.6616669,2.1678925,4.8265915,4.8297119,4.8296432h11.7351227
		c2.6617279-0.0030518,4.8265686-2.1679764,4.8296204-4.8296432v-7.4320526c0-0.4452133-0.3609772-0.8060837-0.8060913-0.8060837
		c-0.4452057,0-0.806076,0.3608704-0.806076,0.8060837H227.0724945z"/>
	<path class="st3" d="M213.5165863,60.0684929h10.338562c0.4452057,0,0.8061829-0.3609467,0.8061829-0.8061829
		c0-0.4452591-0.3609772-0.8061829-0.8061829-0.8061829h-10.338562c-0.4453125,0-0.8061829,0.3609238-0.8061829,0.8061829
		C212.7104034,59.7075462,213.0712738,60.0684929,213.5165863,60.0684929"/>
	<path class="st3" d="M207.4457092,61.361763l9.8910828,13.5281448c0.1526337,0.2088242,0.3973846,0.3320618,0.6561127,0.3303375
		c0.2587128-0.0017242,0.5016937-0.1282043,0.6516724-0.3390274l17.3428802-24.3922462
		c0.2579346-0.3628654,0.1728973-0.8661423-0.1899414-1.1241264c-0.3628387-0.258007-0.8661041-0.1730042-1.124054,0.1898613
		l-16.6951294,23.4810371l-9.2311401-12.6256409c-0.2628632-0.3593712-0.7672119-0.4376564-1.1266174-0.1748505
		c-0.3592987,0.2627831-0.4376221,0.7671623-0.1747742,1.1265335L207.4457092,61.361763z"/>
	<path class="st4" d="M116.001709,49.7024956c-1.6044998,0-2.3398209,1.7792702-2.3398209,3.6545906
		c0,1.8942146,0.735321,3.6734848,2.3398209,3.6734848c1.6438522,0,2.3587112-1.7792702,2.3587112-3.6734848
		C118.3604202,51.4817657,117.6455612,49.7024956,116.001709,49.7024956z"/>
	<path class="st4" d="M134.4022064,53.5302887h-2.1461487v3.3270798h2.1461487c1.0439453,0,1.5855865-0.6959648,1.5855865-1.6627541
		S135.4650421,53.5302887,134.4022064,53.5302887z"/>
	<path class="st4" d="M125.5971756,53.8215866h-2.3193512v3.0357819h2.3193512c1.0061493,0,1.5084381-0.5605507,1.5084381-1.4895477
		C127.1056137,54.555336,126.6222229,53.8215866,125.5971756,53.8215866z"/>
	<path class="st4" d="M126.9324112,51.2691994c0-0.7746925-0.4062424-1.4123955-1.4123917-1.4123955h-2.2421951v2.8043175h2.2421951
		C126.5056992,52.6611214,126.9324112,52.0423126,126.9324112,51.2691994z"/>
	<path class="st4" d="M156.5198822,38.0838928H96.3249207c-2.6604462,0-4.8370972,2.176754-4.8370972,4.837101v19.3483887
		c0,2.6604424,2.176651,4.837101,4.8370972,4.837101h60.1949615c2.6604462,0,4.8370972-2.1766586,4.8370972-4.837101V42.9209938
		C161.3569794,40.2606468,159.1803284,38.0838928,156.5198822,38.0838928z M143.8055725,45.4857788
		c0.4644928,0.6770668,1.2580872,1.1022034,2.1477203,1.1022034c0.8691711,0,1.6627502-0.4251366,2.1256714-1.1022034
		l0.7164307,0.5810204c-0.6581726,0.870739-1.6832123,1.4312897-2.8421021,1.4312897
		c-1.1604614,0-2.2059784-0.5605507-2.8625793-1.4312897L143.8055725,45.4857788z M110.1175156,58.0367241h-1.3730316v-4.2356071
		h-3.6923828v4.2356071h-1.373024v-9.3403854h1.373024v3.8876305h3.6923828v-3.8876305h1.3730316V58.0367241z
		 M116.001709,58.2681885c-2.475235,0-3.7900085-2.2815628-3.7900085-4.9111023
		c0-2.6295433,1.3147736-4.8922081,3.7900085-4.8922081c2.514595,0,3.8088989,2.2626648,3.8088989,4.8922081
		C119.8106079,55.9866257,118.516304,58.2681885,116.001709,58.2681885z M125.8491058,58.0367241h-3.944313v-9.3403854h3.867157
		c1.6627502,0,2.5917587,0.9667931,2.5917587,2.3980827c0,1.1210976-0.6203918,1.8375282-1.4706573,2.1083565
		c0.9667892,0.2503548,1.6438599,1.2376175,1.6438599,2.3004532
		C128.536911,57.0116768,127.6472702,58.0367241,125.8491058,58.0367241z M134.5376129,58.0367241h-3.6545868v-9.3403854h1.3730316
		v3.6545944h2.2815552c1.9335785,0,2.8814697,1.3147697,2.8814697,2.8436813
		C137.4190826,56.7219543,136.4711914,58.0367241,134.5376129,58.0367241z M140.1651459,58.0367241h-1.3730316v-9.3403854h1.3730316
		V58.0367241z M149.1622772,58.0367241h-1.3730316v-6.9423027l-3.6923828,6.9423027h-1.3730316v-9.3403854h1.3730316v6.7879982
		l3.6341248-6.7879982h1.4312897V58.0367241z"/>
	<path class="st4" d="M340.8921204,52.3225899c-0.1748047,1.7021141-0.5621338,2.6500092-1.141571,3.1523018h4.13797V48.571949
		h-2.6484375L340.8921204,52.3225899z"/>
	<path class="st4" d="M315.0029297,48.3593826c-0.8691711,0-1.7398987,0.695961-2.106781,1.5084419v4.2733994
		c0.3668823,0.8124809,1.2376099,1.5462341,2.106781,1.5462341c1.5273438,0,2.2437744-1.643856,2.2437744-3.6734848
		C317.2467041,50.0032387,316.5302734,48.3593826,315.0029297,48.3593826z"/>
	<path class="st4" d="M324.0772095,48.2822266c-1.6438599,0-2.3020325,1.7981644-2.3398132,3.171196h4.6796265
		C326.3965454,50.0221329,325.7777405,48.2822266,324.0772095,48.2822266z"/>
	<path class="st4" d="M358.8796692,36.7405853h-60.1949463c-2.6604614,0-4.8370972,2.1766548-4.8370972,4.8370972v19.3483887
		c0,2.660347,2.1766357,4.8370972,4.8370972,4.8370972h60.1949463c2.6604309,0,4.8370972-2.1767502,4.8370972-4.8370972V41.5776825
		C363.7167664,38.9172401,361.5401001,36.7405853,358.8796692,36.7405853z M308.9848938,56.6936111h-1.3934937V55.687458
		c-0.5983276,0.8518448-1.5084534,1.2376175-2.4547729,1.2376175c-1.5084229,0-2.8232117-1.1588898-2.8232117-3.1129379
		c0-1.9524727,1.2943115-3.0751457,2.8232117-3.0751457c0.9463196,0,1.8753357,0.3684502,2.4547729,1.1998253v-1.6249619
		c0-1.2754059-0.6959534-1.9918404-1.9146729-1.9918404c-0.8691711,0-1.6234131,0.3290863-2.3398438,1.141571l-0.6188049-0.9872627
		c0.8896484-0.9274254,1.9918518-1.3525581,3.1727905-1.3525581c1.8564148,0,3.0940247,0.9085312,3.0940247,3.0357819V56.6936111z
		 M315.3509216,56.9250755c-0.9479065,0-1.8753357-0.5416565-2.4547729-1.585598v4.9126778h-1.3730469V47.3532257h1.3730469
		v1.3352432c0.5400696-0.9478951,1.4690857-1.5667038,2.4547729-1.5667038c2.1083374,0,3.3459473,1.9524727,3.3459473,4.8922081
		C318.6968689,54.9332352,317.459259,56.9250755,315.3509216,56.9250755z M327.7900696,52.4784737h-6.0526733
		c0.0566711,1.8753166,1.0250549,3.2877121,2.6878052,3.2877121c0.8124695,0,1.6438599-0.4062386,2.2232971-1.1415672
		l0.735321,0.8124809c-0.7542114,0.9274254-1.818634,1.4879761-3.0751343,1.4879761
		c-2.4941406,0-4.002594-2.0485229-4.002594-4.9111023c0-2.7066994,1.4313049-4.8922081,3.7900085-4.8922081
		c2.4563293,0,3.6939697,2.2044067,3.6939697,4.931572V52.4784737z M336.2644348,56.6936111h-1.3730469V52.458004h-3.6923828
		v4.2356071h-1.3730164v-9.3403854h1.3730164v3.8876305h3.6923828v-3.8876305h1.3730469V56.6936111z M346.3259583,59.0727959
		h-1.3730164v-2.3791847h-5.6669006v2.3791847h-1.3919373v-3.4813881c0.8125-0.1354141,1.3336792-0.5794411,1.6044922-3.404232
		l0.4645081-4.83395h5.2984619v8.121666h1.0643921V59.0727959z M354.2791443,56.6936111h-1.3934937V55.687458
		c-0.5983276,0.8518448-1.5084534,1.2376175-2.4547729,1.2376175c-1.5084229,0-2.8232117-1.1588898-2.8232117-3.1129379
		c0-1.9524727,1.2943115-3.0751457,2.8232117-3.0751457c0.9463196,0,1.8753357,0.3684502,2.4547729,1.1998253v-1.6249619
		c0-1.2754059-0.6959534-1.9918404-1.9146729-1.9918404c-0.8691711,0-1.6233826,0.3290863-2.3398438,1.141571l-0.6188049-0.9872627
		c0.8896484-0.9274254,1.9918518-1.3525581,3.1727905-1.3525581c1.8564148,0,3.0940247,0.9085312,3.0940247,3.0357819V56.6936111z"
		/>
	<path class="st4" d="M305.580658,51.7620392c-1.1604614,0-1.8564148,0.9085312-1.8564148,2.0689926
		c0,1.1604652,0.6959534,2.0894623,1.8564148,2.0894623c0.8125,0,1.5856018-0.4062386,2.0107422-1.1793556v-1.7792702
		C307.1662598,52.1682816,306.393158,51.7620392,305.580658,51.7620392z"/>
	<path class="st4" d="M350.8749084,51.7620392c-1.1604614,0-1.8564148,0.9085312-1.8564148,2.0689926
		c0,1.1604652,0.6959534,2.0894623,1.8564148,2.0894623c0.8125,0,1.5856018-0.4062386,2.0107422-1.1793556v-1.7792702
		C352.4605103,52.1682816,351.6874084,51.7620392,350.8749084,51.7620392z"/>
	<path class="st3" d="M183.3542023,3.5301423v91.3674088c0,0.4452362,0.3608704,0.8061829,0.8061829,0.8061829
		c0.4452057,0,0.8061829-0.3609467,0.8061829-0.8061829V3.5301423c0-0.4452605-0.3609772-0.8061831-0.8061829-0.8061831
		C183.7150726,2.7239592,183.3542023,3.0848818,183.3542023,3.5301423"/>
</g>
</svg>
