<?xml version="1.0" encoding="utf-8"?>
<!-- Generator: Adobe Illustrator 19.0.1, SVG Export Plug-In . SVG Version: 6.00 Build 0)  -->
<svg version="1.1" id="Layer_1" xmlns="http://www.w3.org/2000/svg" xmlns:xlink="http://www.w3.org/1999/xlink" x="0px" y="0px"
	 width="56.3333321px" height="71.6666641px" viewBox="0 0 56.3333321 71.6666641"
	 style="enable-background:new 0 0 56.3333321 71.6666641;" xml:space="preserve">
<style type="text/css">
	.st0{fill:#71B82F;}
	.st1{fill:#DFD91A;}
	.st2{fill:#373838;}
	.st3{fill:#61D31E;}
	.st4{fill:#E0D919;}
	.st5{fill:none;stroke:#61D31E;stroke-linecap:round;stroke-linejoin:round;stroke-miterlimit:10;}
	.st6{fill:none;stroke:#61D31E;stroke-width:2;stroke-linecap:round;stroke-linejoin:round;stroke-miterlimit:10;}
</style>
<path class="st2" d="M55.8522949,56.8465767c0.0218506-0.371582-0.0239258-0.7532349-0.1523438-1.1271362L40.78479,12.2600908
	c-0.015564-0.072998-0.0261841-0.1467285-0.0473633-0.218689c-0.0379639-0.1289062-0.085022-0.2559814-0.1412964-0.380188
	c-0.1038208-0.229126-0.2389526-0.4486084-0.4059448-0.6524048l-0.0003662-0.0001221l-6.6329956-8.0922852
	c-0.6114502-0.7457886-1.5502319-1.1450194-2.5115967-1.067993c-0.9609985,0.0771484-1.824646,0.6209105-2.30896,1.4547728
	l-2.4638672,4.2389526L22.480835,2.9164021c-0.6114502-0.7457886-1.5462036-1.1441649-2.5076294-1.0682372
	c-0.9613647,0.0758667-1.8221436,0.6157836-2.30896,1.4483641L15.067627,7.7373252l-3.9515381-4.8209229
	c-0.6115112-0.7457886-1.5502319-1.1450194-2.5115967-1.067993c-0.9609985,0.0771484-1.824707,0.6209105-2.30896,1.4547728
	L2.1831055,10.378377c-0.0172729,0.0297241-0.0256348,0.0618286-0.041748,0.0919189
	c-0.0496826,0.0927734-0.090271,0.1885986-0.1298828,0.2861328c-0.0341797,0.0842285-0.0691528,0.1674805-0.0950928,0.2532959
	c-0.0280762,0.0927124-0.0459595,0.1871948-0.0648193,0.2825928c-0.0181885,0.0926514-0.0376587,0.1843262-0.0467529,0.2775269
	c-0.0093384,0.093689-0.0080566,0.1878662-0.0082397,0.2828369c-0.000061,0.0968628-0.0008545,0.192627,0.0085449,0.2886353
	c0.008728,0.0894775,0.0269165,0.1781006,0.0441284,0.2676392c0.0197754,0.1032104,0.0409546,0.2049561,0.0715942,0.3054199
	c0.0099487,0.0326538,0.0118408,0.0657349,0.0230103,0.0982666l11.8743286,34.598938
	c-0.6283569-0.1084595-1.2706299-0.1768188-1.9300537-0.177002C5.6477661,47.2364082,0.5933838,52.2910347,0.5915527,58.531208
	c0.0018311,6.239994,5.0562134,11.2945595,11.2965698,11.2964516c6.2399292-0.0018921,11.2943726-5.0564575,11.2961426-11.2964516
	c-0.0001831-0.5740967-0.0567627-1.133606-0.1394653-1.6846313c0.0219116-0.371582-0.0238647-0.7532349-0.1522217-1.1271362
	L7.9478149,12.1740313l1.3051147-2.2460327l3.9439697,4.8120728c0.0419922,0.0512695,0.0930786,0.0895996,0.1376953,0.1372681
	c0.0747681,0.079834,0.1480103,0.1598511,0.232605,0.2318115c0.0811157,0.0692749,0.1680908,0.1265259,0.2548828,0.1856689
	c0.0567017,0.0386353,0.1050415,0.085144,0.1651611,0.1203003c0.0180664,0.0105591,0.0377197,0.0154419,0.0559082,0.0255737
	c0.0969238,0.0540161,0.1982422,0.0946655,0.2997437,0.1369629c0.079834,0.0333862,0.1578979,0.0715942,0.2391968,0.0974731
	c0.0913696,0.0289917,0.1849976,0.0447388,0.2784424,0.0646362c0.0941772,0.0200806,0.1872559,0.0448608,0.2821045,0.055542
	c0.0898438,0.0101929,0.1801147,0.0067139,0.2705688,0.008606c0.0975342,0.0018921,0.1946411,0.008728,0.2914429,0.0009766
	c0.0953979-0.0074463,0.1888428-0.0292358,0.2835083-0.0460205c0.090332-0.0161743,0.1810913-0.0270996,0.2695312-0.0515747
	c0.0908203-0.0250244,0.1776733-0.0637207,0.2663574-0.0977783c0.0906982-0.034729,0.1820679-0.0656128,0.269104-0.1092529
	c0.074585-0.0375366,0.1442261-0.0864868,0.2162476-0.1309204c0.0952759-0.0585327,0.1904297-0.1156006,0.2791138-0.1852417
	c0.0161133-0.0126343,0.0343628-0.0203247,0.050293-0.0333862c0.0526733-0.0432129,0.0921631-0.0955811,0.1410522-0.1415405
	c0.078125-0.0734253,0.1565552-0.1451416,0.2271729-0.2279663c0.0703125-0.0822144,0.1283569-0.1703491,0.1882935-0.2584229
	c0.0380249-0.0559082,0.0839233-0.1035156,0.1185303-0.1627197l2.5963135-4.4411011l3.9515381,4.821106
	c1.0303345,1.2571411,2.8844604,1.44098,4.1418457,0.4106445c0.5944824-0.4873047,0.9399414-1.1603394,1.0394897-1.8658447
	l1.9506226-3.3564453l3.5571289,4.3397217l11.3748169,33.1434326c-0.6283569-0.1085205-1.2706299-0.1768188-1.9300537-0.177002
	c-6.2402954,0.0018311-11.2947388,5.0564575-11.2965088,11.2966309c0.00177,6.239994,5.0562134,11.2945595,11.2965088,11.2964516
	c6.2399902-0.0018921,11.2944336-5.0564575,11.2961426-11.2964516
	C55.9915771,57.9571114,55.9350586,57.3976021,55.8522949,56.8465767z M11.8881226,63.9416695
	c-2.9872437-0.0054932-5.4050903-2.4234619-5.4108276-5.4104614c0.0057373-2.9871216,2.423584-5.4051514,5.4108276-5.4106445
	c2.9868774,0.0054932,5.4046631,2.4235229,5.4104004,5.4106445C17.2927856,61.5182076,14.875,63.9361763,11.8881226,63.9416695z
	 M44.6955566,63.9416695c-2.9871826-0.0054932-5.4050293-2.4234619-5.4107666-5.4104614
	c0.0057373-2.9871216,2.423584-5.4051514,5.4107666-5.4106445c2.9868774,0.0054932,5.4047241,2.4235229,5.4104614,5.4106445
	C50.1002808,61.5182076,47.6824341,63.9361763,44.6955566,63.9416695z"/>
</svg>
