<?xml version="1.0" encoding="utf-8"?>
<!-- Generator: Adobe Illustrator 19.0.1, SVG Export Plug-In . SVG Version: 6.00 Build 0)  -->
<svg version="1.1" id="Layer_1" xmlns="http://www.w3.org/2000/svg" xmlns:xlink="http://www.w3.org/1999/xlink" x="0px" y="0px"
	 width="55.6666679px" height="72.6666641px" viewBox="0 0 55.6666679 72.6666641"
	 style="enable-background:new 0 0 55.6666679 72.6666641;" xml:space="preserve">
<style type="text/css">
	.st0{fill:#71B82F;}
	.st1{fill:#DFD91A;}
	.st2{fill:#373838;}
	.st3{fill:#61D31E;}
	.st4{fill:#E0D919;}
	.st5{fill:none;stroke:#61D31E;stroke-linecap:round;stroke-linejoin:round;stroke-miterlimit:10;}
	.st6{fill:none;stroke:#61D31E;stroke-width:2;stroke-linecap:round;stroke-linejoin:round;stroke-miterlimit:10;}
</style>
<g>
	<path class="st2" d="M24.1081715,6.7633696l-2.8665257-0.6682215l-7.9198627,33.9723282
		c-0.1207104,0.5161667-0.1803474,1.0405502-0.1799879,1.5569839c0.0007181,1.8439407,0.7468987,3.5444489,1.9640675,4.7802963
		c1.211421,1.2389526,2.9531088,2.0370445,4.860055,2.0336761H35.597271
		c1.9058685,0.0033226,3.6468353-0.7942314,4.8582573-2.0330467c1.2171669-1.2356682,1.963707-2.9366264,1.9644279-4.781105
		c0.0003586-0.5026054-0.055687-1.009697-0.1681328-1.5102348l-0.0017967-0.0078125L34.5385361,6.133903
		c-0.366806-1.6605392-1.329258-3.0826654-2.5593624-3.979645c-1.2301025-0.906455-2.6725254-1.3312337-4.0944729-1.3323115
		c-1.4154797,0.0010329-2.8517971,0.4218148-4.0786667,1.3214887c-1.2275867,0.8903334-2.1907597,2.3023107-2.5647488,3.95315
		L24.1081715,6.7633696L26.974699,7.430109c0.0912514-0.3493791,0.1886101-0.4365892,0.3193798-0.5453997l0.5906219-0.1767106
		l0.594574,0.1788211c0.1314888,0.110158,0.2292061,0.198266,0.3193798,0.5502949l7.7114925,33.9721031l-0.0017967-0.0078163
		l0.0258675,0.2228775l-0.2737541,0.6520538c-0.1810684,0.1760826-0.3800964,0.2727242-0.6631927,0.2760468H19.9659176
		c-0.2845345-0.0033684-0.4835625-0.1001434-0.664629-0.2763596l-0.273756-0.6515617l0.026226-0.2179794l7.9205799-33.9749336
		L24.1081715,6.7633696z"/>
	<path class="st2" d="M16.3984756,51.8199997l23.690609,0.097496c1.1205292,0.0045776,1.945385,1.0511017,1.6877975,2.1418114
		l-2.6833038,11.3641624c-0.3132744,1.327507-1.9619141,1.7957993-2.9265251,0.8313293l-1.4427834-1.4428329
		c-0.8510818-0.8511734-2.2884789-0.6028366-2.8047333,0.4845963l-2.6366005,5.5534286
		c-0.6506176,1.3703003-2.6200752,1.3117828-3.1884232-0.0947571l-2.3721848-5.8743362
		c-0.4616489-1.1435165-1.9331722-1.458004-2.8219795-0.6032333l-1.6759415,1.6112747
		c-1.0206547,0.9816742-2.7242603,0.3989563-2.9301167-1.0024261l-1.6260052-11.0718613
		C14.5134449,52.7604485,15.3332739,51.8155975,16.3984756,51.8199997z"/>
	<path class="st2" d="M43.7926826,35.0490341l1.7352219,6.0729561c0.1832199,0.6423531,0.7382774,1.1090317,1.4029045,1.179493
		l6.3621178,0.6747322c1.6112747,0.1709595,2.466671-1.8512154,1.2218361-2.8886681l-8.0973358-6.7477341
		C45.1783447,32.3070793,43.3493576,33.4978867,43.7926826,35.0490341z"/>
	<path class="st2" d="M11.8743296,35.0490341l-1.7352209,6.0729561c-0.1835804,0.6423531-0.738636,1.1090317-1.4029055,1.179493
		L2.374088,42.9762154C0.7624527,43.1471748-0.0929427,41.125,1.1518893,40.0875473l8.0973358-6.7477341
		C10.4886684,32.3070793,12.317296,33.4978867,11.8743296,35.0490341z"/>
</g>
</svg>
