<?xml version="1.0" encoding="utf-8"?>
<!-- Generator: Adobe Illustrator 19.0.1, SVG Export Plug-In . SVG Version: 6.00 Build 0)  -->
<svg version="1.1" id="Layer_1" xmlns="http://www.w3.org/2000/svg" xmlns:xlink="http://www.w3.org/1999/xlink" x="0px" y="0px"
	 width="135px" height="135px" viewBox="0 0 135 135" style="enable-background:new 0 0 135 135;" xml:space="preserve">
<style type="text/css">
	.st0{fill:#71B82F;}
	.st1{fill:#DFD91A;}
	.st2{fill:#373838;}
</style>
<g>
	<path class="st2" d="M34.9087524,80.1992645h2.9426918V54.800827c0.0010757-1.6166649,0.6556473-3.0743561,1.7316284-4.1545601
		c1.0802917-1.0761566,2.5381622-1.7308197,4.1548271-1.7316246h47.524559
		c1.6163025,0.0008049,3.0741806,0.655468,4.1544724,1.7316246c1.0759811,1.080204,1.730545,2.5378952,1.7316284,4.1545601
		v25.3984375c-0.0010834,1.6165695-0.6556473,3.0742645-1.7316284,4.1544647
		c-1.0802917,1.0761642-2.5381699,1.7308197-4.1544724,1.7316284h-47.524559
		c-1.6166649-0.0008087-3.0745354-0.6554642-4.1548271-1.7316284c-1.0759811-1.0802002-1.7305527-2.5378952-1.7316284-4.1544647
		H34.9087524h-2.9430466c0.011137,6.4942322,5.2775116,11.7609634,11.7721939,11.7721024h47.524559
		c6.4943237-0.0111389,11.7606964-5.2778702,11.7718353-11.7721024V54.800827
		c-0.0111389-6.4943199-5.2775116-11.761055-11.7718353-11.7721939h-47.524559
		c-6.4946823,0.0111389-11.7610569,5.277874-11.7721939,11.7721939v25.3984375H34.9087524z"/>
	<path class="st2" d="M44.9446487,58.9174843l21.0037155,13.0352592c1.3809891,0.8571014,3.1952438,0.4323654,4.0524368-0.9486237
		c0.857193-1.3810806,0.4321899-3.1954269-0.9487991-4.0525284L48.0482864,53.9163322
		c-1.3809891-0.8571014-3.1952477-0.4323692-4.0524368,0.9486237
		C43.1386566,56.2460365,43.5636597,58.0603828,44.9446487,58.9174843"/>
	<path class="st2" d="M69.052002,71.9527435l21.0037079-13.0352592c1.3809891-0.8571014,1.8059921-2.6714478,0.9487991-4.0525284
		c-0.857193-1.3809929-2.6714478-1.8057251-4.0524368-0.9486237L65.9483643,66.9515915
		c-1.3809967,0.8571014-1.8059998,2.6714478-0.9488068,4.0525284C65.8567505,72.3851089,67.6710052,72.809845,69.052002,71.9527435"
		/>
</g>
</svg>
