<?xml version="1.0" encoding="utf-8"?>
<!-- Generator: Adobe Illustrator 19.0.1, SVG Export Plug-In . SVG Version: 6.00 Build 0)  -->
<svg version="1.1" id="Layer_1" xmlns="http://www.w3.org/2000/svg" xmlns:xlink="http://www.w3.org/1999/xlink" x="0px" y="0px"
	 width="85px" height="81.3333359px" viewBox="0 0 85 81.3333359" style="enable-background:new 0 0 85 81.3333359;"
	 xml:space="preserve">
<style type="text/css">
	.st0{fill:#71B82F;}
	.st1{fill:#DFD91A;}
	.st2{fill:#373838;}
	.st3{fill:#61D31E;}
	.st4{fill:#E0D919;}
	.st5{fill:none;stroke:#61D31E;stroke-linecap:round;stroke-linejoin:round;stroke-miterlimit:10;}
	.st6{fill:none;stroke:#61D31E;stroke-width:2;stroke-linecap:round;stroke-linejoin:round;stroke-miterlimit:10;}
</style>
<g>
	<path class="st2" d="M5.5910621,41.8042641H5.59094l0.0601807,0.0004044l17.0952148,0.1066971
		c1.0522461,0.013298,2.039917,0.4392395,2.7810059,1.1993484c0.7410889,0.7601013,1.1419678,1.7581711,1.12854,2.8167648
		l-0.0997314,15.9973488c-0.0059814,0.46632-0.4541016,0.6760788-0.7703857,0.6760788
		c-0.197876,0-0.3669434-0.0703888-0.5021973-0.2092209l-0.0866699-0.078968l-4.9414062-4.0025406
		c-0.1763916-0.1428909-0.3961182-0.2215004-0.6231689-0.2229195L5.439939,57.9986687
		c-2.1467285-0.0271301-3.9368896-1.9049721-3.9090576-4.1069336l0.0517578-8.2873154
		C1.6091284,43.5091896,3.4072242,41.8044472,5.5910621,41.8042641 M5.59094,40.8042641
		c-2.6986084,0.0002213-4.973999,2.0820847-5.0081787,4.787529l-0.0518799,8.2936821
		c-0.0344239,2.7277603,2.1685791,5.0786324,4.8963623,5.1131134l14.1988525,0.0886497l4.9414062,4.0025368
		c0.3442383,0.3530197,0.7832031,0.5111313,1.2182617,0.5111313c0.887207,0,1.7575684-0.6581192,1.7702637-1.6634598
		l0.0998535-16.003727c0.0345459-2.7277756-2.1690674-4.9877853-4.8968506-5.0222702L5.6573462,40.8046837L5.59094,40.8042641z"/>
	<path class="st2" d="M60.0546227,58.9903526l17.1052284,0.1067581c2.2128296,0,4.0134277,1.7272224,4.0137329,3.8438492
		l-0.0518188,8.3000832c0.0003662,2.1957626-1.8130493,4.0510941-3.9534912,4.051445l-14.1989174-0.0886383l-0.0062256-0.0000229
		c-0.2247925,0-0.4431152,0.0757675-0.6196899,0.2151413l-4.9909058,3.9405289l-0.0875244,0.0778351
		c-0.1346436,0.1347275-0.3012695,0.2030487-0.4949951,0.2030487c-0.3111572,0-0.7716064-0.2179413-0.7717285-0.6793442
		l0.0998535-16.0100937C56.0978966,60.7683334,57.8723717,58.9922104,60.0546227,58.9903526 M60.0573692,57.9903526
		c-2.7280273,0.0004196-4.9595947,2.2327499-4.9592285,4.9607277l-0.0998535,16.0037231
		c0.0001221,1.0139313,0.876709,1.6855774,1.7717285,1.6855774c0.4277344,0,0.8596191-0.1533432,1.2022095-0.4960175
		l4.9909058-3.9405365l14.1989174,0.0886459c2.7279663-0.0004196,4.960144-2.3236008,4.9597168-5.0515823l0.0518188-8.2936783
		c-0.0004272-2.7276382-2.2861328-4.8501015-5.0137329-4.8501015h-0.0007935L60.0573692,57.9903526z"/>
	<path class="st2" d="M53.5605431,1.6929499l23.9027138,0.1492004c3.3114014,0,6.0058594,2.5919571,6.0062866,5.7715225
		l-0.0723267,11.5963593c0.0002441,1.5890198-0.6218262,3.10215-1.7515869,4.2606659
		c-1.1307983,1.159523-2.6151123,1.798233-4.1731567,1.7984924L57.6302452,25.145319l-0.0062256-0.0000153
		c-0.2248535,0-0.4431152,0.0757599-0.6196289,0.2151337l-6.9744873,5.5066757l-0.0876465,0.077858
		c-0.3305664,0.3307419-0.7114258,0.4001694-0.9727783,0.4001694c-0.7097168,0-1.4758301-0.5183105-1.4759521-1.3492737
		l0.1396484-22.3707275c-0.0002441-1.5766296,0.6185303-3.0640869,1.7425537-4.1883698
		C50.4988976,2.313174,51.9849815,1.6939493,53.5605431,1.6929499 M53.5633507,0.69295
		c-3.8121338,0.0005875-6.9307861,3.1201477-6.9301758,6.9323502l-0.1396484,22.3643341
		c0.0002441,1.4169159,1.2252197,2.3555088,2.4759521,2.3555088c0.5977783,0,1.2012939-0.2142944,1.6800537-0.6931705
		l6.9744873-5.5066681l19.8422279,0.1238632c3.8121948-0.0005875,6.9315796-3.2470932,6.9309692-7.0592957l0.0723267-11.5899582
		c-0.0005493-3.8117445-3.1947632-6.7777634-7.0062866-6.7777634h-0.0011597L53.5633507,0.69295z"/>
	<path class="st2" d="M22.935667,32.5995369l14.6394024-14.4577961c0.1964111-0.1940384,0.1983643-0.5106201,0.0043945-0.7070923
		c-0.1940918-0.1964798-0.5106201-0.1984558-0.7071533-0.0044174L22.2329082,31.8880253
		c-0.1964111,0.1940403-0.1983643,0.510622-0.0043945,0.7070942C22.4226055,32.7915993,22.7391338,32.7935753,22.935667,32.5995369"
		/>
	<path class="st2" d="M65.3305664,35.1907616l-0.0860596,13.7829056c-0.00177,0.2761383,0.2207031,0.5013885,0.4968262,0.5031128
		c0.2761841,0.0017242,0.5014038-0.2207298,0.5031128-0.4968681L66.3305054,35.19701
		c0.00177-0.2761383-0.2207031-0.5013885-0.4968262-0.5031128C65.5574951,34.692173,65.3322754,34.9146233,65.3305664,35.1907616"/>
	<path class="st2" d="M36.5581017,63.0780258l10.7199707,0.066925c0.276123,0.0017242,0.5013428-0.2207336,0.5030518-0.4968681
		c0.0018311-0.2761383-0.2207031-0.5013885-0.4968262-0.5031128l-10.7199707-0.066925
		c-0.276123-0.0017242-0.5013428,0.2207336-0.5030518,0.4968681C36.0594444,62.8510513,36.2819786,63.0763016,36.5581017,63.0780258
		"/>
</g>
</svg>
