<?xml version="1.0" encoding="utf-8"?>
<!-- Generator: Adobe Illustrator 19.0.1, SVG Export Plug-In . SVG Version: 6.00 Build 0)  -->
<svg version="1.1" id="Layer_1" xmlns="http://www.w3.org/2000/svg" xmlns:xlink="http://www.w3.org/1999/xlink" x="0px" y="0px"
	 width="79.3333359px" height="58px" viewBox="0 0 79.3333359 58" style="enable-background:new 0 0 79.3333359 58;"
	 xml:space="preserve">
<style type="text/css">
	.st0{fill:#71B82F;}
	.st1{fill:#DFD91A;}
	.st2{fill:#373838;}
	.st3{fill:#61D31E;}
	.st4{fill:#E0D919;}
	.st5{fill:none;stroke:#61D31E;stroke-linecap:round;stroke-linejoin:round;stroke-miterlimit:10;}
	.st6{fill:none;stroke:#61D31E;stroke-width:2;stroke-linecap:round;stroke-linejoin:round;stroke-miterlimit:10;}
</style>
<g>
	<path class="st2" d="M57.6163177,11.469223h4.8090401c0.5830765,0.0007629,1.100769,0.2325745,1.4995461,0.6273556
		c0.3948212,0.3989115,0.6265488,0.916873,0.6276245,1.4999056v3.7546148v23.7008686
		c-0.0010757,0.5830078-0.2328033,1.1009712-0.6276245,1.4998589c-0.398777,0.394783-0.9164696,0.6265945-1.4995461,0.6273575
		H18.9553928h-3.305541c-0.5830765-0.0007629-1.1011276-0.2325516-1.4999056-0.6273994
		c-0.394825-0.3989563-0.6265469-0.9169426-0.6276255-1.4998169c0-1.6252213-1.3177614-2.942688-2.9426889-2.942688
		c-1.6252871,0-2.9426894,1.3174667-2.9426894,2.942688c0.010778,4.4269676,3.5857625,8.0020638,8.0129089,8.0132904h3.305541
		h43.4699631c4.4271431-0.0111122,8.0021324-3.5865936,8.0129051-8.0132904V17.351099v-3.7546148
		c-0.0107727-4.4267426-3.585762-8.0022221-8.0129051-8.0133133h-4.8090401c-1.6256485,0-2.9430504,1.3176265-2.9430504,2.943049
		c0,1.6253767,1.3174019,2.9430485,2.9430504,2.9430485V11.469223z"/>
	<path class="st2" d="M67.8630981,19.8948765h2.9879532c0.5830841,0.0007629,1.100769,0.2325745,1.4995499,0.6273556
		c0.3948288,0.3989124,0.6265488,0.9168739,0.6276245,1.4999046v27.4555283
		c-0.0010757,0.5829887-0.2327957,1.1009712-0.6276245,1.4998627c-0.3987808,0.3947792-0.9164658,0.6265907-1.4995499,0.6273537
		H24.0755501c-0.5830765-0.0007629-1.1011276-0.2325516-1.4999046-0.6273994
		c-0.3948269-0.3989792-0.6265488-0.9169655-0.6276264-1.4998169v-2.7250214c0-1.6252213-1.3177605-2.9426918-2.9426899-2.9426918
		c-1.6252861,0-2.942688,1.3174706-2.942688,2.9426918l-0.0003605,2.7250214
		c0.011137,4.4269447,3.5861225,8.0020447,8.0132694,8.0132904h46.7755013
		c4.4271469-0.0111122,8.0021362-3.5866127,8.0129166-8.0132904V22.0221367
		c-0.0107803-4.4266968-3.5857697-8.0022211-8.0129166-8.0133133h-2.9879532c-1.6256485,0-2.9430466,1.317627-2.9430466,2.9430485
		c0,1.6253777,1.3173981,2.9430485,2.9430466,2.9430485V19.8948765z"/>
	<path class="st2" d="M55.443161,0.5090429H5.8456779c-2.9570599,0-5.3763089,2.4193389-5.3763089,5.3761296v29.1117802
		c0,2.9569244,2.4192493,5.3761292,5.3763089,5.3761292H55.443161c2.9566994,0,5.3763084-2.4192047,5.3763084-5.3761292V5.8851724
		C60.8194695,2.9283819,58.3998604,0.5090429,55.443161,0.5090429z M10.7826128,34.7277756
		c-2.1993828,0-3.9823842-1.7829781-3.9823842-3.9824505c0-2.1993618,1.7830014-3.9823399,3.9823842-3.9823399
		s3.9823847,1.7829781,3.9823847,3.9823399C14.7649975,32.9447975,12.9819956,34.7277756,10.7826128,34.7277756z
		 M10.7826128,14.1192503c-2.1993828,0-3.9823842-1.7829561-3.9823842-3.9824286
		c0-2.1993833,1.7830014-3.9823399,3.9823842-3.9823399s3.9823847,1.7829566,3.9823847,3.9823399
		C14.7649975,12.3362942,12.9819956,14.1192503,10.7826128,14.1192503z M50.5062256,34.7277756
		c-2.1993828,0-3.9823837-1.7829781-3.9823837-3.9824505c0-2.1993618,1.7830009-3.9823399,3.9823837-3.9823399
		s3.9823837,1.7829781,3.9823837,3.9823399C54.4886093,32.9447975,52.7056084,34.7277756,50.5062256,34.7277756z
		 M50.5062256,14.1192503c-2.1993828,0-3.9823837-1.7829561-3.9823837-3.9824286
		c0-2.1993833,1.7830009-3.9823399,3.9823837-3.9823399s3.9823837,1.7829566,3.9823837,3.9823399
		C54.4886093,12.3362942,52.7056084,14.1192503,50.5062256,14.1192503z"/>
</g>
</svg>
