<?xml version="1.0" encoding="utf-8"?>
<!-- Generator: Adobe Illustrator 19.0.1, SVG Export Plug-In . SVG Version: 6.00 Build 0)  -->
<svg version="1.1" id="Layer_1" xmlns="http://www.w3.org/2000/svg" xmlns:xlink="http://www.w3.org/1999/xlink" x="0px" y="0px"
	 width="83px" height="60.6666679px" viewBox="0 0 83 60.6666679" style="enable-background:new 0 0 83 60.6666679;"
	 xml:space="preserve">
<style type="text/css">
	.st0{fill:#71B82F;}
	.st1{fill:#DFD91A;}
	.st2{fill:#373838;}
	.st3{fill:#61D31E;}
	.st4{fill:#E0D919;}
	.st5{fill:none;stroke:#61D31E;stroke-linecap:round;stroke-linejoin:round;stroke-miterlimit:10;}
	.st6{fill:none;stroke:#61D31E;stroke-width:2;stroke-linecap:round;stroke-linejoin:round;stroke-miterlimit:10;}
</style>
<g>
	<circle class="st3" cx="77.6992264" cy="5.286942" r="3.6496348"/>
	<circle class="st3" cx="63.4403801" cy="22.1452732" r="3.6496348"/>
	<circle class="st3" cx="48.9592514" cy="17.9518929" r="3.6496348"/>
	<circle class="st3" cx="34.4778137" cy="37.0825119" r="3.6496348"/>
	<circle class="st3" cx="19.9965324" cy="34.0226746" r="3.6496348"/>
	<circle class="st3" cx="5.5154033" cy="55.4806938" r="3.6496348"/>
	<path class="st3" d="M6.0338097,55.8318558l14.107193-20.8260269c0.1938477-0.2863388,0.119091-0.6756783-0.1672478-0.8696022
		c-0.2863388-0.1939659-0.6757164-0.119091-0.8697186,0.1672478L4.9968443,55.1294975
		c-0.1938481,0.2863388-0.1190915,0.6756783,0.1672473,0.869606C5.4504304,56.1930656,5.8398085,56.1181946,6.0338097,55.8318558"/>
	<path class="st3" d="M19.8670464,34.6353302l14.4812813,3.0598373c0.2381821,0.0503349,0.4815636-0.0406303,0.6286316-0.234745
		l14.2215462-18.7873707l14.0675964,4.0736771c0.2375717,0.0688324,0.4924164-0.0082169,0.6523247-0.1970959L78.1772766,5.6913023
		c0.2231979-0.264019,0.1901779-0.6590915-0.0736923-0.8824067c-0.2640152-0.2233534-0.6592026-0.1903319-0.8824005,0.0736866
		L63.2243652,21.4308395l-14.0909882-4.0804424c-0.2488823-0.0720425-0.5171814,0.0170078-0.6734238,0.2235451L34.2182312,36.387722
		l-14.0923634-2.9777374c-0.3384705-0.071434-0.6706734,0.1449623-0.7420654,0.4833565
		c-0.071394,0.338356,0.1449261,0.6705971,0.4833965,0.7420273L19.8670464,34.6353302z"/>
</g>
</svg>
