<?xml version="1.0" encoding="utf-8"?>
<!-- Generator: Adobe Illustrator 19.0.1, SVG Export Plug-In . SVG Version: 6.00 Build 0)  -->
<svg version="1.1" id="Layer_1" xmlns="http://www.w3.org/2000/svg" xmlns:xlink="http://www.w3.org/1999/xlink" x="0px" y="0px"
	 width="97.5px" height="45.5px" viewBox="0 0 97.5 45.5" style="enable-background:new 0 0 97.5 45.5;" xml:space="preserve">
<style type="text/css">
	.st0{fill:#71B82F;}
	.st1{fill:#DFD91A;}
	.st2{fill:#373838;}
	.st3{fill:#61D31E;}
	.st4{fill:#E0D919;}
	.st5{fill:none;stroke:#61D31E;stroke-linecap:round;stroke-linejoin:round;stroke-miterlimit:10;}
	.st6{fill:none;stroke:#61D31E;stroke-width:2;stroke-linecap:round;stroke-linejoin:round;stroke-miterlimit:10;}
</style>
<g>
	<g>
		<path class="st2" d="M15.368866,13.6388788c-1.3398438,0-1.6689453,1.8525391-1.6689453,3.5864248
			c0,1.7211914,0.3154297,3.6000977,1.6689453,3.6000977s1.6816406-1.8789062,1.6816406-3.6000977
			C17.0505066,15.4914179,16.7223816,13.6388788,15.368866,13.6388788z"/>
	</g>
	<g>
		<path class="st2" d="M26.0934753,17.7531357c-0.4023438,0-0.8037109,0.3212891-0.9736328,0.6962891v1.9726562
			c0.1699219,0.375,0.5712891,0.7138672,0.9736328,0.7138672c0.7050781,0,1.0351562-0.7587891,1.0351562-1.6958008
			C27.1286316,18.5119247,26.7985535,17.7531357,26.0934753,17.7531357z"/>
	</g>
	<g>
		<g>
			<path class="st2" d="M36.3395691,3.0660639H9.2182312c-4.3259277-0.0276489-7.9724121,3.3156738-8,7.6417847v13.15277
				c-0.02771,4.3261108,3.4892578,8.0323486,7.8153076,8.0599976H31.551239l7.8757324,6.2984009
				c1.6696777,1.69104,4.7127686,0.5193481,4.7280273-1.8569336V10.9820185
				C44.1825867,6.6559076,40.665741,3.0937738,36.3395691,3.0660639z M15.368866,21.7580185
				c-2.0498047,0-2.7460938-2.4306641-2.7460938-4.5327148c0-2.1152334,0.6962891-4.5195303,2.7460938-4.5195303
				s2.7460938,2.4042969,2.7460938,4.5195303C18.1149597,19.3273544,17.4186707,21.7580185,15.368866,21.7580185z
				 M23.6911316,17.8512802h-1.8212891v3.7490234h-0.6337891v-4.3115234h2.4550781V17.8512802z M26.2536316,21.7072372
				c-0.4375,0-0.8662109-0.2495117-1.1337891-0.7319336v2.2680664h-0.6337891v-5.9545898h0.6337891v0.6162109
				c0.25-0.4375,0.6787109-0.7231445,1.1337891-0.7231445c0.9726562,0,1.5439453,0.9013672,1.5439453,2.2583008
				C27.7975769,20.7878036,27.2262878,21.7072372,26.2536316,21.7072372z M31.7253113,21.6003036h-0.6337891v-1.9550781h-1.7050781
				v1.9550781H28.752655v-4.3115234h0.6337891v1.7944336h1.7050781v-1.7944336h0.6337891V21.6003036z M33.3327332,21.6896591
				c-0.2587891,0-0.4726562-0.2143555-0.4726562-0.4819336c0-0.25,0.2138672-0.4731445,0.4726562-0.4731445
				s0.4824219,0.2231445,0.4824219,0.4731445C33.815155,21.4753036,33.5915222,21.6896591,33.3327332,21.6896591z"/>
		</g>
	</g>
</g>
<g>
	<path class="st2" d="M80.7699966,1.2567958h11.4820709c1.8314896,0.0117184,3.3203888,1.519797,3.30867,3.3512859v10.7448874
		c-0.0064316,1.0060415-1.2947769,1.5020876-2.0016098,0.78617l-3.3342514-2.6664848h-9.5331192
		c-1.8314896-0.0117188-3.3203888-1.5807924-3.30867-3.412281V4.4920044
		C77.3948059,2.6605153,78.9385071,1.2450774,80.7699966,1.2567958z"/>
</g>
<g>
	<path class="st2" d="M83.3411942,23.7840347h11.8803253c0.5809326,0,1.0519485-0.4709816,1.0519485-1.0519485
		c0-0.5809822-0.4710159-1.0519466-1.0519485-1.0519466H83.3411942c-0.5809937,0-1.0519485,0.4709644-1.0519485,1.0519466
		C82.2892456,23.3130531,82.7602005,23.7840347,83.3411942,23.7840347"/>
	<path class="st2" d="M83.3411942,27.2332191h4.1252899c0.5809326,0,1.0519485-0.4709816,1.0519485-1.0519485
		c0-0.5809822-0.4710159-1.0519466-1.0519485-1.0519466h-4.1252899c-0.5809937,0-1.0519485,0.4709644-1.0519485,1.0519466
		C82.2892456,26.7622375,82.7602005,27.2332191,83.3411942,27.2332191"/>
	<path class="st2" d="M83.3411942,30.6824207h7.2813263c0.5809326,0,1.0519485-0.4709835,1.0519485-1.0519485
		c0-0.5809822-0.4710159-1.0519485-1.0519485-1.0519485h-7.2813263c-0.5809937,0-1.0519485,0.4709663-1.0519485,1.0519485
		C82.2892456,30.2114372,82.7602005,30.6824207,83.3411942,30.6824207"/>
	<path class="st2" d="M83.3411942,37.2876396h11.8803253c0.5809326,0,1.0519485-0.4709816,1.0519485-1.0519485
		c0-0.5809975-0.4710159-1.0519447-1.0519485-1.0519447H83.3411942c-0.5809937,0-1.0519485,0.4709473-1.0519485,1.0519447
		C82.2892456,36.816658,82.7602005,37.2876396,83.3411942,37.2876396"/>
	<path class="st2" d="M83.3411942,40.7368431h9.3853531c0.5809326,0,1.0519485-0.4709816,1.0519485-1.0519485
		c0-0.5810013-0.4710159-1.0519485-1.0519485-1.0519485h-9.3853531c-0.5809937,0-1.0519485,0.4709473-1.0519485,1.0519485
		C82.2892456,40.2658615,82.7602005,40.7368431,83.3411942,40.7368431"/>
	<path class="st2" d="M83.3411942,44.1860428h7.2813263c0.5809326,0,1.0519485-0.4709816,1.0519485-1.0519485
		c0-0.5809975-0.4710159-1.0519485-1.0519485-1.0519485h-7.2813263c-0.5809937,0-1.0519485,0.4709511-1.0519485,1.0519485
		C82.2892456,43.7150612,82.7602005,44.1860428,83.3411942,44.1860428"/>
	<circle class="st2" cx="78.3611374" cy="22.5406246" r="2.3376694"/>
	<circle class="st2" cx="78.3611374" cy="36.2356911" r="2.3376694"/>
</g>
</svg>
