<?xml version="1.0" encoding="utf-8"?>
<!-- Generator: Adobe Illustrator 19.0.1, SVG Export Plug-In . SVG Version: 6.00 Build 0)  -->
<svg version="1.1" id="Layer_1" xmlns="http://www.w3.org/2000/svg" xmlns:xlink="http://www.w3.org/1999/xlink" x="0px" y="0px"
	 width="73.3333359px" height="55.6666679px" viewBox="0 0 73.3333359 55.6666679"
	 style="enable-background:new 0 0 73.3333359 55.6666679;" xml:space="preserve">
<style type="text/css">
	.st0{fill:#71B82F;}
	.st1{fill:#DFD91A;}
	.st2{fill:#373838;}
	.st3{fill:#61D31E;}
	.st4{fill:#E0D919;}
	.st5{fill:none;stroke:#61D31E;stroke-linecap:round;stroke-linejoin:round;stroke-miterlimit:10;}
	.st6{fill:none;stroke:#61D31E;stroke-width:2;stroke-linecap:round;stroke-linejoin:round;stroke-miterlimit:10;}
</style>
<g>
	<path class="st2" d="M70.0441513,52.327919v-2.9430504H6.2318721V6.2817531h60.8695908L67.1011047,52.327919H70.0441513v-2.9430504
		V52.327919h2.942688V3.3387945c0-0.7749214-0.3136292-1.5329127-0.8618622-2.0809622
		c-0.5478668-0.5480494-1.3059082-0.8620865-2.0808258-0.8620865H3.289542c-0.7752805,0-1.5333167,0.3139473-2.0811865,0.8619968
		c-0.548229,0.5480044-0.8618621,1.3060406-0.8618621,2.0810518V52.327919c0,0.7749634,0.3139922,1.5330467,0.8618621,2.0810509
		s1.3059061,0.8619499,2.0811865,0.8619499h66.7546082c0.7749176,0,1.532959-0.3140373,2.0808258-0.8620872
		c0.548233-0.5480461,0.8618622-1.3060379,0.8618622-2.0809135H70.0441513z"/>
	<path class="st2" d="M4.9327922,44.8584747l23.2260857-13.9144096l11.8030891,6.0952759
		c1.1370544,0.5872993,2.5259514,0.3709793,3.431282-0.533947l14.2313232-14.2315025l9.8885956,7.1378002
		c1.3177643,0.9513626,3.1575317,0.654211,4.1088486-0.6637306c0.9513168-1.3179855,0.6542053-3.1576595-0.6635513-4.1090221
		l-11.920929-8.6038017c-1.174057-0.847312-2.7799454-0.7185173-3.8034744,0.3053703L40.7516212,30.8227272l-11.3486309-5.86059
		c-0.9089241-0.4692383-1.9852638-0.4353771-2.8625736,0.0903072L1.9081917,39.8091393
		c-1.3946428,0.8352737-1.8476683,2.6427956-1.0123914,4.0371704c0.8352768,1.3943291,2.6427083,1.8474884,4.0373511,1.0122108
		L4.9327922,44.8584747z"/>
	<circle class="st2" cx="40.5768394" cy="18.6054993" r="4.8451447"/>
</g>
</svg>
