<?xml version="1.0" encoding="utf-8"?>
<!-- Generator: Adobe Illustrator 19.0.1, SVG Export Plug-In . SVG Version: 6.00 Build 0)  -->
<svg version="1.1" id="Layer_1" xmlns="http://www.w3.org/2000/svg" xmlns:xlink="http://www.w3.org/1999/xlink" x="0px" y="0px"
	 width="57.6666679px" height="58.6666679px" viewBox="0 0 57.6666679 58.6666679"
	 style="enable-background:new 0 0 57.6666679 58.6666679;" xml:space="preserve">
<style type="text/css">
	.st0{fill:#71B82F;}
	.st1{fill:#DFD91A;}
	.st2{fill:#373838;}
	.st3{fill:#61D31E;}
	.st4{fill:#E0D919;}
	.st5{fill:none;stroke:#61D31E;stroke-linecap:round;stroke-linejoin:round;stroke-miterlimit:10;}
	.st6{fill:none;stroke:#61D31E;stroke-width:2;stroke-linecap:round;stroke-linejoin:round;stroke-miterlimit:10;}
</style>
<g>
	<path class="st2" d="M20.9792156,10.739172h33.237915c1.6252861,0,2.9430466-1.3176718,2.9430466-2.9430485
		c0-1.625422-1.3177605-2.9430485-2.9430466-2.9430485h-33.237915c-1.6256466,0-2.9430485,1.3176265-2.9430485,2.9430485
		C18.0361671,9.4215002,19.353569,10.739172,20.9792156,10.739172"/>
	<circle class="st2" cx="7.0466185" cy="7.2604685" r="6.5401282"/>
	<path class="st2" d="M20.9792156,32.2763824h33.237915c1.6252861,0,2.9430466-1.3176498,2.9430466-2.9430485
		c0-1.6254215-1.3177605-2.9430485-2.9430466-2.9430485h-33.237915c-1.6256466,0-2.9430485,1.317627-2.9430485,2.9430485
		C18.0361671,30.9587326,19.353569,32.2763824,20.9792156,32.2763824"/>
	<circle class="st2" cx="7.0466185" cy="29.333334" r="6.5401282"/>
	<path class="st2" d="M20.9792156,54.349247h33.237915c1.6252861,0,2.9430466-1.3176498,2.9430466-2.9430504
		c0-1.6254196-1.3177605-2.9430466-2.9430466-2.9430466h-33.237915c-1.6256466,0-2.9430485,1.317627-2.9430485,2.9430466
		C18.0361671,53.0315971,19.353569,54.349247,20.9792156,54.349247"/>
	<circle class="st2" cx="7.0466185" cy="51.4061966" r="6.5401282"/>
</g>
</svg>
