<?xml version="1.0" encoding="utf-8"?>
<!-- Generator: Adobe Illustrator 19.0.1, SVG Export Plug-In . SVG Version: 6.00 Build 0)  -->
<svg version="1.1" id="Layer_1" xmlns="http://www.w3.org/2000/svg" xmlns:xlink="http://www.w3.org/1999/xlink" x="0px" y="0px"
	 width="135px" height="124.75px" viewBox="0 0 135 124.75" style="enable-background:new 0 0 135 124.75;" xml:space="preserve">
<style type="text/css">
	.st0{fill:#71B82F;}
	.st1{fill:#DFD91A;}
	.st2{fill:#373838;}
	.st3{fill:#61D31E;}
	.st4{fill:#E0D919;}
	.st5{fill:none;stroke:#61D31E;stroke-linecap:round;stroke-linejoin:round;stroke-miterlimit:10;}
	.st6{fill:none;stroke:#61D31E;stroke-width:2;stroke-linecap:round;stroke-linejoin:round;stroke-miterlimit:10;}
</style>
<g>
	<path class="st0" d="M22.0000286,65.5886078v1.3597031c1.8254375,0,3.3195801,1.4172897,3.3307018,3.1506958v7.7717209
		c0.0116997,1.8255157-1.4820271,3.3773804-3.2530231,3.3887482H8.7872686c-0.3086386,0-0.6081476,0.1050262-0.8492322,0.2978058
		L3.289711,85.2747192L3.1713679,85.381279l-0.1652319,0.0669708c-0.0760186,0-0.2970195-0.0532837-0.2980154-0.2076797V70.252121
		c-0.0056434-0.8717194,0.332041-1.6968842,0.9506447-2.3234558s1.4393702-0.9747162,2.3023782-0.9802704l16.0162296-0.0000839
		L22.0000286,65.5886078 M22.0000286,65.5886078l-0.0313702,0.0000839H5.9611435
		c-2.5533385,0.0163498-4.6290722,2.1188049-4.6127234,4.672142v14.9797363
		c0.0060582,0.9450836,0.8235879,1.567337,1.6577156,1.567337c0.403744,0,0.8113883-0.1457748,1.1328068-0.4712982
		l4.6483259-3.7174301h13.2904387c2.5533371-0.0163498,4.6290722-2.2038269,4.6127224-4.7571716v-7.7630005
		C26.6741638,67.5562057,24.539341,65.5886078,22.0000286,65.5886078z"/>
	<path class="st0" d="M34.0960007,12.3881826v1.3596992c0.6341209,0,1.1531372,0.4795141,1.1568718,1.0601912v4.1737919
		c0.0039825,0.6268196-0.5211754,1.1801109-1.1152115,1.1839275h-7.1306267c-0.3087215,0-0.6081467,0.1050663-0.8492317,0.2978497
		l-1.7822819,1.4253445v-7.002737c-0.0039845-0.6237488,0.5001774-1.1343842,1.1151295-1.1383677h8.5982933L34.0960007,12.3881826
		 M34.0960007,12.3881826h-0.0168495h-8.588501c-1.3699074,0.0087967-2.4835434,1.1367903-2.4748306,2.5066977v8.0371189
		c0.0032368,0.5070667,0.4419193,0.8409328,0.8893986,0.8409328c0.2166862,0,0.4353638-0.0782585,0.6078148-0.2528687
		l2.4940014-1.9945698h7.1306267c1.3699913-0.0087147,2.4836273-1.1823521,2.4749107-2.5523434V14.808073
		C36.603775,13.4438086,35.4584389,12.3881826,34.0960007,12.3881826z"/>
	<path class="st0" d="M36.9927483,106.5041809v1.3597031c0.5322952,0,0.967823,0.3993835,0.9709778,0.8816376v3.866394
		c0.0016594,0.2556534-0.1029091,0.5118027-0.2868958,0.7028427c-0.1044006,0.1084213-0.3283081,0.2906723-0.6455765,0.2927017
		h-6.6043873c-0.3086376,0-0.6081467,0.1050262-0.8492317,0.2978058l-1.4876709,1.189743v-6.2777863
		c-0.0033188-0.5134583,0.4277287-0.9500198,0.9324703-0.9533005h7.9619331L36.9927483,106.5041809 M36.9927483,106.5041809
		l-0.015686,0.0000381h-7.954628c-1.2688255,0.0081329-2.3003025,1.0528946-2.2921696,2.3217163v7.4438705
		c0.0029869,0.469635,0.4093037,0.7789001,0.8237534,0.7789001c0.2006683,0,0.4032459-0.0724487,0.5629177-0.2342377
		l2.3099308-1.8473053h6.6043873c1.2688293-0.0080948,2.3003044-1.0951309,2.2921715-2.3639603v-3.8576813
		C39.3152924,107.4819641,38.2546844,106.5041809,36.9927483,106.5041809z"/>
	<path class="st0" d="M90.3483658,6.2911086v1.3597002c0.6341248,0,1.1531372,0.4795136,1.1568756,1.0601907v4.1737919
		c0.0039825,0.6268196-0.5211792,1.1801109-1.1152191,1.1839285h-7.1306229c-0.3087234,0-0.6081467,0.1050644-0.8492279,0.2978497
		l-1.7822876,1.4253445V8.789176c-0.0039825-0.6237488,0.5001831-1.1343837,1.1151352-1.1383672h8.5982895L90.3483658,6.2911086
		 M90.3483658,6.2911086h-0.0168457h-8.588501c-1.3699112,0.0087972-2.4835434,1.1367903-2.4748306,2.5066981v8.0371199
		c0.0032349,0.5070648,0.4419174,0.8409328,0.8893967,0.8409328c0.2166824,0,0.4353638-0.0782604,0.607811-0.2528687
		l2.4940033-1.9945707h7.1306229c1.3699951-0.0087137,2.4836273-1.1823521,2.4749146-2.5523424V8.7109995
		C92.8561401,7.3467355,91.7108002,6.2911086,90.3483658,6.2911086z"/>
	<path class="st0" d="M3.7027497,48.8975105l0.0137763,1.3597832l6.9855595-0.0000839
		c0.2380962,0.0015755,0.3966064,0.1263924,0.4699697,0.2006683c0.0732794,0.074276,0.196104,0.2343636,0.1945267,0.4810905
		v5.170826l-1.0413523-0.832798c-0.2410841-0.1927834-0.5405102-0.2978516-0.8492317-0.2978516L3.677604,54.979229
		c-0.2264783-0.0014915-0.3842413-0.1304588-0.458185-0.2071419c-0.1322854-0.1374283-0.207474-0.320755-0.2063119-0.511795
		v-3.383316c0.0021577-0.3416672,0.3116255-0.6196823,0.6897256-0.6197662L3.7027497,48.8975105 M3.7027497,48.8975105
		c-1.1094868,0.0000801-2.0422058,0.8597717-2.0493431,1.9707489v3.3920326
		C1.6462697,55.3759193,2.553179,56.3317108,3.66889,56.3388481h5.8071079l2.031003,1.6242676
		c0.1404181,0.1422462,0.3185129,0.2059822,0.4949493,0.2059822c0.3644896,0,0.7216768-0.2718735,0.7243319-0.6848297v-6.5452995
		c0.0071373-1.1156273-0.8997717-2.0342407-2.0154829-2.041378H3.716526L3.7027497,48.8975105z"/>
	<path class="st0" d="M120.1414337,74.7511902l0.0137787,1.3597412l6.9855576-0.0000381
		c0.2380981,0.0015335,0.3966064,0.1263504,0.4699707,0.2006226c0.0732803,0.0742798,0.196106,0.2344055,0.1945267,0.4811325
		v5.1708298l-1.0413513-0.83284c-0.2410889-0.1927872-0.5405121-0.2978134-0.8492355-0.2978134l-5.7983932,0.0000458
		c-0.2264786-0.0014954-0.3842392-0.1304169-0.4581833-0.2071457c-0.1322861-0.1373901-0.2074738-0.320755-0.2063141-0.511795
		v-3.3832703c0.0021591-0.341713,0.3116302-0.6197281,0.6897278-0.6197662L120.1414337,74.7511902 M120.1414337,74.7511902
		c-1.1094894,0.0000839-2.0422058,0.8597717-2.0493393,1.9707489v3.3919907
		c-0.0071411,1.1156693,0.899765,2.0714645,2.01548,2.078598h5.807106l2.0310059,1.6242676
		c0.140419,0.1422501,0.3185043,0.2059402,0.4949417,0.2059402c0.364502,0,0.7216797-0.2718735,0.7243347-0.6848297v-6.5452576
		c0.0071411-1.1156235-0.899765-2.0342789-2.01548-2.04142h-6.9942703L120.1414337,74.7511902z"/>
	<path class="st0" d="M63.1995926,22.22966l0.0137749,1.3597832l6.9855614-0.0000839
		c0.2380905,0.0015774,0.3966064,0.1263943,0.4699707,0.2006683c0.0732727,0.074276,0.1960983,0.2343636,0.1945267,0.4810905
		v5.1708279l-1.0413589-0.8327999c-0.2410812-0.1927853-0.5405045-0.2978497-0.8492279-0.2978497l-5.7983932,0.0000839
		c-0.2264786-0.0014935-0.384243-0.1304607-0.4581871-0.2071419c-0.1322861-0.1374302-0.2074738-0.320755-0.2063103-0.511797
		v-3.383316c0.0021553-0.3416672,0.3116264-0.6196823,0.689724-0.6197662L63.1995926,22.22966 M63.1995926,22.22966
		c-1.1094894,0.000082-2.0422096,0.8597698-2.0493431,1.9707508v3.3920307
		c-0.0071373,1.1156273,0.8997688,2.0714188,2.01548,2.0785561h5.8071098l2.0310059,1.6242695
		c0.1404114,0.1422443,0.318512,0.2059803,0.4949493,0.2059803c0.3644867,0,0.7216721-0.2718735,0.7243271-0.6848297v-6.5452995
		c0.0071411-1.1156273-0.8997726-2.0342388-2.01548-2.0413761h-6.9942741L63.1995926,22.22966z"/>
	<path class="st0" d="M40.7645378,29.0281601l0.0137749,1.3597832l6.9855614-0.000082
		c0.2380981,0.0015755,0.3966064,0.1263924,0.4699707,0.2006683c0.0732765,0.074276,0.1961021,0.2343616,0.1945267,0.4810905
		v5.1708279l-1.0413551-0.8328018c-0.2410812-0.1927834-0.5405083-0.2978477-0.8492317-0.2978477l-5.7983932,0.0000839
		c-0.2264786-0.0014954-0.3842392-0.1304626-0.4581833-0.2071419c-0.1322861-0.1374321-0.2074738-0.320755-0.2063141-0.5117989
		v-3.383316c0.0021591-0.3416672,0.3116264-0.6196823,0.6897278-0.6197643L40.7645378,29.0281601 M40.7645378,29.0281601
		c-1.1094856,0.0000839-2.0422058,0.8597717-2.0493431,1.9707527v3.3920288
		c-0.0071373,1.1156273,0.8997726,2.0714188,2.0154839,2.0785561h5.807106l2.0310059,1.6242714
		c0.1404152,0.1422424,0.318512,0.2059784,0.4949493,0.2059784c0.3644867,0,0.7216759-0.2718735,0.7243309-0.6848297v-6.5452976
		c0.0071373-1.1156292-0.8997726-2.0342407-2.0154839-2.0413761h-6.9942741L40.7645378,29.0281601z"/>
	<path class="st0" d="M64.4997864,109.7855453l0.0213318,1.3597794l10.828804-0.0000381
		c0.4728699,0.0030289,0.9186096,0.1923294,1.2550507,0.5330811c0.3363495,0.3407593,0.5200119,0.7888184,0.5169373,1.2704086
		v9.5662384l-2.8274536-2.2611694c-0.2410812-0.1927872-0.5405884-0.2978134-0.8492279-0.2978134l-8.9892578,0.0000458
		c-0.9669113-0.0061874-1.7783852-0.8544617-1.7719955-1.8610382v-5.2470551
		c0.0059776-0.9388657,0.8206024-1.7026978,1.8158951-1.7027359L64.4997864,109.7855453 M64.4997864,109.7855453
		c-1.7192078,0.0000839-3.1644707,1.3321915-3.1755104,3.0536804v5.2558136
		c-0.0110359,1.7286682,1.3943062,3.2096558,3.122982,3.2206955h8.9979706l3.1471252,2.5168228
		c0.217598,0.2204208,0.4935379,0.3190918,0.7669067,0.3190918c0.564743,0,1.1182022-0.4212952,1.1223526-1.061142v-10.1417313
		c0.0110397-1.7286758-1.39431-3.1521072-3.1229782-3.163147H64.5211182L64.4997864,109.7855453z"/>
	<path class="st0" d="M71.5900803,1.6553146v1.3597001c0.3780975,0,0.6875687,0.2780149,0.6897278,0.6110518v3.4006612
		C72.2809677,7.2090559,72.20578,7.3923798,72.073494,7.52981c-0.0739441,0.0767655-0.2317886,0.2057314-0.4494705,0.2071419
		h-5.807106c-0.3086395,0-0.6081543,0.1049819-0.8492355,0.2977667l-1.0414352,0.8328829V3.6880596
		c-0.0015755-0.2380137,0.1212463-0.3981006,0.1946106-0.4723761c0.0732803-0.0742757,0.2318726-0.1991749,0.461174-0.2006688
		h7.0022354L71.5900803,1.6553146 M71.5900803,1.6553146h-0.0137787h-6.9942703
		c-1.1156311,0.0071371-2.0226212,0.925831-2.0154839,2.0414591v6.5452166
		c0.002655,0.4129562,0.3598404,0.6848297,0.7243309,0.6848297c0.1764374,0,0.3545303-0.063653,0.4949493-0.2058973
		l2.0310898-1.6242704h5.807106c1.1156235-0.0071373,2.0226212-0.9630098,2.01548-2.0786381V3.6260664
		C73.63237,2.5150859,72.699646,1.6553146,71.5900803,1.6553146z"/>
	<path class="st0" d="M50.5147285,95.1346588v1.3597031c0.3780975,0,0.6875648,0.2780151,0.689724,0.6110458v3.4007034
		c0.0011635,0.1822891-0.074028,0.365654-0.2063103,0.5030441c-0.0739441,0.076767-0.2317924,0.2057343-0.4494743,0.2071381
		h-5.807106c-0.3086395,0-0.6081467,0.1050262-0.8492317,0.2978134l-1.0414352,0.83284v-5.1795425
		c-0.0015755-0.2379684,0.1212463-0.3981018,0.1946106-0.472374c0.0732803-0.0742798,0.2318726-0.1991348,0.4611702-0.2006302
		l7.002243-0.0000381L50.5147285,95.1346588 M50.5147285,95.1346588l-0.0137787,0.0000458h-6.9942741
		c-1.1156273,0.0071335-2.0226173,0.9257889-2.01548,2.0414124v6.5452576
		c0.002655,0.4129562,0.3598404,0.6848297,0.7243309,0.6848297c0.1764374,0,0.3545303-0.0636902,0.4949493-0.2059402
		l2.031086-1.6242676h5.807106c1.1156311-0.0071335,2.0226212-0.9629669,2.0154839-2.078598v-3.3919907
		C52.5570145,95.9944305,51.6242981,95.1346588,50.5147285,95.1346588z"/>
	<path class="st0" d="M33.2535706,50.7278442v1.3596992c0.3781013,0,0.6875687,0.2780151,0.6897278,0.6110497v3.4006615
		c0.0011635,0.1823311-0.074028,0.365654-0.2063103,0.5030823c-0.0739441,0.076767-0.2317924,0.2057343-0.4494743,0.2071419
		h-5.807106c-0.3086395,0-0.6081486,0.1049843-0.8492317,0.2977676l-1.0414371,0.8328819v-5.1795387
		c-0.0015755-0.2380142,0.1212482-0.3981018,0.1946106-0.4723778c0.0732803-0.074276,0.2318726-0.1991768,0.461174-0.2006683
		h7.0022411L33.2535706,50.7278442 M33.2535706,50.7278442h-0.0137749h-6.9942722
		c-1.1156292,0.0071373-2.0226212,0.9258308-2.0154839,2.0414581v6.5452156
		c0.002655,0.4129562,0.3598423,0.6848297,0.7243328,0.6848297c0.1764355,0,0.3545303-0.063652,0.4949493-0.2058983
		l2.031086-1.6242676h5.807106c1.1156311-0.0071373,2.0226212-0.9630127,2.0154839-2.07864v-3.3919487
		C35.2958603,51.587616,34.3631439,50.7278442,33.2535706,50.7278442z"/>
	<path class="st0" d="M100.1629562,109.7928467v1.3597031c1.0177002,0,1.8506622,0.7815094,1.8568039,1.7334442v5.3324509
		c0.0065536,1.0203094-0.8234177,1.8876343-1.8036118,1.8939438h-9.1142426c-0.3086319,0-0.6081467,0.1050186-0.8492279,0.2978058
		l-2.8925171,2.3132477v-9.7351685c-0.0031509-0.4837036,0.1846542-0.942009,0.5287247-1.2904816
		c0.3439941-0.3484726,0.7998581-0.5420914,1.2748871-0.5451584l10.9852371-0.0000458L100.1629562,109.7928467
		 M100.1629562,109.7928467l-0.0215836,0.0000839H89.1637726c-1.7510757,0.0112076-3.1745148,1.4530258-3.1633148,3.2040558
		v10.2728195c0.0041504,0.6481094,0.5647507,1.0748825,1.136795,1.0748825c0.2769318,0,0.5564423-0.1000061,0.7768631-0.3232498
		l3.1877899-2.5493546h9.1142426c1.7509995-0.0112,3.1745148-1.511322,3.1633148-3.2623596v-5.3237305
		C103.3683395,111.1422577,101.9044037,109.7928467,100.1629562,109.7928467z"/>
	<path class="st0" d="M131.6022034,58.1690979v1.3596992c0.3780975,0,0.687561,0.2780151,0.6897278,0.6110535v3.4007416
		c0.0011597,0.1822472-0.0740356,0.365654-0.2063141,0.5030022c-0.0739441,0.076767-0.2317963,0.2057266-0.4494781,0.2071381
		h-5.8070984c-0.3086395,0-0.6081543,0.1050644-0.8492355,0.2978516l-1.0414352,0.8328018v-5.1795425
		c-0.0015793-0.2379303,0.1212463-0.3981018,0.1946106-0.4723778c0.0732803-0.074276,0.2318726-0.1990929,0.461174-0.2005844
		l7.0022354-0.0000839L131.6022034,58.1690979 M131.6022034,58.1690979l-0.0137787,0.0000839h-6.9942703
		c-1.1156311,0.0071373-2.0226212,0.9257469-2.0154877,2.0413742v6.5453033
		c0.002655,0.4129562,0.359848,0.6848297,0.7243347,0.6848297c0.1764374,0,0.3545303-0.063736,0.4949493-0.205986
		l2.0310898-1.6242676h5.8070984c1.1156311-0.0071411,2.0226288-0.9629288,2.0154877-2.0785561v-3.3920288
		C133.6444855,59.0288696,132.7117767,58.1690979,131.6022034,58.1690979z"/>
	<path class="st0" d="M27.7170925,86.5146255v1.3596954c0.3781013,0,0.6875687,0.2780151,0.6897259,0.6110535v3.4007034
		c0.0011616,0.1822815-0.0740261,0.365654-0.2063122,0.5030365c-0.0739422,0.076767-0.2317886,0.2057343-0.4494705,0.2071457
		h-5.8071079c-0.3086376,0-0.6081467,0.1050186-0.8492317,0.2978058l-1.0414352,0.83284v-5.1795425
		c-0.0015774-0.2379684,0.1212482-0.3980942,0.1946106-0.472374c0.0732784-0.0742722,0.2318726-0.1991348,0.4611721-0.2006226
		l7.0022392-0.0000458L27.7170925,86.5146255 M27.7170925,86.5146255l-0.0137768,0.0000381h-6.9942722
		c-1.1156273,0.0071335-2.0226212,0.9257889-2.0154839,2.04142v6.5452576
		c0.0026569,0.4129562,0.3598423,0.6848297,0.7243328,0.6848297c0.1764355,0,0.3545322-0.0636978,0.4949493-0.2059402
		l2.031086-1.6242676h5.8071079c1.1156273-0.0071411,2.0226212-0.9629745,2.0154839-2.078598v-3.3919907
		C29.7593822,87.3743896,28.8266621,86.5146255,27.7170925,86.5146255z"/>
	<path class="st0" d="M88.9036026,27.7075481v1.3596992c0.3780975,0,0.6875687,0.2780151,0.6897202,0.6110535v3.4007435
		c0.0011673,0.1822433-0.0740204,0.3656502-0.2063065,0.5029984c-0.0739441,0.076767-0.2317886,0.2057304-0.4494705,0.2071419
		h-5.8071136c-0.3086319,0-0.6081467,0.1050644-0.8492279,0.2978516l-1.0414352,0.832798v-5.1795406
		c-0.0015793-0.2379303,0.1212463-0.3981018,0.1946106-0.4723759c0.0732803-0.074276,0.2318726-0.1990929,0.461174-0.2005863
		l7.0022354-0.0000839L88.9036026,27.7075481 M88.9036026,27.7075481l-0.0137787,0.0000839h-6.9942703
		c-1.1156311,0.0071354-2.0226212,0.9257469-2.0154877,2.0413742v6.5453014
		c0.002655,0.4129562,0.359848,0.6848297,0.7243347,0.6848297c0.1764374,0,0.3545303-0.063736,0.4949493-0.2059822
		l2.0310822-1.6242676h5.8071136c1.1156235-0.0071373,2.0226212-0.9629288,2.01548-2.0785561v-3.3920307
		C90.9458923,28.5673199,90.0131683,27.7075481,88.9036026,27.7075481z"/>
	<path class="st0" d="M124.4752274,40.4116669v1.3596992c1.3108215,0,2.3837891,1.0123062,2.3917618,2.2478523v6.2177429
		c0.0040665,0.6350327-0.2422485,1.2428513-0.6936264,1.7114906c-0.4465714,0.4636612-1.0306473,0.721096-1.636055,0.7249985
		h-10.630043c-0.3086395,0-0.6081467,0.1050644-0.8492355,0.2978477l-3.717926,2.9732666l-0.022995,0.0200806V44.1398849
		c-0.0040665-0.6244926,0.2380981-1.2159615,0.6818466-1.6653481c0.4436569-0.4493904,1.0319748-0.6991043,1.6478348-0.7030869
		l12.8119278-0.0000839L124.4752274,40.4116669 M124.4752274,40.4116669l-0.0252304,0.0000801h-12.8032074
		c-2.0422058,0.013031-3.7024918,1.6946487-3.6893768,3.7368546V56.129879
		c0.0048141,0.755867,0.6586838,1.2535553,1.3258362,1.2535553c0.322998,0,0.6489792-0.1166,0.9060822-0.3769379
		l3.7179337-2.9733467h10.630043c2.0422058-0.013031,3.7024078-1.7626152,3.6893768-3.8049049v-6.2090263
		C128.2136536,41.9853973,126.5063171,40.4116669,124.4752274,40.4116669z"/>
	<path class="st0" d="M97.5799026,19.761137l0.0229111,1.3597832l11.6240845-0.0000839
		c1.1105728,0.0071373,2.0082703,0.9164543,2.0011292,2.0356503v10.4758492l-3.1970062-2.5568237
		c-0.2410812-0.1927853-0.5405884-0.2977676-0.8492279-0.2977676h-9.6495209
		c-1.09198-0.0069695-2.0083466-0.9635067-2.0011292-2.097393v-5.6328297
		c0.0068054-1.0622654,0.9259109-1.9266014,2.0488434-1.9266853L97.5799026,19.761137 M97.5799026,19.761137
		c-1.8452682,0.000082-3.3966751,1.4299088-3.4084625,3.2777538v5.6414604
		c-0.0118637,1.8554802,1.4966354,3.4452248,3.3521118,3.4570923h9.6582413l3.378006,2.7014771
		c0.2336121,0.2365189,0.5298004,0.3424988,0.8231735,0.3424988c0.6062317,0,1.2003555-0.4522133,1.2047577-1.1390343V23.1564865
		c0.0118637-1.8555622-1.4966354-3.3834-3.3521118-3.3952675H97.6028137L97.5799026,19.761137z"/>
	<path class="st0" d="M46.7204475,11.5857563l0.0149384,1.3597832l7.5832481-0.000083
		c0.4565239,0.0029879,0.8396873,0.3910465,0.8367844,0.8562031v5.854495l-1.3192024-1.0550461
		c-0.2410851-0.1927834-0.5405922-0.2978497-0.8492317-0.2978497h-6.29459
		c-0.2883873-0.0018253-0.4873123-0.1639042-0.5802612-0.2604198c-0.1644859-0.1707096-0.2579308-0.3993454-0.2564392-0.6360321
		v-3.6731987c0.002739-0.4345331,0.3907166-0.7881517,0.8648338-0.7881517L46.7204475,11.5857563 M46.7204475,11.5857563
		c-1.2044296,0.000083-2.2167358,0.933217-2.224453,2.1392212v3.6818295
		c-0.0078011,1.2109833,0.9767036,2.2484341,2.1876869,2.2561531h6.3033028l2.2046165,1.7631111
		c0.1524506,0.1543617,0.3458176,0.2234917,0.5372734,0.2234917c0.3956108,0,0.7833405-0.2951107,0.7862434-0.7433376v-7.1045656
		c0.0077171-1.2109833-0.9767876-2.2081022-2.1877708-2.2158203h-7.5919609L46.7204475,11.5857563z"/>
	<path class="st0" d="M79.6931763,92.1480331l0.0149384,1.3597412l7.583252-0.0000381
		c0.4565201,0.0029449,0.8396835,0.3910446,0.8367767,0.8562012v5.854454l-1.3191986-1.0550461
		c-0.2410812-0.1927872-0.540596-0.2978058-0.8492279-0.2978058H79.665123
		c-0.2883835-0.0018311-0.4873123-0.1639481-0.5802612-0.2604218c-0.1644821-0.1707535-0.2579346-0.3993912-0.2564392-0.6360779
		v-3.6731567c0.002739-0.4345703,0.3907166-0.788147,0.8648376-0.788147L79.6931763,92.1480331 M79.6931763,92.1480331
		c-1.2044296,0.0000381-2.2167358,0.9332199-2.2244492,2.1391754v3.6818314
		c-0.0078049,1.2109833,0.9766998,2.248436,2.1876831,2.2561951h6.3033066l2.2046127,1.7630692
		c0.1524506,0.1544037,0.3458176,0.2235336,0.5372772,0.2235336c0.395607,0,0.7833328-0.2951126,0.7862396-0.7433395v-7.1045609
		c0.0077209-1.2109833-0.9767838-2.208107-2.187767-2.2158661h-7.5919647L79.6931763,92.1480331z"/>
	<path class="st0" d="M12.6251183,25.8695793l0.0279675,1.3597832h14.222908
		c1.5260944,0.0097923,2.7597332,1.2592831,2.7499409,2.7940903l0.0045643,13.3046303l-0.1108742,0.0362663l-0.0472202-0.0038185
		l-0.1184273-0.1066399l-4.1327114-3.3049736c-0.2410831-0.1927872-0.5405922-0.2978516-0.8492317-0.2978516L12.564785,39.6511497
		c-0.723918-0.0046463-1.4116516-0.3073921-1.9365606-0.8524666c-0.5293903-0.5496407-0.8182764-1.2629356-0.8134632-2.0173111
		v-6.8930264c0.0093784-1.4660912,1.270155-2.6589832,2.8104401-2.6590652L12.6251183,25.8695793 M12.6251183,25.8695793
		c-2.2577295,0.0001659-4.1556168,1.7493362-4.1700573,4.0100536v6.9017391
		c-0.0145226,2.2700958,1.8309145,4.2148705,4.1010103,4.229393h11.8159628l4.1327114,3.3050575
		c0.2857342,0.2893867,0.6481495,0.419014,1.0070782,0.419014c0.7415943,0,1.4684162-0.5532074,1.4738121-1.3934746V30.0234528
		c0.0145226-2.2700119-1.8309155-4.139267-4.1009274-4.1537895H12.6530857L12.6251183,25.8695793z"/>
	<path class="st0" d="M105.4644928,90.7829361l0.0212402,1.359787l10.7883911-0.0000458
		c0.4698029,0.0030289,0.9125519,0.1910858,1.2467499,0.5296021s0.5166092,0.7836304,0.5135422,1.2621002v9.5199814
		l-2.8086166-2.2461548c-0.2410889-0.1927872-0.5405121-0.2978058-0.8492355-0.2978058l-8.9557266,0.0000381
		c-0.9605179-0.0061417-1.7666016-0.848938-1.7602921-1.8490448v-5.2274704
		c0.0059738-0.9325104,0.8152084-1.691246,1.8040237-1.6912842L105.4644928,90.7829361 M105.4644928,90.7829361
		c-1.712822,0.0000839-3.1526947,1.3271713-3.1636429,3.0422745v5.2361832
		c-0.0109558,1.7222366,1.3890762,3.1977081,3.1113586,3.2087021h8.9643555l3.1353455,2.5074463
		c0.2167664,0.2195892,0.4917145,0.317894,0.7640839,0.317894c0.5625916,0,1.1140518-0.4197235,1.1181183-1.0571671V93.9343796
		c0.0110397-1.7222366-1.3890762-3.1403656-3.1112747-3.1513596H105.485733L105.4644928,90.7829361z"/>
	<path class="st0" d="M100.7722626,63.9667435l0.0229034,1.3597031h11.6240921
		c1.1105652,0.0071335,2.0082626,0.9163666,2.0011292,2.0356445v10.475769l-3.1970062-2.556778
		c-0.2410812-0.1927872-0.540596-0.2978134-0.8492355-0.2978134l-9.6495209,0.0000458
		c-1.0919724-0.0070114-2.0083466-0.9635086-2.0011215-2.097435v-5.6327515
		c0.0068054-1.0623474,0.9259109-1.9266815,2.0488434-1.9266815L100.7722626,63.9667435 M100.7722626,63.9666634
		c-1.8452682,0.000164-3.3966751,1.4299049-3.4084625,3.2777519v5.6414642
		c-0.0118637,1.8555145,1.4966354,3.4452209,3.3521118,3.4570923h9.6582336l3.378006,2.7014771
		c0.2336197,0.236557,0.529808,0.3424911,0.8231735,0.3424911c0.6062393,0,1.2003632-0.4522095,1.2047577-1.1389847V67.3620911
		c0.0118713-1.8555603-1.4966278-3.3833961-3.3521118-3.3953476H100.795166L100.7722626,63.9666634z"/>
	<g>
		<path class="st0" d="M58.8125992,75.4641953v-2.1484299c7.2048187-8.2956314,9.6825562-10.9725456,9.6825562-14.211792
			c0-2.3462791-1.651825-3.6681366-3.5373459-3.6681366c-2.0820427,0-3.6010857,1.0244255-4.6580391,2.7758331l-1.720871-1.5860939
			c1.455307-2.2473564,3.6037369-3.5366821,6.4134331-3.5366821c3.3700333,0,6.1797256,2.1816292,6.1797256,6.0150795
			c0,3.7019958-2.7751694,7.0069733-8.6255951,14.0139389h8.7238541v2.346283H58.8125992z"/>
	</g>
	<path class="st1" d="M89.3558121,64.8917465h-2.0395508c-0.0010834,6.0765762-2.4572372,11.5591125-6.438324,15.5434799
		c-3.9844131,3.9811325-9.4669495,6.4373322-15.5434418,6.4383698c-6.0766563-0.0010376-11.5591927-2.4572372-15.543602-6.4383698
		c-3.9810905-3.9843674-6.4372482-9.4669037-6.4383278-15.5434799c0.0010796-6.0765762,2.4572372-11.5591125,6.4383278-15.5435219
		c3.9844093-3.9810905,9.4669456-6.4372482,15.543602-6.438324c6.0764923,0.0010757,11.5590286,2.4572334,15.5434418,6.438324
		c3.9810867,3.9844093,6.4372406,9.4668617,6.438324,15.5435219H89.3558121h2.0394669
		C91.3939514,50.497879,79.7282791,38.8321266,65.3344955,38.830883
		c-14.3939514,0.0012436-26.0597038,11.666996-26.0609474,26.0608635
		c0.0012436,14.3938217,11.666996,26.0595779,26.0609474,26.0609055
		c14.3937836-0.0013275,26.0594559-11.6670837,26.0607834-26.0609055H89.3558121z"/>
</g>
</svg>
