<?xml version="1.0" encoding="utf-8"?>
<!-- Generator: Adobe Illustrator 19.0.1, SVG Export Plug-In . SVG Version: 6.00 Build 0)  -->
<svg version="1.1" id="Layer_1" xmlns="http://www.w3.org/2000/svg" xmlns:xlink="http://www.w3.org/1999/xlink" x="0px" y="0px"
	 width="91px" height="89.3333359px" viewBox="0 0 91 89.3333359" style="enable-background:new 0 0 91 89.3333359;"
	 xml:space="preserve">
<style type="text/css">
	.st0{fill:#71B82F;}
	.st1{fill:#DFD91A;}
	.st2{fill:#373838;}
	.st3{fill:#61D31E;}
	.st4{fill:#E0D919;}
	.st5{fill:none;stroke:#61D31E;stroke-linecap:round;stroke-linejoin:round;stroke-miterlimit:10;}
	.st6{fill:none;stroke:#61D31E;stroke-width:2;stroke-linecap:round;stroke-linejoin:round;stroke-miterlimit:10;}
</style>
<g>
	<g>
		<path class="st2" d="M8.9080734,0.5385926h28.5226707c4.549614,0.0291097,8.2482071,3.7753365,8.2190971,8.3249493v26.6914368
			c-0.0159912,2.4991112-3.216362,3.7313423-4.9722214,1.9529305l-8.2826271-6.6238308H8.7137165
			c-4.549612-0.02911-8.2482052-3.9268551-8.2190952-8.476469V8.5751925
			C0.5237306,4.0255804,4.3584609,0.509483,8.9080734,0.5385926z"/>
	</g>
	<g>
		<path class="st2" d="M65.0348358,57.1232033l14.1297531,14.1297569c0.6909332,0.6909332,1.8112869,0.6909714,2.5022507,0
			c0.6909866-0.6909866,0.6909332-1.8113174,0-2.5022507L67.5370865,54.6209526
			c-0.6910095-0.6910057-1.811264-0.6909866-2.5022507,0C64.3438644,55.3119202,64.3438263,56.4321976,65.0348358,57.1232033"/>
		<path class="st2" d="M60.9325752,61.2254601l4.9063759,4.9063759c0.6909256,0.6909256,1.8112793,0.6909637,2.5022507,0
			c0.6909866-0.6909866,0.6909256-1.8113251,0-2.5022507l-4.9063759-4.9063759c-0.6910057-0.6910057-1.811264-0.6909866-2.5022507,0
			C60.2416077,59.4141769,60.2415695,60.5344543,60.9325752,61.2254601"/>
		<path class="st2" d="M56.8302994,65.3277359l8.6599808,8.6599808c0.6909256,0.6909256,1.8112793,0.6909637,2.5022507,0
			c0.6909866-0.6909866,0.6909256-1.8113251,0-2.5022507L59.33255,62.8254852c-0.6910057-0.6910057-1.811264-0.6909866-2.5022507,0
			C56.1393318,63.5164528,56.1392937,64.636734,56.8302994,65.3277359"/>
	</g>
	<g>
		<path class="st2" d="M87.1839142,73.7952652l-1.1650085-1.1649323L74.3412552,84.3080292
			c-0.795578,0.7948227-1.8367081,1.1903763-2.8945236,1.1919861c-1.0586319-0.0016327-2.099556-0.3972397-2.8945312-1.1919098
			l-21.851223-21.8510742l-0.2184029,0.2183495l0.2543983-0.1776505l-0.0359955-0.040699l-0.2184029,0.2183495l0.2543983-0.1776505
			c-0.0062332,0.000576-0.1190529-0.2123947-0.2071381-0.5566902c-0.2934151-1.0535965-0.4450493-3.1603355-0.4382095-5.4543076
			c-0.0002022-2.6225815,0.1634979-5.5529785,0.3378563-7.8989105c0.1401711-1.8685303,1.5851212-3.3455086,3.4511909-3.5287895
			c2.8100586-0.2732811,6.4758301-0.5549278,9.4865952-0.5541992c1.3876343-0.0008545,2.6393204,0.0617638,3.5513382,0.1955261
			c0.4540977,0.0652847,0.8227272,0.150425,1.0529938,0.2292099l0.228054,0.0938911l0.0172958,0.0098305l0.2328796-0.3242836
			l-0.2815475,0.2816467l0.0486679,0.0426369l0.2328796-0.3242836l-0.2815475,0.2816467l21.8506241,21.8505478
			c0.7947693,0.7954254,1.1901474,1.8361816,1.1919556,2.8945541c-0.0018082,1.0581436-0.3973846,2.0990982-1.1921616,2.8946991
			L87.1839142,73.7952652l1.1650085,1.1647797c1.4375076-1.437233,2.1584778-3.3393707,2.1566696-5.2242889
			c0.0018082-1.8847961-0.718956-3.7871399-2.156868-5.2243958L66.4976959,42.6603584
			c-0.4736023-0.4608116-0.9663162-0.6751137-1.4708939-0.8522377c-0.7591705-0.2533188-1.5977859-0.3851433-2.5486183-0.4756699
			c-0.9478149-0.0876312-1.9983978-0.122345-3.1109161-0.1225204c-3.2056389,0.0007286-6.9349556,0.291626-9.8049469,0.5695839
			c-3.4544067,0.333107-6.1643181,3.1018906-6.4187164,6.5647926c-0.177578,2.3965111-0.346508,5.3867874-0.3467102,8.1424255
			c0.0006065,1.7266235,0.0645561,3.355938,0.24897,4.737011c0.0937157,0.6926117,0.2153854,1.3231049,0.3989983,1.9045563
			c0.1926575,0.5789108,0.4140778,1.1290627,0.9262962,1.6585732l21.8510246,21.8509979
			c1.4371033,1.4378662,3.3395767,2.1586838,5.2245483,2.1570435c1.8845673,0.0016098,3.7868347-0.7191772,5.2243423-2.1569138
			l11.6776505-11.6778259L87.1839142,73.7952652z"/>
	</g>
	<circle class="st2" cx="54.3184738" cy="52.607502" r="3.8273106"/>
</g>
</svg>
