<?xml version="1.0" encoding="utf-8"?>
<!-- Generator: Adobe Illustrator 19.0.1, SVG Export Plug-In . SVG Version: 6.00 Build 0)  -->
<svg version="1.1" id="Layer_1" xmlns="http://www.w3.org/2000/svg" xmlns:xlink="http://www.w3.org/1999/xlink" x="0px" y="0px"
	 width="78px" height="56px" viewBox="0 0 78 56" style="enable-background:new 0 0 78 56;" xml:space="preserve">
<style type="text/css">
	.st0{fill:#71B82F;}
	.st1{fill:#DFD91A;}
	.st2{fill:#373838;}
	.st3{fill:#61D31E;}
	.st4{fill:#E0D919;}
	.st5{fill:none;stroke:#61D31E;stroke-linecap:round;stroke-linejoin:round;stroke-miterlimit:10;}
	.st6{fill:none;stroke:#61D31E;stroke-width:2;stroke-linecap:round;stroke-linejoin:round;stroke-miterlimit:10;}
</style>
<g>
	<circle class="st2" cx="23.6715012" cy="24.4438305" r="10.4846106"/>
	<path class="st2" d="M43.6376724,52.5869141l2.932991,0.2406578c0.0467033-0.5706825,0.0930481-1.2021255,0.0930481-1.8963013
		c0.0017967-6.6091957-2.815155-12.5732994-7.2728386-16.7518387c-0.6366043-0.5973129-1.4973907-0.8801384-2.3639221-0.7764015
		c-0.8665314,0.1036911-1.636425,0.5815506-2.1138802,1.3122826c-2.4088287,3.6770592-6.5302486,6.0994492-11.2415695,6.0994072
		c-4.7113209,0.000042-8.8330965-2.4223061-11.2419281-6.0995445c-0.4778137-0.7306404-1.2473459-1.2084541-2.1138792-1.3121452
		c-0.8668909-0.1036911-1.7276754,0.1789551-2.3639231,0.7764015c-4.4576836,4.1785393-7.2746325,10.142643-7.2728362,16.7518387
		c0,0.6954346,0.0470629,1.3269196,0.0934073,1.8963013c0.1253814,1.5311623,1.3967986,2.7023468,2.9333487,2.7023468h39.9319839
		c1.53619,0,2.8072472-1.1714096,2.932991-2.7023468L43.6376724,52.5869141v-2.9430504H3.7056904v2.9430504L6.63868,52.3462105
		c-0.0434704-0.52528-0.0740075-0.9924088-0.0740075-1.4149399c0.0017962-4.9227028,2.0801086-9.3235779,5.4154682-12.4602661
		L9.966135,36.3252411l-2.4637971,1.6100197c3.4363112,5.26651,9.3989296,8.7654648,16.1691628,8.7655106
		c6.7702351-0.0000458,12.7332115-3.4989586,16.1688042-8.7656479l-2.4634361-1.6098824l-2.0143661,2.1457634
		c3.3353615,3.1366882,5.4136734,7.5375633,5.4154701,12.4602661c0,0.42379-0.0305367,0.8909607-0.0736504,1.4149399
		L43.6376724,52.5869141v-2.9430504V52.5869141z"/>
	<circle class="st2" cx="54.3288574" cy="10.9546938" r="10.4846106"/>
	<path class="st2" d="M74.2946701,39.0977745l2.932991,0.2406616c0.0463409-0.5693817,0.0934067-1.2008705,0.0934067-1.8963051
		c0.0017929-6.6093292-2.8155136-12.5732975-7.2728424-16.7517471c-0.6366043-0.5973129-1.4970245-0.8801842-2.3639221-0.7765369
		c-0.8665314,0.1036911-1.6364212,0.581459-2.1138763,1.3121929c-2.4088326,3.6772385-6.5306091,6.0995865-11.2415695,6.0995407
		c-0.8661728,0.0168419-2.765934-0.352747-4.5406723-0.9143581c-1.7858772-0.5466118-3.5807343-1.2898293-4.4566078-1.7821026
		c-1.174057-0.6505737-2.6312103-0.4280128-3.5570221,0.5433788c-0.9261665,0.9714355-1.0788536,2.4378395-0.372551,3.5792065
		l7.3601379,11.8946571c0.5381699,0.869854,1.4801445,1.3944168,2.5029564,1.3944168h23.0295715
		c1.5361862,0,2.807251-1.1714096,2.932991-2.702343L74.2946701,39.0977745v-2.9430466H52.9047546l-6.4971962-10.5002384
		l-2.5025978,1.5486298l-1.4269753,2.5739555c1.4675713,0.8068943,3.4492455,1.5964565,5.5721054,2.2578068
		c2.1336365,0.6463509,4.2741013,1.1599121,6.2787666,1.1767502c6.7698746-0.000042,12.7324905-3.4990005,16.168808-8.7655106
		l-2.4634399-1.6100178l-2.0143661,2.1456738c3.3349991,3.1367779,5.4136734,7.5377884,5.4154663,12.4603539
		c0,0.4225349-0.0305328,0.8896599-0.0740051,1.4149399L74.2946701,39.0977745v-2.9430466V39.0977745z"/>
</g>
</svg>
