<?xml version="1.0" encoding="utf-8"?>
<!-- Generator: Adobe Illustrator 19.0.1, SVG Export Plug-In . SVG Version: 6.00 Build 0)  -->
<svg version="1.1" id="Layer_1" xmlns="http://www.w3.org/2000/svg" xmlns:xlink="http://www.w3.org/1999/xlink" x="0px" y="0px"
	 width="72px" height="50.3333321px" viewBox="0 0 72 50.3333321" style="enable-background:new 0 0 72 50.3333321;"
	 xml:space="preserve">
<style type="text/css">
	.st0{fill:#71B82F;}
	.st1{fill:#DFD91A;}
	.st2{fill:#373838;}
	.st3{fill:#61D31E;}
	.st4{fill:#E0D919;}
	.st5{fill:none;stroke:#61D31E;stroke-linecap:round;stroke-linejoin:round;stroke-miterlimit:10;}
	.st6{fill:none;stroke:#61D31E;stroke-width:2;stroke-linecap:round;stroke-linejoin:round;stroke-miterlimit:10;}
</style>
<g>
	<path class="st2" d="M3.4087541,37.8659286h2.9426892V12.467494c0.0010781-1.6166649,0.6556478-3.074357,1.7316284-4.1545591
		c1.0802908-1.07616,2.5381632-1.7308192,4.1548281-1.7316275h47.524559
		c1.6163063,0.0008082,3.0741768,0.6554675,4.1544685,1.7316275c1.075985,1.0802021,1.7305489,2.5378942,1.7316322,4.1545591
		v25.3984337c-0.0010834,1.6165733-0.6556473,3.0742683-1.7316322,4.1544685
		c-1.0802917,1.0761604-2.5381622,1.7308197-4.1544685,1.7316284h-47.524559
		c-1.6166649-0.0008087-3.0745373-0.655468-4.1548281-1.7316284C7.007091,40.940197,6.3525214,39.482502,6.3514433,37.8659286
		H3.4087541H0.4657055c0.011137,6.4942322,5.277513,11.7609673,11.7721939,11.7721062h47.524559
		c6.4943237-0.0111389,11.7606964-5.277874,11.7718353-11.7721062V12.467494
		C71.5231552,5.9731717,66.2567825,0.7064369,59.7624588,0.6952999h-47.524559
		C5.7432184,0.7064369,0.4768425,5.9731717,0.4657055,12.467494v25.3984337H3.4087541z"/>
	<path class="st2" d="M13.4446507,16.5841522l21.0037098,13.0352592c1.3809929,0.8571014,3.1952477,0.4323673,4.0524406-0.9486237
		c0.857193-1.3810806,0.4321899-3.1954288-0.9488029-4.0525303L16.5482883,11.5829992
		c-1.3809919-0.8571024-3.1952486-0.4323683-4.0524406,0.9486227
		C11.6386566,13.9127035,12.0636597,15.7270498,13.4446507,16.5841522"/>
	<path class="st2" d="M37.5519981,29.6194115l21.0037117-13.0352592c1.3809891-0.8571024,1.8059921-2.6714487,0.9488029-4.0525303
		c-0.857193-1.380991-2.6714516-1.8057251-4.0524406-0.9486227L34.4483604,24.6182575
		c-1.3809891,0.8571014-1.8059921,2.6714497-0.9488029,4.0525303
		C34.3567505,30.0517788,36.1710091,30.4765129,37.5519981,29.6194115"/>
</g>
</svg>
