<?xml version="1.0" encoding="UTF-8"?>
<!-- Generator: Adobe Illustrator 19.0.1, SVG Export Plug-In . SVG Version: 6.00 Build 0)  -->
<svg version="1.1" id="Layer_1" xmlns="http://www.w3.org/2000/svg" xmlns:xlink="http://www.w3.org/1999/xlink" x="0px" y="0px" width="102px" height="84px" viewBox="-311.8 265 102 84" style="enable-background:new -311.8 265 102 84;" xml:space="preserve">
<style type="text/css">
	.st0{fill:#373838;}
</style>
<g>
	<path class="st0" d="M-236.8,270.1l-0.2,0.4c12.7,7.2,21.3,20.8,21.3,36.5l0,0l0,0.1l0.5-0.1h-0.5l0,0c0,15.7-8.6,29.3-21.3,36.5   c-0.8,0.5-1.3,1.3-1.3,2.2c0,0.4,0.1,0.8,0.3,1.2c0.5,0.8,1.3,1.3,2.2,1.3c0.4,0,0.8-0.1,1.2-0.3c14.3-8,23.9-23.3,23.9-40.8   c0-17.5-9.6-32.8-23.9-40.8c-0.4-0.2-0.8-0.3-1.2-0.3c-0.9,0-1.7,0.5-2.2,1.3c-0.2,0.4-0.3,0.8-0.3,1.2c0,0.9,0.5,1.7,1.3,2.2   L-236.8,270.1l0.2-0.4h0c-0.2-0.1-0.5,0-0.7,0.2s0,0.5,0.2,0.7L-236.8,270.1l-0.2,0.4l0,0c0.2,0.1,0.5,0,0.7-0.2   c0.1-0.2,0-0.5-0.2-0.7c-0.5-0.3-0.8-0.8-0.8-1.3c0-0.2,0.1-0.5,0.2-0.7c0.3-0.5,0.8-0.8,1.3-0.8c0.2,0,0.5,0.1,0.7,0.2   c14,7.8,23.4,22.8,23.4,40c0,17.2-9.4,32.1-23.4,40c-0.2,0.1-0.5,0.2-0.7,0.2c-0.5,0-1-0.3-1.3-0.8c-0.1-0.2-0.2-0.5-0.2-0.7   c0-0.5,0.3-1,0.8-1.3c13-7.3,21.9-21.3,21.9-37.3l0,0l0-0.1l-0.5,0.1h0.5l0-0.1l-0.5,0.1h0.5v0c0-16-8.8-30-21.9-37.3L-236.8,270.1   l-0.2,0.4L-236.8,270.1z"/>
	<path class="st0" d="M-237.1,281.7l-0.3,0.4c7.3,5.9,11.9,14.8,11.9,24.9c0,10.1-4.6,19-11.9,24.9c-0.6,0.5-0.9,1.2-0.9,1.9   c0,0.6,0.2,1.1,0.6,1.6c0.5,0.6,1.2,0.9,1.9,0.9c0.6,0,1.1-0.2,1.6-0.6c8.4-6.8,13.8-17.2,13.8-28.8l0,0l-0.5,0l0.5,0.1   c0-0.1,0-0.2,0-0.2l-0.5,0l0.5,0.1l0-0.2l0,0c0-11.6-5.4-22-13.8-28.8c-0.5-0.4-1-0.6-1.6-0.6c-0.7,0-1.5,0.3-1.9,0.9   c-0.4,0.5-0.6,1-0.6,1.6c0,0.7,0.3,1.5,0.9,1.9L-237.1,281.7l0.2-0.4h0c-0.2-0.1-0.5,0-0.6,0.2s-0.1,0.5,0.1,0.7L-237.1,281.7   l-0.2,0.4l0,0c0.2,0.1,0.5,0,0.6-0.2c0.1-0.2,0.1-0.5-0.1-0.7c-0.4-0.3-0.6-0.7-0.6-1.2c0-0.3,0.1-0.7,0.3-0.9   c0.3-0.4,0.7-0.6,1.2-0.6c0.3,0,0.7,0.1,0.9,0.3c8.2,6.6,13.4,16.7,13.4,28l0,0h0.5l-0.5-0.2l0,0.1l0,0l0.5,0h-0.5l0,0l0.5,0h-0.5   c0,11.3-5.2,21.4-13.4,28c-0.3,0.2-0.6,0.3-0.9,0.3c-0.4,0-0.9-0.2-1.2-0.6c-0.2-0.3-0.3-0.6-0.3-0.9c0-0.4,0.2-0.9,0.6-1.2   c7.5-6.1,12.3-15.3,12.3-25.7c0-10.4-4.8-19.6-12.3-25.7L-237.1,281.7l-0.2,0.4L-237.1,281.7z"/>
	<path class="st0" d="M-237.5,296.2l-0.4,0.2c1.7,3.2,2.7,6.7,2.7,10.6c0,3.8-1,7.4-2.7,10.6c-0.2,0.4-0.3,0.8-0.3,1.2   c0,0.9,0.5,1.7,1.3,2.2c0.4,0.2,0.8,0.3,1.2,0.3c0.9,0,1.7-0.5,2.2-1.3c2.1-3.9,3.3-8.3,3.3-13v0h-0.5l0.5,0.1l0-0.1h-0.5l0.5,0.1   l0-0.1l0,0l-0.4,0h0.4l0,0l-0.4,0h0.4c0-4.7-1.2-9.1-3.3-13c-0.5-0.8-1.3-1.3-2.2-1.3c-0.4,0-0.8,0.1-1.2,0.3   c-0.8,0.5-1.3,1.3-1.3,2.2c0,0.4,0.1,0.8,0.3,1.2c0.1,0.2,0.3,0.3,0.6,0.2s0.4-0.3,0.4-0.5v0H-237.5l-0.4,0.2L-237.5,296.2h-0.5v0   L-237.5,296.2l0.4-0.2c-0.1-0.2-0.2-0.5-0.2-0.7c0-0.5,0.3-1,0.8-1.3c0.2-0.1,0.5-0.2,0.7-0.2c0.5,0,1,0.3,1.3,0.8   c2,3.7,3.2,8,3.2,12.5l0,0l0.4,0l-0.4,0l0,0l0.4,0l-0.4,0h0.5l-0.5-0.1l0,0.1l0,0c0,4.5-1.1,8.8-3.2,12.5c-0.3,0.5-0.8,0.8-1.3,0.8   c-0.2,0-0.5-0.1-0.7-0.2c-0.5-0.3-0.8-0.8-0.8-1.3c0-0.2,0.1-0.5,0.2-0.7c1.8-3.3,2.8-7.1,2.8-11.1c0-4-1-7.8-2.8-11.1   c-0.1-0.2-0.3-0.3-0.6-0.2c-0.2,0.1-0.4,0.3-0.4,0.5H-237.5z"/>
	<path class="st0" d="M-284.2,270.1l-0.2-0.4c-13,7.3-21.9,21.3-21.9,37.3l0,0l0,0.1l0.5-0.1l-0.5,0l0,0c0,16,8.8,30,21.9,37.3   c0.5,0.3,0.8,0.8,0.8,1.3c0,0.2-0.1,0.5-0.2,0.7c-0.3,0.5-0.8,0.8-1.3,0.8c-0.2,0-0.5-0.1-0.7-0.2c-14-7.8-23.4-22.8-23.4-40   c0-17.2,9.4-32.1,23.4-40c0.2-0.1,0.5-0.2,0.7-0.2c0.5,0,1,0.3,1.3,0.8c0.1,0.2,0.2,0.5,0.2,0.7c0,0.5-0.3,1-0.8,1.3L-284.2,270.1   l0.5,0v0c0-0.2-0.1-0.3-0.2-0.4c-0.2-0.1-0.3-0.1-0.5,0L-284.2,270.1h-0.5v0c0,0.2,0.1,0.3,0.2,0.4s0.3,0.1,0.5,0   c0.8-0.5,1.3-1.3,1.3-2.2c0-0.4-0.1-0.8-0.3-1.2c-0.5-0.8-1.3-1.3-2.2-1.3c-0.4,0-0.8,0.1-1.2,0.3c-14.3,8-23.9,23.3-23.9,40.8   c0,17.5,9.6,32.8,23.9,40.8c0.4,0.2,0.8,0.3,1.2,0.3c0.9,0,1.7-0.5,2.2-1.3c0.2-0.4,0.3-0.8,0.3-1.2c0-0.9-0.5-1.7-1.3-2.2   c-12.7-7.2-21.3-20.8-21.3-36.5h-0.5l0.5,0l0,0h-0.5l0.5,0l0-0.1l-0.5,0.1h0.5l0-0.1l-0.5,0.1h0.5v0c0-15.7,8.6-29.3,21.3-36.5   L-284.2,270.1h-0.5H-284.2z"/>
	<path class="st0" d="M-283.9,281.7l-0.3-0.4c-7.5,6.1-12.3,15.3-12.3,25.7c0,10.4,4.8,19.6,12.3,25.7c0.4,0.3,0.6,0.7,0.6,1.2   c0,0.3-0.1,0.7-0.3,0.9c-0.3,0.4-0.7,0.6-1.2,0.6c-0.3,0-0.7-0.1-0.9-0.3c-8.2-6.6-13.4-16.7-13.4-28l0,0l-0.5,0l0.5,0.1l0-0.1   l-0.5,0l0.5,0.1l0-0.2l-0.5,0h0.5l0,0l-0.5,0h0.5c0-11.3,5.2-21.4,13.4-28c0.3-0.2,0.6-0.3,0.9-0.3c0.4,0,0.9,0.2,1.2,0.6   c0.2,0.3,0.3,0.6,0.3,0.9c0,0.4-0.2,0.9-0.6,1.2L-283.9,281.7l0.5,0v0c0-0.2-0.1-0.4-0.3-0.5s-0.4-0.1-0.5,0.1L-283.9,281.7h-0.5v0   c0,0.2,0.1,0.4,0.3,0.5c0.2,0.1,0.4,0.1,0.5-0.1c0.6-0.5,0.9-1.2,0.9-1.9c0-0.6-0.2-1.1-0.6-1.6c-0.5-0.6-1.2-0.9-1.9-0.9   c-0.6,0-1.1,0.2-1.6,0.6c-8.4,6.8-13.8,17.2-13.8,28.8l0,0l0.5,0l-0.5-0.1l0,0.1l0,0l0.5,0l-0.5,0v0l0.5,0l-0.5,0   c0,11.6,5.4,22,13.8,28.8c0.5,0.4,1,0.6,1.6,0.6c0.7,0,1.5-0.3,1.9-0.9c0.4-0.5,0.6-1,0.6-1.6c0-0.7-0.3-1.5-0.9-1.9   c-7.3-5.9-11.9-14.8-11.9-24.9c0-10.1,4.6-19,11.9-24.9L-283.9,281.7h-0.5H-283.9z"/>
	<path class="st0" d="M-283.5,296.2l-0.4-0.2c-1.8,3.3-2.8,7.1-2.8,11.1c0,4,1,7.8,2.8,11.1c0.1,0.2,0.2,0.5,0.2,0.7   c0,0.5-0.3,1-0.8,1.3c-0.2,0.1-0.5,0.2-0.7,0.2c-0.5,0-1-0.3-1.3-0.8c-2-3.7-3.2-8-3.2-12.5v0l-0.5,0l0.5,0.1l0-0.1l-0.5,0l0.5,0.1   l0-0.1l-0.4,0h0.4l0,0l-0.4,0h0.4c0-4.5,1.1-8.8,3.2-12.5c0.3-0.5,0.8-0.8,1.3-0.8c0.2,0,0.5,0.1,0.7,0.2c0.5,0.3,0.8,0.8,0.8,1.3   c0,0.2-0.1,0.5-0.2,0.7c-0.1,0.2-0.1,0.4,0.1,0.6s0.4,0.2,0.6,0.1l0,0L-283.5,296.2l-0.4-0.2L-283.5,296.2l-0.2-0.4h0L-283.5,296.2   l0.4,0.2c0.2-0.4,0.3-0.8,0.3-1.2c0-0.9-0.5-1.7-1.3-2.2c-0.4-0.2-0.8-0.3-1.2-0.3c-0.9,0-1.7,0.5-2.2,1.3c-2.1,3.9-3.3,8.3-3.3,13   l0,0l0.5,0l-0.5-0.1l0,0.1v0l0.4,0h-0.4v0l0.4,0h-0.4c0,4.7,1.2,9.1,3.3,13c0.5,0.8,1.3,1.3,2.2,1.3c0.4,0,0.8-0.1,1.2-0.3   c0.8-0.5,1.3-1.3,1.3-2.2c0-0.4-0.1-0.8-0.3-1.2c-1.7-3.2-2.7-6.7-2.7-10.6c0-3.8,1-7.4,2.7-10.6c0.1-0.2,0.1-0.4-0.1-0.6   c-0.2-0.2-0.4-0.2-0.6-0.1L-283.5,296.2z"/>
	<path class="st0" d="M-245.5,334.2v-0.5h-30c-0.7,0-1.3-0.3-1.8-0.7c-0.5-0.5-0.7-1.1-0.7-1.8v-48.5c0-0.7,0.3-1.3,0.7-1.8   c0.5-0.5,1.1-0.7,1.8-0.7h30c0.7,0,1.3,0.3,1.8,0.7c0.5,0.5,0.7,1.1,0.7,1.8v48.5c0,0.7-0.3,1.3-0.7,1.8c-0.5,0.5-1.1,0.7-1.8,0.7   V334.2v0.5c1.9,0,3.5-1.6,3.5-3.5v-48.5c0-1.9-1.6-3.5-3.5-3.5h-30c-1.9,0-3.5,1.6-3.5,3.5v48.5c0,1.9,1.6,3.5,3.5,3.5h30V334.2z"/>
	<path class="st0" d="M-275.7,327.1h30.3c0.3,0,0.5-0.2,0.5-0.5c0-0.3-0.2-0.5-0.5-0.5h-30.3c-0.3,0-0.5,0.2-0.5,0.5   C-276.2,326.9-276,327.1-275.7,327.1"/>
	<path class="st0" d="M-275.7,284.9h30.3c0.3,0,0.5-0.2,0.5-0.5s-0.2-0.5-0.5-0.5h-30.3c-0.3,0-0.5,0.2-0.5,0.5   S-276,284.9-275.7,284.9"/>
	<circle class="st0" cx="-260.5" cy="330.2" r="2"/>
	<path class="st0" d="M-271.8,321v-0.5c-0.7,0-1.3-0.6-1.3-1.3v-6.5c0-0.7,0.6-1.3,1.3-1.3c0.7,0,1.3,0.6,1.3,1.3v6.5   c0,0.7-0.6,1.3-1.3,1.3V321v0.5c1.3,0,2.3-1,2.3-2.3v-6.5c0-1.3-1-2.3-2.3-2.3c-1.3,0-2.3,1-2.3,2.3v6.5c0,1.3,1,2.3,2.3,2.3V321z"/>
	<path class="st0" d="M-264.3,321v-0.5c-0.7,0-1.3-0.6-1.3-1.3v-10.5c0-0.7,0.6-1.3,1.3-1.3c0.7,0,1.3,0.6,1.3,1.3v10.5   c0,0.7-0.6,1.3-1.3,1.3V321v0.5c1.3,0,2.3-1,2.3-2.3v-10.5c0-1.3-1-2.3-2.3-2.3c-1.3,0-2.3,1-2.3,2.3v10.5c0,1.3,1,2.3,2.3,2.3V321   z"/>
	<path class="st0" d="M-256.8,321v-0.5c-0.7,0-1.3-0.6-1.3-1.3v-15.5c0-0.7,0.6-1.3,1.3-1.3c0.7,0,1.3,0.6,1.3,1.3v15.5   c0,0.7-0.6,1.3-1.3,1.3V321v0.5c1.3,0,2.3-1,2.3-2.3v-15.5c0-1.3-1-2.3-2.3-2.3c-1.3,0-2.3,1-2.3,2.3v15.5c0,1.3,1,2.3,2.3,2.3V321   z"/>
	<path class="st0" d="M-249.2,321v-0.5c-0.7,0-1.3-0.6-1.3-1.3v-26.5c0-0.7,0.6-1.3,1.3-1.3c0.7,0,1.3,0.6,1.3,1.3v26.5   c0,0.7-0.6,1.3-1.3,1.3V321v0.5c1.3,0,2.3-1,2.3-2.3v-26.5c0-1.3-1-2.3-2.3-2.3c-1.3,0-2.3,1-2.3,2.3v26.5c0,1.3,1,2.3,2.3,2.3V321   z"/>
</g>
</svg>