<?xml version="1.0" encoding="utf-8"?>
<!-- Generator: Adobe Illustrator 19.0.1, SVG Export Plug-In . SVG Version: 6.00 Build 0)  -->
<svg version="1.1" id="Layer_1" xmlns="http://www.w3.org/2000/svg" xmlns:xlink="http://www.w3.org/1999/xlink" x="0px" y="0px"
	 width="67.3333359px" height="64.3333359px" viewBox="0 0 67.3333359 64.3333359"
	 style="enable-background:new 0 0 67.3333359 64.3333359;" xml:space="preserve">
<style type="text/css">
	.st0{fill:#71B82F;}
	.st1{fill:#DFD91A;}
	.st2{fill:#373838;}
	.st3{fill:#61D31E;}
	.st4{fill:#E0D919;}
	.st5{fill:none;stroke:#61D31E;stroke-linecap:round;stroke-linejoin:round;stroke-miterlimit:10;}
	.st6{fill:none;stroke:#61D31E;stroke-width:2;stroke-linecap:round;stroke-linejoin:round;stroke-miterlimit:10;}
</style>
<g>
	<path class="st2" d="M4.4732757,32.5215874h13.5745964c2.1652527,0.0138512,3.925621,1.7967644,3.9116096,3.9620171v12.7030563
		c-0.0075436,1.189373-1.5304432,1.7758179-2.3660793,0.9294243l-3.9421463-3.1524048H4.3809462
		c-2.1652532-0.013855-3.9256215-1.8688889-3.9116106-4.0341415v-6.583149
		C0.4829875,34.1811142,2.3080225,32.5077324,4.4732757,32.5215874z"/>
	<path class="st2" d="M61.3116226,45.8927078H47.7370262c-2.1652565,0.0138512-3.9252625,1.7967644-3.9116135,3.9620171v12.7030334
		c0.0079041,1.1893959,1.5308037,1.7758446,2.3664398,0.929451l3.9417877-3.1524315h11.270668
		c2.1652565-0.013855,3.9252663-1.868885,3.9116096-4.0341377v-6.5831528
		C65.3019104,47.5522346,63.4768753,45.8788528,61.3116226,45.8927078z"/>
	<path class="st2" d="M61.2685089,0.4465501H42.2989235c-3.0260391,0.0193551-5.4858818,2.5108602-5.4664841,5.5367184v17.7517891
		c0.0107803,1.6621113,2.1390266,2.4816246,3.3069801,1.2988548l5.5085144-4.405323h15.7499084
		c3.0256805-0.0193996,5.485527-2.6116772,5.4661255-5.6374893V5.7915134
		C66.8449249,2.7656558,64.294548,0.427195,61.2685089,0.4465501z"/>
	<path class="st2" d="M19.9472733,27.7237511l11.5480175-11.5480843c1.1492672-1.1493139,1.1492672-3.0127449,0-4.1621037
		c-1.1492691-1.1493139-3.0127449-1.1493139-4.162014,0.0000448L15.7852592,23.5616703
		c-1.1492691,1.1493359-1.1492691,3.0127659,0,4.1621037C16.9345284,28.8730869,18.7980042,28.8730869,19.9472733,27.7237511"/>
	<path class="st2" d="M49.2635155,27.7699833V38.710247c0,1.6254005,1.3174019,2.9430466,2.9430504,2.9430466
		c1.6252861,0,2.9430466-1.317646,2.9430466-2.9430466V27.7699833c0-1.6254215-1.3177605-2.9430485-2.9430466-2.9430485
		C50.5809174,24.8269348,49.2635155,26.1445618,49.2635155,27.7699833"/>
	<path class="st2" d="M29.1105309,52.5935364h8.5090446c1.6252899,0,2.9430504-1.3176498,2.9430504-2.9430504
		c0-1.6254196-1.3177605-2.9430466-2.9430504-2.9430466h-8.5090446c-1.6256466,0-2.9430485,1.317627-2.9430485,2.9430466
		C26.1674824,51.2758865,27.4848843,52.5935364,29.1105309,52.5935364"/>
</g>
</svg>
