<?xml version="1.0" encoding="utf-8"?>
<!-- Generator: Adobe Illustrator 19.0.1, SVG Export Plug-In . SVG Version: 6.00 Build 0)  -->
<svg version="1.1" id="Layer_1" xmlns="http://www.w3.org/2000/svg" xmlns:xlink="http://www.w3.org/1999/xlink" x="0px" y="0px"
	 width="74.6666641px" height="70px" viewBox="0 0 74.6666641 70" style="enable-background:new 0 0 74.6666641 70;"
	 xml:space="preserve">
<style type="text/css">
	.st0{fill:#71B82F;}
	.st1{fill:#DFD91A;}
	.st2{fill:#373838;}
	.st3{fill:#61D31E;}
	.st4{fill:#E0D919;}
	.st5{fill:none;stroke:#61D31E;stroke-linecap:round;stroke-linejoin:round;stroke-miterlimit:10;}
	.st6{fill:none;stroke:#61D31E;stroke-width:2;stroke-linecap:round;stroke-linejoin:round;stroke-miterlimit:10;}
</style>
<g>
	<circle class="st2" cx="59.4929619" cy="54.8789749" r="5.2275829"/>
	<path class="st2" d="M66.2628403,38.6392632l2.0808258-2.0810509c-3.7406082-3.7432518-8.6696358-5.6192131-13.5677719-5.6155319
		c-1.687439,0-3.3745193,0.2204952-5.0159721,0.6618004l0.7641449,2.8421402l2.0808258-2.0810509l-4.4878616-4.4879513
		c-1.39608-1.3967991-3.2494965-2.0985203-5.0716553-2.095602c-1.8225212-0.0028744-3.6766586,0.698534-5.0723763,2.09659
		l-0.6412773,0.6412315l2.081543,2.0809174l2.0736427-2.0884151l-5.7441902-5.7035046l-0.7587547-5.0879135
		c-0.2205849-1.4756107-1.5131989-2.5543756-3.0041218-2.506999l-6.3024788,0.1996136L22.7849693,9.423255
		c-0.3323135-0.6875772-0.9218578-1.2216148-1.6389389-1.4839191l-3.8447876-1.406364L15.58183,2.8961048
		c-0.5852327-1.2370631-1.9338903-1.9051499-3.2724895-1.6204821L7.8290238,2.2281976L6.7763953,1.3376398
		C5.6098814,0.3513395,3.8746612,0.4235056,2.794729,1.5036174c-1.3964391,1.395631-2.101305,3.248868-2.0984309,5.0744867
		C0.6927055,8.3942022,1.391464,10.2462273,2.787544,11.6396122l27.7933426,27.7931652l2.0811882-2.0810547l-2.0819054-2.080513
		l-0.1659775,0.166069c-1.3964405,1.3948212-2.0980721,3.248867-2.0948391,5.0708504
		c-0.003233,1.8219337,0.6983986,3.6759796,2.0959167,5.0718346l6.0211773,6.021225l2.0811882-2.0810509l-2.9408951-0.1157265
		l-0.01437,0.7460442c-0.0043106,4.8967896,1.8598824,9.8333664,5.6101875,13.579895
		c3.7919769,3.7943153,8.7910652,5.6309776,13.7154236,5.6264915c4.8902321,0.0020599,9.7599907-1.9295807,13.4556847-5.6267166
		c3.7420425-3.7403336,5.6303024-8.66959,5.626709-13.575222c0.0035934-4.9090042-1.8774872-9.8485451-5.6263504-13.5964241
		L66.2628403,38.6392632l-2.0815506,2.0807381c2.6085815,2.6113625,3.8997574,6.0086937,3.9033508,9.4349022
		c-0.0035934,3.4149323-1.2969284,6.8046303-3.9029922,9.4130287c-2.5927696,2.5902138-5.9435768,3.9007912-9.2936668,3.9028549
		c-3.4905586-0.0044899-6.9261513-1.2774811-9.5537682-3.9028549c-2.6031914-2.6050301-3.881794-5.9901924-3.8861046-9.4174767
		l0.0100594-0.514637c0.0319748-0.8187523-0.2805824-1.6174278-0.8597069-2.1967773l-6.0215378-6.0214958
		c-0.2482491-0.2493706-0.3685989-0.5633621-0.3718338-0.9094162c0.0032349-0.3460579,0.1235847-0.6600037,0.3714752-0.9088364
		l0.167057-0.167099c1.1489067-1.1496277,1.1485481-3.0123863-0.000721-4.1615677L6.9484801,7.4763408
		C6.703825,7.2307425,6.5856285,6.9233518,6.582036,6.578104c0.0028739-0.3430023,0.1235852-0.6604075,0.3747072-0.9121585
		L4.8759155,3.5848041L2.9750772,5.8319235l2.1544752,1.8221159c0.697681,0.5903969,1.6184611,0.8215799,2.5126567,0.6315775
		l3.6141443-0.768455l1.2405205,2.6234879c0.3312368,0.7006445,0.9214993,1.2393532,1.6493578,1.5056982l3.8577223,1.4112139
		l3.2060261,6.6381168c0.505476,1.0471935,1.5807381,1.6983051,2.7432995,1.6615715l5.5958176-0.1772938l0.5169735,3.4645119
		c0.0926876,0.6220131,0.3905144,1.2106133,0.8370724,1.6538048l6.436121,6.3908558
		c1.1532211,1.1454048,3.0059204,1.1419029,4.1551895-0.0074997l0.6419945-0.642086
		c0.2482491-0.2476635,0.5625992-0.3685989,0.9089279-0.3714733c0.3452454,0.0028744,0.6603165,0.123539,0.9099998,0.3719692
		l4.4875031,4.4875908c0.7433052,0.7435303,1.8293457,1.033947,2.8449707,0.7610893
		c1.1392097-0.3063126,2.3139877-0.4599876,3.4880447-0.4599876c3.4176292,0.003685,6.8004112,1.2887535,9.4057541,3.8915405
		L66.2628403,38.6392632z"/>
</g>
</svg>
