<?xml version="1.0" encoding="utf-8"?>
<!-- Generator: Adobe Illustrator 19.0.1, SVG Export Plug-In . SVG Version: 6.00 Build 0)  -->
<svg version="1.1" id="Layer_1" xmlns="http://www.w3.org/2000/svg" xmlns:xlink="http://www.w3.org/1999/xlink" x="0px" y="0px"
	 width="80.3333359px" height="70.5px" viewBox="0 0 80.3333359 70.5" style="enable-background:new 0 0 80.3333359 70.5;"
	 xml:space="preserve">
<style type="text/css">
	.st0{fill:#71B82F;}
	.st1{fill:#DFD91A;}
	.st2{fill:#373838;}
	.st3{fill:#61D31E;}
	.st4{fill:#E0D919;}
	.st5{fill:none;stroke:#61D31E;stroke-linecap:round;stroke-linejoin:round;stroke-miterlimit:10;}
	.st6{fill:none;stroke:#61D31E;stroke-width:2;stroke-linecap:round;stroke-linejoin:round;stroke-miterlimit:10;}
</style>
<g>
	<path class="st2" d="M19.9635544,7.6820068v1c1.0328979,0,1.8782959,0.798645,1.8845825,1.7738953v4.7806091
		c0.0065918,1.0339355-0.8375244,1.9128723-1.836853,1.919281H11.83776c-0.2269897,0-0.4472656,0.07724-0.6245728,0.2190247
		l-2.8587646,2.2861938l-0.0915527,0.0437317v-9.1557312C8.259696,10.0566711,8.4505529,9.5904541,8.8002234,9.2362366
		c0.3497314-0.3542175,0.8134766-0.5510254,1.2994385-0.5541687l9.8506479-0.0000305L19.9635544,7.6820068 M19.9635544,7.6820068
		l-0.0193481,0.000061h-9.8445444c-1.5703125,0.0100708-2.8468623,1.3030701-2.8367915,2.8733521v9.2125244
		C7.2665935,20.3491516,7.76934,20.731842,8.28234,20.731842c0.248291,0,0.4989624-0.0896606,0.6966553-0.289856
		l2.8587646-2.2861938h8.1735239c1.5703125-0.0100403,2.8468628-1.3553467,2.836853-2.9256592v-4.774231
		C22.8381271,8.8921509,21.5252609,7.6820068,19.9635544,7.6820068z"/>
	<path class="st2" d="M19.9635544,34.2081909v1c1.0328979,0,1.8782959,0.798645,1.8845825,1.7738953v4.7806091
		c0.0065918,1.0339355-0.8375244,1.9128418-1.836853,1.919281H11.83776c-0.2269897,0-0.4472656,0.07724-0.6245728,0.2190247
		l-2.8587646,2.2861938l-0.0915527,0.0437317v-9.1557312c-0.0031738-0.4923401,0.1876831-0.9585571,0.5373535-1.3127747
		c0.3497314-0.3542175,0.8134766-0.5510254,1.2994385-0.5541687l9.8506479-0.0000305L19.9635544,34.2081909 M19.9635544,34.2081909
		l-0.0193481,0.000061h-9.8445444c-1.5703125,0.0100708-2.8468623,1.3030701-2.8367915,2.8733521v9.2125244
		C7.2665935,46.8753357,7.76934,47.2580261,8.28234,47.2580261c0.248291,0,0.4989624-0.0896606,0.6966553-0.289856
		l2.8587646-2.2861938h8.1735239c1.5703125-0.0100708,2.8468628-1.3553467,2.836853-2.9256592v-4.774231
		C22.8381271,35.418335,21.5252609,34.2081909,19.9635544,34.2081909z"/>
	<path class="st2" d="M25.7327194,20.7318726l0.0194092,1.000061l9.8381348-0.0000305
		c1.0228882,0.0065613,1.8497925,0.8440857,1.8432617,1.8733521l-0.0045776,9.1839905l-0.0870361-0.0783997l-2.8587036-2.2861938
		c-0.1773071-0.1417847-0.397583-0.2190247-0.6245728-0.2190247l-8.1671753,0.0000305
		c-0.4845581-0.0031128-0.9452515-0.2060547-1.2971802-0.5714417c-0.3553467-0.3689575-0.5492554-0.8476257-0.5460205-1.354248
		v-4.7678528c0.0062256-0.9815674,0.8516235-1.7801819,1.8845215-1.7802429L25.7327194,20.7318726 M25.7327194,20.7318726
		c-1.5617065,0.000061-2.8745117,1.2101135-2.8844604,2.7738647v4.774231
		c-0.0100708,1.5703125,1.2664795,2.9156189,2.836792,2.9256592h8.173584l2.8587036,2.2861938
		c0.1976929,0.2001953,0.4483643,0.2898865,0.6967163,0.2898865c0.5129395,0,1.0157471-0.3826904,1.0194702-0.9639282v-9.2125244
		c0.0100098-1.570282-1.2665405-2.8632812-2.836853-2.8733215h-9.8445435L25.7327194,20.7318726z"/>
	<path class="st2" d="M76.343132,55.4584351v-0.5H3.9902873c-0.6871948-0.0001526-1.3098145-0.2801208-1.7652588-0.7348328
		c-0.454651-0.4553833-0.7346193-1.0780334-0.7348024-1.7651672V4.2704468
		c0.0001831-0.6871643,0.2801514-1.3098145,0.7348024-1.7652283c0.4554443-0.4546814,1.078064-0.7346497,1.7652588-0.7348022
		H76.343132c0.6871338,0.0001526,1.3097534,0.2801208,1.7651978,0.7348022
		c0.4546509,0.4554138,0.7346191,1.078064,0.7348022,1.7652283v48.1879883
		c-0.0001831,0.6871338-0.2801514,1.3097839-0.7348022,1.7651672c-0.4554443,0.4547119-1.078064,0.7346802-1.7651978,0.7348328
		V55.4584351v0.4999695c1.9283447-0.0018921,3.4980469-1.5716553,3.499939-3.4999695V4.2704468
		c-0.0018921-1.9283752-1.5715942-3.4981079-3.499939-3.5H3.9902873c-1.9284058,0.0018921-3.4981079,1.5716248-3.5,3.5v48.1879883
		c0.0018921,1.9283142,1.5715944,3.4980774,3.5,3.4999695H76.343132V55.4584351z"/>
	<path class="st2" d="M49.1595993,69.2295837v-0.5H31.1738205c-0.5038452-0.0001526-0.9598389-0.2051086-1.2943726-0.5389709
		c-0.3338623-0.3345642-0.5388184-0.7905579-0.5390015-1.294342l0.000061-0.0000305
		c0.0001221-0.5038147,0.2050781-0.9598083,0.5389404-1.2943726c0.3345337-0.3338623,0.7905273-0.5388184,1.2943726-0.5389709
		h17.9857788c0.5037842,0.0001526,0.9597778,0.2051086,1.2943115,0.5389709
		c0.3338623,0.3345642,0.5388184,0.7905579,0.5390015,1.2943726v0.0000305
		c-0.0001831,0.5037842-0.2051392,0.9597778-0.5390015,1.294342c-0.3345337,0.3338623-0.7905273,0.5388184-1.2943115,0.5389709
		V69.2295837v0.4999695c1.5616455-0.0018921,2.8313599-1.271637,2.833252-2.8332825l0.000061-0.0000305
		c-0.0019531-1.561676-1.2716675-2.8314209-2.833313-2.833313H31.1738205
		c-1.5617065,0.0018921-2.8314209,1.271637-2.833313,2.833313v0.0000305
		c0.0018921,1.5616455,1.2716064,2.8313904,2.833313,2.8332825h17.9857788V69.2295837z"/>
	<path class="st2" d="M34.1666794,55.4584351v9.1044922c0,0.276123,0.2238159,0.5,0.5,0.5c0.276123,0,0.5-0.223877,0.5-0.5
		v-9.1044922c0-0.2761536-0.223877-0.5-0.5-0.5C34.3904953,54.9584351,34.1666794,55.1822815,34.1666794,55.4584351"/>
	<path class="st2" d="M45.1666794,55.4584351v9.1044922c0,0.276123,0.2238159,0.5,0.5,0.5c0.276123,0,0.5-0.223877,0.5-0.5
		v-9.1044922c0-0.2761536-0.223877-0.5-0.5-0.5C45.3904953,54.9584351,45.1666794,55.1822815,45.1666794,55.4584351"/>
	<path class="st2" d="M69.626152,10.8962708c-0.0018921-1.9283752-1.5715942-3.4981079-3.499939-3.5h-4.333313
		c-1.9284058,0.0018921-3.4981079,1.5716248-3.5,3.5v4.333313c0.0018921,1.9283142,1.5715942,3.4980774,3.5,3.4999695
		c0.276123,0,0.499939-0.2238464,0.499939-0.4999695c0-0.2761536-0.2238159-0.4999695-0.499939-0.4999695
		c-0.6871948-0.0001831-1.3098145-0.2801514-1.7652588-0.7348633c-0.4546509-0.4553833-0.7346191-1.0780334-0.7348022-1.7651672
		v-4.333313c0.0001831-0.6871643,0.2801514-1.3098145,0.7348022-1.7652283
		c0.4554443-0.4546814,1.078064-0.7346497,1.7652588-0.7348022h4.333313
		c0.6871338,0.0001526,1.3097534,0.2801208,1.7651978,0.7348022c0.4546509,0.4554138,0.7346191,1.078064,0.7348022,1.7652283
		c0,0.276123,0.2238159,0.5,0.5,0.5c0.276123,0,0.5-0.223877,0.5-0.5H69.626152z"/>
	<path class="st2" d="M65.1292038,22.1539612v-5.9031067h-1.1696167v-1.151062h1.1696167v-2.4127808h1.315918v2.4127808h1.4985962
		v1.151062h-1.4985962v5.6654663c0,0.6765137,0.2005005,1.0596924,0.7121582,1.0596924
		c0.3289795,0,0.6037598-0.1463013,0.7678833-0.3467712l0.4017334,0.9869385
		c-0.3104248,0.3103943-0.7493286,0.5294495-1.4250488,0.5294495
		C65.6957932,24.1456299,65.1292038,23.4698792,65.1292038,22.1539612z"/>
	<polygon class="st2" points="71.4703903,23.9265747 68.5831223,15.0997925 70.0081711,15.0997925 72.2011642,22.3730164 
		74.4126511,15.0997925 75.8199387,15.0997925 72.9140549,23.9265747 	"/>
	<path class="st2" d="M4.5015788,51.4377441h71.3183594c0.276123,0,0.5-0.223877,0.5-0.5c0-0.2761536-0.223877-0.5-0.5-0.5
		H4.5015788c-0.2761841,0-0.5,0.2238464-0.5,0.5C4.0015788,51.2138672,4.2253947,51.4377441,4.5015788,51.4377441"/>
	<path class="st2" d="M48.9927902,9.0299072v37.6644592c0,0.276123,0.2238159,0.5,0.5,0.5c0.276123,0,0.5-0.223877,0.5-0.5
		V9.0299072c0-0.2761536-0.223877-0.5-0.5-0.5C49.2166061,8.5299072,48.9927902,8.7537537,48.9927902,9.0299072"/>
</g>
</svg>
