<?xml version="1.0" encoding="utf-8"?>
<!-- Generator: Adobe Illustrator 19.0.1, SVG Export Plug-In . SVG Version: 6.00 Build 0)  -->
<svg version="1.1" id="Layer_1" xmlns="http://www.w3.org/2000/svg" xmlns:xlink="http://www.w3.org/1999/xlink" x="0px" y="0px"
	 width="74.6666641px" height="62px" viewBox="0 0 74.6666641 62" style="enable-background:new 0 0 74.6666641 62;"
	 xml:space="preserve">
<style type="text/css">
	.st0{fill:#71B82F;}
	.st1{fill:#DFD91A;}
	.st2{fill:#373838;}
	.st3{fill:#61D31E;}
	.st4{fill:#E0D919;}
	.st5{fill:none;stroke:#61D31E;stroke-linecap:round;stroke-linejoin:round;stroke-miterlimit:10;}
	.st6{fill:none;stroke:#61D31E;stroke-width:2;stroke-linecap:round;stroke-linejoin:round;stroke-miterlimit:10;}
</style>
<g>
	<path class="st2" d="M28.4339523,0.6507196h17.6697884c2.8183861,0.0180528,5.1097374,2.33882,5.091774,5.1572957V22.343399
		c-0.009697,1.5481815-1.9924469,2.3115616-3.0802841,1.2098045l-5.1309357-4.1034546H28.3136005
		c-2.8183861-0.0180092-5.1097393-2.4326782-5.0917759-5.251153V5.6294188
		C23.2397881,2.8108983,25.6155663,0.6327118,28.4339523,0.6507196z"/>
	<path class="st2" d="M71.1095963,45.6733551h2.942688c-0.0111389-5.6017456-4.547142-10.1383286-10.1490631-10.1494675H51.0069046
		v2.9430504l2.9214935-0.3528404c-0.6693001-5.5349655-5.3439751-9.8673115-11.0896034-9.8792133H31.821764
		c-6.1857204,0.0111828-11.1995373,5.0249081-11.2106743,11.2104931v0.9532509L8.319767,40.3986702
		c-4.183929,0.011631-7.55234,3.3282661-7.6949658,7.4609108l2.9416118,0.0969543l-0.1031075-2.9412537L3.454324,45.0155983
		c-1.5886426,0.0556831-2.8399413,1.3516197-2.8399413,2.9412498v0.086132h2.9430487l-2.928319-0.2949944l-0.0068259,0.0677643
		v0.5897255l0.0068259,0.0678101l2.928319-0.2947273H0.6143827v10.227829c0,0.7749672,0.3139922,1.5330467,0.8618619,2.0810509
		s1.3059061,0.8619537,2.0811868,0.8619537h67.5173111c0.7749252,0,1.532959-0.3140373,2.0808258-0.8620872
		c0.548233-0.5480499,0.8618622-1.3060417,0.8618622-2.0809174V46.1640587l0.0197601-0.193058l0.0150909-0.2976456H71.1095963
		l-2.9279633-0.2976913l-0.0348434,0.3427773l-0.0150909,0.2976913v9.4471626H6.499402l0.0007186-7.2847366l-0.0147295-0.2947731
		l-0.0068259-0.0678101l-2.9279597,0.2947731l2.9279597,0.2949486l0.0068259-0.0677643l0.0147295-0.2949524v-0.086132H3.5574315
		l0.1027479,2.9412079l0.0089815-0.0003128c1.5440946-0.053978,2.7874894-1.3001595,2.8385043-2.8442993
		c0.0255075-0.9689217,0.8553953-1.7803497,1.8121018-1.7687187h15.2343712c0.7749214,0,1.532959-0.3140373,2.0808277-0.8620872
		c0.5482292-0.5480499,0.8618622-1.3060417,0.8618622-2.0809174v-3.8963432
		c0.0010777-1.4621811,0.5924187-2.7794037,1.5667286-3.7578468c0.9786205-0.9743538,2.2960224-1.5658302,3.7582073-1.5665932
		h11.0170307c2.6786346-0.0119019,4.9290314,2.0638504,5.2462578,4.6987915
		c0.1785507,1.4812241,1.4298515,2.59021,2.9218521,2.59021h12.8963165c1.170105,0.0007668,2.222374,0.4728775,3.0084305,1.2548943
		c0.7817535,0.7861023,1.2538147,1.8381004,1.2548981,3.008522H71.1095963l-2.9279633-0.2976913L71.1095963,45.6733551z"/>
</g>
</svg>
