<?xml version="1.0" encoding="utf-8"?>
<!-- Generator: Adobe Illustrator 19.0.1, SVG Export Plug-In . SVG Version: 6.00 Build 0)  -->
<svg class="icon_rbt-gimny" version="1.1" id="Layer_1" xmlns="http://www.w3.org/2000/svg" xmlns:xlink="http://www.w3.org/1999/xlink" x="0px" y="0px"
	 width="89.3333359px" height="92px" viewBox="0 0 89.3333359 92" style="enable-background:new 0 0 89.3333359 92;"
	 xml:space="preserve">
<style type="text/css">
	.icon_rbt-gimny .st0{fill:#71B82F;}
	.icon_rbt-gimny .st1{fill:#DFD91A;}
	.icon_rbt-gimny .st2{fill:#373838;}
	.icon_rbt-gimny .st3{fill:#61D31E;}
	.icon_rbt-gimny .st4{fill:#E0D919;}
	.icon_rbt-gimny .st5{fill:none;stroke:#61D31E;stroke-linecap:round;stroke-linejoin:round;stroke-miterlimit:10;}
	.icon_rbt-gimny .st6{fill:none;stroke:#61D31E;stroke-width:2;stroke-linecap:round;stroke-linejoin:round;stroke-miterlimit:10;}
</style>
<g>
	<path class="st2" d="M61.2713242,90.8599319l0.0031128-0.4999924L26.9530258,90.145668
		c-1.3664551-0.0065842-2.4864502-1.1353836-2.4845581-2.4997864h-0.0122681l0.012085,0.000473l0.0001831-0.000473h-0.0122681
		l0.012085,0.000473l0.0003662-0.016243l0.3436279-55.0420723c0.0065918-1.366396,1.135376-2.4862766,2.4998169-2.4843998
		l0.0140991,0.0000534l34.3230591,0.2142792c1.366394,0.0065842,2.486145,1.1353531,2.484314,2.4998875l0.0001221,0.0285034
		l0.499939-0.0097046l-0.5-0.0031281l-0.3436279,55.0420647c-0.0066528,1.3663788-1.135498,2.4862747-2.499939,2.4843903
		l-0.0157471-0.0000458L61.2713242,90.8599319l-0.0030518,0.4999847l0.0217896,0.0000687
		c1.918457-0.0018845,3.4859009-1.5571823,3.4998779-3.4781342l0.3436279-55.0420799l-0.000061-0.012825v-0.0090866
		c-0.0018311-1.9184361-1.5570068-3.4859409-3.4779663-3.4998646l-34.3214111-0.2142715l-0.0220337-0.0000763
		c-1.918457,0.0018768-3.4858398,1.5572128-3.4997559,3.478159l-0.3436279,55.042057l0.5,0.0031204l-0.4996338-0.0193634
		l-0.0005493,0.0382614c0.0018311,1.918457,1.557312,3.4858246,3.4782104,3.4997635l34.3214111,0.2142715L61.2713242,90.8599319z"/>
	<path class="st2" d="M27.173851,82.5596466l33.9744263,0.2121048c0.2761841,0.0017242,0.5014038-0.2207336,0.5031128-0.4968643
		c0.00177-0.2761383-0.2207031-0.5013885-0.4968262-0.5031128l-33.9744263-0.2121048
		c-0.2761841-0.0017242-0.5014038,0.2207336-0.5031128,0.4968643C26.6752548,82.3326721,26.897728,82.5579224,27.173851,82.5596466"
		/>
	<path class="st2" d="M27.4687119,35.3316154l33.9743652,0.2121048c0.2761841,0.0017242,0.5014038-0.2207336,0.5031128-0.4968643
		c0.00177-0.2761383-0.2207031-0.5013885-0.4968262-0.5031128l-33.9743652-0.2121048
		c-0.2761841-0.0017242-0.5014038,0.2207336-0.5031128,0.4968643C26.9701157,35.104641,27.1925888,35.3298912,27.4687119,35.3316154
		"/>
	<path class="st2" d="M46.3792343,86.1932983l-0.5-0.0031433c-0.0056763,0.9571381-0.7843018,1.7296066-1.7398071,1.7292709
		l-0.0114136-0.0000305c-0.9569702-0.0056-1.7294312-0.7842331-1.729126-1.7398453v-0.0055008l-0.2991943-0.0009689
		l0.2989502,0.0115585l0.0002441-0.0105896l-0.2991943-0.0009689l0.2989502,0.0115585l0.0003662-0.0161896
		c0.0056152-0.9571457,0.7841797-1.7295837,1.7397461-1.7292557l0.010498,0.0000381
		c0.9577637,0.0055847,1.7302856,0.7841873,1.7299805,1.7397308v0.0207138L46.3792343,86.1932983l-0.5-0.0031433
		L46.3792343,86.1932983l0.499939-0.0063782v-0.0079575c-0.0003052-1.5056686-1.215332-2.7299118-2.7229004-2.7397079
		l-0.0175171-0.000061c-1.5056763,0.0003281-2.7299194,1.2153702-2.7396851,2.7230148l0.5,0.0031204l-0.4996338-0.01931
		l-0.0004883,0.0335312c0.0003052,1.5057068,1.2153931,2.7300339,2.7230835,2.7398224l0.017395,0.0000534
		c1.5056152-0.0003281,2.7299194-1.2153397,2.7397461-2.7229843v-0.0095215L46.3792343,86.1932983z"/>
	<path class="st2" d="M55.0294418,4.1900654l-0.0114746,0.4998627c10.6358032,0.24366,20.8267212,6.0558395,26.1835938,16.1110916
		c2.4284668,4.5573654,3.5789185,9.4496994,3.5791016,14.2740116c0.000061,5.8220749-1.6772461,11.5440674-4.8106689,16.4451485
		c-0.2085571,0.3256111-0.3096313,0.6940117-0.3093262,1.0555038c-0.0007935,0.6451187,0.3202515,1.2799225,0.9049072,1.6538467
		c0.3257446,0.2085838,0.6941528,0.3095055,1.055481,0.3092537c0.6451416,0.0007401,1.2797852-0.3203354,1.6538086-0.9046555
		c3.5370483-5.5279236,5.4284058-11.98452,5.4284668-18.5581512c0.0001831-5.4484882-1.300293-10.9780979-4.0394897-16.1197071
		c-6.046936-11.34655-17.5598145-17.9196701-29.5570068-18.1884537l-0.0449219-0.0005188
		c-1.0635376,0.0003052-1.9359131,0.8490372-1.9603882,1.9172745V2.6822987L53.100914,2.7295933
		c0.0003052,1.0634384,0.8490601,1.9356537,1.9172363,1.96035c0.2654419,0.0060272,0.4904785-0.1983414,0.5099487-0.4631424
		c0.0195312-0.264801-0.1731567-0.499939-0.4365845-0.5328674l-0.000061-0.0000076L55.0294418,4.1900654l-0.0114746,0.4998627
		L55.0294418,4.1900654l-0.0620728,0.4961319l0.000061,0.0000076l0.0620728-0.4961319l0.0112915-0.4998779
		c-0.5234985-0.0113602-0.9402466-0.440506-0.9399414-0.9606018l0.0003662-0.0202789V2.7070408
		c0.0112915-0.5232391,0.4404297-0.9400558,0.9606934-0.9397507l0.0222168,0.000267
		c11.6499634,0.2623444,22.8262329,6.6415253,28.6971436,17.6589432c2.6606445,4.9946747,3.921936,10.3596878,3.9221191,15.649477
		c0.000061,6.3817062-1.8369751,12.6528778-5.270813,18.0191193c-0.1841431,0.2877693-0.492981,0.4429512-0.8115234,0.4436913
		c-0.1776733-0.0002518-0.3546753-0.0483017-0.5166626-0.1516991c-0.2878418-0.1840057-0.4429932-0.4927292-0.4437866-0.8114052
		c0.0003052-0.1776009,0.0484009-0.3546371,0.1518555-0.5167084c3.2363281-5.0624504,4.9680786-10.9697685,4.9681396-16.9839439
		c0.0001831-4.9830494-1.1895752-10.0401249-3.6965332-14.7442493C76.5514145,9.9463749,66.0230942,3.9402027,55.0408554,3.6901951
		c-0.2655029-0.0060654-0.4905396,0.1982803-0.5100708,0.4630737c-0.0195312,0.264801,0.1730957,0.4999619,0.4365845,0.5329285
		L55.0294418,4.1900654z"/>
	<path class="st2" d="M58.8391953,11.7668629l-0.0947266,0.4909439c6.6677246,1.2873306,12.703064,5.4502029,16.1442261,11.9069519
		c1.857605,3.4871979,2.7372437,7.2270813,2.7374268,10.9159565c0,3.1444168-0.6400146,6.2513199-1.8601685,9.1282196
		c-0.1056519,0.2485962-0.1564941,0.509697-0.1563721,0.7658081c-0.0006714,0.7632217,0.4486694,1.4886169,1.1954346,1.8062057
		c0.2487793,0.1057129,0.5098267,0.1564178,0.7658081,0.1563339c0.7633057,0.0005951,1.4885254-0.448822,1.8062744-1.1951981
		c1.4251099-3.3544006,2.171875-6.9834671,2.171875-10.6592941c0.0001831-4.314333-1.029541-8.6938114-3.197998-12.762888
		C74.3358383,14.7833729,67.2638779,9.9010715,59.4865952,8.40555c-0.1245728-0.0240021-0.2494507-0.0356903-0.3726807-0.0356827
		c-0.9234619-0.0000687-1.7427979,0.6523514-1.9243774,1.5909576c-0.0239868,0.1242599-0.0357666,0.2490997-0.0357056,0.3725281
		c-0.000061,0.9233704,0.6522827,1.7426224,1.5908203,1.9244919c0.2666626,0.051384,0.5241699-0.1178513,0.5827637-0.3830185
		c0.0586548-0.2651749-0.1035156-0.5271912-0.3669434-0.5930252l-0.000061-0.0000153L58.8391953,11.7668629l-0.0947266,0.4909439
		L58.8391953,11.7668629l-0.1212769,0.4850693l0.000061,0.0000153l0.1212769-0.4850693l0.0945435-0.4909744
		c-0.460144-0.0875854-0.7799683-0.4928207-0.7800293-0.9425507l0.0177002-0.1834488
		c0.0874023-0.4601669,0.4925537-0.7799759,0.9424438-0.7800446l0.1836548,0.017662
		c7.4938354,1.442215,14.3023071,6.1415176,18.1708984,13.4026184c2.0898438,3.9220581,3.0803833,8.1369781,3.0805664,12.2926502
		c0,3.5403061-0.7195435,7.0370636-2.0922852,10.2682343c-0.1552734,0.3667679-0.5115967,0.5856705-0.8859253,0.5862656
		c-0.124939-0.0000839-0.2510986-0.0242996-0.375061-0.0768433c-0.3668213-0.1550903-0.5855713-0.5112839-0.5862427-0.885704
		c0.0001221-0.1249084,0.024353-0.2511215,0.0769653-0.3751297c1.2721558-2.9996109,1.9395752-6.2387466,1.9395752-9.518898
		c0.0001831-3.8476429-0.9187622-7.7523289-2.8547974-11.3861942c-3.5872192-6.7317886-9.8875732-11.0784683-16.8374023-12.4186096
		c-0.2666626-0.0514221-0.524231,0.117775-0.5828857,0.3829346c-0.0586548,0.2651672,0.1034546,0.5272141,0.3669434,0.5930862
		L58.8391953,11.7668629z"/>
	<path class="st2" d="M63.5269394,21.2488346l-0.2756348,0.4171906c2.1676025,1.4321518,4.0143433,3.4027023,5.3253784,5.8620224
		c1.2885742,2.4195862,1.8955078,5.0056858,1.895752,7.5622883l-0.0004272,0.1290512l0.5,0.0020981l-0.5-0.0075912
		l-0.0001831,0.0196457c0.0003052,1.0763397,0.8676758,1.9521408,1.9458618,1.9612427l0.0159912,0.0000534
		c1.0762939-0.000351,1.9520264-0.8676147,1.9613647-1.9456253l0.0005493-0.1637115
		c0.0001221-3.1778355-0.7608032-6.4081135-2.3566895-9.4023609c-1.6224976-3.0461044-3.9295654-5.5112686-6.6258545-7.2908936
		c-0.3311768-0.2189407-0.7089233-0.325058-1.0795288-0.3247833c-0.6351929-0.0007401-1.2616577,0.3104095-1.6382446,0.8809891
		c-0.218811,0.3310165-0.3251343,0.7086411-0.3248291,1.0793457c-0.0007935,0.6351395,0.3104248,1.2616501,0.8811035,1.6383438
		l0.2754517-0.4172897l0.1212158-0.4850769l-0.000061-0.0000153c-0.2357788-0.0589142-0.4810791,0.0613403-0.5789185,0.2837677
		c-0.0978394,0.2224197-0.0206909,0.4845428,0.1820679,0.6184998L63.5269394,21.2488346l-0.1212769,0.4850693l0.000061,0.0000153
		c0.2357178,0.0589371,0.4812012-0.0614166,0.5789795-0.2838593c0.0977783-0.2224503,0.0204468-0.4846802-0.182312-0.6185074
		c-0.2810059-0.1854553-0.4312134-0.4898376-0.4320068-0.8037567c0.0003052-0.1822052,0.0508423-0.3636627,0.1594238-0.5284042
		c0.1853027-0.2808609,0.4897461-0.4311981,0.8037109-0.4319382c0.1824341,0.0002747,0.3638916,0.0508194,0.5286255,0.1593246
		c2.5610962,1.6907349,4.7513428,4.0303726,6.2941895,6.9265976c1.517334,2.8471069,2.2391968,5.9134693,2.2393188,8.9321232
		l-0.0005493,0.1555557c-0.0039673,0.5281143-0.4345093,0.9541397-0.9614258,0.9537888l-0.0080566-0.0000305
		c-0.5283203-0.0039062-0.9541626-0.4343033-0.9538574-0.9612732h-0.1828613l0.1828613,0.0034637v-0.0034637h-0.1828613
		l0.1828613,0.0034637l0.0001831-0.0079346v-0.0054932l0.0004272-0.1332397
		c0.0002441-2.7147827-0.6461182-5.4664249-2.0131226-8.032526c-1.3901978-2.6086121-3.3548584-4.7058563-5.6567383-6.2261734
		L63.5269394,21.2488346l-0.1212769,0.4850693L63.5269394,21.2488346z"/>
	<path class="st2" d="M34.6898422,4.0630817l-0.005188-0.4999771C23.7000961,3.6759815,13.0976171,9.5502186,7.4357524,19.8647938
		c-2.6326904,4.7947464-3.8831177,9.9784546-3.8829346,15.088129c0.000061,5.8792953,1.6539917,11.6616364,4.7582393,16.6532822
		c0.0991211,0.159626,0.1450806,0.3328476,0.1453247,0.506649c-0.0007324,0.3226814-0.1603394,0.6353493-0.4538574,0.8179131
		c-0.1594844,0.0990334-0.3327022,0.1450195-0.5065303,0.1452599c-0.322876-0.0007362-0.635376-0.1602516-0.817749-0.4537125
		c-3.2935791-5.2914543-5.0483398-11.4296913-5.0482788-17.668293c0.0001831-5.4243412,1.3255616-10.923708,4.1200562-16.0147038
		C11.7578955,7.9960957,23.0130234,1.756937,34.665123,1.6400776l0.0100708-0.0000687
		c0.5259399-0.0003357,0.9562378,0.4243088,0.9613037,0.9519424l0.5-0.0051727h-0.5v0.0150986
		c0.0003052,0.5259857-0.4244385,0.9563065-0.9518433,0.961235l0.005127,0.4999771l0.0620117,0.4961319l0.000061-0.0000076
		c0.2634277-0.0329361,0.4547119-0.2648773,0.4368286-0.5297928s-0.2385254-0.4690781-0.5040283-0.4663162L34.6898422,4.0630817
		l-0.0620728-0.4961395l-0.000061,0.0000076c-0.2634888,0.032959-0.4547119,0.2648392-0.4368286,0.5297623
		c0.0178833,0.2649155,0.2384644,0.4690323,0.5039673,0.4663467c1.0765991-0.0113831,1.9412842-0.8866501,1.9415894-1.9611816
		V2.5867786V2.5815983c-0.0115356-1.0766296-0.8867798-1.941246-1.9612427-1.9415817L34.654808,0.640131
		C22.6554794,0.7591038,11.0614233,7.1879597,4.8734355,18.4580784c-2.8770752,5.2408066-4.2435913,10.908989-4.2434082,16.4959431
		C0.6300883,41.380146,2.436729,47.6999092,5.829185,53.1505737c0.3710938,0.5965385,1.0130615,0.9261856,1.6668091,0.9254494
		c0.3534546,0.0002403,0.7139277-0.0963364,1.0349116-0.2962418c0.5963745-0.3713913,0.9261475-1.0130882,0.925415-1.6669273
		c0.0002441-0.3533936-0.0962524-0.7138176-0.2961426-1.0348091C6.1546245,46.2454491,4.5526958,40.644558,4.5527568,34.9529228
		c0.0001831-4.9469929,1.2093506-9.9617558,3.759582-14.6068974c5.4819946-9.9876404,15.7446909-15.6721344,26.3826294-15.7829742
		L34.6898422,4.0630817l-0.0620728-0.4961395L34.6898422,4.0630817z"/>
	<path class="st2" d="M30.7857895,11.5917301l-0.088623-0.4920959c-6.9658813,1.2532578-13.3201294,5.5209274-16.9910278,12.2073517
		c-2.0333252,3.7039337-2.9992065,7.7062988-2.9989624,11.6517048c0,3.177063,0.6256104,6.317688,1.8226929,9.2402191
		c0.0493774,0.1207275,0.0721436,0.2431717,0.0722656,0.3643341c-0.0005493,0.37854-0.2249146,0.7382584-0.597229,0.8902435
		c-0.1206055,0.0493469-0.243042,0.0721283-0.3641968,0.0722046c-0.3787231-0.0005722-0.7384033-0.2248383-0.8901978-0.5971375
		c-1.2915039-3.1484451-1.9662476-6.5384903-1.9662476-9.9674149c0.0001831-4.2613697,1.0410767-8.5819111,3.2360229-12.5795231
		c3.9589233-7.2122955,10.8255625-11.8262329,18.3366699-13.1747589l0.171936-0.0154495
		c0.4545288,0.0000153,0.8621216,0.3265533,0.9447021,0.7917786l0.0153198,0.1717758
		c0,0.454483-0.3267212,0.8621826-0.791626,0.944664l0.088501,0.4921112h0.5v-0.0000076
		c0-0.1482925-0.0655518-0.2884979-0.1793213-0.383606c-0.1137695-0.0951157-0.2633667-0.1347809-0.4093018-0.10849
		L30.7857895,11.5917301h-0.5v0.0000076c0,0.1482849,0.0654297,0.2884216,0.1791992,0.3835526
		s0.2632446,0.1347733,0.4092407,0.108551c0.9486694-0.1716995,1.614624-0.9954605,1.614624-1.9288788
		c0.000061-0.114975-0.0100708-0.2316589-0.0310059-0.3485565c-0.1717529-0.9490814-0.9956055-1.6150055-1.9289551-1.6149902
		c-0.1153564-0.0000076-0.2320557,0.0102158-0.3486938,0.0311966c-7.7952271,1.3982849-14.9276133,6.1919022-19.036499,13.6777573
		c-2.2775269,4.1475067-3.3595576,8.6368332-3.3593745,13.06077c0,3.5601273,0.7002559,7.0784607,2.0408931,10.3467102
		c0.3114014,0.7583618,1.0430298,1.2184067,1.8154907,1.2178345c0.2481689,0.0000763,0.5012207-0.0475769,0.7434692-0.1469193
		c0.7583618-0.3116608,1.2184448-1.0430984,1.2178955-1.8155212c0.0001221-0.2481689-0.0475464-0.5012131-0.1468506-0.7434158
		c-1.1481323-2.8030548-1.7481079-5.8154297-1.7481079-8.8611374c0.0001831-3.7826862,0.9247437-7.6160374,2.8756104-11.1704731
		c3.5215464-6.4132309,9.6083384-10.5004272,16.291626-11.7043991L30.7857895,11.5917301h-0.5H30.7857895z"/>
	<path class="st2" d="M25.9800034,21.0144291l-0.2703857-0.4206009c-2.3206787,1.4914551-4.3113403,3.564003-5.7339478,6.1549301
		c-1.4222412,2.5912399-2.1021729,5.3833637-2.114624,8.1419697c-0.0020142,0.5294876-0.4326172,0.9577179-0.9615479,0.9574127
		h-0.0083618h0.0040894c-0.5294189-0.0019684-0.9577646-0.4327469-0.9574594-0.9614868h-0.0316772l0.0316772,0.0002213v-0.0002213
		h-0.0316772l0.0316772,0.0002213l-0.4580078-0.003212l0.4563599,0.0387039l0.0016479-0.0354919l-0.4580078-0.003212
		l0.4563599,0.0387039l0.00177-0.0401154c0.0132446-3.0687809,0.7725229-6.1824131,2.3519297-9.0588245
		c1.5789795-2.8768234,3.7982788-5.188942,6.3803101-6.8475342c0.1624146-0.1041794,0.3399658-0.1525726,0.5183716-0.152832
		c0.3179321,0.0007477,0.6260986,0.1552048,0.8104858,0.4420929c0.1039429,0.1622314,0.1523438,0.3399124,0.1526489,0.5182877
		c-0.0007324,0.3178864-0.1553955,0.6262131-0.4420166,0.8103943l0.2703857,0.4206009h0.5v-0.0000076
		c0-0.1834412-0.0994263-0.3509521-0.260437-0.438858s-0.3556519-0.0809479-0.5099487,0.0182571L25.9800034,21.0144291h-0.5
		v0.0000076c0,0.1834335,0.0993652,0.3509369,0.260376,0.4388428s0.3555908,0.080925,0.5099487-0.0182495
		c0.5822754-0.3743515,0.9019775-1.0077667,0.9012451-1.6515884c0.0003052-0.362648-0.1013184-0.7323151-0.3113403-1.0588989
		c-0.3745728-0.5825424-1.0080566-0.9022217-1.6517334-0.901474c-0.3626709-0.0002594-0.7323608,0.1014175-1.0588989,0.3115005
		c-2.7182007,1.7457581-5.0559082,4.1819305-6.7163696,7.2076263c-1.6612558,3.0251007-2.4616709,6.3052063-2.4752817,9.5357914
		l0.5,0.0021362l-0.49823-0.0422516l-0.0018921,0.0420074v0.0067749c0.0003052,1.0796509,0.8723755,1.9563141,1.9529428,1.9614792
		h0.0040894h0.0046387c1.0796509-0.0003052,1.9564209-0.8723221,1.9614868-1.9529037
		c0.012207-2.5978775,0.6506348-5.221941,1.991272-7.665247c1.3416138-2.4426422,3.2127686-4.3899765,5.3980713-5.79496
		L25.9800034,21.0144291h-0.5H25.9800034z"/>
	<path class="st2" d="M47.3470688,71.0102081l-0.5-0.0031281c-0.0135498,2.2230148-1.8209229,4.0162354-4.0405273,4.0159149
		l-0.0258789-0.0000839c-2.2229614-0.0134964-4.0162354-1.8208084-4.0159302-4.0405121l0.000061-0.0162201l0.0001221-0.0095444
		c0.0135498-2.2230377,1.8208008-4.0162506,4.0404053-4.0159225l0.0251465,0.0000916
		c2.2236938,0.0134964,4.0169067,1.8207397,4.0166016,4.0403976v0.0321579L47.3470688,71.0102081l-0.5-0.0031281
		L47.3470688,71.0102081l0.499939-0.0031509v-0.025856c-0.0003052-2.7697372-2.2360229-5.0226822-5.0095215-5.0403748
		l-0.0321655-0.0001068c-2.7697144,0.0003281-5.022644,2.2361145-5.0403442,5.0096664l0.5,0.0031281l-0.4998779-0.0126724
		l-0.0003052,0.0415573c0.0003052,2.7697983,2.236084,5.0227966,5.0097046,5.0404968l0.0320435,0.0000916
		c2.7697144-0.0003281,5.0227661-2.236084,5.0404663-5.0096512v-0.006279L47.3470688,71.0102081z"/>
	<path class="st2" d="M38.5981674,45.7447243l8.2091675,24.4152641c0.0880127,0.2617416,0.371521,0.4025803,0.6332397,0.3145752
		c0.2617798-0.0880051,0.4025879-0.3715363,0.3145752-0.6332779l-8.2091675-24.4152641
		c-0.0880127-0.2617416-0.371521-0.4025803-0.6332397-0.3145752C38.6509628,45.1994514,38.5101547,45.4829826,38.5981674,45.7447243
		"/>
	<path class="st2" d="M51.4764023,45.8987389l-3.5783081-4.4215164c-0.1030884-0.1273422-0.2614746-0.1960068-0.4248657-0.1841354
		s-0.3102417,0.1026993-0.3937988,0.2436218l-2.5995483,4.3829498c-0.1408691,0.2375107-0.062561,0.5442505,0.1749878,0.6851196
		c0.2374878,0.1408615,0.5442505,0.0625229,0.6851196-0.1749878l2.2328491-3.7648697l3.1262817,3.862915
		c0.1737061,0.214653,0.4885254,0.2478409,0.703186,0.0741272c0.2146606-0.1737213,0.2478638-0.4885635,0.0741577-0.7032166
		L51.4764023,45.8987389z"/>
	<path class="st2" d="M45.2985458,45.8601799l-3.5782471-4.4215164c-0.1030884-0.1273422-0.262146-0.1961823-0.4255371-0.1840973
		s-0.3106079,0.1035461-0.3937988,0.2446823l-2.2595825,3.8321686c-0.1402588,0.2378769-0.0611572,0.544426,0.1767578,0.6846848
		c0.237854,0.1402512,0.5444336,0.0611115,0.6846924-0.1767654l1.8934937-3.211441l3.124939,3.8613663
		c0.1737061,0.214653,0.4885254,0.2478485,0.703186,0.0741348c0.2146606-0.1737213,0.2478638-0.4885559,0.0741577-0.7032089
		L45.2985458,45.8601799z"/>
</g>
</svg>
