<?xml version="1.0" encoding="utf-8"?>
<!-- Generator: Adobe Illustrator 19.0.1, SVG Export Plug-In . SVG Version: 6.00 Build 0)  -->
<svg version="1.1" id="Layer_1" xmlns="http://www.w3.org/2000/svg" xmlns:xlink="http://www.w3.org/1999/xlink" x="0px" y="0px"
	 width="135px" height="84px" viewBox="0 0 135 84" style="enable-background:new 0 0 135 84;" xml:space="preserve">
<style type="text/css">
	.st0{fill:#71B82F;}
	.st1{fill:#DFD91A;}
	.st2{fill:#373838;}
	.st3{fill:#61D31E;}
	.st4{fill:#E0D919;}
	.st5{fill:none;stroke:#61D31E;stroke-linecap:round;stroke-linejoin:round;stroke-miterlimit:10;}
	.st6{fill:none;stroke:#61D31E;stroke-width:2;stroke-linecap:round;stroke-linejoin:round;stroke-miterlimit:10;}
</style>
<g>
	<path class="st2" d="M91.2036285,5.0979767l-0.2451782,0.4357605
		c12.7426758,7.1688538,21.3475952,20.8053589,21.3474731,36.4635315l-0.000061,0.0012207l0.0181274,0.1342468l0.4820557-0.1329346
		h-0.5l-0.000061,0.0024414c0.0001221,15.6583862-8.6054077,29.2951965-21.3483887,36.4640503
		c-0.8153687,0.4586182-1.2758789,1.308075-1.2751465,2.1809387c-0.0002441,0.4146729,0.1038818,0.8374939,0.3214111,1.2236328
		c0.4585571,0.8152161,1.3080444,1.2756348,2.1808472,1.2749023c0.4147339,0.0002136,0.8373413-0.1040344,1.2232666-0.3210144
		c14.260376-8.0134583,23.8968506-23.29953,23.8980713-40.8249512
		c-0.0012207-17.5250854-9.6372681-32.8109131-23.8970337-40.8243713c-0.3858032-0.2171326-0.8085327-0.3214111-1.2233887-0.3211975
		c-0.8728027-0.0007324-1.7224121,0.4596252-2.1810303,1.2752686c-0.217041,0.3856812-0.3214111,0.8082886-0.321228,1.2232361
		c-0.0007935,0.8727417,0.4596558,1.72229,1.2752686,2.1810913l0.2450562-0.4358215l0.2235718-0.4472351l-0.000061-0.0000305
		c-0.2429199-0.12146-0.5379028-0.0270996-0.6652222,0.2127686s-0.0402222,0.5370483,0.1964722,0.6702271L91.2036285,5.0979767
		l-0.2236328,0.4472046l0.000061,0.0000305c0.2428589,0.12146,0.5379639,0.0270386,0.6652832-0.2128296
		c0.1272583-0.2398987,0.0400391-0.5371704-0.1966553-0.6702271c-0.4905396-0.2755737-0.7645874-0.7837524-0.7653809-1.3094177
		c0.0001831-0.2488403,0.0615845-0.4992065,0.1929932-0.7332153c0.2753296-0.490448,0.7835083-0.7645874,1.3093262-0.7653198
		c0.2490234,0.0002136,0.4993896,0.0615234,0.7333374,0.1929016c13.9561768,7.8444214,23.3864136,22.8008118,23.3870239,39.9526978
		c-0.0006104,17.1522217-9.4312744,32.1088257-23.3878784,39.9531555c-0.2341309,0.1313477-0.4844971,0.192627-0.7333984,0.1928406
		c-0.5256958-0.0007324-1.0338745-0.2748718-1.3093262-0.7652283c-0.1315918-0.2340698-0.192749-0.4842224-0.1929932-0.7333374
		c0.0007324-0.5256653,0.2749634-1.0338745,0.7653809-1.3093262c13.0459595-7.3374329,21.8579712-21.3040771,21.8581543-37.3356628
		l0.000061-0.0024414l-0.0179443-0.1329651l-0.4772949,0.1316528h0.4951172l-0.0178223-0.1316528l-0.4772949,0.1316528h0.4951172
		v-0.0012207c-0.0001831-16.0313416-8.8115845-29.9977112-21.8571167-37.335083L91.2036285,5.0979767l-0.2236328,0.4472046
		L91.2036285,5.0979767z"/>
	<path class="st2" d="M90.9289703,16.6997223l-0.3145142,0.3887024c7.2653198,5.8782654,11.9024048,14.8421021,11.9033203,24.911377
		C102.516861,52.070755,97.8781281,61.035965,90.610672,66.9141388c-0.6101685,0.4928894-0.9293213,1.2182007-0.9285889,1.9454651
		c-0.0004272,0.5506592,0.1826172,1.1091309,0.5558472,1.5703735c0.493042,0.610199,1.2183228,0.9291687,1.9454956,0.9284668
		c0.5507202,0.0004272,1.1090088-0.1827087,1.5701904-0.555542c8.3905029-6.7770691,13.7640991-17.1721191,13.7639771-28.801178
		l-0.000061-0.0091248l-0.4956055,0.0085144l0.4725952,0.149231c0.0303345-0.1036072,0.0212402-0.1532898,0.0230103-0.1577454
		l-0.4956055,0.0085144l0.4725952,0.149231l0.0231934-0.1505432l-0.000061-0.0020142
		c0.0001221-11.6270447-5.3717041-22.0205383-13.7596436-28.7975464c-0.4611206-0.3730774-1.0195923-0.5563354-1.5704956-0.5559082
		c-0.7271118-0.0007019-1.4523926,0.3181763-1.9453125,0.9284973c-0.3731079,0.4609985-0.5563354,1.0194702-0.5559082,1.5703735
		c-0.0007324,0.7269897,0.3181152,1.45224,0.9283447,1.9453735l0.3143921-0.3888245l0.2235718-0.4472351l-0.000061-0.0000305
		c-0.2280884-0.1140137-0.5060425-0.0378113-0.644043,0.1766052c-0.1380005,0.214386-0.0922852,0.4989319,0.105957,0.6593323
		L90.9289703,16.6997223l-0.2236328,0.4472046l0.000061,0.0000305c0.2280273,0.1140137,0.5061035,0.0377502,0.644104-0.1766663
		c0.1379395-0.2144165,0.0921021-0.499115-0.1061401-0.6593933c-0.3676758-0.2974243-0.5563965-0.7283936-0.5571289-1.1676941
		c0.0004272-0.3322449,0.1083374-0.6626892,0.3336792-0.9417725c0.2971802-0.3676147,0.7282715-0.556427,1.1676025-0.5571289
		c0.3322144,0.0004272,0.6627808,0.1083069,0.9418945,0.3336792c8.1628418,6.5966492,13.3881836,16.7048035,13.3883057,28.0198059
		l0.000061,0.0020142h0.5l-0.4768066-0.1505737l-0.0231934,0.1397095l-0.000061,0.020874l0.4697266-0.0081177l-0.4697876,0.0000305
		l0.000061,0.0080872l0.4697266-0.0081177l-0.4697876,0.0000305c-0.0001221,11.3169556-5.2271118,21.4266052-13.392395,28.0232544
		c-0.2792969,0.2252502-0.6096802,0.3330688-0.9418335,0.3334961c-0.4393921-0.0007019-0.8704834-0.1895447-1.1677856-0.5571899
		c-0.2254639-0.2791748-0.3331909-0.609436-0.3336182-0.9416809c0.0007324-0.4393311,0.1896362-0.8704529,0.557312-1.1677856
		c7.4917603-6.0574951,12.2780151-15.3096313,12.2784424-25.6920166
		c-0.0003662-10.3806458-4.7850342-19.6313477-12.274353-25.6888123L90.9289703,16.6997223l-0.2236328,0.4472046
		L90.9289703,16.6997223z"/>
	<path class="st2" d="M90.4887238,31.1672516l-0.4394531,0.2385864c1.7103882,3.1503601,2.6807861,6.7492371,2.6814575,10.5940247
		c-0.0006714,3.8446045-0.9710693,7.4434814-2.6814575,10.5938416c-0.2052612,0.377533-0.303772,0.7882996-0.3035889,1.1915283
		c-0.0007324,0.8857117,0.4735107,1.7454529,1.3070679,2.1985779c0.3776855,0.2052917,0.7883911,0.3037109,1.1914673,0.3035278
		c0.8857422,0.0007019,1.7453613-0.4736023,2.1986694-1.3067932c2.0961914-3.8572083,3.2878418-8.2872314,3.2877197-12.9775391
		V42.001358h-0.4869385l0.4833984,0.0585938l0.00354-0.0585938h-0.4869385l0.4833984,0.0585938l0.0036011-0.0601501
		l-0.0001831-0.015625l-0.4420166,0.0123596h0.4421387l-0.0001221-0.0123596l-0.4420166,0.0123596h0.4421387
		c0.0001221-4.6903992-1.1916504-9.1203918-3.2877808-12.977417c-0.453064-0.8334045-1.3127441-1.3077087-2.1984863-1.3069763
		c-0.4031372-0.0001831-0.8140259,0.0982056-1.1917114,0.3037109c-0.833374,0.4529114-1.3076782,1.3126526-1.3069458,2.1984253
		c-0.0001831,0.4030457,0.0982056,0.8139648,0.3037109,1.191803c0.1088867,0.2003174,0.3415527,0.3019409,0.5625,0.2457581
		c0.2209473-0.0561523,0.3768311-0.2565613,0.3768311-0.4845581v-0.0000305H90.4887238l-0.4394531,0.2385864L90.4887238,31.1672516
		h-0.5v0.0000305h0.5l0.43927-0.2388306c-0.1243286-0.2289124-0.1821899-0.472229-0.182373-0.7141724
		c0.0007324-0.5332642,0.2832642-1.0478516,0.7844238-1.3197632c0.2289429-0.1242981,0.4723511-0.1822205,0.7142944-0.1824036
		c0.5331421,0.0007324,1.0478516,0.2832642,1.3198242,0.7844238c2.0186768,3.7150879,3.1663818,7.9794006,3.1665039,12.5
		l0.0001831,0.0155945l0.4408569-0.0123596l-0.440979,0.0000305l0.0001221,0.0123291l0.4408569-0.0123596l-0.440979,0.0000305h0.5
		l-0.4963989-0.0601807l-0.0037231,0.0617371l0.000061,0.0016479c-0.0001221,4.5205383-1.1477051,8.7848511-3.1663818,12.5
		c-0.2721558,0.5010681-0.7869263,0.7836609-1.3200684,0.7843628c-0.2417603-0.0001831-0.4852295-0.058075-0.7141113-0.1822815
		c-0.5012817-0.2720032-0.7837524-0.7866516-0.7844849-1.3198547c0.0001831-0.2418213,0.0581665-0.4852295,0.1824341-0.7142334
		c1.7874756-3.2914124,2.8023071-7.0575562,2.8027344-11.0711365c-0.0004272-4.0137634-1.0152588-7.7799377-2.8026733-11.071228
		c-0.1088257-0.2003784-0.3415527-0.3021545-0.5625-0.2460022c-0.2210083,0.0561218-0.3768921,0.2565918-0.3768921,0.4846191
		H90.4887238z"/>
	<path class="st2" d="M43.7963982,5.0979767l-0.2451782-0.435791
		c-13.0455933,7.3374329-21.8571777,21.3038635-21.8572998,37.3352051l-0.000061,0.0011597L21.6986198,42.0681l0.4953613-0.0682983
		l-0.4984131-0.0398865l-0.001709,0.0421448c0.0001221,16.0316467,8.8120117,29.9983521,21.8582153,37.3357849
		c0.4904175,0.2754822,0.7645874,0.7836914,0.7653198,1.3093872c-0.0002441,0.2489624-0.0615234,0.4993896-0.1928711,0.73349
		c-0.2753296,0.4901733-0.7836304,0.7643433-1.3093262,0.7650757c-0.2490845-0.0001831-0.4995117-0.0615234-0.7332153-0.1927795
		c-13.956665-7.8443909-23.3873901-22.8010254-23.3879395-39.9532471
		c0.0005493-17.1518555,9.4308472-32.1082458,23.3869019-39.9526062c0.2340088-0.1314392,0.484375-0.192749,0.7333374-0.1929626
		c0.5256348,0.0007324,1.0338135,0.2748108,1.3093872,0.7653198c0.1313477,0.2338562,0.1925659,0.4841919,0.1928101,0.7332764
		c-0.0007324,0.5255432-0.2749634,1.0338745-0.7652588,1.3094177l0.2451782,0.435791h0.5V5.0979767
		c0-0.1770325-0.0947876-0.3422546-0.2476196-0.4316406c-0.152832-0.0893555-0.3433228-0.0909729-0.4975586-0.0041504
		L43.7963982,5.0979767h-0.5v0.0000305c0,0.177002,0.0947266,0.3422241,0.2475586,0.4315796
		c0.152832,0.089386,0.3432617,0.0909424,0.4975586,0.0041809c0.8151245-0.4588318,1.2756348-1.3081665,1.2749023-2.1809692
		c0.0002441-0.4147644-0.1039429-0.8374634-0.321106-1.2234192c-0.4588013-0.8154907-1.3082886-1.2758789-2.1810303-1.2751465
		c-0.414917-0.0002136-0.8375244,0.1040649-1.2233887,0.3212585c-14.2596436,8.0134277-23.895752,23.2991943-23.8969116,40.8242798
		c0.0011597,17.5254822,9.6376953,32.8114929,23.8979492,40.8249207c0.3856812,0.2170715,0.8083496,0.3212585,1.2232666,0.3210754
		c0.8728027,0.0007324,1.72229-0.4596558,2.1810913-1.2750854c0.217041-0.3860779,0.3212891-0.8086243,0.3210449-1.2234497
		c0.0007324-0.8727722-0.4595947-1.72229-1.2750854-2.1809998C31.2990227,71.2974091,22.693615,57.6605072,22.6937981,42.0020599
		h-0.4712524l0.4697876,0.0375977l0.0014648-0.0375977h-0.4712524l0.4697876,0.0375977l-0.0030518-0.1081848l-0.4862671,0.0670776
		h0.4908447l-0.0045776-0.0670776l-0.4862671,0.0670776h0.4908447v-0.0011597
		C22.693737,26.3392487,31.2987175,12.7025909,44.0415154,5.5337372L43.7963982,5.0979767h-0.5H43.7963982z"/>
	<path class="st2" d="M44.0710564,16.6997223l-0.3145142-0.3887329
		c-7.4893188,6.0574646-12.2739258,15.3081665-12.274292,25.6887512
		c0.0003662,10.3824463,4.7866211,19.6345825,12.2781982,25.6919556c0.3677368,0.2973938,0.5565186,0.7284546,0.557251,1.1679077
		c-0.0004272,0.3321228-0.1082764,0.6626282-0.3334961,0.941864c-0.2971802,0.3674316-0.7283325,0.5563049-1.1677246,0.5570068
		c-0.3322754-0.0004272-0.6627197-0.1082764-0.9416504-0.3334045C33.7094841,63.42836,28.4822502,53.3187714,28.4821281,42.0019379
		l-0.000061-0.0084229l-0.4943237,0.007782l0.4769287,0.1300354l0.017395-0.1378174l-0.4943237,0.007782l0.4769287,0.1300354
		l0.0158691-0.1730652l-0.4719238,0.0393372h0.4735107l-0.0015869-0.0393372l-0.4719238,0.0393372h0.4735107
		c0.0001221-11.3149414,5.2254028-21.4230347,13.3883667-28.0195618c0.2792358-0.2254639,0.6096191-0.333313,0.9418335-0.3337402
		c0.439209,0.0007019,0.8702393,0.1894836,1.1678467,0.5571594c0.2252197,0.2790222,0.3330688,0.609436,0.3334961,0.9416809
		c-0.0007324,0.4391479-0.1896362,0.8703613-0.5571289,1.1678772l0.3145142,0.3887329h0.5v-0.0000305
		c0-0.1929321-0.1105957-0.3681641-0.284668-0.4512634c-0.1740723-0.0830688-0.3798828-0.0588379-0.5298462,0.0625305
		L44.0710564,16.6997223h-0.5v0.0000305c0,0.1929016,0.1105347,0.3681335,0.2846069,0.4512329
		c0.1740723,0.0830688,0.3798218,0.0587769,0.5298462-0.0625305c0.6098022-0.4931335,0.928833-1.2181702,0.9281006-1.9453125
		c0.0004272-0.5508423-0.1827393-1.1092834-0.5558472-1.5704041c-0.4932251-0.610199-1.2184448-0.9291077-1.9454346-0.9284058
		c-0.5509033-0.0004272-1.109314,0.1828613-1.5704346,0.5559998c-8.3880615,6.7768555-13.7598267,17.1702881-13.7597046,28.7972717
		l0.0018311,0.0437012l0.498291-0.0415039l-0.4824219-0.1315613l-0.0176392,0.1219482l-0.000061,0.019043l0.4649048-0.0073242
		l-0.4649048,0.0000305v0.0072937l0.4649048-0.0073242l-0.4649048,0.0000305
		c-0.0001221,11.6289368,5.3737183,22.0239258,13.7641602,28.8009644c0.4609375,0.3728638,1.0192871,0.5559692,1.5701294,0.555542
		c0.7271729,0.0007019,1.4525146-0.3182373,1.9456177-0.9285278c0.3728027-0.4613037,0.5559692-1.0195312,0.555542-1.5703125
		c0.0007324-0.7271423-0.3181763-1.4525146-0.9284668-1.9455566c-7.267334-5.8780823-11.9060669-14.8432922-11.9069214-24.9143066
		c0.0009155-10.0692139,4.6379395-19.0330505,11.9032593-24.9113159L44.0710564,16.6997223h-0.5H44.0710564z"/>
	<path class="st2" d="M44.511364,31.1672516l-0.4394531-0.2386169c-1.7874146,3.2913208-2.8022461,7.0574646-2.8026733,11.0710754
		c0.0004272,4.0137329,1.0152588,7.7798767,2.8026733,11.0711975c0.1242065,0.2289124,0.1820679,0.47229,0.182251,0.7142639
		c-0.0007324,0.5332031-0.2833862,1.0480042-0.7843628,1.3200073c-0.2288208,0.124115-0.47229,0.1820068-0.7141113,0.1821899
		c-0.5333252-0.0007019-1.0480347-0.2833252-1.3198853-0.7843018c-2.0188599-3.71521-3.1665649-7.9795532-3.166687-12.500061
		v-0.006073l-0.4876099,0.0050964l0.4796753,0.0871887l0.0079346-0.0922852l-0.4876099,0.0050964l0.4796753,0.0871887
		l0.0073242-0.117157l-0.4404907,0.0244751h0.4411011l-0.0006104-0.0244751l-0.4404907,0.0244751h0.4411011
		c0.0001221-4.5205994,1.1477051-8.7849121,3.166626-12.499939c0.2719727-0.5012207,0.7866211-0.7837524,1.3198853-0.7844849
		c0.2418823,0.0001831,0.4852295,0.058075,0.7142334,0.182373c0.5010986,0.2718811,0.7836304,0.786499,0.7843628,1.3197937
		c-0.0001831,0.2417908-0.0581665,0.485321-0.182373,0.714447c-0.1044922,0.1924438-0.0722656,0.4286804,0.0799561,0.5860901
		s0.387207,0.1975708,0.5830688,0.0996704l0.000061-0.0000305L44.511364,31.1672516l-0.4394531-0.2386169L44.511364,31.1672516
		l-0.2236328-0.4472351l-0.000061,0.0000305l0.2236328,0.4472351l0.4393921,0.2385254
		c0.2051392-0.3776245,0.3036499-0.7883301,0.3034668-1.1915283c0.0007324-0.8857422-0.4734497-1.7454529-1.3068848-2.1984863
		c-0.3777466-0.2054138-0.7885742-0.303833-1.1916504-0.3036499c-0.8857422-0.0007324-1.7454834,0.4735718-2.1985474,1.3070374
		c-2.0963745,3.8569641-3.2880249,8.2869568-3.2879028,12.977356l0.0008545,0.0309753l0.4992676-0.02771l-0.4919434-0.089447
		l-0.0081787,0.0839233v0.0131226l0.4209595-0.004425l-0.4209595,0.0000305v0.0043945l0.4209595-0.004425l-0.4209595,0.0000305
		c-0.0001221,4.6903381,1.1916504,9.1203308,3.2879639,12.977478c0.4529419,0.8332825,1.3127441,1.3075562,2.1985474,1.3068542
		c0.4030151,0.0001831,0.8138428-0.0982361,1.1915283-0.3034973c0.833313-0.4532471,1.3076172-1.3128967,1.3068848-2.1986694
		c0.0001831-0.4030151-0.0980835-0.8138123-0.3034058-1.1915283c-1.7103271-3.1502991-2.6807251-6.749176-2.6813965-10.5939331
		c0.0006714-3.844635,0.9710693-7.4435425,2.6814575-10.5938721c0.1044312-0.1924438,0.0722656-0.4287109-0.0799561-0.5861206
		c-0.1521606-0.1574402-0.3872681-0.1976624-0.5830688-0.0997009L44.511364,31.1672516z"/>
	<path class="st2" d="M82.4761505,69.2498016v-0.5H52.4761467c-0.6871948-0.0001526-1.3098145-0.2801208-1.7652588-0.7348328
		c-0.4546509-0.4553833-0.7346191-1.0780334-0.7348022-1.7651672v-48.5
		c0.0001831-0.6871643,0.2801514-1.3098145,0.7348022-1.7652283c0.4554443-0.4546814,1.078064-0.7346497,1.7652588-0.7348022
		h30.0000038c0.6871338,0.0001526,1.3097534,0.2801208,1.7651978,0.7348022
		c0.4546509,0.4554138,0.7346191,1.078064,0.7348022,1.7652283v48.5c-0.0001831,0.6871338-0.2801514,1.3097839-0.7348022,1.7651672
		c-0.4554443,0.4547119-1.078064,0.7346802-1.7651978,0.7348328V69.2498016v0.4999695
		c1.9283447-0.0018921,3.4980469-1.5716553,3.499939-3.4999695v-48.5c-0.0018921-1.9283752-1.5715942-3.4981079-3.499939-3.5
		H52.4761467c-1.9284058,0.0018921-3.4981079,1.5716248-3.5,3.5v48.5c0.0018921,1.9283142,1.5715942,3.4980774,3.5,3.4999695
		h30.0000038V69.2498016z"/>
	<path class="st2" d="M52.3094597,62.0829926h30.3333778c0.276123,0,0.5-0.223877,0.5-0.5c0-0.2761536-0.223877-0.5-0.5-0.5
		H52.3094597c-0.2761841,0-0.5,0.2238464-0.5,0.5C51.8094597,61.8591156,52.0332756,62.0829926,52.3094597,62.0829926"/>
	<path class="st2" d="M52.3094597,19.9164581h30.3333778c0.276123,0,0.5-0.223877,0.5-0.5c0-0.2761536-0.223877-0.5-0.5-0.5
		H52.3094597c-0.2761841,0-0.5,0.2238464-0.5,0.5C51.8094597,19.6925812,52.0332756,19.9164581,52.3094597,19.9164581"/>
	<circle class="st2" cx="67.4761505" cy="65.1664581" r="2"/>
	<path class="st2" d="M56.1636467,55.9998016v-0.5c-0.7070923-0.0013123-1.2904053-0.5845947-1.291748-1.291687v-6.5
		c0.0013428-0.7070923,0.5846558-1.2903748,1.291748-1.291687c0.7070312,0.0013123,1.2903442,0.5845947,1.291687,1.291687v6.5
		c-0.0013428,0.7070923-0.5846558,1.2903748-1.291687,1.291687V55.9998016v0.4999695
		c1.2637329-0.0018921,2.2897339-1.0278931,2.291626-2.2916565v-6.5c-0.0018921-1.2637634-1.0278931-2.2897644-2.291626-2.2916565
		c-1.2637939,0.0018921-2.2897949,1.0278931-2.291687,2.2916565v6.5c0.0018921,1.2637634,1.0278931,2.2897644,2.291687,2.2916565
		V55.9998016z"/>
	<path class="st2" d="M63.7053337,55.9998016v-0.5c-0.7071533-0.0013123-1.2904053-0.5845642-1.291748-1.291687V43.7078705
		c0.0013428-0.7070923,0.5845947-1.2903748,1.291748-1.291687c0.7070351,0.0013123,1.290287,0.5845947,1.2916298,1.291687
		v10.5002441c-0.0013428,0.7071228-0.5845947,1.2903748-1.2916298,1.291687V55.9998016v0.4999695
		c1.2637367-0.0018921,2.2896767-1.0279236,2.2915688-2.2916565V43.7078705
		c-0.0018921-1.2637634-1.027832-2.2897644-2.2915688-2.2916565c-1.263855,0.0018921-2.2897949,1.0278931-2.291687,2.2916565
		v10.5002441c0.0018921,1.2637329,1.027832,2.2897644,2.291687,2.2916565V55.9998016z"/>
	<path class="st2" d="M71.2469635,55.9998016v-0.5c-0.7070923-0.0013123-1.2903442-0.5845642-1.291687-1.291687V38.7075653
		c0.0013428-0.7071228,0.5845947-1.2904053,1.291687-1.2917175c0.7070312,0.0013123,1.2903442,0.5846252,1.291687,1.2917175
		v15.5005493c-0.0013428,0.7070923-0.5846558,1.2903748-1.291687,1.291687V55.9998016v0.4999695
		c1.2637329-0.0018921,2.2897339-1.0278931,2.291626-2.2916565V38.7075653
		c-0.0018921-1.2637634-1.0278931-2.2897949-2.291626-2.291687c-1.2637939,0.0018921-2.2897339,1.0279541-2.291626,2.291687
		v15.5005493c0.0018921,1.2637329,1.027832,2.2897644,2.291626,2.2916565V55.9998016z"/>
	<path class="st2" d="M78.7886505,55.9998016v-0.5c-0.7070923-0.0013123-1.2904053-0.5845947-1.291748-1.291687V27.7068634
		c0.0013428-0.7070923,0.5846558-1.2903748,1.291748-1.291687c0.7070312,0.0013123,1.2903442,0.5845947,1.291687,1.291687
		v26.5012512c-0.0013428,0.7070923-0.5846558,1.2903748-1.291687,1.291687V55.9998016v0.4999695
		c1.2637329-0.0018921,2.2897339-1.0278931,2.291626-2.2916565V27.7068634
		c-0.0018921-1.2637634-1.0278931-2.2897644-2.291626-2.2916565c-1.2637939,0.0018921-2.2897949,1.0278931-2.291687,2.2916565
		v26.5012512c0.0018921,1.2637634,1.0278931,2.2897644,2.291687,2.2916565V55.9998016z"/>
</g>
</svg>
