<?xml version="1.0" encoding="utf-8"?>
<!-- Generator: Adobe Illustrator 19.0.1, SVG Export Plug-In . SVG Version: 6.00 Build 0)  -->
<svg class="icon_vashe_voznagrazhdenie" version="1.1" id="Layer_1" xmlns="http://www.w3.org/2000/svg" xmlns:xlink="http://www.w3.org/1999/xlink" x="0px" y="0px" width="122.1666641px" height="39.6666679px" viewBox="0 0 122.1666641 39.6666679" style="enable-background:new 0 0 122.1666641 39.6666679;" xml:space="preserve">
<style type="text/css">
	.icon_vashe_voznagrazhdenie .st0{fill:#71B82F;}
	.icon_vashe_voznagrazhdenie .st1{fill:#DFD91A;}
	.icon_vashe_voznagrazhdenie .st2{fill:#373838;}
	.icon_vashe_voznagrazhdenie .st3{fill:#61D31E;}
	.icon_vashe_voznagrazhdenie .st4{fill:#E0D919;}
	.icon_vashe_voznagrazhdenie .st5{fill:none;stroke:#61D31E;stroke-linecap:round;stroke-linejoin:round;stroke-miterlimit:10;}
	.icon_vashe_voznagrazhdenie .st6{fill:none;stroke:#61D31E;stroke-width:2;stroke-linecap:round;stroke-linejoin:round;stroke-miterlimit:10;}
</style>
<path class="st5" d="M13.4481678,34.5892258v3.1670036c0.011055,1.7277832,2.2236633,2.5797005,3.4375935,1.3501778
	l5.7262707-4.5794487h16.3722782c3.1454163-0.0201263,5.7024727-2.7148705,5.6823502-5.8602886v-9.5631714
	c-0.0163345-2.5525799-1.7653999-4.6345921-4.1051865-5.3179808"/>
<path class="st5" d="M9.2815018,29.6410694v3.9484921c0.011055,1.727787,2.2236624,2.5797005,3.4375935,1.3501778
	l5.7262707-4.5794487h16.3722763c3.1454163-0.0201244,5.7024765-2.7148685,5.6823502-5.8602867v-9.5631723
	c-0.0180779-2.8251934-2.1587563-5.0739384-4.8736687-5.4879475"/>
<g>
	<g>
		<path class="st3" d="M30.5552998,5.2138467v1c2.6185322,0,4.7619495,2.0468144,4.7780323,4.5563359l0.0000153,9.5695791
			c0.0167313,2.6146851-2.1304703,4.8375244-4.6823673,4.8538818H14.278697c-0.2270126,0-0.4472656,0.0772705-0.6245575,0.2189941
			l-5.7262731,4.5794067c-0.0305252,0.0244141-0.0596008,0.0505981-0.087059,0.0784302
			c-0.2310867,0.2340698-0.4994583,0.2832031-0.6838913,0.2832031c-0.4302292,0-1.0379715-0.2907715-1.0420914-0.9307861
			L6.1148095,10.9631147c-0.0166397-2.6020508,2.0867314-4.7324834,4.6823659-4.749146h19.725563L30.5552998,5.2138467
			 M30.5552921,5.2138467c-0.0130386,0-0.0256271,0.000061-0.0386887,0.0001221h-19.719429
			c-3.1454091,0.0201416-5.7024693,2.6101074-5.6823506,5.7555547v18.4533691
			c0.0074539,1.1642456,1.0145416,1.9307861,2.0420914,1.9307861c0.4973907,0,0.9995656-0.1795654,1.3955083-0.5806274
			l5.7262726-4.5794067H30.65098c3.1454182-0.0201416,5.7024708-2.7149048,5.6823521-5.8602905v-9.5631704
			C36.3132896,7.6377969,33.6835289,5.2138467,30.5552921,5.2138467L30.5552921,5.2138467z"/>
	</g>
</g>
<g>
	<path class="st3" d="M26.3499393,1.0473187H6.6305184C3.485101,1.067444,0.9280434,3.6574335,0.9481687,6.8028512v18.4533787
		c0.0110548,1.7277851,2.2236629,2.5796986,3.437593,1.3501778l5.7262712-4.5794487h16.3722763
		c3.1454163-0.0201263,5.7024727-2.7148705,5.6823502-5.8602867V6.6034985
		C32.146534,3.4580808,29.4953575,1.0271935,26.3499393,1.0473187z"/>
</g>
<path class="st5" d="M104.7559509,5.742723h2.8455048c1.6500015,0,3,1.3499999,3,2.9999995v2.2215548v14.0234585
	c0,1.6499996-1.3499985,3-3,3H81.8807831h-1.9558029c-1.6500015,0-3-1.3500004-3-3v-2.877388"/>
<path class="st5" d="M110.8187103,10.7280779h1.7681046c1.6499939,0,3,1.3499994,3,3v16.2450142c0,1.6499996-1.3500061,3-3,3
	H84.9103317c-1.6499939,0-3-1.3500004-3-3v-1.6123524"/>
<path class="st5" d="M115.8185654,15.7134323h1.7536011c1.6500015,0,3,1.3500004,3,3v16.2450142c0,1.6499977-1.3499985,3-3,3
	H89.8956909c-1.6500015,0-3-1.3500023-3-3v-1.5365219"/>
<path class="st3" d="M102.4176407,0.7993953H74.741127c-1.6499634,0-3,1.3500366-3,3v16.2449951c0,1.6500244,1.3500366,3,3,3
	h27.6765137c1.6499634,0,3-1.3499756,3-3V3.7993953C105.4176407,2.1494319,104.0676041,0.7993953,102.4176407,0.7993953z
	 M91.4565201,8.3386412c0.6443481,0,1.166687,0.5223389,1.166687,1.166687s-0.5223389,1.166626-1.166687,1.166626
	s-1.166687-0.5222778-1.166687-1.166626S90.8121719,8.3386412,91.4565201,8.3386412z M86.5398331,8.3386412
	c0.6443481,0,1.166687,0.5223389,1.166687,1.166687s-0.5223389,1.166626-1.166687,1.166626
	c-0.6442871,0-1.166626-0.5222778-1.166626-1.166626S85.895546,8.3386412,86.5398331,8.3386412z M77.4960709,19.8941822
	c-1.227356,0-2.22229-0.9949341-2.22229-2.22229c0-1.2272949,0.9949341-2.2222281,2.22229-2.2222281
	c1.2272949,0,2.222229,0.9949331,2.222229,2.2222281C79.7182999,18.8992481,78.7233658,19.8941822,77.4960709,19.8941822z
	 M77.4960709,8.3941832c-1.227356,0-2.22229-0.9949346-2.22229-2.2222905c0-1.2272949,0.9949341-2.2222288,2.22229-2.2222288
	c1.2272949,0,2.222229,0.9949338,2.222229,2.2222288C79.7182999,7.3992486,78.7233658,8.3941832,77.4960709,8.3941832z
	 M94.0217667,14.4135923c-1.4695435,0.798584-3.1568604,1.2525024-4.944458,1.2523193
	c-1.7875977,0.0001831-3.4749146-0.4537354-4.944458-1.2523193c-0.3766479-0.2045898-0.5161133-0.6757812-0.3115234-1.0524292
	c0.2046509-0.3766479,0.6758423-0.5161133,1.0524292-0.3114624v-0.000061
	c1.2498169,0.6787109,2.678833,1.0638428,4.2035522,1.0640869c1.5247192-0.0002441,2.9536743-0.385376,4.2035522-1.0640869
	c0.3765869-0.2045898,0.8478394-0.0651245,1.0524292,0.3115234S94.3984146,14.2090025,94.0217667,14.4135923z
	 M99.6626968,19.8941822c-1.2272949,0-2.222229-0.9949341-2.222229-2.22229c0-1.2272949,0.9949341-2.2222281,2.222229-2.2222281
	c1.227356,0,2.22229,0.9949331,2.22229,2.2222281C101.8849869,18.8992481,100.8900528,19.8941822,99.6626968,19.8941822z
	 M99.6626968,8.3941832c-1.2272949,0-2.222229-0.9949346-2.222229-2.2222905c0-1.2272949,0.9949341-2.2222288,2.222229-2.2222288
	c1.227356,0,2.22229,0.9949338,2.22229,2.2222288C101.8849869,7.3992486,100.8900528,8.3941832,99.6626968,8.3941832z"/>
<line class="st6" x1="53.5476875" y1="8.2892017" x2="60.808506" y2="8.2892017"/>
<polyline class="st6" points="58.7401505,5.6818371 61.3805199,8.3222065 58.7401505,10.8965664 "/>
<line class="st6" x1="53.5476875" y1="16.826395" x2="60.808506" y2="16.826395"/>
<polyline class="st6" points="58.7401505,14.2190304 61.3805199,16.8593998 58.7401505,19.4337597 "/>
</svg>
