<?xml version="1.0" encoding="utf-8"?>
<!-- Generator: Adobe Illustrator 19.0.1, SVG Export Plug-In . SVG Version: 6.00 Build 0)  -->
<svg version="1.1" id="Layer_1" xmlns="http://www.w3.org/2000/svg" xmlns:xlink="http://www.w3.org/1999/xlink" x="0px" y="0px"
	 width="74px" height="108px" viewBox="0 0 74 108" style="enable-background:new 0 0 74 108;" xml:space="preserve">
<style type="text/css">
	.st0{fill:#71B82F;}
	.st1{fill:#DFD91A;}
	.st2{fill:#373838;}
	.st3{fill:#61D31E;}
	.st4{fill:#E0D919;}
	.st5{fill:none;stroke:#61D31E;stroke-linecap:round;stroke-linejoin:round;stroke-miterlimit:10;}
	.st6{fill:none;stroke:#61D31E;stroke-width:2;stroke-linecap:round;stroke-linejoin:round;stroke-miterlimit:10;}
</style>
<g>
	<path class="st2" d="M50.124279,51.5403175H23.115551c-2.7183228,0-4.9423828,2.2240601-4.9423828,4.9423828v45.9678917
		c0,2.7183228,2.2240601,4.9423828,4.9423828,4.9423828h27.008728c2.7183228,0,4.9424438-2.2240601,4.9424438-4.9423828V56.4827003
		C55.0667229,53.7643776,52.8426018,51.5403175,50.124279,51.5403175z M36.6199455,105.2579651
		c-1.132019,0-2.0496216-0.9176636-2.0496216-2.0496826c0-1.131958,0.9176025-2.0496216,2.0496216-2.0496216
		c1.131958,0,2.0496216,0.9176636,2.0496216,2.0496216C38.6695671,104.3403015,37.7519035,105.2579651,36.6199455,105.2579651z
		 M50.8241692,99.3221741H22.4157219c-0.9098511,0-1.6474609-0.7376099-1.6474609-1.6474609
		s0.7376099-1.6474609,1.6474609-1.6474609h28.4084473c0.9098511,0,1.6474609,0.7376099,1.6474609,1.6474609
		S51.7340202,99.3221741,50.8241692,99.3221741z M50.8241692,59.8314552H22.4157219
		c-0.9098511,0-1.6474609-0.7376099-1.6474609-1.6474609c0-0.9099121,0.7376099-1.6474609,1.6474609-1.6474609h28.4084473
		c0.9098511,0,1.6474609,0.7375488,1.6474609,1.6474609C52.4716301,59.0938454,51.7340202,59.8314552,50.8241692,59.8314552z"/>
	<path class="st2" d="M39.8851967,21.1456375L39.8396492,4.0141549c-0.0051193-1.8788626-1.5465508-3.4121237-3.4254227-3.4071212
		c-1.8789864,0.0049019-3.4122429,1.5464336-3.4072304,3.4254217l0.0454369,17.0879192l-5.611454-0.0208149l9.6725388,25.3506279
		l8.685379-25.2826538L39.8851967,21.1456375z"/>
	<path class="st2" d="M60.2506981,31.7394505L72.332283,19.5934467c1.3249435-1.3321781,1.3191681-3.5063152-0.0129395-4.8313313
		c-1.3321075-1.3251657-3.5063248-1.3193092-4.8314209,0.0128708L55.4370804,26.8900948l-3.9531784-3.9826126L40.3978157,47.6725883
		L64.416832,35.9365425L60.2506981,31.7394505z"/>
	<path class="st2" d="M13.7493038,31.7394505L1.6677184,19.5934467c-1.3249398-1.3321781-1.3191643-3.5063152,0.0129462-4.8313313
		c1.3321043-1.3251657,3.5063171-1.3193092,4.8314137,0.0128708l12.0508471,12.1151085l3.9531765-3.9826126l11.0860901,24.7651062
		L9.583169,35.9365425L13.7493038,31.7394505z"/>
</g>
</svg>
