<?xml version="1.0" encoding="utf-8"?>
<!-- Generator: Adobe Illustrator 19.0.1, SVG Export Plug-In . SVG Version: 6.00 Build 0)  -->
<svg version="1.1" id="Layer_1" xmlns="http://www.w3.org/2000/svg" xmlns:xlink="http://www.w3.org/1999/xlink" x="0px" y="0px"
	 width="101.5px" height="102px" viewBox="0 0 101.5 102" style="enable-background:new 0 0 101.5 102;" xml:space="preserve">
<style type="text/css">
	.st0{fill:#71B82F;}
	.st1{fill:#DFD91A;}
	.st2{fill:#373838;}
	.st3{fill:#61D31E;}
	.st4{fill:#E0D919;}
	.st5{fill:none;stroke:#61D31E;stroke-linecap:round;stroke-linejoin:round;stroke-miterlimit:10;}
	.st6{fill:none;stroke:#61D31E;stroke-width:2;stroke-linecap:round;stroke-linejoin:round;stroke-miterlimit:10;}
</style>
<g>
	<path class="st2" d="M99.5225983,51.0000687H98.370491c-0.0007019,13.1536026-5.3283539,25.051445-13.9477844,33.672699
		c-8.621254,8.6193542-20.5190964,13.9470749-33.6726952,13.9477081
		c-13.1537399-0.0006332-25.0514393-5.3283539-33.6726952-13.9477081
		c-8.6194277-8.621254-13.9470797-20.5190964-13.9477825-33.672699
		c0.0007031-13.1537399,5.3283553-25.0515804,13.9477825-33.6728363
		C25.6985722,8.7078056,37.5962715,3.3801539,50.7500114,3.3794508
		c13.1535988,0.0007031,25.0514412,5.3283548,33.6726952,13.9477816
		c8.6194305,8.6212559,13.9470825,20.5190964,13.9477844,33.6728363H99.5225983h1.1519699
		C100.6738586,23.4269886,78.3230972,1.0760802,50.7500114,1.075377
		C23.1769295,1.0760802,0.8261627,23.4269886,0.8254595,51.0000687
		c0.0007032,27.5730133,22.3514709,49.923851,49.9245529,49.9245529
		c27.5730858-0.0007019,49.9238472-22.3515396,49.9245567-49.9245529H99.5225983z"/>
	<path class="st2" d="M75.1162643,34.6525803L52.0938072,48.5730782l0.0002823-37.1287384
		c0-0.6362467-0.5158615-1.1519661-1.1519661-1.1519661c-0.6362457,0-1.1519661,0.5157194-1.1519661,1.1519661
		l-0.0001411,39.1716461c0,0.4153061,0.2243195,0.7993889,0.5860405,1.0034561
		c0.3618622,0.2040634,0.8066978,0.1971741,1.1620903-0.0175819l24.7703094-14.9773941
		c0.5444107-0.3292313,0.7189407-1.037487,0.3898468-1.5818977c-0.3292313-0.544548-1.0374908-0.7190819-1.5819016-0.3898468
		L75.1162643,34.6525803z"/>
	<path class="st2" d="M22.1394424,50.0399323h-1.1521072c-0.0064678,3.4990768-2.837513,6.3301239-6.3365889,6.3365898
		c-3.4992161-0.0064659-6.3302612-2.837513-6.336731-6.3365898c0.0064697-3.4992142,2.8375149-6.3302574,6.336731-6.3367271
		c3.4990759,0.0064697,6.330121,2.837513,6.3365889,6.3367271H22.1394424h1.151968
		c-0.0007038-4.7726936-3.8681107-8.6400986-8.6406641-8.6408005c-4.7726946,0.0007019-8.6401005,3.8681068-8.6408043,8.6408005
		c0.0007033,4.7725563,3.8681097,8.6399612,8.6408043,8.640667c4.7725534-0.0007057,8.6399603-3.8681107,8.6406641-8.640667
		H22.1394424z"/>
	<path class="st2" d="M92.417984,50.0399323h-1.1521072c-0.0064697,3.4990768-2.8375168,6.3301239-6.3365936,6.3365898
		c-3.4992142-0.0064659-6.3302536-2.837513-6.3367233-6.3365898c0.0064697-3.4992142,2.8375092-6.3302574,6.3367233-6.3367271
		c3.4990768,0.0064697,6.3301239,2.837513,6.3365936,6.3367271H92.417984h1.1519699
		c-0.0007095-4.7726936-3.8681107-8.6400986-8.6406708-8.6408005c-4.7726898,0.0007019-8.6400986,3.8681068-8.6408005,8.6408005
		c0.0007019,4.7725563,3.8681107,8.6399612,8.6408005,8.640667c4.7725601-0.0007057,8.6399612-3.8681107,8.6406708-8.640667
		H92.417984z"/>
	<path class="st2" d="M58.4308205,86.3313141h-1.1521072c-0.0064697,3.4992142-2.837513,6.3301849-6.3365898,6.336586
		c-3.4992142-0.0064011-6.3302612-2.8373718-6.336731-6.336586c0.0064697-3.4991455,2.8375168-6.3302612,6.336731-6.3366623
		c3.4990768,0.0064011,6.3301201,2.8374405,6.3365898,6.3366623H58.4308205h1.1519661
		c-0.0007019-4.7726974-3.8681107-8.6401062-8.6406631-8.6408081c-4.7726936,0.0007019-8.6401024,3.8681107-8.6408043,8.6408081
		c0.0007019,4.7726212,3.8681107,8.6400299,8.6408043,8.6407318c4.7725525-0.0007019,8.6399612-3.8681107,8.6406631-8.6407318
		H58.4308205z"/>
</g>
</svg>
