<?xml version="1.0" encoding="utf-8"?>
<!-- Generator: Adobe Illustrator 19.0.1, SVG Export Plug-In . SVG Version: 6.00 Build 0)  -->
<svg version="1.1" id="Layer_1" xmlns="http://www.w3.org/2000/svg" xmlns:xlink="http://www.w3.org/1999/xlink" x="0px" y="0px"
	 width="58px" height="68px" viewBox="0 0 58 68" style="enable-background:new 0 0 58 68;" xml:space="preserve">
<style type="text/css">
	.st0{fill:#71B82F;}
	.st1{fill:#DFD91A;}
	.st2{fill:#373838;}
	.st3{fill:#61D31E;}
	.st4{fill:#E0D919;}
	.st5{fill:none;stroke:#61D31E;stroke-linecap:round;stroke-linejoin:round;stroke-miterlimit:10;}
	.st6{fill:none;stroke:#61D31E;stroke-width:2;stroke-linecap:round;stroke-linejoin:round;stroke-miterlimit:10;}
</style>
<g>
	<path class="st2" d="M21.1458836,10.4699812h33.2379074c1.6252899,0,2.9430504-1.3176718,2.9430504-2.9430485
		c0-1.625422-1.3177605-2.9430485-2.9430504-2.9430485H21.1458836c-1.6256466,0-2.9430504,1.3176265-2.9430504,2.9430485
		C18.2028332,9.1523094,19.520237,10.4699812,21.1458836,10.4699812"/>
	<path class="st2" d="M21.1458836,20.1198101h11.5415478c1.6252899,0,2.9430504-1.3176727,2.9430504-2.9430504
		c0-1.6254206-1.3177605-2.9430475-2.9430504-2.9430475H21.1458836c-1.6256466,0-2.9430504,1.317627-2.9430504,2.9430475
		C18.2028332,18.8021374,19.520237,20.1198101,21.1458836,20.1198101"/>
	<path class="st2" d="M21.1458836,29.7696819h20.3710537c1.6252899,0,2.9430504-1.3176708,2.9430504-2.9430485
		c0-1.6254215-1.3177605-2.9430485-2.9430504-2.9430485H21.1458836c-1.6256466,0-2.9430504,1.317627-2.9430504,2.9430485
		C18.2028332,28.4520111,19.520237,29.7696819,21.1458836,29.7696819"/>
	<path class="st2" d="M21.1458836,48.2491951h33.2379074c1.6252899,0,2.9430504-1.3176727,2.9430504-2.9430504
		c0-1.6254196-1.3177605-2.9430466-2.9430504-2.9430466H21.1458836c-1.6256466,0-2.9430504,1.317627-2.9430504,2.9430466
		C18.2028332,46.9315224,19.520237,48.2491951,21.1458836,48.2491951"/>
	<path class="st2" d="M21.1458836,57.8990669h26.257513c1.6252861,0,2.9430466-1.3176727,2.9430466-2.9430466
		c0-1.6254234-1.3177605-2.9430504-2.9430466-2.9430504h-26.257513c-1.6256466,0-2.9430504,1.317627-2.9430504,2.9430504
		C18.2028332,56.5813942,19.520237,57.8990669,21.1458836,57.8990669"/>
	<path class="st2" d="M21.1458836,67.5488968h20.3710537c1.6252899,0,2.9430504-1.3176727,2.9430504-2.9430466
		c0-1.6254272-1.3177605-2.9430504-2.9430504-2.9430504H21.1458836c-1.6256466,0-2.9430504,1.3176231-2.9430504,2.9430504
		C18.2028332,66.2312241,19.520237,67.5488968,21.1458836,67.5488968"/>
	<circle class="st2" cx="7.213285" cy="6.9912777" r="6.5401282"/>
	<circle class="st2" cx="7.213285" cy="45.3061447" r="6.5401282"/>
</g>
</svg>
