<?xml version="1.0" encoding="utf-8"?>
<!-- Generator: Adobe Illustrator 19.0.1, SVG Export Plug-In . SVG Version: 6.00 Build 0)  -->
<svg class="icon_sms_viktorina " version="1.1" id="Layer_1" xmlns="http://www.w3.org/2000/svg" xmlns:xlink="http://www.w3.org/1999/xlink" x="0px" y="0px"
	 width="84px" height="70.6666641px" viewBox="0 0 84 70.6666641" style="enable-background:new 0 0 84 70.6666641;"
	 xml:space="preserve">
<style type="text/css">
	.icon_sms_viktorina .st0{fill:#71B82F;}
	.icon_sms_viktorina .st1{fill:#DFD91A;}
	.icon_sms_viktorina .st2{fill:#373838;}
	.icon_sms_viktorina .st3{fill:#61D31E;}
	.icon_sms_viktorina .st4{fill:#E0D919;}
	.icon_sms_viktorina .st5{fill:none;stroke:#61D31E;stroke-linecap:round;stroke-linejoin:round;stroke-miterlimit:10;}
	.icon_sms_viktorina .st6{fill:none;stroke:#61D31E;stroke-width:2;stroke-linecap:round;stroke-linejoin:round;stroke-miterlimit:10;}
</style>
<g>
	<path class="st2" d="M15.700325,1.865345l52.3080826-0.0080793c7.9021225-0.0505513,14.3716202,6.113801,14.4215393,13.7349453
		l0.0039749,25.3716183c0.0513153,7.8309174-6.3947449,14.4892159-14.0696335,14.5395203l-43.4255867,0.0067062L24.932415,55.510067
		c-0.2247276,0.0014381-0.4426212,0.0785942-0.6182404,0.2190933L9.1277866,67.8779755l-0.0870247,0.0783997
		c-1.0048609,1.0181046-2.1652217,1.2378845-2.9616532,1.242981c-2.1246512,0.0135956-4.4282236-1.5603409-4.4450283-4.1204376
		L1.6265357,16.1270237C1.6018215,12.3591452,3.0570238,8.7959604,5.7239361,6.0938625
		C8.3903627,3.392241,11.9332581,1.8905728,15.700325,1.865345 M15.696003,0.8653522
		C7.3531036,0.9200202,0.5719046,7.7907195,0.6265571,16.1335735l0.0075036,48.945488
		c0.020325,3.100853,2.7141967,5.1377869,5.4514451,5.1202774c1.3081398-0.0083694,2.6259742-0.4857941,3.6669784-1.5404892
		l15.186389-12.1488037l43.4255905-0.0066948c8.3428955-0.0546684,15.1240921-7.2032204,15.0694351-15.5460739
		l-0.0039368-25.3652248c-0.0546417-8.3418312-7.086441-14.7881298-15.427948-14.7347679l-0.0025024,0.000016L15.696003,0.8653522z"
		/>
	<path class="st2" d="M15.166707,13.6905184l3.3415518,4.5687742c0.0947018,0.129509,0.2465,0.2059021,0.4069576,0.2048149
		c0.1603966-0.0010719,0.311142-0.0795383,0.4041195-0.2103081l5.8564682-8.2396593
		c0.1599407-0.2250566,0.1071606-0.5371952-0.1178665-0.6971664c-0.2250271-0.1599865-0.5371952-0.1072226-0.6971359,0.117835
		l-5.4548626,7.6744556l-2.9321394-4.0090799c-0.1630507-0.2228689-0.4758673-0.2713757-0.6987057-0.1083412
		c-0.2228994,0.1630201-0.2713757,0.4758215-0.108326,0.6986904L15.166707,13.6905184z"/>
	<path class="st2" d="M15.169035,28.9862881l3.3414898,4.5687733c0.0947018,0.1295242,0.2465611,0.2059021,0.4070187,0.2048149
		c0.1603966-0.0010719,0.3111439-0.0795364,0.4041195-0.2103081l5.8564682-8.2396584
		c0.1599407-0.2250576,0.1071625-0.5371952-0.1178646-0.6971664c-0.2250271-0.1599865-0.5371971-0.1072235-0.6971378,0.1178341
		l-5.4548016,7.6744251l-2.9320784-4.0090504c-0.1630497-0.2228985-0.4758663-0.2714367-0.6987667-0.1084003
		c-0.2228994,0.1630192-0.2714367,0.4758511-0.108386,0.6987514L15.169035,28.9862881z"/>
	<path class="st2" d="M32.7173691,15.3425617l32.9046326-0.0050783c0.2761917-0.0000429,0.4999771-0.223937,0.4999237-0.5000801
		c0-0.276144-0.2239075-0.4999666-0.5000381-0.4999247l-32.9046288,0.0050793
		c-0.2761917,0.000042-0.4999809,0.2239361-0.4999237,0.5000801C32.2173309,15.118782,32.4412384,15.3426046,32.7173691,15.3425617"
		/>
	<path class="st2" d="M32.7195854,29.6383877l32.9046364-0.0050793c0.2761841-0.000042,0.4999771-0.2239361,0.4999237-0.5000801
		c0-0.276144-0.2239075-0.4999657-0.5000381-0.4999237l-32.9046326,0.0050793
		c-0.2761879,0.000042-0.4999809,0.2239361-0.4999237,0.5000801C32.2195473,29.414608,32.4434586,29.6384296,32.7195854,29.6383877"
		/>
	<path class="st2" d="M15.1713667,43.8437996l3.3415518,4.5687599c0.0947018,0.129509,0.2465,0.2059021,0.4069576,0.2048149
		c0.1603966-0.0010719,0.311142-0.0795364,0.4041195-0.2103081l5.8564682-8.2396584
		c0.1599407-0.2250595,0.1071606-0.5371971-0.1178665-0.6971664c-0.2250271-0.1599884-0.5371952-0.1072235-0.6971359,0.1178322
		l-5.4548626,7.6745033l-2.9321394-4.0091095c-0.1630507-0.2228699-0.4758673-0.2713776-0.6987057-0.1083412
		c-0.2228994,0.1630173-0.2713757,0.4758186-0.108326,0.6986885L15.1713667,43.8437996z"/>
	<path class="st2" d="M32.7218552,44.4958839l32.9046326-0.0050621c0.2761917-0.000042,0.4999847-0.223938,0.4999237-0.5000801
		c0.0000076-0.2761421-0.2239075-0.4999657-0.5000305-0.4999237l-32.9046364,0.0050621
		c-0.2761879,0.000042-0.4999809,0.223938-0.4999237,0.5000801C32.221817,44.2721062,32.4457283,44.4959297,32.7218552,44.4958839"
		/>
</g>
</svg>
