<?xml version="1.0" encoding="utf-8"?>
<!-- Generator: Adobe Illustrator 19.0.1, SVG Export Plug-In . SVG Version: 6.00 Build 0)  -->
<svg version="1.1" id="Layer_1" xmlns="http://www.w3.org/2000/svg" xmlns:xlink="http://www.w3.org/1999/xlink" x="0px" y="0px"
	 width="57.3333321px" height="60px" viewBox="0 0 57.3333321 60" style="enable-background:new 0 0 57.3333321 60;"
	 xml:space="preserve">
<style type="text/css">
	.st0{fill:#71B82F;}
	.st1{fill:#DFD91A;}
	.st2{fill:#373838;}
	.st3{fill:#61D31E;}
	.st4{fill:#E0D919;}
	.st5{fill:none;stroke:#61D31E;stroke-linecap:round;stroke-linejoin:round;stroke-miterlimit:10;}
	.st6{fill:none;stroke:#61D31E;stroke-width:2;stroke-linecap:round;stroke-linejoin:round;stroke-miterlimit:10;}
</style>
<g>
	<path class="st2" d="M36.9767876,35.5777054v13.5657463c-0.0010796,1.2081451-0.4885941,2.2945862-1.2954865,3.1056595
		c-0.8112068,0.8069839-1.8976059,1.29459-3.1054344,1.2953529H11.1557741
		c-1.2081871-0.0007629-2.2945862-0.488369-3.105792-1.2953529c-0.8068957-0.8110733-1.2944102-1.8975143-1.2954879-3.1056595
		V35.4753609c0-1.6252441-1.3177614-2.9426918-2.9426894-2.9426918c-1.6252871,0-2.9426894,1.3174477-2.9426894,2.9426918
		L0.8687562,49.1434517c0.0111371,5.6775055,4.6092911,10.2758369,10.2870178,10.2870636h21.4200935
		c5.6773682-0.0112267,10.2755203-4.6095581,10.2866592-10.2870636V35.5777054c0-1.6252441-1.3177605-2.9426918-2.9426918-2.9426918
		c-1.6252861,0-2.942688,1.3174477-2.942688,2.9426918H36.9767876z"/>
	<path class="st2" d="M13.7050753,23.3222618h18.8707924c1.6252861,0,2.9430466-1.3176727,2.9430466-2.9430485
		c0-1.6254234-1.3177605-2.9430485-2.9430466-2.9430485H13.7050753c-1.6256466,0-2.9430485,1.317625-2.9430485,2.9430485
		C10.7620268,22.0045891,12.0794287,23.3222618,13.7050753,23.3222618"/>
	<path class="st2" d="M1.436026,25.0798454l18.0541954,24.692894c0.5572109,0.762394,1.4506874,1.2122307,2.3951797,1.2059441
		c0.9444904-0.0062447,1.831501-0.4679375,2.3790112-1.2376022l31.655735-44.5230865
		c0.9416199-1.3246322,0.631218-3.161927-0.693367-4.1037688c-1.3245888-0.9418869-3.1618385-0.631577-4.1034546,0.6930553
		L21.8322296,43.0039902L6.1872244,21.6057682c-0.9595804-1.311924-2.800782-1.5977154-4.1127954-0.6383591
		c-1.3116542,0.9593105-1.5976243,2.8005581-0.6380439,4.1124821L1.436026,25.0798454z"/>
</g>
</svg>
