<?xml version="1.0" encoding="utf-8"?>
<!-- Generator: Adobe Illustrator 19.0.1, SVG Export Plug-In . SVG Version: 6.00 Build 0)  -->
<svg version="1.1" id="Layer_1" xmlns="http://www.w3.org/2000/svg" xmlns:xlink="http://www.w3.org/1999/xlink" x="0px" y="0px"
	 width="334.5px" height="117.1666641px" viewBox="0 0 334.5 117.1666641" style="enable-background:new 0 0 334.5 117.1666641;"
	 xml:space="preserve">
<style type="text/css">
	.st0{fill:#71B82F;}
	.st1{fill:#DFD91A;}
	.st2{fill:#373838;}
	.st3{fill:#61D31E;}
	.st4{fill:#E0D919;}
	.st5{fill:none;stroke:#61D31E;stroke-linecap:round;stroke-linejoin:round;stroke-miterlimit:10;}
	.st6{fill:none;stroke:#61D31E;stroke-width:2;stroke-linecap:round;stroke-linejoin:round;stroke-miterlimit:10;}
</style>
<g>
	<path class="st3" d="M192.7116699,102.3376465h-0.5c-0.0003052,3.3745117-1.366394,6.4249878-3.5775757,8.6370239
		c-2.2120361,2.2111816-5.2625122,3.5772705-8.6370239,3.5775757c-3.3745728-0.0003052-6.4250488-1.366394-8.637085-3.5775757
		c-2.2111816-2.2120361-3.5772705-5.2625122-3.5775757-8.6370239c0.0003052-3.3745728,1.366394-6.4250488,3.5775757-8.637085
		c2.2120361-2.2111816,5.2624512-3.5772705,8.637085-3.5775757c3.3745117,0.0003052,6.4249878,1.366394,8.6370239,3.5775757
		c2.2111816,2.2120361,3.5772705,5.2624512,3.5775757,8.637085H192.7116699h0.499939
		c-0.0003052-7.2984619-5.9161377-13.2142944-13.2145386-13.2145996
		c-7.2984619,0.0003052-13.2142944,5.9161377-13.2145996,13.2145996
		c0.0003052,7.2984009,5.9161377,13.2142334,13.2145996,13.2145386c7.2984009-0.0003052,13.2142334-5.9161377,13.2145386-13.2145386
		H192.7116699z"/>
	<path class="st3" d="M307.8364868,102.3376465h-0.5c-0.0003052,3.3745117-1.366394,6.4249878-3.5775757,8.6370239
		c-2.2120361,2.2111816-5.2625122,3.5772705-8.6370239,3.5775757c-3.3745728-0.0003052-6.4250488-1.366394-8.637085-3.5775757
		c-2.2111816-2.2120361-3.5772705-5.2625122-3.5775757-8.6370239c0.0003052-3.3745728,1.366394-6.4250488,3.5775757-8.637085
		c2.2120361-2.2111816,5.2624512-3.5772705,8.637085-3.5775757c3.3745117,0.0003052,6.4249878,1.366394,8.6370239,3.5775757
		c2.2111816,2.2120361,3.5772705,5.2624512,3.5775757,8.637085H307.8364868h0.499939
		c-0.0003052-7.2984619-5.9161377-13.2142944-13.2145386-13.2145996
		c-7.2984619,0.0003052-13.2142944,5.9161377-13.2145996,13.2145996
		c0.0003052,7.2984009,5.9161377,13.2142334,13.2145996,13.2145386c7.2984009-0.0003052,13.2142334-5.9161377,13.2145386-13.2145386
		H307.8364868z"/>
	<path class="st3" d="M199.0661011,101.4036255h75.28125c0.276123,0,0.5-0.223877,0.5-0.5c0-0.2761841-0.223877-0.5-0.5-0.5
		h-75.28125c-0.2761841,0-0.5,0.2238159-0.5,0.5C198.5661011,101.1797485,198.789917,101.4036255,199.0661011,101.4036255"/>
	<path class="st3" d="M313.9433594,101.4035645h8.4684448c5.588501-0.0003052,10.1182251-4.5300293,10.1185303-10.1185303
		c0-2.6836548-1.06604-5.2573242-2.963623-7.1549072l-8.7348022-8.7348022
		c-1.6109009-1.6108398-3.7182007-2.6310425-5.980957-2.8953247l-33.4478149-3.9070435
		c-1.612854-0.1884155-3.1461182-0.8040771-4.4413452-1.7833252l-32.3631592-24.4682617
		c-1.765564-1.3348389-3.9104004-2.0473022-6.1022339-2.0472412c-0.3979492-0.000061-0.7976074,0.0233154-1.1968384,0.0710449
		l0.0593872,0.496521l-0.0232544-0.4995117l-77.7115479,3.6149902l-0.0358887,0.0029907
		c-4.1420288,0.4932251-7.5568237,3.4776001-8.6003418,7.5162964l0.4841309,0.1251221l-0.4824219-0.1316528l-8.2744141,30.321167
		l-0.001709,0.0065308c-0.2178955,0.8432007-0.322998,1.6937866-0.322937,2.5332642
		c-0.0001831,3.8276367,2.1816406,7.4248047,5.7697754,9.1338501l11.5741577,5.5110474
		c0.2492676,0.1187134,0.5476074,0.0128174,0.6663818-0.2364502c0.1187134-0.2493286,0.0128174-0.5476685-0.2364502-0.6663818
		L148.59021,92.5818481c-3.2337646-1.5393677-5.1995239-4.7826538-5.199707-8.230957
		c0.000061-0.7561646,0.0945435-1.5221558,0.2911987-2.2830811l-0.4840698-0.125061l0.4823608,0.1315918l8.2744141-30.321167
		l0.001709-0.0065308c0.9402466-3.6395264,4.0177612-6.3291016,7.7503662-6.7734985l-0.059082-0.49646l0.0231934,0.4994507
		l77.7115479-3.6149902l0.0361328-0.0029907c0.359314-0.0429688,0.7192993-0.0640259,1.078125-0.0640869
		c1.9750977,0.000061,3.9081421,0.6420898,5.4991455,1.8449707l32.3631592,24.4682617
		c1.4373169,1.0866699,3.1386719,1.7698364,4.9284058,1.9788818l33.4478149,3.9070435
		c2.0391235,0.2381592,3.9381714,1.1575317,5.3898926,2.6091919l8.7348022,8.7348022
		c1.710083,1.710083,2.6707764,4.0293579,2.6707764,6.4478149c-0.0003052,2.5195923-1.0198975,4.7960815-2.6707764,6.4478149
		c-1.6517334,1.6508789-3.9282227,2.6704712-6.4478149,2.6707764h-8.4684448c-0.2761841,0-0.5,0.2238159-0.5,0.5
		c0,0.276123,0.2238159,0.5,0.5,0.5V101.4035645z"/>
	<g>
		<path class="st3" d="M179.2078857,83.2250977l1.2197266-1.1015625c0.7275391,1.171875,1.8769531,2.0400391,3.3535156,2.0400391
			c1.9003906,0,2.8378906-1.1728516,2.8378906-2.9785156c0-2.1337891-1.3837891-2.8378906-2.9785156-2.8378906
			c-0.4921875,0-1.03125,0-1.2421875,0.0234375v-1.6884766c0.2109375,0.0234375,0.796875,0.0234375,1.1953125,0.0234375
			c1.5712891,0,2.8378906-0.84375,2.8378906-2.6269531c0-1.8525391-1.125-2.7431641-2.6972656-2.7431641
			c-1.3828125,0-2.3681641,0.7265625-3.1660156,1.8525391l-1.171875-1.0556641
			c0.9375-1.5009766,2.5087891-2.4628906,4.4560547-2.4628906c2.5322266,0,4.4326172,1.3837891,4.4326172,4.1513672
			c0,1.9472656-1.3603516,3.3066406-2.7910156,3.6357422c1.3837891,0.2109375,3.0019531,1.6181641,3.0019531,3.8691406
			c0,2.6035156-1.6650391,4.5029297-4.6435547,4.5029297C181.6239014,85.8286133,180.0057373,84.6557617,179.2078857,83.2250977z"/>
		<path class="st3" d="M190.3016357,83.2250977l1.2197266-1.1015625c0.7275391,1.171875,1.8769531,2.0400391,3.3535156,2.0400391
			c1.9003906,0,2.8378906-1.1728516,2.8378906-2.9785156c0-2.1337891-1.3837891-2.8378906-2.9785156-2.8378906
			c-0.4921875,0-1.03125,0-1.2421875,0.0234375v-1.6884766c0.2109375,0.0234375,0.796875,0.0234375,1.1953125,0.0234375
			c1.5712891,0,2.8378906-0.84375,2.8378906-2.6269531c0-1.8525391-1.125-2.7431641-2.6972656-2.7431641
			c-1.3828125,0-2.3681641,0.7265625-3.1660156,1.8525391l-1.171875-1.0556641
			c0.9375-1.5009766,2.5087891-2.4628906,4.4560547-2.4628906c2.5322266,0,4.4326172,1.3837891,4.4326172,4.1513672
			c0,1.9472656-1.3603516,3.3066406-2.7910156,3.6357422c1.3837891,0.2109375,3.0019531,1.6181641,3.0019531,3.8691406
			c0,2.6035156-1.6650391,4.5029297-4.6435547,4.5029297C192.7176514,85.8286133,191.0994873,84.6557617,190.3016357,83.2250977z"/>
		<path class="st3" d="M201.4188232,80.6225586V79.121582h15.8779297v1.5009766H201.4188232z"/>
		<path class="st3" d="M218.680542,83.2250977l1.2197266-1.1015625c0.7275391,1.171875,1.8769531,2.0400391,3.3535156,2.0400391
			c1.9003906,0,2.8378906-1.1728516,2.8378906-2.9785156c0-2.1337891-1.3837891-2.8378906-2.9785156-2.8378906
			c-0.4921875,0-1.03125,0-1.2421875,0.0234375v-1.6884766c0.2109375,0.0234375,0.796875,0.0234375,1.1953125,0.0234375
			c1.5712891,0,2.8378906-0.84375,2.8378906-2.6269531c0-1.8525391-1.125-2.7431641-2.6972656-2.7431641
			c-1.3828125,0-2.3681641,0.7265625-3.1660156,1.8525391l-1.171875-1.0556641
			c0.9375-1.5009766,2.5087891-2.4628906,4.4560547-2.4628906c2.5322266,0,4.4326172,1.3837891,4.4326172,4.1513672
			c0,1.9472656-1.3603516,3.3066406-2.7910156,3.6357422c1.3837891,0.2109375,3.0019531,1.6181641,3.0019531,3.8691406
			c0,2.6035156-1.6650391,4.5029297-4.6435547,4.5029297C221.0965576,85.8286133,219.4783936,84.6557617,218.680542,83.2250977z"/>
		<path class="st3" d="M229.774292,83.2250977l1.2197266-1.1015625c0.7275391,1.171875,1.8769531,2.0400391,3.3535156,2.0400391
			c1.9003906,0,2.8378906-1.1728516,2.8378906-2.9785156c0-2.1337891-1.3837891-2.8378906-2.9785156-2.8378906
			c-0.4921875,0-1.03125,0-1.2421875,0.0234375v-1.6884766c0.2109375,0.0234375,0.796875,0.0234375,1.1953125,0.0234375
			c1.5712891,0,2.8378906-0.84375,2.8378906-2.6269531c0-1.8525391-1.125-2.7431641-2.6972656-2.7431641
			c-1.3828125,0-2.3681641,0.7265625-3.1660156,1.8525391l-1.171875-1.0556641
			c0.9375-1.5009766,2.5087891-2.4628906,4.4560547-2.4628906c2.5322266,0,4.4326172,1.3837891,4.4326172,4.1513672
			c0,1.9472656-1.3603516,3.3066406-2.7910156,3.6357422c1.3837891,0.2109375,3.0019531,1.6181641,3.0019531,3.8691406
			c0,2.6035156-1.6650391,4.5029297-4.6435547,4.5029297C232.1903076,85.8286133,230.5721436,84.6557617,229.774292,83.2250977z"/>
	</g>
	<path class="st3" d="M187.3013306,59.7041626h-3.597168c-0.6593018,0-1.1987305-0.5394287-1.1987305-1.1987305v-3.597168
		c0-0.6593018,0.5394287-1.1986694,1.1987305-1.1986694h3.597168c0.6593018,0,1.1986694,0.5393677,1.1986694,1.1986694v3.597168
		C188.5,59.1647339,187.9606323,59.7041626,187.3013306,59.7041626z"/>
	<path class="st3" d="M193.2958984,65.6986694h-3.597168C189.0394287,65.6986694,188.5,65.1593018,188.5,64.5v-3.597168
		c0-0.6593018,0.5394287-1.1986694,1.1987305-1.1986694h3.597168c0.6592407,0,1.1986694,0.5393677,1.1986694,1.1986694V64.5
		C194.4945679,65.1593018,193.9551392,65.6986694,193.2958984,65.6986694z"/>
	<path class="st3" d="M199.2904663,59.7041626h-3.597229c-0.6592407,0-1.1986694-0.5394287-1.1986694-1.1987305v-3.597168
		c0-0.6593018,0.5394287-1.1986694,1.1986694-1.1986694h3.597229c0.6592407,0,1.1986694,0.5393677,1.1986694,1.1986694v3.597168
		C200.4891357,59.1647339,199.949707,59.7041626,199.2904663,59.7041626z"/>
	<path class="st3" d="M205.2850342,65.6986694h-3.597229c-0.6592407,0-1.1986694-0.5393677-1.1986694-1.1986694v-3.597168
		c0-0.6593018,0.5394287-1.1986694,1.1986694-1.1986694h3.597229c0.6592407,0,1.1986694,0.5393677,1.1986694,1.1986694V64.5
		C206.4837036,65.1593018,205.9442749,65.6986694,205.2850342,65.6986694z"/>
	<path class="st3" d="M211.2796021,59.7041626h-3.597229c-0.6592407,0-1.1986694-0.5394287-1.1986694-1.1987305v-3.597168
		c0-0.6593018,0.5394287-1.1986694,1.1986694-1.1986694h3.597229c0.6592407,0,1.1986694,0.5393677,1.1986694,1.1986694v3.597168
		C212.4782715,59.1647339,211.9388428,59.7041626,211.2796021,59.7041626z"/>
	<path class="st3" d="M217.2741699,65.6986694h-3.597229c-0.6592407,0-1.1986694-0.5393677-1.1986694-1.1986694v-3.597168
		c0-0.6593018,0.5394287-1.1986694,1.1986694-1.1986694h3.597229c0.6592407,0,1.1986694,0.5393677,1.1986694,1.1986694V64.5
		C218.4728394,65.1593018,217.9334106,65.6986694,217.2741699,65.6986694z"/>
	<path class="st3" d="M223.2687378,59.7041626h-3.597229c-0.6592407,0-1.1986694-0.5394287-1.1986694-1.1987305v-3.597168
		c0-0.6593018,0.5394287-1.1986694,1.1986694-1.1986694h3.597229c0.6592407,0,1.1986694,0.5393677,1.1986694,1.1986694v3.597168
		C224.4674072,59.1647339,223.9279785,59.7041626,223.2687378,59.7041626z"/>
	<path class="st3" d="M229.2633057,65.6986694h-3.597229c-0.6592407,0-1.1986694-0.5393677-1.1986694-1.1986694v-3.597168
		c0-0.6593018,0.5394287-1.1986694,1.1986694-1.1986694h3.597229c0.6592407,0,1.1986694,0.5393677,1.1986694,1.1986694V64.5
		C230.4619751,65.1593018,229.9225464,65.6986694,229.2633057,65.6986694z"/>
	<path class="st3" d="M235.2578125,59.7041626h-3.597168c-0.6592407,0-1.1986694-0.5394287-1.1986694-1.1987305v-3.597168
		c0-0.6593018,0.5394287-1.1986694,1.1986694-1.1986694h3.597168c0.6593018,0,1.1987305,0.5393677,1.1987305,1.1986694v3.597168
		C236.456543,59.1647339,235.9171143,59.7041626,235.2578125,59.7041626z"/>
	<path class="st3" d="M19.487915,26.8348389v1c0.5302734,0,0.9642334,0.4029541,0.9674072,0.8919678v3.2626953
		c0.0032959,0.5236816-0.4365234,0.9859009-0.9349365,0.9890747h-5.5748291c-0.2269287,0-0.4472656,0.0772705-0.6246338,0.2190552
		l-1.4957275,1.196228V28.788208c-0.0015869-0.2508545,0.0959473-0.4887695,0.2747803-0.6699219
		c0.1789551-0.1811523,0.4155273-0.2818604,0.6601562-0.2834473h6.7211914L19.487915,26.8348389 M19.487915,26.8348389h-0.0131836
		h-6.7145996c-1.0710449,0.006897-1.9418945,0.8887939-1.9349365,1.9598389v6.2835083
		c0.0025635,0.3964233,0.3453369,0.6574707,0.6953125,0.6574707c0.1693115,0,0.3404541-0.0611572,0.4752197-0.1977539
		l1.9498291-1.5593262h5.5748291c1.0710449-0.0068359,1.9417725-0.9244385,1.9349365-1.9954834v-3.2562866
		C21.4484863,27.6601562,20.5531006,26.8348389,19.487915,26.8348389z"/>
	<path class="st3" d="M38.0368652,52.8847046v1c0.3914795,0,0.711792,0.2937012,0.7141113,0.6483765v2.8435669
		c0.0012207,0.1880493-0.0756836,0.3764038-0.2110596,0.5169067c-0.0767822,0.0797729-0.2414551,0.2138062-0.4747314,0.215271
		h-4.8572998c-0.2269287,0-0.4472656,0.0772705-0.6245117,0.2190552l-1.0941162,0.875v-4.6170654
		c-0.0024414-0.3776245,0.3145752-0.6986694,0.685791-0.7011108h5.8555908L38.0368652,52.8847046 M38.0368652,52.8847046h-0.0115967
		h-5.8502197c-0.9332275,0.0059814-1.6917725,0.774353-1.685791,1.7075195v5.4746704
		c0.0021973,0.3453979,0.3010254,0.5728149,0.605835,0.5728149c0.147583,0,0.2965088-0.0532837,0.4139404-0.1722412
		l1.6988525-1.3586426h4.8572998c0.9331055-0.0059204,1.6917725-0.8054199,1.685791-1.7385864v-2.8371582
		C39.7449951,53.6038208,38.9649658,52.8847046,38.0368652,52.8847046z"/>
	<path class="st3" d="M151.1890259,1.5317383l0.0101318,1.000061l5.1375732-0.000061
		c0.1751099,0.0011597,0.291687,0.0929565,0.3456421,0.147583c0.053894,0.0546265,0.1442261,0.1723633,0.1430664,0.3538208
		v3.8029175l-0.7658691-0.6124878c-0.1773071-0.1417847-0.397522-0.2190552-0.6245728-0.2190552l-4.2644653,0.000061
		c-0.1665649-0.0010986-0.2825928-0.0959473-0.3369751-0.1523438c-0.09729-0.1010742-0.1525879-0.2359009-0.1517334-0.3764038
		V2.9875488c0.0015869-0.2512817,0.229187-0.4557495,0.5072632-0.4558105L151.1890259,1.5317383 M151.1890259,1.5317383
		c-0.815979,0.000061-1.5019531,0.6323242-1.5072021,1.4494019v2.4946899
		c-0.005249,0.8204956,0.6617432,1.5234375,1.4822998,1.5286865h4.270874l1.4937134,1.1945801
		c0.1032715,0.1046143,0.2342529,0.1514893,0.3640137,0.1514893c0.2680664,0,0.5307617-0.1999512,0.5327148-0.5036621V3.0331421
		c0.005249-0.8204956-0.6617432-1.4960938-1.4822998-1.5013428h-5.1439819L151.1890259,1.5317383z"/>
	<path class="st3" d="M48.060791,62.321167l0.0101318,1h5.1375732c0.1750488,0.0010986,0.291626,0.0928955,0.3455811,0.147522
		s0.1442871,0.1724243,0.1430664,0.3538818v3.8029175l-0.7658691-0.6125488
		c-0.1772461-0.1417847-0.3974609-0.2189941-0.6245117-0.2189941h-4.2645264
		c-0.1665039-0.0010986-0.2825928-0.0958862-0.3369141-0.1523438c-0.09729-0.1010132-0.1525879-0.2359009-0.1517334-0.3764038
		v-2.4882202c0.0015869-0.2513428,0.229126-0.4558105,0.5072021-0.4558105V62.321167 M48.060791,62.321167
		c-0.81604,0.000061-1.5019531,0.6323242-1.5072021,1.4494019v2.4946289
		c-0.005249,0.8205566,0.6617432,1.5234985,1.4822998,1.5287476h4.270874l1.4936523,1.1945801
		c0.1032715,0.1046143,0.2342529,0.1514282,0.3640137,0.1514282c0.2680664,0,0.5307617-0.1999512,0.5327148-0.5036621v-4.8137207
		c0.005249-0.8204956-0.6617432-1.4961548-1.4822998-1.5014038h-5.1439209H48.060791z"/>
	<path class="st3" d="M64.6003418,58.2979736l0.0157471,1.000061h7.9641113
		c0.3477783,0.0021973,0.6755371,0.1414185,0.9229736,0.3920288s0.3824463,0.5801392,0.380249,0.9343262v7.0355835
		l-2.0794678-1.6630249c-0.1773682-0.1417847-0.397583-0.2189941-0.6246338-0.2189941h-6.6112061
		c-0.7110596-0.0045166-1.3078613-0.628418-1.3032227-1.3687134V60.550293
		c0.0043945-0.6904907,0.6035156-1.2522583,1.3355713-1.2523193L64.6003418,58.2979736 M64.6003418,58.2979736
		c-1.2644043,0.000061-2.3272705,0.9797974-2.3354492,2.2458496v3.8654175
		c-0.0080566,1.2713623,1.0255127,2.3605957,2.296875,2.3687134h6.6175537l2.3145752,1.8510132
		c0.1600342,0.1621094,0.3630371,0.2346802,0.5640869,0.2346802c0.4152832,0,0.8223877-0.3098755,0.8254395-0.7804565v-7.4588013
		c0.0080566-1.2713623-1.0255127-2.3182373-2.296875-2.326355h-7.970459L64.6003418,58.2979736z"/>
	<path class="st3" d="M55.6547852,46.1227417v1c0.2780762,0,0.5056152,0.2044678,0.5072021,0.4494019v2.5010376
		c0.0008545,0.1340942-0.0544434,0.2689209-0.1517334,0.3699951c-0.0543213,0.0564575-0.1704102,0.1513062-0.3305664,0.1523438
		h-4.270874c-0.2269287,0-0.4472656,0.0772095-0.6245117,0.2189941l-0.7659912,0.6125488v-3.8093262
		c-0.0010986-0.1750488,0.0892334-0.2927856,0.1431885-0.3474121c0.053833-0.0546265,0.1705322-0.1464844,0.3391113-0.147583
		h5.1499023L55.6547852,46.1227417 M55.6547852,46.1227417h-0.0101318h-5.144043
		c-0.8204346,0.005249-1.4875488,0.6809082-1.4822998,1.5014038v4.8137207
		c0.0019531,0.3037109,0.2646484,0.5036621,0.5327148,0.5036621c0.1297607,0,0.2607422-0.046814,0.3640137-0.1514282
		l1.4937744-1.1945801h4.270874c0.8205566-0.005249,1.4875488-0.708252,1.4822998-1.5287476v-2.4946289
		C57.1567383,46.7550659,56.4708252,46.1227417,55.6547852,46.1227417z"/>
	<path class="st3" d="M95.8291016,58.6367188v1c0.7484131,0,1.361084,0.5747681,1.3656006,1.2748413v3.921814
		c0.0047607,0.7503662-0.6055908,1.3882446-1.3265381,1.3928833h-6.703125c-0.2269287,0-0.4472656,0.0772705-0.6245117,0.2190552
		l-2.1273193,1.7012939v-7.15979c-0.0023193-0.3557739,0.1357422-0.6928101,0.3887939-0.9490967
		s0.5882568-0.3986816,0.9376221-0.4009399l8.0792236-0.000061L95.8291016,58.6367188 M95.8291016,58.6367188l-0.0158691,0.000061
		H87.739624c-1.2878418,0.0082397-2.3347168,1.0686035-2.326416,2.3564453v7.5551758
		c0.0030518,0.4766846,0.4152832,0.7905273,0.8360596,0.7905273c0.2036133,0,0.4091797-0.0735474,0.5712891-0.2377319
		l2.3444824-1.874939h6.703125c1.2878418-0.0082397,2.3347168-1.1115112,2.3265381-2.399292v-3.9154053
		C98.1865234,59.6291504,97.1098633,58.6367188,95.8291016,58.6367188z"/>
	<path class="st3" d="M116.6179199,17.6697388v1c0.2780762,0,0.5057373,0.2044678,0.5073242,0.4494019v2.5010376
		c0.0008545,0.1340942-0.0544434,0.2689209-0.1517334,0.3699951c-0.0544434,0.0564575-0.1705322,0.1513062-0.3305664,0.1523438
		h-4.270874c-0.2270508,0-0.4472656,0.0772095-0.6246338,0.2189941l-0.7658691,0.6125488v-3.8093262
		c-0.0012207-0.1750488,0.0891113-0.2927856,0.1430664-0.3474121s0.1705322-0.1464844,0.3392334-0.147583h5.1497803
		L116.6179199,17.6697388 M116.6179199,17.6697388h-0.0101318h-5.1439209
		c-0.8205566,0.005249-1.4875488,0.6809082-1.4822998,1.5014038v4.8137207
		c0.0019531,0.3037109,0.2646484,0.5036621,0.5327148,0.5036621c0.1297607,0,0.2607422-0.046814,0.3640137-0.1514282
		l1.4937744-1.1945801h4.270874c0.8204346-0.005249,1.4875488-0.708252,1.4822998-1.5287476v-2.4946289
		C118.1199951,18.302063,117.43396,17.6697388,116.6179199,17.6697388z"/>
	<path class="st3" d="M34.5483398,39.8499146v1c0.2780762,0,0.5056152,0.2044678,0.5072021,0.4494019v2.5010986
		c0.0008545,0.1340332-0.0544434,0.2689209-0.1517334,0.3699341c-0.0543213,0.0564575-0.1704102,0.1513062-0.3305664,0.1523438
		h-4.270874c-0.2269287,0-0.4472656,0.0772705-0.6245117,0.2190552l-0.7659912,0.6124878v-3.8093262
		c-0.0010986-0.1749878,0.0892334-0.2927856,0.1431885-0.3474121c0.053833-0.0546265,0.1705322-0.1464233,0.3391113-0.147522
		l5.1499023-0.000061L34.5483398,39.8499146 M34.5483398,39.8499146l-0.0101318,0.000061h-5.144043
		c-0.8204346,0.005249-1.4875488,0.6808472-1.4822998,1.5013428v4.8137817
		c0.0019531,0.3037109,0.2646484,0.5036621,0.5327148,0.5036621c0.1297607,0,0.2607422-0.046875,0.3640137-0.1514893
		l1.4937744-1.1945801h4.270874c0.8205566-0.005249,1.4875488-0.7081909,1.4822998-1.5286865v-2.4946899
		C36.050293,40.4822388,35.3643799,39.8499146,34.5483398,39.8499146z"/>
	<path class="st3" d="M8.7081299,11.7647705v1c0.2648926,0,0.4902344,0.2238159,0.4919434,0.4951172l0.0487061,3.8027344
		l-0.7740479-0.6028442c-0.1757812-0.1368408-0.3919678-0.2110596-0.614502-0.2110596l-0.0126953,0.0001221l-4.267334,0.0545654
		c-0.2607422,0-0.4909668-0.2411499-0.4927979-0.5223999L3.055542,13.2929077
		c-0.0009766-0.1513672,0.072998-0.2548218,0.1350098-0.3150024c0.09729-0.0940552,0.2287598-0.1463623,0.376709-0.1473389
		l5.1374512-0.0657959L8.7081299,11.7647705 M8.7081299,11.7647705l-0.0096436,0.000061l-5.144165,0.0657959
		c-0.8205566,0.005249-1.5040283,0.6481934-1.4987793,1.468689l0.0319824,2.4944458
		c0.005127,0.8175049,0.6760254,1.5096436,1.4926758,1.5096436h0.0091553l4.270874-0.0546875l1.5091553,1.175415
		c0.1027832,0.1014404,0.2315674,0.1467896,0.3590088,0.1467896c0.2705078,0,0.5351562-0.2041626,0.5332031-0.510437
		l-0.0615234-4.8133545C10.1947021,12.4298096,9.524292,11.7647705,8.7081299,11.7647705z"/>
	<path class="st3" d="M69.4411621,42.326355l0.0109863,1.000061l5.5771484-0.000061
		c0.3356934,0.0021973,0.6175537,0.2875977,0.6153564,0.6296997v4.3057251l-0.9702148-0.7759399
		c-0.1772461-0.1417847-0.397583-0.2190552-0.6245117-0.2190552h-4.6293945
		c-0.2121582-0.0013428-0.3583984-0.1205444-0.4267578-0.1915283c-0.1209717-0.1255493-0.1896973-0.2937012-0.1885986-0.4677734
		v-2.7014771c0.0019531-0.3195801,0.2873535-0.5796509,0.6359863-0.5796509V42.326355 M69.4411621,42.326355
		c-0.8858643,0.000061-1.6303711,0.6863403-1.6359863,1.5733032v2.7078247
		c-0.0057373,0.890625,0.7182617,1.6536255,1.6088867,1.6593018h4.6358643l1.6213379,1.2966919
		c0.1121826,0.1135254,0.2543945,0.1643677,0.3951416,0.1643677c0.2910156,0,0.5761719-0.217041,0.5782471-0.5466919v-5.2250977
		c0.0057373-0.890625-0.7183838-1.6239624-1.6090088-1.6296387h-5.5834961L69.4411621,42.326355z"/>
	<path class="st3" d="M88.3947754,41.3224487l0.015625,1.000061l7.9344482-0.000061
		c0.345459,0.0022583,0.6711426,0.140564,0.9168701,0.3895264c0.2458496,0.2489624,0.3800049,0.5762939,0.3776855,0.9282227
		v7.0015259l-2.0655518-1.6519775c-0.1773682-0.1417847-0.397583-0.2189941-0.6246338-0.2189941h-6.5865479
		c-0.7064209-0.0045166-1.2991943-0.6243286-1.2945557-1.3598633v-3.8446045
		c0.0043945-0.685791,0.5994873-1.2438354,1.3267822-1.2438354L88.3947754,41.3224487 M88.3947754,41.3224487
		c-1.2596436,0.000061-2.3186035,0.9760742-2.3266602,2.2374268v3.8510132
		c-0.0080566,1.2666016,1.0216064,2.3517456,2.288208,2.3598633h6.5928955l2.3059082,1.8441162
		c0.1594238,0.161499,0.3616943,0.2337646,0.5620117,0.2337646c0.4136963,0,0.8193359-0.3086548,0.8222656-0.7774658v-7.4309692
		c0.0081787-1.2666626-1.0216064-2.3096313-2.288208-2.317688h-7.9407959L88.3947754,41.3224487z"/>
	<path class="st3" d="M93.9438477,25.9335938l0.0168457,1h8.5490723c0.8167725,0.005249,1.4769287,0.6739502,1.4716797,1.4971313
		v7.7044678l-2.3511963-1.8803711c-0.1773682-0.1417847-0.397583-0.2190552-0.6246338-0.2190552l-7.0968018,0.000061
		c-0.8031006-0.005188-1.4770508-0.7086182-1.4716797-1.5426025v-4.1426392
		c0.0050049-0.781311,0.6809082-1.4169922,1.5068359-1.4169922L93.9438477,25.9335938 M93.9438477,25.9335327
		c-1.3570557,0.0001221-2.4980469,1.0516357-2.5067139,2.4106445v4.1490479
		c-0.0087891,1.3646851,1.100708,2.5338135,2.465332,2.5425415h7.1031494l2.484375,1.9868164
		c0.171875,0.1740112,0.3896484,0.2518921,0.6054688,0.2518921c0.4458008,0,0.8828125-0.3325806,0.8859863-0.8376465v-8.0061035
		c0.0087891-1.3646851-1.100708-2.4883423-2.465332-2.4971313h-8.5554199L93.9438477,25.9335327z"/>
	<path class="st3" d="M123.4638672,68.2404175v1c2.0330811,0,3.6972656,1.5859985,3.7097168,3.5290527v7.8015137
		c0.0062866,0.9827271-0.3731689,1.9215698-1.0685425,2.6436157c-0.6939087,0.720459-1.6065063,1.1206055-2.5632324,1.12677
		h-13.3453979c-0.2269287,0-0.4472656,0.0772705-0.6245117,0.2190552l-4.6676025,3.7327881l-0.0870361,0.0783691
		c-0.1152344,0.1166992-0.2585449,0.1758423-0.4259033,0.1758423c-0.2664795,0-0.6619873-0.1843872-0.6644287-0.5737915V72.9255371
		c-0.0063477-0.9729004,0.3701172-1.8934326,1.0598145-2.592041s1.6054688-1.086792,2.5718994-1.0929565l16.0802002-0.000061
		L123.4638672,68.2404175 M123.4638672,68.2404175l-0.0316162,0.0001221h-16.0736084
		c-2.5638428,0.0163574-4.6481934,2.1275024-4.6317139,4.6914062v15.041687
		c0.0059814,0.9489746,0.8269043,1.5737915,1.6644287,1.5737915c0.4053955,0,0.8148193-0.1463623,1.1375732-0.4732666
		l4.6674805-3.7327881h13.3453979c2.5639038-0.0164185,4.6481934-2.2129517,4.6317749-4.7767944v-7.795105
		C128.1572266,70.2162476,126.0137939,68.2404175,123.4638672,68.2404175z"/>
	<path class="st3" d="M137.9431152,6.8200684v1c0.836853,0,1.5217896,0.6443481,1.5268555,1.4299927v4.1887207
		c0.0026245,0.4056396-0.1549072,0.7941284-0.4436035,1.0938721c-0.2849121,0.2958374-0.6570435,0.460144-1.0414429,0.4625854
		h-7.1601562c-0.2270508,0-0.4472656,0.0772705-0.6245728,0.2190552l-2.3831177,1.9058228V9.3308716
		c-0.0053101-0.8277588,0.6637573-1.5054321,1.4851074-1.5107422h8.6309814L137.9431152,6.8200684 M137.9431152,6.8200684
		l-0.0169678,0.000061h-8.6239624c-1.3756104,0.0087891-2.4938965,1.1414795-2.4851074,2.5170898v8.0703125
		c0.0032959,0.5091553,0.4437256,0.8443604,0.8931274,0.8443604c0.2175293,0,0.4371338-0.0784912,0.6102905-0.2539062
		l2.5042725-2.0027466h7.1601562c1.3756104-0.0087891,2.4938965-1.1873169,2.4850464-2.5629272V9.250061
		C140.4612427,7.880127,139.3112183,6.8200684,137.9431152,6.8200684z"/>
	<path class="st3" d="M192.0946045,8.6977539v1c0.8369141,0,1.5219116,0.6443481,1.5269775,1.4299927v4.1887207
		c0.0025635,0.4056396-0.1549683,0.7941284-0.4436646,1.0938721c-0.2849121,0.2958374-0.6570435,0.460144-1.0414429,0.4625854
		h-7.1601562c-0.2270508,0-0.4472656,0.0772705-0.6245728,0.2190552l-2.3831177,1.9058228v-7.7892456
		c-0.005249-0.8277588,0.6638184-1.5054321,1.4851074-1.5107422h8.6309814L192.0946045,8.6977539 M192.0946045,8.6977539
		l-0.0169067,0.000061h-8.6239624c-1.3756104,0.0088501-2.4938965,1.1414795-2.4851074,2.5170898v8.0703125
		c0.0032959,0.5091553,0.4437256,0.8444214,0.8930664,0.8444214c0.2175293,0,0.4371948-0.0785522,0.6103516-0.2539673
		l2.5042725-2.0027466h7.1601562c1.3756104-0.0087891,2.4938965-1.1873169,2.4851074-2.5628662v-4.182312
		C194.612793,9.7578735,193.4627686,8.6977539,192.0946045,8.6977539z"/>
	<path class="st3" d="M105.0909424,51.4804077l0.0137939,1h7.0167236c0.2747803,0.00177,0.5339355,0.1118774,0.7294922,0.3101196
		c0.1958008,0.1981812,0.3024902,0.4586182,0.3007812,0.7397461v5.9521484l-1.6391602-1.3109131
		c-0.1772461-0.1417847-0.397583-0.2190552-0.6245117-0.2190552l-5.824707,0.000061
		c-0.2678223-0.001709-0.5239258-0.1153564-0.7209473-0.3199463c-0.1983643-0.2059937-0.3111572-0.4833374-0.3093262-0.7672729
		v-3.3996582c0.003418-0.5432129,0.4780273-0.9852295,1.0578613-0.9852295V51.4804077 M105.0909424,51.4803467
		c-1.1141357,0.0001221-2.0507812,0.8633423-2.0578613,1.9789429v3.4060059
		c-0.0072021,1.1202393,0.9035645,2.0800171,2.0238037,2.0871582h5.8311768l2.0393066,1.6309814
		c0.1411133,0.1428833,0.3199463,0.2068481,0.4970703,0.2068481c0.3659668,0,0.7246094-0.2730713,0.7272949-0.6876831v-6.5723267
		c0.0072021-1.1202393-0.9035645-2.0426636-2.0238037-2.0498657h-7.0231934L105.0909424,51.4803467z"/>
	<path class="st3" d="M164.8336182,24.7022705l0.0137939,1.000061l7.0168457-0.000061
		c0.2747192,0.00177,0.5338135,0.1118774,0.7294922,0.3101196s0.3024902,0.4586792,0.3007202,0.7398071l0.000061,5.9521484
		l-1.6392822-1.3109741c-0.1772461-0.1417847-0.397522-0.2189941-0.6245117-0.2189941h-5.824707
		c-0.2678223-0.001709-0.5238037-0.1152954-0.7208252-0.3198853c-0.1984863-0.2059937-0.3112183-0.4833374-0.3094482-0.767334
		V26.687561c0.003479-0.5432739,0.4780273-0.9852295,1.0579224-0.9852905L164.8336182,24.7022705 M164.8336182,24.7022705
		c-1.1141357,0.000061-2.0506592,0.8633423-2.0578613,1.9788818v3.4060059
		c-0.0071411,1.1203003,0.9035645,2.0800171,2.0238037,2.0872192h5.8311768l2.0394287,1.6309814
		c0.1409912,0.1428223,0.3198242,0.2067871,0.4970093,0.2067871c0.3659668,0,0.7246704-0.2730103,0.7272949-0.6876831v-6.5722656
		c0.0071411-1.1203003-0.9035034-2.0427246-2.0238037-2.0498657h-7.0232544L164.8336182,24.7022705z"/>
	<path class="st3" d="M142.3058472,31.5288696l0.0137939,1.000061l7.0169067-0.000061
		c0.2746582,0.00177,0.5336914,0.1118774,0.7293701,0.3101196c0.1958008,0.1982422,0.3025513,0.4586792,0.3007812,0.7398071
		v5.9521484l-1.6392212-1.3109741c-0.1773071-0.1417847-0.397522-0.2189941-0.6245728-0.2189941h-5.824707
		c-0.5621338-0.0036011-1.0339355-0.4985352-1.0302124-1.0872192v-3.3995361
		c0.003479-0.543335,0.4780273-0.9852905,1.0579224-0.9853516L142.3058472,31.5288696 M142.3058472,31.5288696
		c-1.1141357,0.000061-2.0507202,0.8633423-2.0578613,1.9788818v3.4060059
		c-0.0071411,1.1203003,0.9035645,2.0800171,2.0238037,2.0872192h5.8311157l2.0394287,1.6309814
		c0.1410522,0.1428223,0.3198853,0.2067871,0.4970703,0.2067871c0.3659668,0,0.7246094-0.2730103,0.7272949-0.6876831v-6.5722656
		c0.0072021-1.1203003-0.9035645-2.0427246-2.0238037-2.0498657h-7.0232544L142.3058472,31.5288696z"/>
	<path class="st3" d="M173.2587891,4.0428467v1c0.579834,0,1.0544434,0.4420166,1.0578613,0.9788818l0.000061,3.4124146
		c0.00177,0.2775879-0.1110229,0.5549316-0.3093872,0.7609253c-0.1970215,0.2045898-0.453064,0.3181763-0.7144775,0.3198853
		h-5.8310547c-0.2270508,0-0.4472656,0.0772095-0.6245728,0.2189941l-1.6392212,1.3109131V6.0863647
		c-0.00177-0.2747192,0.1049805-0.5351562,0.3007202-0.7333984s0.4547729-0.3083496,0.7230835-0.3100586l7.0296631-0.000061
		L173.2587891,4.0428467 M173.2588501,4.0428467l-0.013855,0.000061h-7.0231934
		c-1.1202393,0.0071411-2.0310059,0.9295654-2.0238037,2.0498657v6.5722656
		c0.0026855,0.4146729,0.3613281,0.6876831,0.7272949,0.6876831c0.177124,0,0.3560181-0.0639648,0.4970703-0.2067871
		l2.0394287-1.6309814h5.8310547c1.1203003-0.0072021,2.0310059-0.9669189,2.0238037-2.0872192V6.0217285
		C175.3095703,4.906189,174.3729248,4.0428467,173.2588501,4.0428467z"/>
	<path class="st3" d="M152.0963135,97.9086304v1c0.579895,0,1.0544434,0.4419556,1.0578613,0.9788818l0.000061,3.4124146
		c0.00177,0.2775269-0.1110229,0.5548706-0.3093872,0.7608643c-0.1970215,0.2045898-0.453064,0.3182373-0.7144775,0.3198853
		h-5.8310547c-0.2270508,0-0.4472656,0.0772705-0.6245117,0.2190552l-1.6392822,1.3109131v-5.9584961
		c-0.0036621-0.5717163,0.4584961-1.039856,1.0238037-1.0435181h7.0296631L152.0963135,97.9086304 M152.0963745,97.9085693
		l-0.013855,0.000061h-7.0231934c-1.1202393,0.0072021-2.0309448,0.9296265-2.0238037,2.0498657v6.5723267
		c0.0026855,0.4146118,0.3613892,0.6876831,0.727356,0.6876831c0.177124,0,0.355957-0.0639648,0.4969482-0.2067871
		l2.0394897-1.6310425h5.8310547c1.1203003-0.0071411,2.0310059-0.9669189,2.0238037-2.0871582v-3.4060059
		C154.1470947,98.7719116,153.2105103,97.9085693,152.0963745,97.9085693z"/>
	<path class="st3" d="M134.763855,53.3182373v1c0.579895,0,1.0544434,0.4419556,1.0578613,0.9788818v3.4124146
		c0.0018311,0.2775269-0.1109619,0.5548706-0.3093872,0.7608643c-0.1970215,0.2045898-0.4530029,0.3182373-0.7144165,0.3198853
		h-5.8311157c-0.2269897,0-0.4472656,0.0772705-0.6245728,0.2190552l-1.6391602,1.3109131v-5.9585571
		c-0.00177-0.2746582,0.1050415-0.5350952,0.3007202-0.7333374s0.4547729-0.3083496,0.7230835-0.3101196h7.0296631
		L134.763855,53.3182373 M134.763855,53.3181763l-0.0137939,0.000061h-7.0231934
		c-1.1203003,0.0072021-2.0310059,0.9296265-2.0238037,2.0498657v6.5723267
		c0.0026245,0.4146729,0.3613281,0.6876831,0.7272949,0.6876831c0.177124,0,0.355957-0.0639648,0.4970093-0.2067871
		l2.0394287-1.6310425h5.8311157c1.1202393-0.0071411,2.0310059-0.9669189,2.0238037-2.0871582v-3.4060059
		C136.8146362,54.1815186,135.8779907,53.3181763,134.763855,53.3181763z"/>
	<path class="st3" d="M129.2044678,89.2529297v1c0.579895,0,1.0544434,0.4420166,1.0578613,0.9788818v3.4124756
		c0.0018311,0.2775269-0.1109619,0.5548706-0.3093872,0.7608643c-0.1970215,0.2045898-0.4530029,0.3181763-0.7144165,0.3198853
		h-5.8311157c-0.2269897,0-0.4472656,0.0772095-0.6245728,0.2189941l-1.6391602,1.3109131v-5.9585571
		c-0.00177-0.2746582,0.1050415-0.5350952,0.3007202-0.7333374s0.4547729-0.3083496,0.7230835-0.3100586l7.0296631-0.000061
		L129.2044678,89.2529297 M129.2044678,89.2529297l-0.0137939,0.000061h-7.0231934
		c-1.1203003,0.0071411-2.0310059,0.9295654-2.0238037,2.0498657v6.5722656
		c0.0026855,0.4146729,0.3613281,0.6876831,0.7272949,0.6876831c0.177124,0,0.355957-0.0639648,0.4970093-0.2067871
		l2.0394287-1.6309814h5.8311157c1.1202393-0.0072021,2.0310059-0.9669189,2.0238037-2.0872192v-3.4060059
		C131.255249,90.1162109,130.3186035,89.2529297,129.2044678,89.2529297z"/>
	<path class="st3" d="M190.6439209,30.2028198v1c0.579834,0,1.0543823,0.4420166,1.0578613,0.9789429v3.4123535
		c0.0037231,0.5822754-0.4680786,1.0772095-1.0238037,1.0808105h-5.8311768c-0.2269897,0-0.4472656,0.0772095-0.6245117,0.2189941
		l-1.6392212,1.3109131l-0.000061-5.9584961c-0.001709-0.2747192,0.1051025-0.5351562,0.3007812-0.7333984
		c0.1956787-0.1981812,0.4547729-0.3083496,0.7230835-0.3100586l7.0296631-0.000061L190.6439209,30.2028198 M190.6439209,30.2028198
		l-0.0137939,0.000061h-7.0232544c-1.1203003,0.0071411-2.0309448,0.9295654-2.0238037,2.0498657v6.5722656
		c0.0026245,0.4146729,0.3613281,0.6876831,0.7272949,0.6876831c0.1771851,0,0.3560181-0.0639648,0.4970093-0.2067871
		l2.0394287-1.6309814h5.8311768c1.1202393-0.0072021,2.0309448-0.9669189,2.0238037-2.0872192v-3.4059448
		C192.6945801,31.0661621,191.7580566,30.2028198,190.6439209,30.2028198z"/>
	<path class="st3" d="M199.3560791,22.2235718l0.0229492,1.000061l11.6744995-0.000061
		c0.6339722,0.0040894,1.230957,0.2573242,1.6809082,0.7130127c0.4499512,0.4557495,0.6954956,1.0559082,0.6914673,1.6963501
		v10.9244995c-0.0007324,0.1131592-0.156189,0.1500854-0.2096558,0.1500854l-0.1150513-0.0465088l-0.0870361-0.0783691
		l-3.3919678-2.7126465c-0.1773071-0.1417847-0.397583-0.2190552-0.6245728-0.2190552l-9.6917114,0.000061
		c-1.2944946-0.0083008-2.3809204-1.137146-2.3724365-2.4713745v-5.6583862
		c0.0081177-1.2669067,1.0949707-2.2976074,2.4226685-2.2976685L199.3560791,22.2235718 M199.3560791,22.2235718
		c-1.8530273,0.000061-3.4107056,1.435791-3.4226074,3.2912598v5.6647949
		c-0.0118408,1.8631592,1.5028076,3.4594116,3.3659668,3.4713135h9.6981812l3.3919678,2.7126465
		c0.2345581,0.2375488,0.5320435,0.3439331,0.8266602,0.3439331c0.6087036,0,1.2052002-0.4540405,1.2096558-1.1436768V25.6329346
		c0.0118408-1.8632202-1.5028076-3.3973999-3.3659668-3.4093018h-11.6809082L199.3560791,22.2235718z"/>
	<path class="st3" d="M148.286377,14.0144043l0.0150146,1.000061h7.6169434
		c0.3210449,0.0020142,0.6236572,0.1306152,0.8521118,0.3619995s0.3531494,0.5355835,0.3510742,0.8630371l0.000061,6.6384888
		l-1.9181519-1.5339966c-0.1773071-0.1417847-0.397522-0.2189941-0.6245728-0.2189941h-6.322998
		c-0.3138428-0.0020142-0.6134033-0.1346436-0.8433838-0.3734131c-0.2341309-0.243042-0.3618164-0.5576172-0.3597412-0.8921509
		v-3.6906128c0.0040283-0.6365356,0.5574951-1.1543579,1.2337646-1.1544189L148.286377,14.0144043 M148.286377,14.0144043
		c-1.2092896,0.000061-2.2258911,0.9370728-2.2336426,2.1480103v3.6970215
		c-0.0078125,1.2160034,0.9807739,2.2577515,2.1967773,2.265564h6.3293457l2.2137451,1.7703247
		c0.1530762,0.1550903,0.347168,0.2244873,0.5394287,0.2244873c0.3972778,0,0.7866211-0.2963257,0.7894897-0.7463989V16.239502
		c0.0077515-1.2160034-0.9807739-2.2172852-2.1967163-2.2250366h-7.6234131L148.286377,14.0144043z"/>
	<path class="st3" d="M114.0500488,28.3572388l0.0281982,1.0001221l14.2839966-0.000061
		c1.7338867,0.0111084,3.135437,1.4307251,3.1243286,3.1710205v13.3665771
		c-0.00177,0.2766724-0.2874146,0.4055786-0.4798584,0.4055786c-0.119751,0-0.2177734-0.0403442-0.2997437-0.1233521
		l-0.0870361-0.0783691l-4.1497192-3.3186646c-0.1773071-0.1417847-0.397522-0.2190552-0.6245728-0.2190552l-11.8584595,0.000061
		c-0.8261719-0.0053101-1.609375-0.348999-2.2053223-0.9678345c-0.5980225-0.6209717-0.9243164-1.4280396-0.9189453-2.2791138
		v-6.9238892c0.0107422-1.6723022,1.4404297-3.0328979,3.1872559-3.03302L114.0500488,28.3572388 M114.0500488,28.3572388
		c-2.2669678,0.0001221-4.1726074,1.7565918-4.1871338,4.0266113v6.9302979
		c-0.0146484,2.27948,1.8383789,4.2322998,4.1179199,4.2468872h11.8648071l4.1497192,3.3186646
		c0.2869263,0.2906494,0.6508789,0.4207764,1.0113525,0.4207764c0.7446289,0,1.4744873-0.555542,1.4798584-1.399231V32.5283203
		c0.0145874-2.27948-1.838501-4.1563721-4.1179199-4.1709595h-14.2904053L114.0500488,28.3572388z"/>
</g>
</svg>
