<?xml version="1.0" encoding="utf-8"?>
<!-- Generator: Adobe Illustrator 19.0.1, SVG Export Plug-In . SVG Version: 6.00 Build 0)  -->
<svg class="lbs" version="1.1" id="Layer_1" xmlns="http://www.w3.org/2000/svg" xmlns:xlink="http://www.w3.org/1999/xlink" x="0px" y="0px" width="78px" height="91px" viewBox="0 0 78 91" style="enable-background:new 0 0 78 91;" xml:space="preserve">
	<style type="text/css">
		.lbs .st0{fill:#71B82F;}
		.lbs .st1{fill:#DFD91A;}
		.lbs .st2{fill:#373838;}
		.lbs .st3{fill:#61D31E;}
		.lbs .st4{fill:#E0D919;}
		.lbs .st5{fill:none;stroke:#61D31E;stroke-linecap:round;stroke-linejoin:round;stroke-miterlimit:10;}
		.lbs .st6{fill:none;stroke:#61D31E;stroke-width:2;stroke-linecap:round;stroke-linejoin:round;stroke-miterlimit:10;}
	</style>
	<g>
		<path class="st2" d="M56.340538,18.8895893l-0.5-0.0031281c-0.0107422,2.2978363-0.8417053,5.9096832-2.1609497,9.9732208
			c-1.976593,6.1023121-5.0390015,13.2626057-7.9960632,18.8755817c-1.4776611,2.8059387-2.9312134,5.2271729-4.1959839,6.9250336
			c-0.6311035,0.8484192-1.2169189,1.515625-1.7158203,1.9515686c-0.4966431,0.4435577-0.9101562,0.6178131-1.0900269,0.6062317
			l-0.0143433,0.0000763l0.008667,0.499939l0.0031128-0.5c-0.1192017,0.0020752-0.338562-0.0636597-0.6187134-0.2519684
			c-0.527771-0.3474426-1.2266846-1.0835419-1.9879761-2.1096497c-2.6836548-3.5992584-6.2297382-10.7067413-9.0750141-17.8687744
			c-1.4245605-3.5825348-2.6782837-7.1834736-3.5733032-10.3736439c-0.8959961-3.1874237-1.428894-5.9750824-1.4267578-7.8751373
			l0.0002441-0.0613708v-0.0023956c0.0577393-9.3092794,7.6233521-16.8164825,16.9191303-16.8161621l0.1074219,0.0003662
			c9.309845,0.057724,16.8169861,7.6232915,16.8166809,16.9191437l-0.0003052,0.1085968L56.340538,18.8895893l0.4999695,0.0024567
			l0.0003052-0.1135254C56.8405075,8.9325895,48.8908005,0.9213129,39.0309982,0.8593928l-0.1142578-0.0003662
			c-9.8458881,0.0003204-17.8571796,7.950089-17.9190693,17.809906v-0.0023956l-0.0002441,0.072403
			c0.003418,2.5265656,0.8250122,6.1898499,2.1097412,10.3234711c1.9293213,6.1937122,4.9129028,13.4056568,7.8226929,19.0935688
			c1.4558125,2.8444977,2.89081,5.3057861,4.1799946,7.0794983c0.645752,0.8873596,1.2532349,1.6031647,1.8277588,2.1173553
			c0.5766602,0.5064545,1.1168823,0.8497467,1.7352295,0.8652649l0.0117798-0.000061l-0.0059204-0.3403778l0.000061,0.3404236
			l0.0058594-0.0000458l-0.0059204-0.3403778l0.000061,0.3404236h0.0029297
			c0.4120483-0.0028381,0.793335-0.1660614,1.1729736-0.4115448c0.7092285-0.4659119,1.4537354-1.2628632,2.2712402-2.331665
			c2.8420715-3.7331238,6.4804688-10.8407745,9.4446106-18.0401306c1.4801941-3.5981903,2.7874756-7.2146168,3.7304993-10.4366322
			c0.9420166-3.2249146,1.5243225-6.0439148,1.5394897-8.1054077L56.340538,18.8895893z"/>
		<path class="st2" d="M47.3488388,18.8334522l-0.5-0.0031281c-0.026886,4.3623962-3.5727234,7.8806763-7.9286804,7.8803558
			l-0.0515137-0.0001373c-4.3615112-0.0268555-7.8798847-3.5726318-7.8795795-7.9286652l0.0001831-0.0451508l0.000061-0.0054169
			c0.0268555-4.3624258,3.5726337-7.8807211,7.9285297-7.8804007l0.0496826,0.0001678
			c4.3634033,0.0268402,7.8817444,3.5726166,7.8814392,7.9286489l-0.0001221,0.0520172v-0.0014191L47.3488388,18.8334522
			l0.4999695,0.0016937l0.0001221-0.0554199c-0.0003052-4.906127-3.9611816-8.8975821-8.8740845-8.9286184l-0.0570068-0.0001831
			c-4.9060059,0.0003204-8.8974628,3.9611816-8.9284687,8.8741446l0.5,0.0031281l-0.499939-0.0085449l-0.0003052,0.0622253
			c0.0003052,4.9061279,3.9611835,8.897583,8.8742085,8.9286499l0.0568237,0.0001373
			c4.9060669-0.0003204,8.8975525-3.9611664,8.9286499-8.8740997V18.835146L47.3488388,18.8334522z"/>
		<path class="st2" d="M0.8026035,66.2111053l25.467041,7.6306915L3.5345371,83.545578
			c-0.2540283,0.1083984-0.3720093,0.4021759-0.2636108,0.6561584c0.1083984,0.2539673,0.4021606,0.3719788,0.656189,0.2635803
			l24.0056763-10.246109c0.1929932-0.0823669,0.3146973-0.2783661,0.3029785-0.4878998
			c-0.0117798-0.2095337-0.1547241-0.3907013-0.3557129-0.4509277L1.0896518,65.2531738
			c-0.2645873-0.0792542-0.5432739,0.0709381-0.6224976,0.3354797c-0.0792236,0.2645264,0.0709229,0.5432129,0.3355103,0.622467
			L0.8026035,66.2111053z"/>
		<path class="st2" d="M11.9890661,61.4262581l26.7904663,8.0272026c0.1146851,0.0343628,0.2406616,0.0258789,0.3497925-0.0234985
			l26.2680359-11.8956261c0.2515259-0.1139069,0.3630981-0.4101562,0.2492065-0.6616974
			c-0.1138916-0.2515564-0.4101562-0.3631287-0.6616821-0.2492218L38.8872604,68.4418182l-26.611145-7.9734917
			c-0.2645874-0.0792542-0.5432739,0.0709381-0.6224976,0.3354797c-0.0792236,0.2645264,0.0709229,0.5432129,0.3355103,0.622467
			L11.9890661,61.4262581z"/>
		<path class="st2" d="M67.8259506,85.2819061l-28.0805359-8.5746613c-0.1125488-0.0343628-0.2340698-0.0278625-0.3422852,0.0183411
			L10.2211828,89.1809692c-0.2540283,0.1083984-0.3720093,0.4021759-0.2636108,0.6561584
			c0.1083984,0.2539673,0.4021606,0.3719788,0.656189,0.2635803L39.6278,77.7169189l27.9061279,8.5213928
			c0.2640991,0.0806427,0.5435486-0.0680695,0.6242065-0.3321686c0.080658-0.2641144-0.0680542-0.5435791-0.3321533-0.6242218
			L67.8259506,85.2819061z"/>
		<path class="st2" d="M74.9742355,79.2639618l-22.7750244-6.9545898l25.0609741-11.3489494
			c0.2515259-0.1139069,0.3630981-0.4101562,0.2492065-0.6616974c-0.1138916-0.2515564-0.4101562-0.3631287-0.6616821-0.2492218
			L50.5796432,71.9451294c-0.1897888,0.0859375-0.3061218,0.2797546-0.2927246,0.4876556
			c0.0134277,0.2079163,0.1536865,0.3851624,0.3529663,0.4460144l24.0423279,7.341568
			c0.2640991,0.0806427,0.5435486-0.0680695,0.6242065-0.3321686c0.080658-0.2641144-0.0680542-0.5435791-0.3321533-0.6242218
			L74.9742355,79.2639618z"/>
		<path class="st2" d="M38.3145065,65.2548218l0.2028809,0.4569702l6.1612549-2.7356377
			c0.1903992-0.084549,0.3088989-0.279541,0.2961731-0.4874878c-0.0127258-0.207962-0.1540833-0.387085-0.353363-0.4477844
			l-9.0374146-2.7534637c-0.1184692-0.036087-0.2459717-0.0269775-0.3580322,0.0256042l-2.909729,1.3644409l-13.4155903-3.9421997
			c-0.1168823-0.0343323-0.243042-0.024704-0.3532715,0.0270233l-3.0405874,1.4258728
			c-0.1886597,0.0884705-0.3021851,0.283371-0.2861938,0.4910889s0.1580811,0.3829193,0.3580322,0.4414673l22.5953369,6.6139641
			c0.112915,0.0330505,0.2358398,0.0248413,0.3433838-0.0228882L38.3145065,65.2548218l0.1404419-0.4798737l-21.3267841-6.2426414
			l1.6723633-0.7842407l13.4156513,3.9422302c0.1168213,0.0343323,0.242981,0.0246735,0.3532715-0.0270233l2.9070435-1.3632355
			l7.5703125,2.306488l-4.9352417,2.1913109L38.3145065,65.2548218l0.1404419-0.4798737L38.3145065,65.2548218z"/>
	</g>
</svg>
