<?xml version="1.0" encoding="utf-8"?>
<!-- Generator: Adobe Illustrator 19.0.1, SVG Export Plug-In . SVG Version: 6.00 Build 0)  -->
<svg version="1.1" id="Layer_1" xmlns="http://www.w3.org/2000/svg" xmlns:xlink="http://www.w3.org/1999/xlink" x="0px" y="0px"
	 width="60.6666679px" height="75.3333359px" viewBox="0 0 60.6666679 75.3333359"
	 style="enable-background:new 0 0 60.6666679 75.3333359;" xml:space="preserve">
<style type="text/css">
	.st0{fill:#71B82F;}
	.st1{fill:#DFD91A;}
	.st2{fill:#373838;}
	.st3{fill:#61D31E;}
	.st4{fill:#E0D919;}
	.st5{fill:none;stroke:#61D31E;stroke-linecap:round;stroke-linejoin:round;stroke-miterlimit:10;}
	.st6{fill:none;stroke:#61D31E;stroke-width:2;stroke-linecap:round;stroke-linejoin:round;stroke-miterlimit:10;}
</style>
<g>
	<path class="st2" d="M38.6395378,3.4813676v21.3689423c0,1.6253777,1.3174019,2.9430485,2.9430504,2.9430485
		c1.6252861,0,2.9430466-1.3176708,2.9430466-2.9430485V3.4813676c0-1.6254219-1.3177605-2.9430487-2.9430466-2.9430487
		C39.9569397,0.5383189,38.6395378,1.8559457,38.6395378,3.4813676"/>
	<path class="st2" d="M47.1751709,16.6819305l-5.6633568,5.6632214l-5.4955826-5.6366806
		c-1.1348991-1.1637297-2.9980164-1.1872168-4.1616554-0.0524979c-1.1639996,1.1346741-1.1873512,2.9978809-0.0524521,4.1616096
		l7.5760498,7.7706795c0.5485878,0.5630035,1.3023148,0.8834629,2.0887337,0.8884487
		c0.7860565,0.0049839,1.5433731-0.3059998,2.0995064-0.861908l7.770771-7.7707233
		c1.1492691-1.1492252,1.1492691-3.0125656,0-4.1618805c-1.1492691-1.1493587-3.0123863-1.1494484-4.1616554-0.0002251
		L47.1751709,16.6819305z"/>
	<path class="st2" d="M3.4627068,20.3448448l0.0079038,0.000494c0.2622588,0.0079479,3.9259806,0.2844429,7.5907803,1.8648663
		c1.8350945,0.7845325,3.6554594,1.8794632,5.1190805,3.3462734c1.4650574,1.4752502,2.6046257,3.286993,3.1945286,5.7663288
		c1.3572807,5.7447739,3.2293777,11.4208374,6.5844975,16.2441139c3.3353596,4.8238602,8.2934895,8.6994972,15.1621609,10.4560509
		c5.7244301,1.5005798,8.851059,4.9703903,10.7551308,8.2420273c0.9347916,1.6282501,1.518589,3.1869812,1.8580894,4.3136673
		c0.1699295,0.5630875,0.2791443,1.0176468,0.343811,1.3171768l0.0653839,0.3271484l0.0111389,0.0654297l0.3711128-0.0607605
		l-0.3718338,0.0550156l0.000721,0.0057449l0.3711128-0.0607605l-0.3718338,0.0550156
		c0.2378311,1.6079025,1.7345009,2.7183304,3.3425446,2.4801865c1.6080437-0.2381897,2.7181549-1.7347717,2.4803238-3.3426819
		c-0.0398788-0.2268677-0.579483-3.8577652-2.9954987-8.0844917c-2.3879967-4.2086258-6.8640022-9.0774384-14.3832893-11.0104294
		c-5.558094-1.4652824-9.0985909-4.2789993-11.8113537-8.1257172c-2.692646-3.8473015-4.4170876-8.82304-5.6823978-14.2248554
		c-0.8622208-3.6955166-2.7339592-6.6277866-4.9703465-8.7850914c-3.3662548-3.2470722-7.4395323-4.8576736-10.6434031-5.7330084
		c-3.2124929-0.8673849-5.6073122-0.9827967-5.7528124-0.9914188c-1.6238501-0.0760288-3.0016079,1.1785927-3.0777707,2.8022642
		C0.584684,18.891058,1.839216,20.2688599,3.4630661,20.3448887L3.4627068,20.3448448z"/>
	<circle class="st2" cx="40.881134" cy="41.6858978" r="3.4336166"/>
</g>
</svg>
