<?xml version="1.0" encoding="utf-8"?>
<!-- Generator: Adobe Illustrator 19.0.1, SVG Export Plug-In . SVG Version: 6.00 Build 0)  -->
<svg version="1.1" id="Layer_1" xmlns="http://www.w3.org/2000/svg" xmlns:xlink="http://www.w3.org/1999/xlink" x="0px" y="0px"
	 width="144px" height="154px" viewBox="0 0 144 154" style="enable-background:new 0 0 144 154;" xml:space="preserve">
<style type="text/css">
	.st0{fill:#71B82F;}
	.st1{fill:#DFD91A;}
	.st2{fill:#373838;}
	.st3{fill:#61D31E;}
	.st4{fill:#E0D919;}
	.st5{fill:none;stroke:#61D31E;stroke-linecap:round;stroke-linejoin:round;stroke-miterlimit:10;}
	.st6{fill:none;stroke:#61D31E;stroke-width:2;stroke-linecap:round;stroke-linejoin:round;stroke-miterlimit:10;}
</style>
<path class="st5" d="M67.2364807,95.3038406c-5.4805031,0.6469955-15.1174011,1.4401932-29.3721008,1.4401932
	c-24.0289001,0-30.6555004-2.2546997-30.6555004-2.2546997c-1.0212998,0-1.8483-0.8269958-1.8483-1.8482971
	c0,0-1.8695998-7.0523987-1.8695998-23.1732025c0-16.1210976,1.8695998-22.3304977,1.8695998-22.3304977
	c0-1.0195007,0.8270001-1.8482018,1.8483-1.8482018c0,0,4.4950004-3.0958977,30.3506985-3.0958977
	c12.6738281,0,21.390686,0.7445107,26.9839935,1.5028076c1.8209915,0.2468719,3.3109055,0.4952087,4.4985046,0.7197914
	c4.9528046,0.9375,5.4965057,2.0674019,6.5,5.6479988c0.8130951,2.9010086,1.9639664,7.6708984,2.4949341,12.9952393
	c0.1801758,1.8067017,0.2889709,3.6772385,0.2889709,5.5602646c0,7.4516983-1.7039032,15.8855972-2.7929001,20.5140991
	C74.5296783,93.4003372,72.4532776,94.690834,67.2364807,95.3038406z"/>
<path class="st5" d="M5.4461908,46.4637375c0-1.0195007,0.8270001-1.8483009,1.848289-1.8483009
	c0,0,9.4318008-5.1598015,35.2876015-5.1598015"/>
<path class="st5" d="M46.2803802,89.2261353c0,0.6739044,0.5471001,1.222702,1.222599,1.222702h19.2380028
	c0.6737976,0,1.2227936-0.5487976,1.2227936-1.222702l0,0c0-0.6753998-0.548996-1.2225952-1.2227936-1.2225952H47.5029793
	C46.8274803,88.00354,46.2803802,88.5507355,46.2803802,89.2261353L46.2803802,89.2261353z"/>
<polyline class="st5" points="43.4469337,42.1842041 36.9200897,9.7797365 67.1707916,3.6842368 70.718277,21.3096809 "/>
<path class="st5" d="M68.5449829,29.1930676c-2.7335587,2.1943913-4.4091263,5.5130215-4.4057922,9.0517673
	c-0.0034866,0.0087013-0.0034866,0.0087013-0.0034866,0.0087013l-1.7894135,0.3600998
	c-1.7039032-2.5914001-5.3791008-3.9743996-9.243103-3.1939011c-4.1115379,0.8291245-6.1580544,3.6496124-6.1645241,6.8897362"/>
<path class="st5" d="M62.9200897,43.3092384l2.0870972-0.7157021c0,0,0,0,0.0037003-0.0036011"/>
<path class="st5" d="M45.1310883,11.6225367c2.2527008-0.4545002,4.4538994,1.0036001,4.9067001,3.2634001
	c0.4616013,2.2565002-1.0018005,4.4612007-3.2580872,4.9137993c-2.2547112,0.4510002-4.4628105-1.0086994-4.9173126-3.2668991
	C41.4203911,14.2765369,42.8711891,12.0753365,45.1310883,11.6225367z"/>
<path class="st5" d="M62.3480873,8.1507368c1.0817032-0.2139001,2.1226997,0.4883003,2.3436165,1.5630999
	c0.2138824,1.0798998-0.4777145,2.1296997-1.5577164,2.3453999c-1.0764999,0.2192001-2.1280975-0.4847002-2.3472862-1.5594997
	C60.5657005,9.423337,61.2679901,8.3735371,62.3480873,8.1507368z"/>
<polyline class="st5" points="64.8137207,43.6847267 64.9494934,43.1845703 76.0497971,2.294066 105.8285904,10.377882 
	101.1986008,27.434021 "/>
<path class="st5" d="M85.8892822,39.4556389c-0.3616486-3.0757027-3.0343323-5.9592285-6.835289-6.9896317
	c-4.7211761-1.2847004-8.1373749,1.1181831-9.1713791,4.9403191c-1.0388031,3.8181419,0.6952133,7.6154327,5.4199905,8.9004211
	c0.5416489,0.1467209,1.0827026,0.249485,1.6177292,0.3106766"/>
<path class="st5" d="M82.5752335,7.613924c2.2171707,0.6049776,3.5337753,2.8954258,2.9264526,5.1193314
	c-0.5964966,2.2229671-2.8937607,3.5355167-5.1123276,2.9304276c-2.2192001-0.5996237-3.5323181-2.8897924-2.9324875-5.1089802
	C78.0677185,8.3292732,80.3526382,7.0140295,82.5752335,7.613924z"/>
<path class="st5" d="M99.5272751,12.2135696c1.0580978,0.2940311,1.6862259,1.3832664,1.3913345,2.4521322
	c-0.2868118,1.0568724-1.3815002,1.687974-2.4402695,1.4010134c-1.0669403-0.2963448-1.6859055-1.3847456-1.3969269-2.4486675
	C97.3718719,12.5594606,98.4539108,11.9309578,99.5272751,12.2135696z"/>
<path class="st5" d="M83.8134689,70.0770645c1.0622253,0.2888412,1.6879807,1.3814011,1.3956451,2.4433441
	c-0.2854691,1.0641022-1.3782043,1.6919556-2.4405441,1.4047012c-1.0653381-0.2928009-1.6893616-1.3869247-1.3988647-2.4472122
	C81.6601562,70.4194107,82.7513123,69.7898331,83.8134689,70.0770645z"/>
<polyline class="st5" points="75.3217697,48.3038177 114.2667999,17.4657555 133.4200897,41.6576385 113.4987259,57.4342384 "/>
<path class="st5" d="M107.4198685,58.1420174l4.061882-3.2169647c-3.2931366-1.6565552-7.2130814-1.7150574-10.5095367-0.0265961
	c0,0,0,0-0.0012207-0.0072212l-1.1317825-1.4280319c1.5313797-2.6899071,1.086174-6.5948257-1.3554459-9.6851654
	c-3.0367203-3.8318253-7.2093506-3.9282265-10.321907-1.4759407c-3.0896301,2.4542236-3.9550323,6.5383606-0.9169159,10.374012
	c2.4453659,3.0887299,6.1422195,4.4130592,9.1165314,3.5337601l1.124176,1.4328423c0,0,0.0091553-0.0028801,0.0092926-0.0045738
	c-0.6281738,0.7472458-1.149559,1.5614014-1.5613403,2.420784"/>
<path class="st5" d="M116.0777969,25.8769989c1.4291229,1.8023739,1.1223984,4.4240532-0.6873016,5.8544121
	c-1.7920227,1.4351845-4.4257889,1.1240807-5.858223-0.682272c-1.4254684-1.8018799-1.1224289-4.4238548,0.6835785-5.8545094
	C112.0214767,23.7712669,114.6454468,24.0708542,116.0777969,25.8769989z"/>
<path class="st5" d="M126.9759598,39.6452065c0.6816864,0.86269,0.5386581,2.1134605-0.3280334,2.7987442
	c-0.8573532,0.6804085-2.1087112,0.5444527-2.7953033-0.3258514c-0.6798782-0.8663597-0.5294266-2.1183434,0.3243484-2.7991409
	C125.0450516,38.6375999,126.2939758,38.7823944,126.9759598,39.6452065z"/>
<polyline class="st5" points="78.0458984,63.1181145 78.9201736,62.9782028 136.542984,53.7566147 141.4200897,84.2287674 
	110.5446625,89.1637802 "/>
<path class="st5" d="M105.2945862,86.711235l10.8602829-1.7367706c-2.06427-3.0457611-5.446846-5.013649-9.143219-5.1630936
	c-0.0125046,0.0008087-0.0125046,0.0008087-0.0125046,0.0008087l-0.2865677-1.8038483
	c2.6546326-1.598526,4.1834259-5.2165985,3.5636902-9.1070099c-0.777565-4.8254013-4.3616409-6.9577026-8.2750244-6.3379173
	c-3.9086838,0.627388-6.6640015,3.7735176-5.8814926,8.6012154c0.6255417,3.8889694,3.2057724,6.8544769,6.2210083,7.5394363
	l0.2882156,1.8021698c0,0,0,0,0.0014954,0.00383c-1.7937317,0.6766281-3.3553543,1.7791138-4.5841904,3.1741714"/>
<path class="st5" d="M134.3697968,61.8897514c0.3670197,2.2697563-1.1813049,4.4111595-3.4593811,4.7703972
	c-2.2663574,0.3710098-4.4130859-1.1796646-4.7746887-3.4507904c-0.3596344-2.2743797,1.1870193-4.4160156,3.4639282-4.7807655
	C131.8677216,58.0811958,134.0103149,59.6133804,134.3697968,61.8897514z"/>
<path class="st5" d="M137.151947,79.2309875c0.1699677,1.0916595-0.5725861,2.1032944-1.6541138,2.2795944
	c-1.0953979,0.1714783-2.1116333-0.5573959-2.2890167-1.6479416c-0.1721954-1.0865173,0.5746155-2.1049423,1.6548615-2.2864609
	C135.9523926,77.4004593,136.9746094,78.1422501,137.151947,79.2309875z"/>
<polyline class="st5" points="77.9189682,75.8062668 135.1700897,99.4067383 123.4069901,127.9342346 91.9216385,114.9562988 "/>
<path class="st5" d="M88.0424118,109.8478165l13.4297791,5.5354233c-0.1620026-3.6823044-2.0229034-7.1328049-5.1080017-9.1860046
	c0,0,0,0,0.007103-0.0033951l0.6951981-1.686203c3.0922012,0.0268021,6.2843018-2.2705994,7.7887039-5.9117966
	c1.8605957-4.5181046-0.0927048-8.2075043-3.7517929-9.7260056c-3.6520004-1.4989014-7.6354141-0.2602005-9.503212,4.2631989
	c-1.4989014,3.6412048-0.850296,7.5160065,1.3689041,9.6833038l-0.7005005,1.6807022c0,0,0.0070953,0.0052948,0.0088959,0.0052948
	c-2.5804977-0.4938889-5.2064438-0.0756302-7.4823914,1.0948181"/>
<path class="st5" d="M129.0675964,105.2152405c-0.8769073,2.1244965-3.3133087,3.1368942-5.4449081,2.2580948
	c-2.1281967-0.8661957-3.1421967-3.3149948-2.2670975-5.4464951c0.8786011-2.1246033,3.3151016-3.1423035,5.4468155-2.2637024
	C128.9248962,100.6454391,129.944397,103.08004,129.0675964,105.2152405z"/>
<path class="st5" d="M122.373291,121.44664c-0.4225006,1.0158005-1.5808868,1.5005951-2.6022034,1.0800934
	c-1.0158005-0.4169998-1.5078964-1.5755997-1.080101-2.5986938c0.4225006-1.0177002,1.5864182-1.4988022,2.5969009-1.0854034
	C122.3108902,119.2704391,122.7939911,120.4271393,122.373291,121.44664z"/>
<polyline class="st5" points="74.0950699,92.5593338 105.7950897,132.6763306 81.5807877,151.8092346 38.1731186,96.8505325 "/>
<path class="st5" d="M68.6362,119.6227341c-0.0018082-0.0071945-0.0018082-0.0071945-0.0018082-0.0071945l1.4328079-1.1334991
	c2.6895905,1.5399933,6.5963898,1.1031952,9.6868896-1.3348999c3.8336029-3.0334015,3.9423981-7.2022018,1.4916992-10.3160019
	c-2.4560013-3.1030045-6.5463943-3.9744034-10.3764954-0.9356995c-3.0904999,2.4453964-4.4183044,6.145401-3.5450058,9.1110992
	l-1.4329987,1.1316986c0,0,0,0-0.0017014,0.0037003c-2.8391953-2.3936005-6.6497955-3.2454987-10.226696-2.3917999
	l12.9356956,16.3721924C70.2489929,126.8357391,70.3132935,122.9217377,68.6362,119.6227341z"/>
<path class="st5" d="M97.6375885,134.7490387c-1.8036957,1.4293976-4.4253845,1.1246033-5.8547974-0.6878052
	c-1.4293976-1.7966003-1.1230011-4.4272919,0.6826019-5.8531952c1.8089981-1.4223022,4.4343948-1.1210022,5.8619003,0.6898041
	C99.7406921,130.7069397,99.4484863,133.3267365,97.6375885,134.7490387z"/>
<path class="st5" d="M83.8604889,145.6441345c-0.8697968,0.6844025-2.1138992,0.5276947-2.7982864-0.3331909
	c-0.6844101-0.8680115-0.5435104-2.1138,0.3225861-2.8000031c0.8627014-0.6808014,2.1175003-0.5257111,2.8019028,0.3278961
	C84.8726883,143.7050323,84.7230911,144.9581299,83.8604889,145.6441345z"/>
<path class="st5" d="M47.4348679,96.8094254c0.0736313,0.6603088-0.185215,1.3430557-0.7476654,1.7875137
	c-0.8591118,0.6791992-2.1209984,0.5382996-2.8019104-0.3208008c-0.2814713-0.3631973-0.4202652-0.7914047-0.4239845-1.2170181"/>
</svg>
