<?xml version="1.0" encoding="utf-8"?>
<!-- Generator: Adobe Illustrator 19.0.1, SVG Export Plug-In . SVG Version: 6.00 Build 0)  -->
<svg version="1.1" id="Layer_1" xmlns="http://www.w3.org/2000/svg" xmlns:xlink="http://www.w3.org/1999/xlink" x="0px" y="0px"
	 width="98px" height="93px" viewBox="0 0 98 93" style="enable-background:new 0 0 98 93;" xml:space="preserve">
<style type="text/css">
	.st0{fill:#71B82F;}
	.st1{fill:#DFD91A;}
	.st2{fill:#373838;}
	.st3{fill:#61D31E;}
	.st4{fill:#E0D919;}
	.st5{fill:none;stroke:#61D31E;stroke-linecap:round;stroke-linejoin:round;stroke-miterlimit:10;}
	.st6{fill:none;stroke:#61D31E;stroke-width:2;stroke-linecap:round;stroke-linejoin:round;stroke-miterlimit:10;}
</style>
<g>
	<path class="st2" d="M55.2362518,31.9921265v1c1.9475403,0,3.541687,1.5186157,3.5535889,3.3789062l0.0000305,7.5431213
		c0.0124512,1.9458008-1.5833435,3.5999451-3.4782715,3.6120911H42.4086151c-0.2269897,0-0.4472656,0.07724-0.6245728,0.2190247
		l-4.5128174,3.6090393l-0.0870361,0.0783997c-0.1049194,0.1062622-0.2355347,0.1601562-0.3881836,0.1601562
		c-0.2443848,0-0.6070557-0.1678162-0.609375-0.521637V36.5217285c-0.0059814-0.9317932,0.3545532-1.8134766,1.0151978-2.482605
		c0.6606445-0.6691589,1.5375977-1.0409546,2.4630127-1.0469055l15.5476685-0.0000305L55.2362518,31.9921265 M55.2362518,31.9921265
		l-0.0305481,0.0000916h-15.540863c-2.4788818,0.0158691-4.4940796,2.0570374-4.4782104,4.5359192V51.071228
		c0.0058594,0.9175415,0.7995605,1.521637,1.609375,1.521637c0.3919678,0,0.7877197-0.14151,1.0997925-0.4575806
		l4.5128174-3.6090393h12.9029846c2.4788818-0.0158691,4.4941101-2.1395874,4.478241-4.6184998v-7.5367126
		C59.7740631,33.9024048,57.7016144,31.9921265,55.2362518,31.9921265z"/>
	<path class="st2" d="M15.5367908,47.6699829v1c1.3425293,0,2.4414062,1.0423584,2.449585,2.3171997v5.7157593
		c0.008606,1.3425903-1.0899658,2.4839172-2.3924561,2.4922791H5.8194442c-0.2269897,0-0.4472656,0.07724-0.6245728,0.2190247
		l-3.4187012,2.7340088l-0.0870361,0.0783691l-0.121521,0.0492554c-0.0559082,0-0.2184448-0.0391846-0.2191772-0.1527405V51.0997925
		c-0.0041504-0.6411133,0.2442017-1.2479553,0.6991576-1.7088013c0.4549561-0.4608154,1.0585938-0.7168579,1.6932983-0.7209473
		l11.7792358-0.0000305L15.5367908,47.6699829 M15.5367908,47.6699829l-0.0230713,0.000061H3.7408919
		c-1.8778685,0.0120239-3.40448,1.5582886-3.3924561,3.4361572v11.0169373c0.0044556,0.6950684,0.6057129,1.15271,1.2191772,1.15271
		c0.296936,0,0.5967406-0.1072083,0.8331298-0.3466187l3.4187012-2.7340088h9.7744751
		c1.8778687-0.0120239,3.40448-1.6208191,3.3924561-3.4986877v-5.7093506
		C18.9744129,49.1170959,17.4044056,47.6699829,15.5367908,47.6699829z"/>
	<path class="st2" d="M24.432848,8.543396v1c0.4663696,0,0.8480225,0.3526306,0.850769,0.7797546v3.0696411
		c0.0014648,0.2236023-0.0897217,0.4473572-0.250061,0.6138611c-0.1582642,0.1643066-0.3629761,0.2555237-0.5700684,0.2568665
		h-5.2443237c-0.2270508,0-0.4472656,0.07724-0.6245728,0.2190247l-1.31073,1.0482788v-5.1502075
		c-0.0014038-0.2201843,0.0842896-0.4290771,0.2414551-0.5882263c0.1571045-0.1591492,0.3648682-0.2475586,0.5786743-0.2489624
		L24.42766,9.543396L24.432848,8.543396 M24.432848,8.543396l-0.0123901,0.0000305h-6.3164673
		c-1.0075073,0.0064392-1.8265991,0.8360596-1.8201294,1.8435974v5.9108887
		c0.0023804,0.3729248,0.3250122,0.6184692,0.6541138,0.6184692c0.1593628,0,0.3201904-0.0575256,0.4470215-0.1859741
		l1.8341675-1.4668884h5.2443237c1.0075073-0.0064392,1.8265991-0.8695984,1.8201294-1.8771362v-3.0632324
		C26.2772083,9.3197937,25.4348621,8.543396,24.432848,8.543396z"/>
	<path class="st2" d="M26.5632801,77.7615967v1c0.3914795,0,0.711853,0.2937012,0.7141113,0.648407v2.8435669
		c0.0012207,0.1880188-0.0756836,0.3764038-0.2109985,0.5169067c-0.0767822,0.0797424-0.2414551,0.2137756-0.4747925,0.215271
		h-4.8572388c-0.2269897,0-0.4472656,0.07724-0.6245728,0.2190247l-1.0941162,0.875V79.462738
		c-0.0024414-0.3776245,0.3145752-0.6987,0.685791-0.7011108h5.8556519L26.5632801,77.7615967 M26.5632801,77.7615967
		l-0.0115356,0.0000305h-5.8502808c-0.9331665,0.0059814-1.6917725,0.774353-1.685791,1.7075195v5.4746399
		c0.0021973,0.3453979,0.3010254,0.5728455,0.605835,0.5728455c0.147583,0,0.2965698-0.0532837,0.4140015-0.1722717
		l1.6988525-1.3586121h4.8572388c0.9331665-0.0059509,1.6917725-0.8054199,1.685791-1.7385864v-2.8371582
		C28.271471,78.4807129,27.4913807,77.7615967,26.5632801,77.7615967z"/>
	<path class="st2" d="M65.8040314,4.0592346v1c0.4663391,0,0.8480225,0.3526611,0.850769,0.7797546l0.0000305,3.0696716
		c0.0014343,0.2235718-0.0897522,0.4473267-0.2501526,0.6138611c-0.1582031,0.1643066-0.362915,0.2555237-0.5700378,0.2568665
		h-5.2442932c-0.2270203,0-0.4472656,0.07724-0.6245422,0.2190247l-1.310791,1.0482483l-0.0000305-5.150177
		c-0.0029297-0.4587402,0.3678894-0.8343201,0.8201904-0.8372192l6.3236084-0.0000305L65.8040314,4.0592346 M65.8040314,4.0592346
		l-0.0124207,0.0000305H59.475174c-1.0075378,0.0064392-1.8265991,0.8360596-1.8201599,1.8435974v5.9109192
		c0.0023804,0.3729248,0.3249512,0.6184387,0.6541138,0.6184387c0.1593018,0,0.3201599-0.0575256,0.446991-0.1859741
		l1.8342285-1.4668579h5.2442932c1.0075378-0.0064392,1.8265991-0.8696289,1.8201599-1.8771362V5.8389893
		C67.6483612,4.8356628,66.806015,4.0592346,65.8040314,4.0592346z"/>
	<path class="st2" d="M2.0799422,35.3944397l0.0101318,1.0000305l5.1375732-0.0000305
		c0.1751099,0.0011292,0.291687,0.092926,0.3456421,0.1475525c0.053894,0.0546265,0.1442261,0.1724243,0.1430664,0.3538513
		v3.8029175l-0.7658691-0.6125183c-0.1773071-0.1417847-0.397522-0.2190247-0.6245728-0.2190247l-4.2644653,0.0000305
		c-0.2621459-0.001709-0.4904784-0.2457886-0.4887084-0.5287476v-2.4882507
		c0.0015869-0.2513123,0.229187-0.45578,0.5072631-0.4558105L2.0799422,35.3944397 M2.0799422,35.3944397
		c-0.8159789,0.000061-1.501953,0.6323242-1.507202,1.4494019v2.4946594c-0.005249,0.8205261,0.6618042,1.523468,1.4822997,1.528717
		h4.270874l1.4937134,1.1945801c0.1033325,0.1046143,0.2343144,0.1514587,0.3640752,0.1514587
		c0.2680054,0,0.5307007-0.1999512,0.5326538-0.5036621v-4.8137512c0.005249-0.8204956-0.6617432-1.4961243-1.4823003-1.5013733
		H2.0900741L2.0799422,35.3944397z"/>
	<path class="st2" d="M87.7155304,54.4086609l0.0101013,1.0000305l5.1376038-0.0000305
		c0.1750183,0.0011292,0.2916565,0.0929565,0.3455811,0.1475525c0.0539246,0.054657,0.1442261,0.1724243,0.1430969,0.3538513
		l0.0000305,3.8029175l-0.7659302-0.6125183c-0.1773071-0.1417847-0.3975525-0.2190247-0.6245728-0.2190247l-4.2644653,0.0000305
		c-0.1665344-0.0010681-0.2825928-0.0959167-0.3369446-0.1523743c-0.0973206-0.1010437-0.1526489-0.2359009-0.1517639-0.3763733
		l-0.0000305-2.4882507c0.0016174-0.2513123,0.2292175-0.45578,0.5073547-0.4558105L87.7155304,54.4086609 M87.7155304,54.4086609
		c-0.8160706,0.000061-1.5020447,0.6323242-1.5072632,1.4494019v2.4946594
		c-0.005249,0.8204956,0.6618042,1.523468,1.4822998,1.528717h4.270874l1.4937439,1.1945801
		c0.103302,0.1046143,0.2342834,0.1514587,0.3640442,0.1514587c0.2680359,0,0.5307617-0.1999512,0.5326843-0.5036621v-4.8137512
		c0.005249-0.8204956-0.6617737-1.4961243-1.4822998-1.5013733h-5.1439819L87.7155304,54.4086609z"/>
	<path class="st2" d="M33.587265,85.5313721l0.0101318,1.0000305l5.1375732-0.0000305
		c0.1750488,0.0011292,0.291687,0.0929565,0.3455811,0.147583c0.0539551,0.0546265,0.1442871,0.1723938,0.1431274,0.3538513
		v3.802887l-0.7659302-0.6125183c-0.1773071-0.1417847-0.397583-0.2190247-0.6245728-0.2190247l-4.2644653,0.0000305
		c-0.262146-0.001709-0.4904785-0.2457886-0.4887085-0.5287476v-2.4882202
		c0.0015869-0.2513428,0.229187-0.4558105,0.5073242-0.4558411L33.587265,85.5313721 M33.587265,85.5313721
		c-0.81604,0.000061-1.5020142,0.6323242-1.5072632,1.4494324v2.4946289c-0.005249,0.8205261,0.6618042,1.523468,1.4822998,1.528717
		h4.270874l1.4937744,1.1945801c0.1032715,0.1046143,0.2342529,0.1514587,0.3640137,0.1514587
		c0.2680664,0,0.5307617-0.1999512,0.5327148-0.5036621v-4.8137207c0.005249-0.8205261-0.6618042-1.4961548-1.4822998-1.5014038
		h-5.1439819L33.587265,85.5313721z"/>
	<path class="st2" d="M46.7935028,80.1748962l0.015686,1.000061l7.9641113-0.0000305
		c0.7232361,0.0046387,1.3078613,0.5967712,1.3032227,1.3263855l0.0000305,7.0355835l-2.0794983-1.6630249
		c-0.1773071-0.1417847-0.397583-0.2190247-0.6245728-0.2190247l-6.6112061,0.0000305
		c-0.3405762-0.0021667-0.6652832-0.1457825-0.9143677-0.4043579c-0.2529907-0.2626953-0.3911133-0.6029053-0.3887939-0.9643555
		V82.427124c0.0043945-0.6904297,0.6034546-1.2521973,1.3354492-1.2522278L46.7935028,80.1748962 M46.7935028,80.1748962
		c-1.2644043,0.000061-2.3273315,0.9797668-2.3353882,2.2458496v3.8654175
		c-0.0081787,1.2713623,1.0253906,2.3605652,2.2967529,2.3686829h6.6176147l2.3145752,1.8510132
		c0.1600342,0.1621094,0.3630066,0.2346802,0.5640564,0.2346802c0.4153137,0,0.8223877-0.309845,0.8254089-0.780426v-7.4588013
		c0.0081177-1.2713623-1.0254211-2.3182373-2.296814-2.326355h-7.97052L46.7935028,80.1748962z"/>
	<path class="st2" d="M52.0081024,0.6498108v1c0.2780762,0,0.5056763,0.2044983,0.5072632,0.4494324v2.5010376
		c0.00177,0.2765503-0.2265625,0.5206299-0.4822998,0.5223083h-4.270874c-0.2269897,0-0.4472656,0.07724-0.6245728,0.2190247
		l-0.7659302,0.6125183V2.1448364c-0.0011597-0.1750488,0.0891724-0.2928162,0.1431274-0.3474426
		c0.053894-0.0546265,0.1705322-0.1464539,0.3391724-0.1475525L52.00383,1.6498108L52.0081024,0.6498108 M52.0081024,0.6498108
		l-0.0101318,0.0000305h-5.1439819c-0.8204956,0.005249-1.4875488,0.6808777-1.4822998,1.5014038v4.8137207
		c0.0019531,0.3037109,0.2646484,0.5036621,0.5327148,0.5036621c0.1297607,0,0.2607422-0.0468445,0.3640137-0.1514587
		l1.4937744-1.1945801h4.270874c0.8204956-0.005249,1.4875488-0.7081909,1.4822998-1.528717V2.0992432
		C53.5101166,1.282135,52.8241425,0.6498108,52.0081024,0.6498108z"/>
	<path class="st2" d="M23.8132801,36.7405396v1c0.2780762,0,0.5056763,0.2044678,0.5072632,0.4494019v2.5010681
		c0.0008545,0.1340637-0.0544434,0.2688904-0.1517334,0.3699341c-0.0543823,0.0564575-0.1704712,0.1512756-0.3305664,0.1523438
		h-4.270874c-0.2269897,0-0.4472656,0.07724-0.6245728,0.2190247l-0.7659302,0.6125488v-3.8093262
		c-0.0011597-0.1750183,0.0891724-0.2927856,0.1431274-0.3474426c0.053894-0.0545959,0.1705322-0.1464233,0.3391724-0.147522
		l5.1498413-0.0000305L23.8132801,36.7405396 M23.8132801,36.7405396l-0.0101318,0.0000305h-5.1439819
		c-0.8204956,0.005249-1.4875488,0.6808472-1.4822998,1.5013733v4.8137512
		c0.0019531,0.3037109,0.2646484,0.5036621,0.5327148,0.5036621c0.1297607,0,0.2607422-0.0468445,0.3640137-0.1514587
		l1.4937744-1.1946106h4.270874c0.8204956-0.005249,1.4875488-0.7081909,1.4822998-1.5286865v-2.4946594
		C25.3152943,37.3728333,24.6293201,36.7405396,23.8132801,36.7405396z"/>
	<path class="st2" d="M73.0222015,80.1802673v1c0.7485046,0,1.361145,0.5747681,1.3656311,1.2748718l0.0000305,3.9217834
		c0.0023193,0.3629761-0.138855,0.7108154-0.397522,0.9793701c-0.2546997,0.2644653-0.5868835,0.4113464-0.9289856,0.4135437
		h-6.7031555c-0.2270203,0-0.4472656,0.07724-0.6245422,0.2190247l-2.1273499,1.7012634l-0.0000305-7.1597595
		c-0.0022583-0.3557434,0.1358337-0.6927795,0.388855-0.9490967c0.2530518-0.2562866,0.5883179-0.3986816,0.9376526-0.4009399
		l8.0791626-0.0000305L73.0222015,80.1802673 M73.0222015,80.1802673l-0.0158691,0.000061H64.932785
		c-1.2878113,0.0082397-2.3347168,1.068634-2.3264771,2.3564453V90.09198
		c0.0030518,0.4766541,0.4153748,0.7904968,0.8360596,0.7904968c0.2036438,0,0.4092407-0.0735168,0.5713501-0.2377319
		l2.3444824-1.8749084h6.7031555c1.2877808-0.0082397,2.3347168-1.1115417,2.3264771-2.3993225v-3.9153748
		C75.3796234,81.1726685,74.3029938,80.1802673,73.0222015,80.1802673z"/>
	<path class="st2" d="M96.1443634,42.2132568v1c0.2781067,0,0.5056763,0.2044983,0.5072632,0.4494324l0.0000305,2.5010376
		c0.00177,0.2765503-0.2266235,0.5206299-0.4823303,0.5223083h-4.270874c-0.2270203,0-0.4472961,0.07724-0.6245728,0.2190247
		l-0.7658997,0.6125183l-0.0000305-3.8092957c-0.0010986-0.1750488,0.0892029-0.2928162,0.1431274-0.3474731
		c0.0539551-0.0545959,0.1705627-0.1464233,0.3392029-0.147522l5.1498413-0.0000305L96.1443634,42.2132568 M96.1443634,42.2132568
		l-0.0101013,0.0000305h-5.1439819c-0.8205261,0.005249-1.4875488,0.6808777-1.4822998,1.5014038v4.8137512
		c0.0019226,0.3036804,0.2646484,0.5036621,0.5326843,0.5036621c0.1297607,0,0.2607422-0.0468445,0.3640442-0.1514587
		l1.4937439-1.1946106h4.270874c0.8204956-0.005249,1.4875488-0.7081909,1.4822998-1.528717v-2.4946289
		C97.6464081,42.8455811,96.960434,42.2132568,96.1443634,42.2132568z"/>
	<path class="st2" d="M19.7414417,63.0601501v1c0.2780762,0,0.5056152,0.2044678,0.5072021,0.4494019v2.5010681
		c0.0008545,0.1340942-0.0544434,0.2689209-0.1517334,0.3699646c-0.0543823,0.0564575-0.1704102,0.1512756-0.3305664,0.1523438
		h-4.270813c-0.2269897,0-0.4472656,0.07724-0.6245728,0.2190247l-0.7659302,0.6125488v-3.8093567
		c-0.0011597-0.1750183,0.0891724-0.2927856,0.1431274-0.3474121c0.053894-0.0546265,0.1705322-0.1464539,0.3391724-0.1475525
		l5.1498413-0.0000305L19.7414417,63.0601501 M19.7414417,63.0601501l-0.0101318,0.0000305H14.587328
		c-0.8204956,0.005249-1.4875488,0.6808777-1.4822998,1.5013733v4.8137512
		c0.0019531,0.3037109,0.2646484,0.5036621,0.5327148,0.5036621c0.1297607,0,0.2607422-0.0468445,0.3640137-0.1514587
		l1.4937744-1.1945801h4.270813c0.8205566-0.005249,1.4875488-0.7082214,1.4822998-1.528717V64.509552
		C21.2433949,63.6924744,20.5574207,63.0601501,19.7414417,63.0601501z"/>
	<path class="st2" d="M90.9027863,29.1534119v1c0.9640808,0,1.7532043,0.7445068,1.7590332,1.6531982l0.0000305,4.572937
		c0.0029907,0.4670105-0.1781921,0.914032-0.5101318,1.2586975c-0.3283997,0.3409729-0.7580261,0.530365-1.2032776,0.5332336
		h-7.8179321c-0.2270203,0-0.4472961,0.07724-0.6245728,0.2190247L79.7715912,40.57724l-0.0169373,0.0147705l-0.0000305-8.6966248
		c-0.0029297-0.4592896,0.1751709-0.8942871,0.5014954-1.224823c0.3263245-0.3305054,0.7590027-0.5141602,1.2119141-0.5170898
		l9.4226685-0.0000305L90.9027863,29.1534119 M90.9027863,29.1534119l-0.0185242,0.000061h-9.4162292
		c-1.5019531,0.009613-2.7229919,1.2463684-2.7133789,2.7483215v8.811676
		c0.0035706,0.5559387,0.4844666,0.9219971,0.9751587,0.9219971c0.2374878,0,0.4772644-0.0857544,0.6663513-0.2772522
		l2.7343445-2.1867371h7.8179321c1.5019836-0.009613,2.7229919-1.2963867,2.7133789-2.7983398v-4.5665283
		C93.6522369,30.3108521,92.3965912,29.1534119,90.9027863,29.1534119z"/>
	<path class="st2" d="M71.1225128,13.9659119l0.0168152,1.0000305l8.5489807-0.0000305
		c0.8167725,0.005249,1.4769897,0.6739502,1.4717407,1.4971008l0.0000305,7.7044678l-2.3512573-1.8803711
		c-0.1773071-0.1417847-0.3975525-0.2190247-0.6245728-0.2190247l-7.0968018,0.0000305
		c-0.8030701-0.0051575-1.4770508-0.7086182-1.4717407-1.5425415l-0.0000305-4.1426697
		c0.0050049-0.7812805,0.6809998-1.4169617,1.506897-1.4169922L71.1225128,13.9659119 M71.1225128,13.9658813
		c-1.3572083,0.0000916-2.4981079,1.0516357-2.5068054,2.4106445v4.1490479
		c-0.008728,1.3646545,1.100647,2.533783,2.465332,2.542511h7.1032104l2.484375,1.9868164
		c0.1717834,0.1739807,0.3896484,0.2519226,0.6054688,0.2519226c0.4458008,0,0.8827209-0.3325806,0.8859558-0.8377075v-8.0061035
		c0.008728-1.3646545-1.1006775-2.4883423-2.465332-2.4970703H71.139328L71.1225128,13.9658813z"/>
	<path class="st2" d="M33.7175751,7.9532776l0.0109863,1.0000305l5.5772095-0.0000305
		c0.3356934,0.0021667,0.6174927,0.2875977,0.6153564,0.6296997v4.3056946l-0.9702148-0.7759399
		c-0.1773071-0.1417847-0.397583-0.2190247-0.6245728-0.2190247h-4.6293945
		c-0.3300171-0.0021057-0.6176147-0.3072205-0.6153564-0.6593628v-2.701416
		c0.0020142-0.3196106,0.2873535-0.5796509,0.6360474-0.5796509L33.7175751,7.9532776 M33.7175751,7.9532776
		c-0.8858032,0.0000305-1.6303101,0.6863403-1.6359863,1.5732727v2.7077942
		c-0.0056763,0.890625,0.7183228,1.653656,1.6089478,1.6593628h4.6358032l1.6213989,1.2966614
		c0.1121216,0.1135559,0.2543335,0.1643982,0.3951416,0.1643982c0.2909546,0,0.5761108-0.217041,0.5782471-0.5466919V9.5829773
		c0.0056763-0.890625-0.7183228-1.6239624-1.6089478-1.6296692h-5.5836182L33.7175751,7.9532776z"/>
	<path class="st2" d="M8.6419544,18.4584045l0.0205688,1.000061l10.4603271-0.0000305
		c1.1223755,0.0072021,2.0296631,0.926178,2.0224609,2.0549622l0.0033569,9.7849731l-0.0814819,0.0266418l-0.0348511-0.0028076
		l-0.0870361-0.0783997l-3.0394287-2.4306946c-0.1773071-0.1417847-0.397583-0.2190247-0.6245728-0.2190247l-8.6837158,0.0000305
		c-1.1035771-0.0070801-2.0297246-0.9706421-2.0224614-2.1105652v-5.0695496
		c0.006897-1.0782471,0.934082-1.9555359,2.066895-1.9555969L8.6419544,18.4584045 M8.6419544,18.4584045
		c-1.6604619,0.0000916-3.0562139,1.2865601-3.066834,2.9491882v5.0759583
		c-0.0106812,1.6695251,1.3465576,3.0998535,3.0160527,3.1105347h8.6901245l3.0394287,2.4306946
		c0.210144,0.2128601,0.4766846,0.308197,0.7407227,0.308197c0.5454102,0,1.079895-0.4068909,1.0838623-1.0248413v-9.7947388
		c0.0106812-1.6695251-1.3465576-3.0442505-3.0160522-3.0549316H8.6625233L8.6419544,18.4584045z"/>
	<path class="st2" d="M76.9213104,66.1993103l0.0155945,1.000061l7.9343872-0.0000305
		c0.7184753,0.0046082,1.2992554,0.592865,1.2946167,1.3177185l0.0000305,7.0015564l-2.0656433-1.651947
		c-0.1773071-0.1417847-0.3975525-0.2190247-0.6245728-0.2190247l-6.5865173,0.0000305
		c-0.3383179-0.0021973-0.6608582-0.1448364-0.9082642-0.4017334c-0.2514038-0.2610168-0.3886414-0.5990295-0.3863525-0.9581604
		l-0.0000305-3.8446045c0.0043945-0.685791,0.5996094-1.2438049,1.3268127-1.243866L76.9213104,66.1993103 M76.9213104,66.1993103
		c-1.2597046,0.0000916-2.3186646,0.9761047-2.3267212,2.2374878v3.8509827
		c-0.0081177,1.2666016,1.0215759,2.3517456,2.288208,2.3598633h6.592926l2.3059082,1.8440857
		c0.1594543,0.161499,0.3616638,0.2338257,0.5619507,0.2338257c0.4137878,0,0.8193359-0.3086853,0.8223267-0.7775269v-7.4309692
		c0.0081177-1.2666321-1.0215759-2.3095703-2.288208-2.317688h-7.9407959L76.9213104,66.1993103z"/>
	<path class="st2" d="M73.4702911,46.4771423l0.0168762,1.000061l8.5489807-0.0000305
		c0.3929138,0.002533,0.7631531,0.159729,1.0424805,0.4426575c0.2793579,0.2829285,0.4317932,0.6551514,0.4292603,1.0544434
		l0.0000305,7.7044678l-2.3512573-1.8803711c-0.1773071-0.1417847-0.3975525-0.2190247-0.6245728-0.2190247l-7.0968018,0.0000305
		c-0.8030701-0.0051575-1.4770508-0.7086182-1.4717407-1.542572l-0.0000305-4.1426392
		c0.0050049-0.781311,0.6809387-1.4169922,1.5068054-1.4170227L73.4702911,46.4771423 M73.4702911,46.4771423
		c-1.3572083,0.000061-2.4980469,1.0516052-2.5067444,2.4106445v4.1490173
		c-0.008728,1.3646851,1.1006775,2.5338135,2.465332,2.5425415h7.1032104l2.484375,1.9868164
		c0.1717834,0.1740112,0.3896484,0.2519226,0.6054382,0.2519226c0.4458008,0,0.8827515-0.3326111,0.8859863-0.8377075v-8.0061035
		c0.008728-1.3646545-1.100647-2.4883423-2.465332-2.4970703h-8.5553894L73.4702911,46.4771423z"/>
	<path class="st2" d="M62.4882355,74.1363525v-0.5H32.488205c-0.6871319-0.0001526-1.3098125-0.2801208-1.7651958-0.7348328
		c-0.4547119-0.4553833-0.7346802-1.0780334-0.7348633-1.7651672v-48.5
		c0.0001831-0.6871643,0.2801514-1.3098145,0.7348633-1.7652283c0.4553833-0.4546814,1.078064-0.7346497,1.7651958-0.7348022
		h30.0000305c0.6871338,0.0001526,1.3097839,0.2801208,1.7651672,0.7348022
		c0.4547119,0.4554138,0.7346802,1.078064,0.7348328,1.7652283v48.5c-0.0001526,0.6871338-0.2801208,1.3097839-0.7348328,1.7651672
		c-0.4553833,0.4547119-1.0780334,0.7346802-1.7651672,0.7348328V74.1363525v0.4999695
		c1.9283142-0.0018921,3.4980774-1.5716553,3.4999695-3.4999695v-48.5c-0.0018921-1.9283752-1.5716553-3.4981079-3.4999695-3.5
		H32.488205c-1.9283428,0.0018921-3.498106,1.5716248-3.4999981,3.5v48.5
		c0.0018921,1.9283142,1.5716553,3.4980774,3.4999981,3.4999695h30.0000305V74.1363525z"/>
	<path class="st2" d="M32.321579,66.9695435h30.333313c0.276123,0,0.5-0.223877,0.5-0.5c0-0.2761536-0.223877-0.5-0.5-0.5H32.321579
		c-0.2761841,0-0.4999981,0.2238464-0.4999981,0.5C31.8215809,66.7456665,32.0453949,66.9695435,32.321579,66.9695435"/>
	<path class="st2" d="M32.321579,24.803009h30.333313c0.276123,0,0.5-0.223877,0.5-0.5c0-0.2761536-0.223877-0.5-0.5-0.5H32.321579
		c-0.2761841,0-0.4999981,0.2238464-0.4999981,0.5C31.8215809,24.5791321,32.0453949,24.803009,32.321579,24.803009"/>
	<circle class="st2" cx="47.488205" cy="70.053009" r="2"/>
</g>
</svg>
