<?xml version="1.0" encoding="utf-8"?>
<!-- Generator: Adobe Illustrator 19.0.1, SVG Export Plug-In . SVG Version: 6.00 Build 0)  -->
<svg version="1.1" id="Layer_1" xmlns="http://www.w3.org/2000/svg" xmlns:xlink="http://www.w3.org/1999/xlink" x="0px" y="0px"
	 width="135px" height="135px" viewBox="0 0 135 135" style="enable-background:new 0 0 135 135;" xml:space="preserve">
<style type="text/css">
	.st0{fill:#71B82F;}
	.st1{fill:#DFD91A;}
	.st2{fill:#373838;}
</style>
<g>
	<path class="st2" d="M30.5910625,68.6375961h-0.0001221l0.0601807,0.0004044l17.0952129,0.1066971
		c1.0522461,0.013298,2.039917,0.4392395,2.7810059,1.1993484c0.7410889,0.7601013,1.1419678,1.7581711,1.12854,2.8167648
		l-0.0997314,15.9973526c-0.0059814,0.4663162-0.4541016,0.6760712-0.7703857,0.6760712
		c-0.197876,0-0.3669434-0.0703888-0.5021973-0.2092133l-0.0866699-0.0789719l-4.9414062-4.0025406
		c-0.1763916-0.1428909-0.3961182-0.2214966-0.6231689-0.2229156l-14.1923809-0.0885925
		c-2.1467285-0.0271301-3.9368896-1.9049683-3.9090576-4.1069336l0.0517578-8.2873154
		C26.609129,70.3425217,28.4072247,68.6377792,30.5910625,68.6375961 M30.5909405,67.6375961
		c-2.6986084,0.0002213-4.973999,2.0820847-5.0081787,4.787529l-0.0518799,8.2936859
		c-0.0344238,2.7277527,2.1685791,5.0786285,4.8963623,5.1131134l14.1988506,0.0886459l4.9414062,4.0025406
		c0.3442383,0.3530121,0.7832031,0.5111237,1.2182617,0.5111237c0.887207,0,1.7575684-0.6581116,1.7702637-1.6634521
		L52.65588,72.7670517c0.0345459-2.7277756-2.1690674-4.9877853-4.8968506-5.0222702l-17.1016827-0.1067657L30.5909405,67.6375961z"
		/>
	<path class="st2" d="M85.0546265,85.8236847l17.1052246,0.1067581c2.2128296,0,4.0134277,1.7272263,4.0137329,3.8438492
		l-0.0518188,8.3000793c0.0003662,2.1957703-1.8130493,4.0511017-3.9534912,4.0514526l-14.1989136-0.0886383l-0.0062256-0.0000229
		c-0.2247925,0-0.4431152,0.0757675-0.6196899,0.2151413l-4.9909058,3.9405289l-0.0875244,0.0778275
		c-0.1346436,0.1347351-0.3012695,0.2030487-0.4949951,0.2030487c-0.3111572,0-0.7716064-0.2179337-0.7717285-0.6793365
		l0.0998535-16.0101013C81.0979004,87.6016693,82.8723755,85.8255463,85.0546265,85.8236847 M85.057373,84.8236847
		c-2.7280273,0.0004196-4.9595947,2.2327499-4.9592285,4.9607239l-0.0998535,16.0037231
		c0.0001221,1.0139313,0.876709,1.685585,1.7717285,1.685585c0.4277344,0,0.8596191-0.1533432,1.2022095-0.4960251
		l4.9909058-3.9405289l14.1989136,0.0886459c2.7279663-0.0004272,4.960144-2.3236084,4.9597168-5.05159l0.0518188-8.2936707
		c-0.0004272-2.7276459-2.2861328-4.8501053-5.0137329-4.8501053h-0.0007935L85.057373,84.8236847z"/>
	<path class="st2" d="M78.5605469,28.5262833l23.90271,0.1492004c3.3114014,0,6.0058594,2.5919571,6.0062866,5.7715225
		l-0.0723267,11.5963593c0.0002441,1.5890198-0.6218262,3.10215-1.7515869,4.2606659
		c-1.1307983,1.159523-2.6151123,1.798233-4.1731567,1.7984924L82.630249,51.978653l-0.0062256-0.0000153
		c-0.2248535,0-0.4431152,0.0757599-0.6196289,0.2151337l-6.9744873,5.5066757l-0.0876465,0.077858
		c-0.3305664,0.3307419-0.7114258,0.4001694-0.9727783,0.4001694c-0.7097168,0-1.4758301-0.5183105-1.4759521-1.3492737
		l0.1396484-22.3707275c-0.0002441-1.5766296,0.6185303-3.0640869,1.7425537-4.1883698
		C75.4989014,29.1465073,76.9849854,28.5272827,78.5605469,28.5262833 M78.5633545,27.5262833
		c-3.8121338,0.0005875-6.9307861,3.1201477-6.9301758,6.9323502l-0.1396484,22.3643341
		c0.0002441,1.4169159,1.2252197,2.3555069,2.4759521,2.3555069c0.5977783,0,1.2012939-0.2142944,1.6800537-0.6931686
		l6.9744873-5.5066681l19.8422241,0.1238632c3.8121948-0.0005875,6.9315796-3.2470932,6.9309692-7.0592957l0.0723267-11.5899582
		c-0.0005493-3.8117447-3.1947632-6.7777634-7.0062866-6.7777634h-0.0011597L78.5633545,27.5262833z"/>
	<path class="st2" d="M47.9356651,59.432869l14.6394043-14.4577942c0.1964111-0.1940384,0.1983643-0.5106201,0.0043945-0.7070923
		c-0.1940918-0.1964798-0.5106201-0.1984558-0.7071533-0.0044174L47.2329063,58.7213593
		c-0.1964111,0.1940384-0.1983643,0.5106201-0.0043945,0.7070923C47.4226036,59.6249313,47.7391319,59.6269073,47.9356651,59.432869
		"/>
	<path class="st2" d="M90.3305664,62.0240936l-0.0860596,13.7829056c-0.00177,0.2761383,0.2207031,0.5013885,0.4968262,0.5031128
		c0.2761841,0.0017242,0.5014038-0.220726,0.5031128-0.4968643l0.0860596-13.7829056
		c0.00177-0.2761383-0.2207031-0.5013885-0.4968262-0.5031128C90.5574951,61.5255051,90.3322754,61.7479553,90.3305664,62.0240936"
		/>
	<path class="st2" d="M61.5581017,89.9113617l10.7199745,0.066925c0.276123,0.0017242,0.5013428-0.2207336,0.5030518-0.4968719
		c0.0018311-0.2761383-0.2207031-0.5013885-0.4968262-0.5031128l-10.7199745-0.066925
		c-0.276123-0.0017242-0.5013428,0.2207336-0.5030518,0.4968719C61.0594444,89.6843872,61.2819786,89.9096375,61.5581017,89.9113617
		"/>
</g>
</svg>
