<?xml version="1.0" encoding="utf-8"?>
<!-- Generator: Adobe Illustrator 19.0.1, SVG Export Plug-In . SVG Version: 6.00 Build 0)  -->
<svg version="1.1" id="Layer_1" xmlns="http://www.w3.org/2000/svg" xmlns:xlink="http://www.w3.org/1999/xlink" x="0px" y="0px"
	 width="355.5px" height="116px" viewBox="0 0 355.5 116" style="enable-background:new 0 0 355.5 116;" xml:space="preserve">
<style type="text/css">
	.st0{fill:#71B82F;}
	.st1{fill:#DFD91A;}
	.st2{fill:#373838;}
	.st3{fill:#61D31E;}
	.st4{fill:#E0D919;}
	.st5{fill:none;stroke:#61D31E;stroke-linecap:round;stroke-linejoin:round;stroke-miterlimit:10;}
	.st6{fill:none;stroke:#61D31E;stroke-width:2;stroke-linecap:round;stroke-linejoin:round;stroke-miterlimit:10;}
</style>
<g>
	<path class="st3" d="M169.4122314,13.019043v1c2.0511475,0,3.7301636,1.6002197,3.7427368,3.560791l0.000061,7.8560791
		c0.0063477,0.9915771-0.3765259,1.9387207-1.078064,2.6671143c-0.7000732,0.7269287-1.6207886,1.1306152-2.5862427,1.1368408
		h-13.4388428c-0.2270508,0-0.4472656,0.0772705-0.6245728,0.2189941l-4.7003174,3.7589111l-0.0870972,0.0784912
		c-0.1173096,0.1188965-0.2633057,0.1790771-0.4338379,0.1790771c-0.2711182,0-0.673584-0.1878662-0.6761475-0.5848389
		l-0.000061-15.1534424c-0.0130005-2.0371094,1.633606-3.7049561,3.6642456-3.7178955l16.1928711-0.0001221L169.4122314,13.019043
		 M169.4122314,13.019043l-0.0317993,0.0001221h-16.1863403c-2.5817871,0.0164795-4.6807251,2.1424561-4.6641846,4.7242432
		v15.1470947c0.0061035,0.9556885,0.8327637,1.5848389,1.6761475,1.5848389c0.4083252,0,0.8204956-0.1473389,1.1455078-0.4765625
		l4.7003174-3.7589111h13.4388428c2.5819092-0.0164795,4.6807861-2.2285156,4.6642456-4.8103027V17.579834
		C174.1385498,15.008667,171.9799805,13.019043,169.4122314,13.019043z"/>
	<path class="st3" d="M169.4121704,56.6329346v1c2.0512085,0,3.7302246,1.6002197,3.7427979,3.560791l0.000061,7.8562012
		c0.0063477,0.9914551-0.3765259,1.9387207-1.078064,2.6671143c-0.7000732,0.7268066-1.6207886,1.1306152-2.5862427,1.1368408
		h-13.4388428c-0.2270508,0-0.4472656,0.0772705-0.6245728,0.2189941l-4.7003174,3.7589111l-0.0870972,0.0783691
		c-0.1173096,0.1188965-0.2633057,0.1791992-0.4338379,0.1791992c-0.2711792,0-0.673584-0.1878662-0.6761475-0.5848389
		l-0.000061-15.1535645c-0.0130005-2.0369873,1.633606-3.704834,3.6642456-3.7178955h16.1928711L169.4121704,56.6329346
		 M169.4121704,56.6329346l-0.0317383,0.0001221h-16.1863403c-2.5817871,0.0166016-4.6807251,2.1424561-4.6641846,4.7243652
		v15.1470947c0.0061035,0.9556885,0.8327637,1.5848389,1.6761475,1.5848389c0.4083252,0,0.8204956-0.1473389,1.1455078-0.4765625
		l4.7003174-3.7589111h13.4388428c2.5819092-0.0166016,4.6807861-2.2285156,4.6642456-4.8103027v-7.8498535
		C174.1385498,58.6226807,171.9799194,56.6329346,169.4121704,56.6329346z"/>
	<path class="st3" d="M178.8978271,34.4754639l0.0318604,1h16.1799316c2.0370483,0.0130615,3.6837158,1.6809082,3.6706543,3.7243652
		v15.140625c-0.0025635,0.4033203-0.4050293,0.5913086-0.6762695,0.5913086c-0.1704712,0-0.3164062-0.0603027-0.4338379-0.1791992
		l-0.0870361-0.0783691l-4.7003174-3.7589111c-0.1772461-0.1418457-0.397522-0.2191162-0.6245117-0.2191162h-13.4324951
		c-0.9718018-0.0061035-1.8925781-0.4099121-2.5926514-1.1368408c-0.7015381-0.7283936-1.0843506-1.6755371-1.0780029-2.6734619
		v-7.8432617c0.0125732-1.9669189,1.6915894-3.5671387,3.7427979-3.5671387L178.8978271,34.4754639 M178.8978271,34.4753418
		c-2.567749,0.0002441-4.7261963,1.9897461-4.7426758,4.560791v7.8497314
		c-0.0164795,2.5819092,2.0823975,4.7938232,4.6643066,4.8103027h13.4388428l4.7003174,3.7590332
		c0.3249512,0.3291016,0.7371826,0.4765625,1.1453857,0.4765625c0.8435059,0,1.670166-0.6292725,1.6762695-1.5848389V39.1998291
		c0.0164795-2.5819092-2.0823975-4.7077637-4.6642456-4.7243652h-16.1863403L178.8978271,34.4753418z"/>
	<path class="st3" d="M264.043396,91.5723877v-0.5H141.2165527c-0.6871338-0.0002441-1.3098145-0.2801514-1.7652588-0.7348633
		c-0.4547119-0.4554443-0.7346191-1.0780029-0.7348633-1.7651367V5.4771729
		c0.0002441-0.6871338,0.2801514-1.3098145,0.7348633-1.7652588c0.4554443-0.4547119,1.078125-0.7346191,1.7652588-0.7348633
		H264.043396c0.6871338,0.0002441,1.3097534,0.2801514,1.7651978,0.7348633
		c0.4546509,0.4554443,0.7346191,1.078125,0.7348022,1.7652588v83.0952148
		c-0.0001831,0.6871338-0.2801514,1.3096924-0.7348022,1.7651367c-0.4554443,0.4547119-1.078064,0.7346191-1.7651978,0.7348633
		V91.5723877v0.4998779c1.9283447-0.0018311,3.4980469-1.5715332,3.499939-3.4998779V5.4771729
		c-0.0018921-1.9283447-1.5715942-3.4981689-3.499939-3.5H141.2165527c-1.9283447,0.0018311-3.4981689,1.5716553-3.5,3.5v83.0952148
		c0.0018311,1.9283447,1.5716553,3.4980469,3.5,3.4998779H264.043396V91.5723877z"/>
	<path class="st3" d="M218.9190674,114.2147217v-0.5h-32.578125c-0.5039062-0.0002441-0.9598999-0.2052002-1.2944336-0.5390625
		c-0.3338623-0.3344727-0.5388184-0.7904053-0.5390015-1.2941895v-3.0062256
		c0.0001831-0.5039062,0.2051392-0.9598389,0.5390015-1.2944336c0.3345947-0.3338623,0.7905884-0.5388184,1.2944336-0.5390625
		h32.578125c0.5037842,0.0002441,0.9597778,0.2052002,1.2943726,0.5390625
		c0.3338623,0.3345947,0.5388184,0.7905273,0.5390015,1.2944336v3.0062256
		c-0.0001831,0.5037842-0.2051392,0.9597168-0.5390015,1.2941895c-0.3345947,0.3338623-0.7905884,0.5388184-1.2943726,0.5390625
		V114.2147217v0.4998779c1.5615845-0.0018311,2.8314209-1.2714844,2.833313-2.8331299v-3.0062256
		c-0.0018921-1.5617676-1.2716675-2.831543-2.833313-2.833374h-32.578125
		c-1.5617676,0.0018311-2.8314819,1.2716064-2.833374,2.833374v3.0062256
		c0.0018921,1.5616455,1.2716675,2.8312988,2.833374,2.8331299h32.578125V114.2147217z"/>
	<path class="st3" d="M193.0869751,91.5723877v14.9694824c0,0.276123,0.2238159,0.5,0.5,0.5c0.276123,0,0.5-0.223877,0.5-0.5
		V91.5723877c0-0.2762451-0.223877-0.5-0.5-0.5C193.310791,91.0723877,193.0869751,91.2961426,193.0869751,91.5723877"/>
	<path class="st3" d="M211.1730347,91.5723877v14.9694824c0,0.276123,0.2238159,0.5,0.5,0.5c0.276123,0,0.5-0.223877,0.5-0.5
		V91.5723877c0-0.2762451-0.223877-0.5-0.5-0.5C211.3968506,91.0723877,211.1730347,91.2961426,211.1730347,91.5723877"/>
	<path class="st3" d="M250.744812,18.303833c-0.0018921-2.991333-2.4412842-5.4306641-5.4324951-5.4324951H238.1875
		c-2.991272,0.0018311-5.4306641,2.4411621-5.4325562,5.4324951v7.1248779
		c0.0018921,2.9912109,2.4412842,5.430542,5.4325562,5.432373c0.276062,0,0.4998779-0.223877,0.4998779-0.4998779
		c0-0.276123-0.2238159-0.4998779-0.4998779-0.4998779c-1.2186279-0.0003662-2.3244019-0.4976807-3.1300659-1.3026123
		c-0.8049927-0.8056641-1.3023682-1.911499-1.3025513-3.1300049V18.303833
		c0.0001831-1.2186279,0.4975586-2.3244629,1.3025513-3.130127c0.8056641-0.8049316,1.911438-1.3022461,3.1300659-1.3024902
		h7.1248169c1.2185669,0.0002441,2.3243408,0.4975586,3.1300049,1.3024902
		c0.8049927,0.8056641,1.3023682,1.911499,1.3025513,3.130127c0,0.276123,0.2238159,0.5,0.5,0.5c0.276123,0,0.5-0.223877,0.5-0.5
		H250.744812z"/>
	<path class="st3" d="M243.6730347,36.8135986v-9.7058105h-1.9230957V25.21521h1.9230957v-3.967041h2.1635742v3.967041h2.4640503
		v1.8925781h-2.4640503v9.3150635c0,1.1124268,0.3296509,1.7424316,1.1709595,1.7424316
		c0.5408936,0,0.9926758-0.2406006,1.2625122-0.5701904l0.6605225,1.6226807
		c-0.5103149,0.510376-1.2319946,0.8706055-2.3430786,0.8706055
		C244.6046143,40.0883789,243.6730347,38.9772949,243.6730347,36.8135986z"/>
	<polygon class="st3" points="254.0991821,39.7281494 249.3519287,25.21521 251.6950073,25.21521 255.3005981,37.1738281 
		258.9367676,25.21521 261.2506104,25.21521 256.4727783,39.7281494 	"/>
	<path class="st3" d="M143.9898682,84.6395264h117.2607422c0.276123,0,0.5-0.223877,0.5-0.5c0-0.2762451-0.223877-0.5-0.5-0.5
		H143.9898682c-0.2762451,0-0.5,0.2237549-0.5,0.5C143.4898682,84.4156494,143.713623,84.6395264,143.9898682,84.6395264"/>
	<path class="st3" d="M217.4638062,15.2352295v61.9273682c0,0.276123,0.2238159,0.5,0.5,0.5c0.276123,0,0.5-0.223877,0.5-0.5
		V15.2352295c0-0.2762451-0.223877-0.5-0.5-0.5C217.6876221,14.7352295,217.4638062,14.9589844,217.4638062,15.2352295"/>
	<path class="st3" d="M337.7294312,39.2667236h1.9760132c0.7489624,0.0002441,1.4278564,0.3054199,1.9240112,0.8009033
		c0.4954834,0.4962158,0.8007202,1.1750488,0.8009033,1.9240723v2.3880615v15.074707
		c-0.0001831,0.7490234-0.3054199,1.4278564-0.8009033,1.9240723c-0.4961548,0.4954834-1.1750488,0.8006592-1.9240112,0.8009033
		h-27.6488037h-2.102417c-0.7490234-0.0002441-1.4279175-0.3054199-1.9240723-0.8009033
		c-0.4954834-0.4962158-0.8007202-1.1750488-0.8009033-1.9240723V57.53125c0-0.276123-0.223877-0.5-0.499939-0.5
		c-0.276123,0-0.499939,0.223877-0.499939,0.5l-0.000061,1.9232178c0.0018921,2.052124,1.6728516,3.7230225,3.7249146,3.7248535
		h2.102417h27.6488037c2.052002-0.0018311,3.7229614-1.6727295,3.7248535-3.7248535v-15.074707v-2.3880615
		c-0.0018921-2.052124-1.6728516-3.7230225-3.7248535-3.7248535h-1.9760132c-0.2761841,0-0.5,0.2237549-0.5,0.5
		c0,0.276123,0.2238159,0.5,0.5,0.5V39.2667236z"/>
	<path class="st3" d="M343.1638794,44.6257324h1.9006348c0.7489624,0.0002441,1.4277954,0.3054199,1.9240112,0.8010254
		c0.4954834,0.4960938,0.8007202,1.1750488,0.8009033,1.9240723v17.4627686
		c-0.0001831,0.7489014-0.3054199,1.4277344-0.8009033,1.9239502c-0.4961548,0.4954834-1.1750488,0.8006592-1.9240112,0.8009033
		h-29.7512207c-0.7490234-0.0002441-1.4278564-0.3054199-1.9240112-0.8009033
		c-0.4954834-0.4962158-0.8007202-1.1750488-0.8009033-1.9239502v-1.7331543c0-0.276123-0.223877-0.5-0.499939-0.5
		c-0.276123,0-0.499939,0.223877-0.499939,0.5l-0.000061,1.7331543c0.0018921,2.052002,1.6727905,3.7229004,3.7248535,3.7247314
		h29.7512207c2.052002-0.0018311,3.7229614-1.6727295,3.7248535-3.7247314V47.3508301
		c-0.0018921-2.052124-1.6728516-3.7231445-3.7248535-3.7249756h-1.9006348c-0.2761841,0-0.5,0.2237549-0.5,0.5
		c0,0.276123,0.2238159,0.5,0.5,0.5V44.6257324z"/>
	<path class="st3" d="M348.5385742,49.9848633h1.8850098c0.7489624,0.0002441,1.4278564,0.3054199,1.9240112,0.8009033
		c0.4954834,0.4962158,0.8007202,1.1750488,0.8009033,1.9240723v17.4628906
		c-0.0001831,0.7489014-0.3054199,1.4277344-0.8009033,1.9239502c-0.4961548,0.4954834-1.1750488,0.8006592-1.9240112,0.8009033
		h-29.7512207c-0.7490234-0.0002441-1.4278564-0.3054199-1.9240112-0.8009033
		c-0.4954834-0.4962158-0.8007202-1.1750488-0.8009033-1.9239502v-1.6517334c0-0.276123-0.223877-0.5-0.499939-0.5
		c-0.276123,0-0.499939,0.223877-0.499939,0.5l-0.000061,1.6517334c0.0018921,2.052002,1.6727905,3.7229004,3.7248535,3.7247314
		h29.7512207c2.052063-0.0018311,3.7229614-1.6727295,3.7248535-3.7247314V52.7098389
		c-0.0018921-2.052124-1.6727905-3.7230225-3.7248535-3.7248535h-1.8850098c-0.2761841,0-0.5,0.2237549-0.5,0.5
		c0,0.276123,0.2238159,0.5,0.5,0.5V49.9848633z"/>
	<path class="st3" d="M334.1330566,33.4528809v-0.5h-29.7512817c-2.052063,0.0018311-3.7230225,1.6728516-3.7249146,3.7249756
		V54.140625c0.0018921,2.052002,1.6728516,3.7229004,3.7249146,3.7247314h29.7512817
		c2.0519409-0.0018311,3.7229004-1.6727295,3.7247925-3.7247314V36.6778564
		c-0.0018921-2.052124-1.6728516-3.7231445-3.7247925-3.7249756V33.4528809v0.4998779
		c0.7489014,0.0002441,1.4277954,0.3054199,1.9239502,0.8010254c0.4954834,0.4960938,0.8007202,1.1750488,0.8009033,1.9240723
		V54.140625c-0.0001831,0.7489014-0.3054199,1.4277344-0.8009033,1.9239502
		c-0.4961548,0.4954834-1.1750488,0.8006592-1.9239502,0.8009033h-29.7512817
		c-0.7490234-0.0002441-1.4279175-0.3054199-1.9240723-0.8009033c-0.4954834-0.4962158-0.8007202-1.1750488-0.8009033-1.9239502
		V36.6778564c0.0001831-0.7490234,0.3054199-1.4279785,0.8009033-1.9240723
		c0.4962158-0.4956055,1.1750488-0.8007812,1.9240723-0.8010254h29.7512817V33.4528809z M322.3502197,41.557373v0.4998779
		c0.4162598,0.0008545,0.7533569,0.3378906,0.7541504,0.7542725c-0.0007935,0.4161377-0.3378296,0.7531738-0.7541504,0.7540283
		c-0.4163818-0.0008545-0.753418-0.3378906-0.7542114-0.7540283c0.0007935-0.4163818,0.3378906-0.753418,0.7542114-0.7542725
		V41.557373v-0.5c-0.9689941,0.0002441-1.7538452,0.7851562-1.7541504,1.7541504
		c0.0003052,0.9689941,0.7852173,1.7536621,1.7541504,1.7539062c0.9688721-0.0002441,1.7537842-0.7849121,1.7540894-1.7539062
		c-0.0003052-0.9689941-0.7851562-1.7539062-1.7540894-1.7541504V41.557373z M317.0649414,41.557373v0.4998779
		c0.4163208,0.0008545,0.7533569,0.3378906,0.7541504,0.7542725c-0.0007935,0.4162598-0.3377686,0.7531738-0.7541504,0.7540283
		c-0.4163208-0.0008545-0.7533569-0.3378906-0.7541504-0.7540283c0.0007935-0.4163818,0.3379517-0.753418,0.7541504-0.7542725
		V41.557373v-0.5c-0.9689941,0.0002441-1.7537842,0.7851562-1.7540894,1.7541504
		c0.0003052,0.9689941,0.7852173,1.7536621,1.7540894,1.7539062c0.9689331-0.0002441,1.7537842-0.7850342,1.7540894-1.7539062
		c-0.0003052-0.9689941-0.7850952-1.7539062-1.7540894-1.7541504V41.557373z M307.3432617,53.979126v-0.5
		c-1.0430908-0.0019531-1.887085-0.8458252-1.8889771-1.888916c0.0018921-1.0429688,0.8458862-1.8869629,1.8889771-1.888916
		c1.0429077,0.0019531,1.8869019,0.8459473,1.8887939,1.888916c-0.0018921,1.0430908-0.8458862,1.8869629-1.8887939,1.888916
		V53.979126v0.4998779c1.5955811-0.0002441,2.8884277-1.2930908,2.8887329-2.8887939
		c-0.0003052-1.5955811-1.2931519-2.8885498-2.8887329-2.8887939c-1.5957642,0.0002441-2.8886108,1.2932129-2.888916,2.8887939
		c0.0003052,1.5957031,1.2931519,2.8885498,2.888916,2.8887939V53.979126z M307.3432617,41.6170654v-0.5
		c-1.0430908-0.0019531-1.887085-0.8459473-1.8889771-1.888916c0.0018921-1.0430908,0.8458252-1.8869629,1.8889771-1.888916
		c1.0429077,0.0019531,1.8869019,0.8458252,1.8887939,1.888916c-0.0018921,1.0429688-0.8458862,1.8869629-1.8887939,1.888916
		V41.6170654v0.4998779c1.5955811-0.0002441,2.8884277-1.2932129,2.8887329-2.8887939
		c-0.0003052-1.5957031-1.2931519-2.8885498-2.8887329-2.8887939c-1.5957031,0.0002441-2.8886108,1.2930908-2.888916,2.8887939
		c0.0003052,1.5955811,1.2931519,2.8885498,2.888916,2.8887939V41.6170654z M325.1077881,48.0876465l-0.2387695-0.4393311
		c-1.5083618,0.819458-3.2388306,1.2854004-5.076355,1.2855225c-1.8377686-0.0001221-3.5681763-0.4663086-5.0764771-1.2856445
		c-0.1122437-0.0605469-0.1742554-0.1749268-0.1749878-0.2944336l0.0404663-0.1582031
		c0.0610962-0.1130371,0.175415-0.1750488,0.2947998-0.1757812l0.1575928,0.0404053
		c0.1552734,0.0848389,0.3425903,0.081665,0.494873-0.0085449s0.2450562-0.2530518,0.2450562-0.4300537V46.62146h-0.5
		l-0.2386475,0.4393311c1.4140015,0.7681885,3.0337524,1.2044678,4.7572021,1.2045898
		c1.7235718-0.0001221,3.3433228-0.4364014,4.7573853-1.2045898l0.1586914-0.0408936
		c0.1196899,0.0008545,0.2337646,0.0626221,0.2946777,0.1751709l0.0405884,0.1585693
		c-0.0006714,0.1193848-0.0628052,0.2338867-0.175293,0.2947998L325.1077881,48.0876465l0.2391357,0.4390869
		c0.4437866-0.2420654,0.6975708-0.7008057,0.6968994-1.1730957c0.0001831-0.2149658-0.0525513-0.4350586-0.1619263-0.6359863
		c-0.2418213-0.4445801-0.7011108-0.6984863-1.1732788-0.6976318c-0.2154541-0.0002441-0.4354858,0.0528564-0.6360474,0.1621094
		c-1.2729492,0.690918-2.7254639,1.0827637-4.2800293,1.0831299c-1.5544434-0.0003662-3.006958-0.3922119-4.2799683-1.083252
		c-0.1556396-0.0844727-0.3421631-0.0808105-0.4942627,0.0096436c-0.1521606,0.0905762-0.2443237,0.2526855-0.2443237,0.4298096
		v0.0001221h0.5l0.2398682-0.4387207c-0.2017212-0.1104736-0.4226685-0.163208-0.6373901-0.1629639
		c-0.4725952-0.0007324-0.9315186,0.253418-1.1732178,0.6977539c-0.1094971,0.2006836-0.1621704,0.4211426-0.1619873,0.6361084
		c-0.0007324,0.472168,0.2530518,0.9312744,0.6975708,1.1732178c1.6501465,0.8967285,3.5463257,1.4068604,5.553833,1.4067383
		c2.0072632,0.0001221,3.9035034-0.5097656,5.553833-1.4068604L325.1077881,48.0876465z M331.1715698,53.979126v-0.5
		c-1.0429688-0.0019531-1.8869629-0.8458252-1.888855-1.888916c0.0018921-1.0429688,0.8458862-1.8869629,1.888855-1.888916
		c1.0429688,0.0019531,1.8869629,0.8459473,1.888855,1.888916c-0.0018921,1.0430908-0.8458862,1.8869629-1.888855,1.888916
		V53.979126v0.4998779c1.5956421-0.0002441,2.8884888-1.2930908,2.8887939-2.8887939
		c-0.0003052-1.5955811-1.2931519-2.8885498-2.8887939-2.8887939c-1.5956421,0.0002441-2.8884888,1.2932129-2.8887939,2.8887939
		c0.0003052,1.5957031,1.2931519,2.8885498,2.8887939,2.8887939V53.979126z M331.1715698,41.6170654v-0.5
		c-1.0429688-0.0019531-1.8869629-0.8459473-1.888855-1.888916c0.0018921-1.0430908,0.8458862-1.8869629,1.888855-1.888916
		c1.0429688,0.0019531,1.8869629,0.8458252,1.888855,1.888916c-0.0018921,1.0429688-0.8458862,1.8869629-1.888855,1.888916
		V41.6170654v0.4998779c1.5956421-0.0002441,2.8884888-1.2932129,2.8887939-2.8887939
		c-0.0003052-1.5957031-1.2931519-2.8885498-2.8887939-2.8887939c-1.5956421,0.0002441-2.8884888,1.2930908-2.8887939,2.8887939
		c0.0003052,1.5955811,1.2931519,2.8885498,2.8887939,2.8887939V41.6170654z"/>
	<path class="st3" d="M18.487915,60.0753174v1c0.5302734,0,0.9642334,0.4029541,0.9674072,0.8919678v3.2626953
		c0.0015869,0.2540283-0.1016846,0.5079346-0.2835693,0.6967773c-0.1799316,0.1870117-0.4135742,0.2907715-0.6513672,0.2923584
		h-5.5748291c-0.2269287,0-0.4472656,0.0771484-0.6246338,0.2189941l-1.4957275,1.1962891v-5.6057129
		c-0.0015869-0.2508545,0.0959473-0.4887695,0.2747803-0.6699219c0.1789551-0.1811523,0.4155273-0.2818604,0.6601562-0.2834473
		h6.7211914L18.487915,60.0753174 M18.487915,60.0753174h-0.0131836h-6.7145996
		c-1.0710449,0.0068359-1.9418945,0.8887939-1.9349365,1.9598389v6.2835693
		c0.0025635,0.3963623,0.3453369,0.6573486,0.6953125,0.6573486c0.1693115,0,0.3404541-0.0611572,0.4752197-0.1976318
		l1.9498291-1.5593262h5.5748291c1.0710449-0.0068359,1.9417725-0.9244385,1.9349365-1.9954834v-3.2563477
		C20.4486084,60.9006348,19.5531006,60.0753174,18.487915,60.0753174z"/>
	<path class="st3" d="M37.0367432,35.1711426v1c0.3914795,0,0.7119141,0.2938232,0.7142334,0.6484375v2.8435059
		c0.0025635,0.3878174-0.3209229,0.7299805-0.6859131,0.7322998h-4.8571777c-0.2270508,0-0.4472656,0.0772705-0.6245117,0.2191162
		l-1.0942383,0.875v-4.6170654c-0.0024414-0.3841553,0.3081055-0.6987305,0.6859131-0.7011719h5.8555908L37.0367432,35.1711426
		 M37.0367432,35.1711426l-0.0114746,0.0001221h-5.8502197c-0.9332275,0.0059814-1.6917725,0.774292-1.6859131,1.7075195v5.4746094
		c0.0021973,0.345459,0.3010254,0.572876,0.605957,0.572876c0.147583,0,0.2965088-0.0533447,0.4140625-0.1722412
		l1.6987305-1.3586426h4.8571777c0.9332275-0.0059814,1.6918945-0.8054199,1.6859131-1.7386475v-2.8371582
		C38.7449951,35.8902588,37.9648438,35.1711426,37.0367432,35.1711426z"/>
	<path class="st3" d="M47.060791,42.8693848l0.0101318,1h5.1375732c0.1751709,0.0010986,0.291626,0.0928955,0.3455811,0.147583
		c0.0539551,0.0545654,0.1442871,0.1723633,0.1430664,0.3538818v3.8028564l-0.7658691-0.6125488
		c-0.1772461-0.1417236-0.3974609-0.2189941-0.6245117-0.2189941h-4.2644043
		c-0.166626-0.0010986-0.2827148-0.0959473-0.3370361-0.1523438c-0.09729-0.1010742-0.1525879-0.2358398-0.1517334-0.3763428
		v-2.4882812c0.0015869-0.2513428,0.229248-0.4558105,0.5073242-0.4558105L47.060791,42.8693848 M47.060791,42.8693848
		c-0.81604,0-1.5019531,0.6323242-1.5072021,1.4494629v2.4946289c-0.005249,0.8204346,0.6617432,1.5234375,1.4822998,1.5286865
		h4.270874l1.4936523,1.1945801c0.1032715,0.1046143,0.234375,0.1514893,0.3640137,0.1514893
		c0.2680664,0,0.5307617-0.1999512,0.5327148-0.5036621v-4.8137207c0.0053711-0.8205566-0.6616211-1.4962158-1.4821777-1.5014648
		h-5.144043H47.060791z"/>
	<path class="st3" d="M64.8504639,37.4189453l0.015625,1h7.9641113c0.3477783,0.0021973,0.6755371,0.1414795,0.9229736,0.3920898
		s0.3824463,0.5800781,0.380249,0.9343262v7.0355225l-2.0794678-1.6629639
		c-0.1773682-0.1417236-0.397583-0.2189941-0.6246338-0.2189941h-6.611084
		c-0.7111816-0.0045166-1.3079834-0.628418-1.3032227-1.3687744v-3.8590088
		c0.0043945-0.6904297,0.6035156-1.2521973,1.3354492-1.2521973V37.4189453 M64.8504639,37.4189453
		c-1.2645264,0.0001221-2.3273926,0.9797363-2.3354492,2.2458496v3.8653564
		c-0.0081787,1.2713623,1.0253906,2.3605957,2.2967529,2.3687744h6.6175537l2.3145752,1.8509521
		c0.1600342,0.1621094,0.362915,0.2347412,0.5640869,0.2347412c0.4152832,0,0.8223877-0.3099365,0.8254395-0.7805176v-7.4587402
		c0.0080566-1.2713623-1.0253906-2.3182373-2.296875-2.326416h-7.970459H64.8504639z"/>
	<path class="st3" d="M54.6546631,26.6708984v1c0.2781982,0,0.5057373,0.2045898,0.5073242,0.4494629V30.62146
		c0.0008545,0.1340332-0.0544434,0.2689209-0.1517334,0.3699951c-0.0543213,0.0563965-0.1704102,0.1512451-0.3305664,0.1523438
		h-4.270874c-0.2270508,0-0.4472656,0.0771484-0.6245117,0.2189941l-0.7658691,0.6125488v-3.8093262
		c-0.0012207-0.1750488,0.0891113-0.2928467,0.1430664-0.3475342c0.0539551-0.0545654,0.1705322-0.1463623,0.3391113-0.1474609
		h5.1499023L54.6546631,26.6708984 M54.6546631,26.6708984l-0.0100098,0.0001221h-5.144043
		c-0.8205566,0.005249-1.4875488,0.6809082-1.4821777,1.5013428v4.8137207
		c0.0019531,0.3037109,0.2646484,0.5037842,0.5325928,0.5037842c0.1297607,0,0.2607422-0.046875,0.3641357-0.1514893
		l1.4936523-1.1945801h4.270874c0.8205566-0.005249,1.4875488-0.708252,1.4822998-1.5288086v-2.4946289
		C56.1567383,27.3033447,55.4708252,26.6708984,54.6546631,26.6708984z"/>
	<path class="st3" d="M93.5791016,49.0362549v1c0.7484131,0,1.361084,0.5748291,1.3656006,1.2749023v3.9217529
		c0.0048828,0.7504883-0.6055908,1.3883057-1.326416,1.3929443h-6.7032471c-0.2270508,0-0.4472656,0.0772705-0.6246338,0.2191162
		l-2.1271973,1.7011719v-7.15979c-0.0023193-0.3557129,0.1357422-0.692749,0.388916-0.9490967
		c0.2529297-0.2562256,0.5881348-0.3986816,0.9375-0.4008789h8.0792236L93.5791016,49.0362549 M93.5791016,49.0362549
		l-0.0158691,0.0001221H85.489624c-1.2878418,0.0081787-2.3347168,1.0686035-2.326416,2.3564453v7.5551758
		c0.0030518,0.4766846,0.4152832,0.7905273,0.8360596,0.7905273c0.2037354,0,0.4093018-0.0734863,0.5714111-0.2376709
		l2.3443604-1.875h6.7032471c1.2877197-0.0081787,2.3347168-1.1114502,2.326416-2.399292v-3.9154053
		C95.9365234,50.0288086,94.8598633,49.0362549,93.5791016,49.0362549z"/>
	<path class="st3" d="M115.6177979,6.2634277v1c0.2781982,0,0.5058594,0.2045898,0.5073242,0.4494629v2.5010986
		c0.0018311,0.2766113-0.2265625,0.5206299-0.4821777,0.5223389h-4.2709961c-0.2269287,0-0.4472656,0.0771484-0.6245117,0.2189941
		l-0.7658691,0.6125488V7.7585449c-0.001709-0.2666016,0.2220459-0.4932861,0.4821777-0.4949951h5.1499023L115.6177979,6.2634277
		 M115.6177979,6.2634277l-0.0100098,0.0001221h-5.144043c-0.8204346,0.005249-1.4875488,0.6809082-1.4821777,1.5013428v4.8137207
		c0.0019531,0.3037109,0.2646484,0.5037842,0.5327148,0.5037842c0.1296387,0,0.2607422-0.046875,0.3640137-0.1514893
		l1.4936523-1.1945801h4.2709961c0.8204346-0.005249,1.4875488-0.708252,1.4821777-1.5288086V7.7128906
		C117.1199951,6.895874,116.43396,6.2634277,115.6177979,6.2634277z"/>
	<path class="st3" d="M33.5483398,49.1422119v1c0.2780762,0,0.5056152,0.2044678,0.5072021,0.4494629v2.5009766
		c0.0008545,0.1341553-0.0544434,0.2689209-0.1517334,0.3699951c-0.0543213,0.0563965-0.1705322,0.1512451-0.3305664,0.1523438
		h-4.270874c-0.2270508,0-0.4472656,0.0771484-0.6245117,0.2189941l-0.7659912,0.6125488V50.637207
		c-0.0010986-0.1750488,0.0892334-0.2928467,0.1431885-0.3474121c0.053833-0.0546875,0.1704102-0.1464844,0.3391113-0.147583
		h5.1499023L33.5483398,49.1422119 M33.5483398,49.1422119H33.538208h-5.144043
		c-0.8205566,0.005249-1.4875488,0.6809082-1.4822998,1.5014648v4.8137207
		c0.0019531,0.3035889,0.2646484,0.5036621,0.5327148,0.5036621c0.1297607,0,0.2607422-0.046875,0.3640137-0.1514893
		l1.4937744-1.1945801h4.270874c0.8204346-0.005249,1.4875488-0.708252,1.4822998-1.5286865v-2.4946289
		C35.050293,49.7745361,34.3643799,49.1422119,33.5483398,49.1422119z"/>
	<path class="st3" d="M7.7081299,77.2399902v1c0.2648926,0,0.4902344,0.2237549,0.4919434,0.4951172l0.0487061,3.8027344
		l-0.7740479-0.6029053c-0.1756592-0.1368408-0.3919678-0.2110596-0.614502-0.2110596L6.8475342,81.723999l-4.267334,0.0545654
		c-0.2607422,0-0.4909668-0.2410889-0.4927979-0.522438l-0.0318604-2.48806
		c-0.0009766-0.1513672,0.072998-0.2547607,0.1350098-0.3149414c0.09729-0.0941162,0.2287598-0.1464844,0.376709-0.1473389
		l5.1374512-0.0657959L7.7081299,77.2399902 M7.7081299,77.2399902H7.6984863l-5.144165,0.0657959
		c-0.8205566,0.005249-1.5040283,0.6481934-1.4987793,1.46875l0.0319824,2.4943848
		c0.005127,0.8175049,0.6760254,1.5096436,1.4926758,1.5096436h0.0091553l4.270874-0.0546875l1.5091553,1.175415
		c0.1027832,0.1014404,0.2315674,0.1468506,0.3590088,0.1468506c0.2705078,0,0.5351562-0.2042236,0.5332031-0.510498
		L9.2000732,78.72229C9.1947021,77.9050293,8.524292,77.2399902,7.7081299,77.2399902z"/>
	<path class="st3" d="M68.69104,21.1972656l0.0111084,1.0001221h5.5772705
		c0.1635742,0.0009766,0.3181152,0.0668945,0.4353027,0.1855469c0.1170654,0.1185303,0.1809082,0.2740479,0.1799316,0.4440918
		v4.3056641l-0.9702148-0.7758789c-0.1772461-0.1418457-0.3974609-0.2191162-0.6245117-0.2191162h-4.6295166
		c-0.2120361-0.0013428-0.3582764-0.1204834-0.4266357-0.1915283c-0.1209717-0.1256104-0.1896973-0.2937012-0.1887207-0.4677734
		v-2.701416c0.0020752-0.3195801,0.2873535-0.5795898,0.6359863-0.5797119V21.1972656 M68.69104,21.1972656
		c-0.8857422,0.0001221-1.630127,0.6864014-1.6359863,1.5732422v2.7078857
		c-0.0056152,0.890625,0.7183838,1.6536865,1.6090088,1.6593018h4.6358643l1.6213379,1.2967529
		c0.1121826,0.1135254,0.2543945,0.1643066,0.3951416,0.1643066c0.2908936,0,0.5761719-0.217041,0.5782471-0.5466309v-5.2250977
		c0.0056152-0.890625-0.7182617-1.6240234-1.6088867-1.6296387h-5.5836182L68.69104,21.1972656z"/>
	<path class="st3" d="M86.1448975,31.7220459l0.015625,1h7.9343262c0.7185059,0.0046387,1.2993164,0.5928955,1.2946777,1.317749
		v7.0014648l-2.0656738-1.6518555c-0.1772461-0.1418457-0.397583-0.2191162-0.6245117-0.2191162h-6.5866699
		c-0.3382568-0.0020752-0.6608887-0.1447754-0.9082031-0.4016113c-0.2514648-0.2611084-0.3886719-0.5991211-0.3863525-0.958252
		v-3.8444824c0.0043945-0.6859131,0.5994873-1.2438965,1.3267822-1.2438965V31.7220459 M86.1448975,31.7220459
		c-1.2597656,0-2.3187256,0.9760742-2.3267822,2.2374268v3.8509521c-0.0081787,1.2667236,1.0216064,2.3518066,2.288208,2.3598633
		h6.5930176l2.3059082,1.8441162c0.1594238,0.161499,0.3615723,0.2338867,0.5618896,0.2338867
		c0.4136963,0,0.8193359-0.3087158,0.8223877-0.7775879v-7.4309082c0.0080566-1.2666016-1.0217285-2.3095703-2.2883301-2.317749
		h-7.9406738H86.1448975z"/>
	<path class="st3" d="M89.6938477,14.786377l0.0168457,1.0001221h8.5489502
		c0.3930664,0.0024414,0.7631836,0.159668,1.0424805,0.442627c0.2794189,0.282959,0.4318848,0.6551514,0.4293213,1.0544434
		v7.7044678L97.380249,23.107666c-0.1773682-0.1417236-0.3977051-0.2189941-0.6246338-0.2189941h-7.0968018
		c-0.8031006-0.005127-1.4770508-0.7086182-1.4716797-1.5426025v-4.1425781
		c0.0048828-0.7813721,0.6809082-1.4169922,1.5068359-1.4171143L89.6938477,14.786377 M89.6938477,14.786377
		c-1.3570557,0.0001221-2.4981689,1.0517578-2.5067139,2.4106445v4.1490479
		c-0.0087891,1.3647461,1.1005859,2.5338135,2.465332,2.5426025h7.1031494l2.484375,1.9868164
		c0.1717529,0.1739502,0.3896484,0.2518311,0.6054688,0.2518311c0.4458008,0,0.8826904-0.3325195,0.8859863-0.8376465v-8.0061035
		c0.008667-1.364624-1.100708-2.4884033-2.465332-2.4970703h-8.5554199L89.6938477,14.786377z"/>
	<path class="st3" d="M122.4638672,56.8342285v1c2.0330811,0,3.6972656,1.5859375,3.7097168,3.5290527v7.8015137
		c0.0062256,0.9827881-0.3731689,1.9216309-1.0684814,2.6435547c-0.6939697,0.720459-1.6064453,1.1207275-2.5632324,1.1268311
		h-13.345459c-0.2269287,0-0.4472656,0.0771484-0.6245117,0.2189941l-4.6676025,3.7327881l-0.0870361,0.0783691
		c-0.1152344,0.1166992-0.2585449,0.1759033-0.4259033,0.1759033c-0.2664795,0-0.6619873-0.1844482-0.6644287-0.5738525V61.5192871
		c-0.0063477-0.9729004,0.3701172-1.8934326,1.0598145-2.5919189c0.6896973-0.6986084,1.6054688-1.086792,2.5718994-1.0930176
		h16.0802002L122.4638672,56.8342285 M122.4638672,56.8342285l-0.0316162,0.0001221h-16.0736084
		c-2.5638428,0.0163574-4.6481934,2.1275635-4.6317139,4.6914062v15.041626
		c0.0059814,0.9489746,0.8269043,1.5738525,1.6644287,1.5738525c0.4053955,0,0.8148193-0.1463623,1.1375732-0.4732666
		l4.6674805-3.7327881h13.345459c2.5638428-0.0163574,4.6481934-2.2128906,4.6317139-4.7768555v-7.7950439
		C127.1572266,58.8099365,125.0137939,56.8342285,122.4638672,56.8342285z"/>
	<path class="st3" d="M104.0909424,40.0740967l0.0137939,1.0001221h7.0167236
		c0.5717773,0.0036621,1.0339355,0.4716797,1.0302734,1.0498047v5.9521484l-1.6391602-1.3109131
		c-0.1772461-0.1417236-0.397583-0.2189941-0.6245117-0.2189941h-5.8248291
		c-0.2677002-0.001709-0.5238037-0.1153564-0.7208252-0.3199463c-0.1983643-0.2059326-0.3111572-0.4832764-0.3093262-0.7672119
		v-3.3996582c0.003418-0.5432129,0.4780273-0.9852295,1.0579834-0.9853516L104.0909424,40.0740967 M104.0909424,40.0740967
		c-1.1140137,0.0001221-2.0507812,0.8634033-2.0578613,1.9790039v3.4060059
		c-0.0072021,1.1202393,0.9035645,2.0799561,2.0238037,2.0871582h5.8311768l2.0393066,1.6309814
		c0.1411133,0.1428223,0.3199463,0.2067871,0.4970703,0.2067871c0.3659668,0,0.7246094-0.2729492,0.7272949-0.6876221v-6.5723877
		c0.0072021-1.1202393-0.9035645-2.0426025-2.0238037-2.0498047h-7.0231934L104.0909424,40.0740967z"/>
	<path class="st3" d="M113.0500488,16.9510498l0.0281982,1.0001221h14.2839355
		c1.7338867,0.0111084,3.135498,1.4306641,3.1243896,3.1708984v13.3665771
		c-0.0018311,0.2767334-0.2873535,0.4056396-0.4798584,0.4056396c-0.119751,0-0.2177734-0.0404053-0.2998047-0.1234131
		l-0.0869141-0.0783691l-4.1497803-3.3186035c-0.1773682-0.1418457-0.397583-0.2191162-0.6246338-0.2191162h-11.8583984
		c-0.8261719-0.005249-1.609375-0.348999-2.2053223-0.9677734c-0.5980225-0.6209717-0.9243164-1.4279785-0.9189453-2.2790527
		v-6.9239502c0.0107422-1.6722412,1.4404297-3.0328369,3.1872559-3.032959L113.0500488,16.9510498 M113.0500488,16.9510498
		c-2.2669678,0.0001221-4.1726074,1.7565918-4.1871338,4.0266113v6.9302979
		c-0.0146484,2.2794189,1.8383789,4.2322998,4.1179199,4.2468262h11.8647461l4.1497803,3.3187256
		c0.2869873,0.2906494,0.6508789,0.4207764,1.0113525,0.4207764c0.7446289,0,1.4744873-0.555542,1.4798584-1.399292V21.1220703
		c0.0145264-2.2794189-1.838501-4.1563721-4.1179199-4.1708984h-14.2904053L113.0500488,16.9510498z"/>
	<path class="st3" d="M279.1188354,36.8583984h7.2608032c0.276123,0,0.5-0.223877,0.5-0.5c0-0.2762451-0.223877-0.5-0.5-0.5
		h-7.2608032c-0.2761841,0-0.5,0.2237549-0.5,0.5C278.6188354,36.6345215,278.8426514,36.8583984,279.1188354,36.8583984"/>
	<path class="st3" d="M283.9577026,34.1044922l2.2823486,2.2823486l-2.277832,2.2209473
		c-0.1977539,0.192749-0.2017822,0.5092773-0.0089722,0.7070312c0.192749,0.1977539,0.5093384,0.2017822,0.7070923,0.0090332
		l2.6403198-2.574585c0.0955811-0.0932617,0.1500854-0.2211914,0.1509399-0.3548584
		c0.0008545-0.1335449-0.052002-0.2623291-0.1464233-0.3566895l-2.6403809-2.6403809
		c-0.1953125-0.1953125-0.5119629-0.1951904-0.7071533,0.0001221c-0.1952515,0.1951904-0.1951904,0.5118408,0.0001221,0.7071533
		L283.9577026,34.1044922z"/>
	<path class="st3" d="M279.1188354,45.3956299h7.2608032c0.276123,0,0.5-0.223877,0.5-0.5c0-0.2762451-0.223877-0.5-0.5-0.5
		h-7.2608032c-0.2761841,0-0.5,0.2237549-0.5,0.5C278.6188354,45.1717529,278.8426514,45.3956299,279.1188354,45.3956299"/>
	<path class="st3" d="M283.9577026,42.6417236l2.2822876,2.2822266l-2.277771,2.2209473
		c-0.1977539,0.192749-0.2017822,0.5092773-0.0089722,0.7070312c0.192749,0.1977539,0.5093384,0.2017822,0.7070923,0.0090332
		l2.6403198-2.5744629c0.0955811-0.0932617,0.1500854-0.2211914,0.1509399-0.3548584
		c0.0008545-0.1335449-0.052002-0.2623291-0.1464233-0.3566895l-2.6403809-2.6403809
		c-0.1953125-0.1953125-0.5119629-0.1951904-0.7071533,0.0001221c-0.1952515,0.1951904-0.1951904,0.5118408,0.0001221,0.7071533
		L283.9577026,42.6417236z"/>
	<path class="st3" d="M279.1188354,55.1083984h7.2608032c0.276123,0,0.5-0.223877,0.5-0.5c0-0.2762451-0.223877-0.5-0.5-0.5
		h-7.2608032c-0.2761841,0-0.5,0.2237549-0.5,0.5C278.6188354,54.8845215,278.8426514,55.1083984,279.1188354,55.1083984"/>
	<path class="st3" d="M283.9577026,52.3544922l2.2823486,2.2823486l-2.277832,2.2209473
		c-0.1977539,0.192749-0.2017822,0.5092773-0.0089722,0.7070312c0.192749,0.1977539,0.5093384,0.2017822,0.7070923,0.0090332
		l2.6403198-2.574585c0.0955811-0.0932617,0.1500854-0.2211914,0.1509399-0.3548584
		c0.0008545-0.1335449-0.052002-0.2623291-0.1464233-0.3566895l-2.6403809-2.6403809
		c-0.1953125-0.1953125-0.5119629-0.1951904-0.7071533,0.0001221c-0.1952515,0.1951904-0.1951904,0.5118408,0.0001221,0.7071533
		L283.9577026,52.3544922z"/>
	<path class="st3" d="M279.1188354,63.6456299h7.2608032c0.276123,0,0.5-0.223877,0.5-0.5c0-0.2762451-0.223877-0.5-0.5-0.5
		h-7.2608032c-0.2761841,0-0.5,0.2237549-0.5,0.5C278.6188354,63.4217529,278.8426514,63.6456299,279.1188354,63.6456299"/>
	<path class="st3" d="M283.9577026,60.8917236l2.2822876,2.2822266l-2.277771,2.2209473
		c-0.1977539,0.192749-0.2017822,0.5092773-0.0089722,0.7070312c0.192749,0.1977539,0.5093384,0.2017822,0.7070923,0.0090332
		l2.6403198-2.5744629c0.0955811-0.0932617,0.1500854-0.2211914,0.1509399-0.3548584
		c0.0008545-0.1335449-0.052002-0.2623291-0.1464233-0.3566895l-2.6403809-2.6403809
		c-0.1953125-0.1953125-0.5119629-0.1951904-0.7071533,0.0001221c-0.1952515,0.1951904-0.1951904,0.5118408,0.0001221,0.7071533
		L283.9577026,60.8917236z"/>
</g>
</svg>
