<?xml version="1.0" encoding="utf-8"?>
<!-- Generator: Adobe Illustrator 19.0.1, SVG Export Plug-In . SVG Version: 6.00 Build 0)  -->
<svg version="1.1" id="Layer_1" xmlns="http://www.w3.org/2000/svg" xmlns:xlink="http://www.w3.org/1999/xlink" x="0px" y="0px"
	 width="51px" height="64.6666641px" viewBox="0 0 51 64.6666641" style="enable-background:new 0 0 51 64.6666641;"
	 xml:space="preserve">
<style type="text/css">
	.st0{fill:#71B82F;}
	.st1{fill:#DFD91A;}
	.st2{fill:#373838;}
	.st3{fill:#61D31E;}
	.st4{fill:#E0D919;}
	.st5{fill:none;stroke:#61D31E;stroke-linecap:round;stroke-linejoin:round;stroke-miterlimit:10;}
	.st6{fill:none;stroke:#61D31E;stroke-width:2;stroke-linecap:round;stroke-linejoin:round;stroke-miterlimit:10;}
</style>
<g>
	<path class="st2" d="M47.4504318,61.3584709v-2.9430504H6.4916878L6.4920468,6.2512808h20.7831268L27.2748127,22.537384
		c0,0.7749653,0.313633,1.5330009,0.8618622,2.0810509c0.5478706,0.5480042,1.3059063,0.8619747,2.0811863,0.8619747h14.2898827
		l-0.0003624,35.8780594H47.4504318v-2.9430504V61.3584709h2.942688V22.537384c0-0.7749214-0.313633-1.5329132-0.8618622-2.0809631
		c-0.5478668-0.5480499-1.3059044-0.8620853-2.0808258-0.8620853H33.1601906L33.160553,3.3082769
		c0-0.7749212-0.313633-1.5329126-0.8618622-2.0809619c-0.5478706-0.5480494-1.3059082-0.8620865-2.0808296-0.8620865H3.5497169
		c-0.7752807,0-1.5333169,0.3139473-2.0811868,0.8619967c-0.548229,0.5480045-0.861862,1.3060408-0.861862,2.0810518v58.0501938
		c0,0.7749863,0.313633,1.5330238,0.861862,2.0810509c0.5478698,0.5480042,1.3059059,0.8619766,2.0811868,0.8619766h43.9007149
		c0.7749214,0,1.532959-0.3140602,2.0808258-0.8621101c0.5482292-0.5480499,0.8618622-1.3060188,0.8618622-2.0809174H47.4504318z"/>
	<path class="st2" d="M28.0260239,5.2723904l17.2325706,19.2291069c1.0846024,1.2104778,2.9452019,1.3123722,4.1559067,0.2275906
		c1.2103424-1.0847836,1.3123703-2.9454288,0.2274094-4.1558628L32.4093399,1.344119
		c-1.0846024-1.2104778-2.9452038-1.3123726-4.1559048-0.2275904C27.0430908,2.2013106,26.941061,4.0619574,28.0260239,5.2723904"/>
	<path class="st2" d="M10.7841129,37.6642036h29.0471554c1.6252899,0,2.9430504-1.3176498,2.9430504-2.9430504
		c0-1.6254196-1.3177605-2.9430485-2.9430504-2.9430485H10.7841129c-1.6256466,0-2.943049,1.3176289-2.943049,2.9430485
		C7.841064,36.3465538,9.1584663,37.6642036,10.7841129,37.6642036"/>
	<path class="st2" d="M10.7841129,21.2934952h11.3877869c1.625288,0,2.9430485-1.3176727,2.9430485-2.9430485
		c0-1.6254234-1.3177605-2.9430494-2.9430485-2.9430494H10.7841129c-1.6256466,0-2.943049,1.317626-2.943049,2.9430494
		C7.841064,19.9758224,9.1584663,21.2934952,10.7841129,21.2934952"/>
	<path class="st2" d="M10.7841129,52.86092h29.0471554c1.6252899,0,2.9430504-1.3176498,2.9430504-2.9430504
		c0-1.6254196-1.3177605-2.9430466-2.9430504-2.9430466H10.7841129c-1.6256466,0-2.943049,1.317627-2.943049,2.9430466
		C7.841064,51.5432701,9.1584663,52.86092,10.7841129,52.86092"/>
</g>
</svg>
