<?xml version="1.0" encoding="UTF-8"?>
<!-- Generator: Adobe Illustrator 19.0.1, SVG Export Plug-In . SVG Version: 6.00 Build 0)  -->
<svg class="icon_logo_small" version="1.1" id="Layer_1" xmlns="http://www.w3.org/2000/svg" xmlns:xlink="http://www.w3.org/1999/xlink" x="0px" y="0px" width="128px" height="24.5px" viewBox="-328 294 128 24.5" style="enable-background:new -328 294 128 24.5;" xml:space="preserve">
<style type="text/css">
	.icon_logo_small .st0{fill:#373838;}
</style>
<g>
	<path class="st0" d="M-292.3,305.3c0-3.5,1.7-6,4.5-6c1.8,0,2.8,1.1,3.4,2.3l-1.1,0.5c-0.5-0.9-1.2-1.6-2.2-1.6   c-1.9,0-3.1,2-3.1,4.8s1.2,4.8,3.1,4.8c1.1,0,1.8-0.7,2.3-1.7l1.2,0.5c-0.6,1.3-1.6,2.4-3.4,2.4   C-290.6,311.2-292.3,308.7-292.3,305.3z"/>
	<path class="st0" d="M-282.7,311v-11.6h1.2V311H-282.7z"/>
	<path class="st0" d="M-274.7,311v-1.2c-0.5,0.7-1.4,1.4-2.4,1.4c-1.4,0-2.1-0.7-2.1-2.2v-6.3h1.2v6c0,1.1,0.5,1.5,1.3,1.5   c0.8,0,1.6-0.6,2-1.3v-6.2h1.2v8.4H-274.7z"/>
	<path class="st0" d="M-271.2,311v-11.6h1.2v4.4c0.5-0.9,1.4-1.4,2.2-1.4c1.9,0,3,1.8,3,4.4c0,2.6-1.1,4.4-3,4.4   c-0.9,0-1.7-0.6-2.2-1.4v1.2H-271.2z M-268,310.1c1.4,0,2-1.5,2-3.3c0-1.8-0.6-3.3-2-3.3c-0.8,0-1.6,0.7-1.9,1.4v3.8   C-269.6,309.5-268.8,310.1-268,310.1z"/>
	<path class="st0" d="M-259,311v-11.6h1.4v10.3h4.2v1.2H-259z"/>
	<path class="st0" d="M-252.5,306.8c0-2.4,1.3-4.4,3.4-4.4c2.2,0,3.3,2,3.3,4.4v0.4h-5.4c0.1,1.7,0.9,2.9,2.4,2.9c0.7,0,1.5-0.4,2-1   l0.7,0.7c-0.7,0.8-1.6,1.3-2.8,1.3C-251.2,311.2-252.5,309.4-252.5,306.8z M-249.1,303.5c-1.5,0-2.1,1.6-2.1,2.8h4.2   C-247.1,305.1-247.6,303.5-249.1,303.5z"/>
	<path class="st0" d="M-242.3,311l-2.7-8.4h1.4l2.1,6.9l2.1-6.9h1.3l-2.8,8.4H-242.3z"/>
	<path class="st0" d="M-237.3,306.8c0-2.4,1.3-4.4,3.4-4.4c2.2,0,3.3,2,3.3,4.4v0.4h-5.4c0.1,1.7,0.9,2.9,2.4,2.9c0.7,0,1.5-0.4,2-1   l0.7,0.7c-0.7,0.8-1.6,1.3-2.8,1.3C-236,311.2-237.3,309.4-237.3,306.8z M-233.9,303.5c-1.5,0-2.1,1.6-2.1,2.8h4.2   C-231.9,305.1-232.4,303.5-233.9,303.5z"/>
	<path class="st0" d="M-228.8,311v-11.6h1.2V311H-228.8z"/>
	<path class="st0" d="M-217.7,311v-3h-4.6v-1.2l4.2-7.4h1.8v7.4h1.3v1.2h-1.3v3H-217.7z M-217.7,301l-3.3,5.9h3.3V301z"/>
	<path class="st0" d="M-209.2,311l-1.9-3.4l-1.9,3.4h-1.4l2.5-4.3l-2.4-4.1h1.4l1.8,3.2l1.8-3.2h1.4l-2.4,4.1l2.5,4.3H-209.2z"/>
	<path class="st0" d="M-202.6,311v-3h-4.6v-1.2l4.2-7.4h1.8v7.4h1.3v1.2h-1.3v3H-202.6z M-202.6,301l-3.3,5.9h3.3V301z"/>
</g>
<g>
	<path class="st0" d="M-316,306.3l2.2-2.7c-0.1-0.2-0.2-0.5-0.2-0.8c0-0.7,0.4-1.2,1-1.4v-5c-0.9,0.1-1.9,0.2-3,0.2L-316,306.3   C-316,306.3-316,306.3-316,306.3z"/>
	<path class="st0" d="M-319,306.8l1.2,0.2c0.2-0.3,0.5-0.5,0.8-0.7v-9.6c-0.1,0-0.3,0-0.4,0l-2.6,0v8.9   C-319.5,305.8-319.1,306.2-319,306.8z"/>
	<path class="st0" d="M-321.7,307.8c-0.2-0.2-0.3-0.5-0.3-0.8c0-0.7,0.4-1.2,1-1.4v-8.8l-2.1,0c-0.3,0-0.6,0-0.9,0.1V311   L-321.7,307.8z"/>
	<path class="st0" d="M-307.9,302.5l2.1-2.2c-0.1-0.2-0.2-0.4-0.2-0.7c0-0.7,0.4-1.2,1-1.4v-3.7c-1,0.1-2,0.4-3,0.8v7.2   C-308,302.5-307.9,302.5-307.9,302.5z"/>
	<path class="st0" d="M-326,312.5c0-0.7,0.4-1.2,1-1.4V297c-1.8,0.6-3,2.3-3,4.3l0,0l0,0v15.9c0,0.4,0.2,0.7,0.4,1   c0.3,0.2,0.6,0.4,1,0.4c0.4,0,0.7-0.1,1-0.4l0,0l0.6-0.5v-3.7C-325.6,313.7-326,313.2-326,312.5z"/>
	<path class="st0" d="M-311,302.7l1.3,0.3c0.2-0.3,0.4-0.5,0.7-0.6v-7c-1,0.4-2,0.6-3,0.8v5.1C-311.5,301.7-311.1,302.1-311,302.7z"/>
	<path class="st0" d="M-310,304l-1.3-0.3c-0.2,0.3-0.4,0.5-0.7,0.6v9.9c1.1,0,2.1-0.1,3-0.3v-8.6C-309.5,305.1-309.9,304.6-310,304z   "/>
	<path class="st0" d="M-301.2,296.9c0-0.2-0.1-1-1.1-1.9c-0.6-0.6-1.5-0.6-1.7-0.6c0,0,0,0,0,0v3.8c0.6,0.2,1,0.8,1,1.4   s-0.4,1.2-1,1.4v12c0.9-0.3,1.9-0.7,2.4-1.4c0.5-0.7,0.6-1.6,0.6-2.9v-9.2C-301,298.4-301.1,297.6-301.2,296.9z"/>
	<path class="st0" d="M-305.1,301l-2.1,2.2c0.1,0.2,0.2,0.4,0.2,0.7c0,0.7-0.4,1.2-1,1.4v8.5c1.2-0.2,2.2-0.3,3-0.5V301   C-305,301-305.1,301-305.1,301z"/>
	<path class="st0" d="M-313,304.3l-2.2,2.7c0.1,0.2,0.2,0.5,0.2,0.8c0,0.7-0.4,1.2-1,1.4v5.1h1.9c0.4,0,0.7,0,1.1,0L-313,304.3   C-313,304.3-313,304.3-313,304.3z"/>
	<path class="st0" d="M-318,308l-1.2-0.2c-0.2,0.3-0.5,0.5-0.8,0.7v5.8h3v-5.1C-317.5,309-317.9,308.5-318,308z"/>
	<path class="st0" d="M-323.3,311.7c0.2,0.2,0.3,0.5,0.3,0.8c0,0.7-0.4,1.2-1,1.4v3.2l3-2.4v-6.1L-323.3,311.7z"/>
</g>
</svg>