<?xml version="1.0" encoding="utf-8"?>
<!-- Generator: Adobe Illustrator 19.0.1, SVG Export Plug-In . SVG Version: 6.00 Build 0)  -->
<svg version="1.1" id="Layer_1" xmlns="http://www.w3.org/2000/svg" xmlns:xlink="http://www.w3.org/1999/xlink" x="0px" y="0px"
	 width="135px" height="125px" viewBox="0 0 135 125" style="enable-background:new 0 0 135 125;" xml:space="preserve">
<style type="text/css">
	.st0{fill:#71B82F;}
	.st1{fill:#DFD91A;}
	.st2{fill:#373838;}
	.st3{fill:#61D31E;}
	.st4{fill:#E0D919;}
	.st5{fill:none;stroke:#61D31E;stroke-linecap:round;stroke-linejoin:round;stroke-miterlimit:10;}
	.st6{fill:none;stroke:#61D31E;stroke-width:2;stroke-linecap:round;stroke-linejoin:round;stroke-miterlimit:10;}
</style>
<g>
	<path class="st0" d="M22.0000858,65.5885849v1.3597031c1.8254375,0,3.3195801,1.4172974,3.3306999,3.1506958v7.771759
		c0.0116196,1.8255234-1.4820251,3.377388-3.2530231,3.3887558H8.7873249c-0.3087206,0-0.6081467,0.1050186-0.8493142,0.2978058
		l-4.648243,3.7174301l-0.1183431,0.1065598l-0.1653152,0.0669708c-0.0760183,0-0.2969365-0.0532761-0.2979324-0.2076797V70.2520981
		c-0.0056431-0.8717194,0.3319581-1.6968002,0.950562-2.3234558c0.6186039-0.6265717,1.4393699-0.9747086,2.3024609-0.9802704
		h16.0161457L22.0000858,65.5885849 M22.0000858,65.5885849l-0.0313702,0.0000839H5.9612002
		c-2.5534213,0.0163498-4.6291552,2.1188049-4.6127229,4.672142v14.9797745
		c0.0059752,0.9450836,0.823588,1.5673447,1.6576325,1.5673447c0.403827,0,0.8114715-0.1457748,1.1328068-0.4712982
		l4.6484084-3.7174377h13.2904377c2.553257-0.0163422,4.6289902-2.2038269,4.6127243-4.757164v-7.7630463
		C26.674221,67.5562668,24.5393982,65.5885849,22.0000858,65.5885849z"/>
	<path class="st0" d="M34.095974,12.3881617v1.3597002c0.6342049,0,1.1532211,0.4795132,1.1568718,1.0602741v4.173708
		c0.0039825,0.6269035-0.5211716,1.1801949-1.1152115,1.1840115h-7.1306248c-0.3087215,0-0.6081486,0.1049824-0.8491497,0.2977657
		l-1.7822819,1.4253464v-7.002656c-0.0039845-0.6237488,0.5000935-1.1344662,1.1150455-1.1383667l8.5983772-0.000083
		L34.095974,12.3881617 M34.095974,12.3881617l-0.0167656,0.000083h-8.5885849
		c-1.3698235,0.0087137-2.4835434,1.1367903-2.4747467,2.5066977v8.0370359
		c0.0031528,0.5070667,0.4418354,0.8409328,0.8893166,0.8409328c0.2167683,0,0.4353619-0.0781746,0.6078148-0.2528687
		l2.4940014-1.9944859h7.1306248c1.3699913-0.0087986,2.4837074-1.182436,2.4749107-2.5523434V14.808136
		C36.6037483,13.4438705,35.4584961,12.3881617,34.095974,12.3881617z"/>
	<path class="st0" d="M36.9928055,106.5042038v1.3596954c0.5322952,0,0.967823,0.3993912,0.9709778,0.8816452v3.866394
		c0.0016594,0.2556534-0.1029091,0.511795-0.2869797,0.7028427c-0.1044006,0.1084213-0.3283043,0.2906647-0.6454926,0.2927017
		h-6.6044712c-0.3085537,0-0.6081467,0.1050186-0.8491478,0.2978058l-1.4876709,1.1897354v-6.2777786
		c-0.0033188-0.5134583,0.4277287-0.9500275,0.9324703-0.9533005h7.9618492L36.9928055,106.5042038 M36.9928055,106.5042038
		l-0.01577,0.0000381h-7.9545441c-1.2689095,0.0081329-2.3003025,1.052887-2.2921696,2.3217163v7.4438705
		c0.0029869,0.469635,0.4093037,0.7788925,0.8237534,0.7788925c0.2006683,0,0.4031639-0.0724487,0.5628357-0.2342377
		l2.3099289-1.8473053h6.6044712c1.2687454-0.0080872,2.3003044-1.0951233,2.2921715-2.3639526v-3.8576813
		C39.3153496,107.481987,38.2547417,106.5042038,36.9928055,106.5042038z"/>
	<path class="st0" d="M90.3484192,6.2910881v1.3597002c0.6340408,0,1.1530609,0.4795132,1.1568756,1.0602741v4.173708
		c0.0039825,0.6269026-0.5211716,1.1801939-1.1152115,1.1840115h-7.1306229c-0.3087234,0-0.6081467,0.1049824-0.8493195,0.2977667
		l-1.78228,1.4253445V8.789238c-0.0039825-0.6237488,0.5002594-1.1344662,1.1152115-1.1383667l8.5982132-0.000083
		L90.3484192,6.2910881 M90.3484192,6.2910881l-0.0169296,0.000083h-8.5884171
		c-1.3699875,0.0087137-2.4835434,1.1367903-2.4749146,2.5066977v8.0370369
		c0.0033188,0.5070648,0.4420013,0.8409328,0.8894806,0.8409328c0.2166061,0,0.4353638-0.0781765,0.6078186-0.2528687
		l2.4940033-1.9944878h7.1306229c1.3699875-0.0087967,2.4835434-1.1824341,2.4749146-2.5523424V8.7110624
		C92.8562012,7.3467975,91.7107773,6.2910881,90.3484192,6.2910881z"/>
	<path class="st0" d="M3.7027237,48.8975716L3.7165,50.2572708h6.9855585
		c0.2381802,0.0014954,0.3966904,0.1263123,0.4700527,0.2005882c0.0731974,0.0742722,0.1960211,0.2344437,0.1945276,0.4811707
		v5.1708298l-1.0413523-0.8328857c-0.241168-0.1927834-0.5405941-0.2977638-0.8493147-0.2977638H3.6776609
		c-0.2265615-0.0014954-0.3842416-0.1303787-0.4582682-0.2071419c-0.1322854-0.1373482-0.2074738-0.320755-0.2063119-0.5117989
		V50.877037c0.0021577-0.3417511,0.3117087-0.6197662,0.6898088-0.6197662L3.7027237,48.8975716 M3.7027237,48.8975716
		c-1.1094038,0.0000839-2.0422058,0.8597717-2.0493431,1.9707527v3.3919449
		c-0.0071372,1.1157112,0.8997723,2.0715027,2.0154834,2.07864h5.8071079l2.031085,1.6242714
		c0.1404181,0.1422424,0.3185139,0.2058945,0.4949493,0.2058945c0.3644905,0,0.7216768-0.2718735,0.7243328-0.6848259v-6.5452194
		c0.0071373-1.1156273-0.8997726-2.0343208-2.0154829-2.0414581H3.7165H3.7027237z"/>
	<path class="st0" d="M120.1414108,74.7512131l0.0137711,1.3596954h6.9855576
		c0.2380981,0.0014954,0.3966141,0.1263123,0.4699707,0.200592c0.0732803,0.0742722,0.196106,0.2344437,0.1945267,0.4811707
		v5.1708298l-1.0413513-0.8328476c-0.2410812-0.1927795-0.5405121-0.2978058-0.8492279-0.2978058l-5.7983932,0.0000458
		c-0.2264786-0.0014954-0.3842468-0.1304245-0.4581909-0.2071457c-0.1322784-0.1373901-0.2074738-0.320755-0.2063065-0.511795
		v-3.3832779c0.0021591-0.3417511,0.3116226-0.6197662,0.6897202-0.6197662L120.1414108,74.7512131 M120.1414108,74.7512131
		c-1.1094894,0.0000839-2.0422058,0.8597717-2.0493469,1.9707489v3.3919907
		c-0.0071335,1.1156693,0.8997726,2.0714569,2.0154877,2.078598h5.807106l2.0309982,1.6242676
		c0.140419,0.1422424,0.3185196,0.2059402,0.494957,0.2059402c0.3644867,0,0.7216644-0.2718735,0.7243347-0.6848297v-6.5452576
		c0.0071259-1.1156311-0.8997803-2.0343246-2.0154877-2.0414581h-6.994278H120.1414108z"/>
	<path class="st0" d="M63.1995659,22.2296391l0.0137749,1.3597832l6.9855576-0.0000839
		c0.2381821,0.0015774,0.3966904,0.1263943,0.4700546,0.2006683c0.0731964,0.074276,0.196022,0.2343636,0.1945267,0.4810905
		v5.1708279l-1.0413513-0.8327999c-0.2411652-0.1927834-0.540596-0.2978497-0.8493118-0.2978497l-5.7983131,0.0000839
		c-0.2265625-0.0014935-0.384243-0.1304607-0.458271-0.2071419c-0.1322823-0.1374302-0.2074738-0.320755-0.2063103-0.511797
		v-3.383316c0.0021591-0.3416672,0.3117065-0.6196823,0.6898079-0.6197662L63.1995659,22.2296391 M63.1995659,22.2296391
		c-1.1094055,0.000082-2.0422058,0.8597717-2.0493431,1.9707508v3.3920307
		c-0.0071373,1.1156292,0.8997726,2.0714188,2.0154839,2.0785561h5.8071098l2.0310822,1.6242695
		c0.140419,0.1422443,0.318512,0.2059803,0.4949493,0.2059803c0.3644867,0,0.7216797-0.2718735,0.7243347-0.6848297v-6.5452995
		c0.0071335-1.1156273-0.8997726-2.0342388-2.0154877-2.0413761h-6.9943542L63.1995659,22.2296391z"/>
	<path class="st0" d="M40.7645111,29.0281391l0.0137787,1.3597832l6.9855576-0.000082
		c0.2381783,0.0015755,0.3966904,0.1263924,0.4700508,0.2006683c0.0732002,0.074276,0.196022,0.2343616,0.1945305,0.4810905
		v5.170826l-1.0413551-0.832798c-0.2411652-0.1927872-0.5405922-0.2978516-0.8493118-0.2978516l-5.7983131,0.0000839
		c-0.2265625-0.0014915-0.3842392-0.1304588-0.4582672-0.2071419c-0.1322861-0.1374283-0.2074738-0.320755-0.2063141-0.511795
		v-3.3833179c0.0021591-0.3416672,0.3117104-0.6196823,0.6898117-0.6197643L40.7645111,29.0281391 M40.7645111,29.0281391
		c-1.1094017,0.0000839-2.0422058,0.8597717-2.0493431,1.9707527v3.3920307
		c-0.0071373,1.1156273,0.8997726,2.0714188,2.0154839,2.0785561h5.8071098l2.0310822,1.6242676
		c0.140419,0.1422462,0.3185158,0.2059822,0.4949532,0.2059822c0.3644867,0,0.7216759-0.2718735,0.7243309-0.6848297v-6.5452995
		c0.0071373-1.1156292-0.8997726-2.0342388-2.0154839-2.0413761h-6.9943542L40.7645111,29.0281391z"/>
	<path class="st0" d="M64.4998474,109.7855682l0.0212402,1.3597794l10.828804-0.0000381
		c0.4728775,0.0030289,0.9186935,0.1923294,1.2551346,0.5330811c0.3362732,0.3407516,0.5200119,0.7888184,0.516861,1.270401
		v9.566246l-2.8274536-2.2611771c-0.2410049-0.1927795-0.540596-0.2978058-0.8491516-0.2978058l-8.9892578,0.0000381
		c-0.9669914-0.0061798-1.7784653-0.854454-1.7719917-1.8610382v-5.2470551
		c0.0059776-0.938858,0.8206024-1.7026901,1.815815-1.7027359V109.7855682 M64.4998474,109.7855682
		c-1.7192154,0.0000839-3.1645584,1.3321838-3.1755142,3.0536804v5.255806
		c-0.0111198,1.7286758,1.3942261,3.2096634,3.1228943,3.2207031h8.9980545l3.1471329,2.5168228
		c0.217598,0.2204208,0.493454,0.3190918,0.7668228,0.3190918c0.564827,0,1.1181946-0.4212952,1.122345-1.061142v-10.1417389
		c0.0111237-1.7286682-1.3942184-3.1521072-3.1228943-3.1631393H64.5210876L64.4998474,109.7855682z"/>
	<path class="st0" d="M71.5901337,1.6552938v1.3597001c0.3781052,0,0.6874847,0.2780149,0.6896439,0.6110518v3.4007444
		c0.0011597,0.1822448-0.074028,0.3656516-0.2063141,0.5029993c-0.0738602,0.0767651-0.2317047,0.2057309-0.4494705,0.2071419
		h-5.807106c-0.3085556,0-0.6081467,0.1050649-0.849144,0.2978492l-1.041523,0.8327999V3.6880388
		c-0.0014915-0.2379308,0.1213341-0.3981006,0.1946907-0.4723761c0.073204-0.0742757,0.2318726-0.1990919,0.4610901-0.2005858
		l7.002327-0.000083L71.5901337,1.6552938 M71.5901337,1.6552938l-0.0137711,0.000083h-6.9943619
		c-1.1155434,0.0071371-2.0226173,0.925748-2.01548,2.0413761v6.5453005
		c0.002655,0.4129553,0.3598442,0.6848288,0.7243309,0.6848288c0.1764374,0,0.3545341-0.063736,0.4949493-0.2059793
		l2.031086-1.6242714h5.807106c1.115715-0.0071363,2.0226212-0.9629269,2.0154877-2.0785551V3.6260457
		C73.6323395,2.5150652,72.699707,1.6552938,71.5901337,1.6552938z"/>
	<path class="st0" d="M50.514782,95.1346817v1.3596954c0.3781013,0,0.6874886,0.2780151,0.6896439,0.6110535v3.4007034
		c0.0011635,0.1822891-0.0740242,0.365654-0.2063103,0.5030441c-0.0738602,0.0767593-0.2317085,0.2057266-0.4494705,0.2071381
		h-5.8071098c-0.3085556,0-0.6081467,0.1050262-0.8491478,0.2978058l-1.0415192,0.8328476v-5.1795425
		c-0.0014954-0.2379761,0.1213303-0.3981018,0.1946945-0.4723816c0.0731964-0.0742722,0.2318726-0.1991272,0.4610901-0.2006226
		l7.0023232-0.0000458L50.514782,95.1346817 M50.514782,95.1346817l-0.0137749,0.0000381h-6.9943542
		c-1.1155472,0.0071411-2.0226212,0.9257889-2.0154839,2.04142v6.5452576
		c0.002655,0.4129562,0.3598404,0.6848297,0.7243309,0.6848297c0.1764374,0,0.3545303-0.0636978,0.4949493-0.2059402
		l2.031086-1.6242676h5.8071098c1.1157112-0.0071411,2.0226173-0.9629669,2.01548-2.078598v-3.3919907
		C52.5569878,95.9944534,51.6243553,95.1346817,50.514782,95.1346817z"/>
	<path class="st0" d="M33.2536278,50.7278214v1.3596992c0.3781013,0,0.6874847,0.2780151,0.6896439,0.6110535v3.4007454
		c0.0011635,0.1822433-0.074028,0.3656502-0.2063103,0.5029984c-0.0738602,0.076767-0.2317085,0.2057304-0.4494743,0.2071419
		h-5.807106c-0.3085556,0-0.6081467,0.1050644-0.8491497,0.2978477l-1.0415173,0.8328018v-5.1795425
		c-0.0014935-0.2379303,0.1213303-0.3981018,0.1946926-0.472374c0.0731964-0.074276,0.2318726-0.1990929,0.4610901-0.2005882
		l7.0023212-0.0000839L33.2536278,50.7278214 M33.2536278,50.7278214l-0.0137749,0.0000839h-6.9943562
		c-1.1155453,0.0071373-2.0226212,0.9257469-2.0154839,2.0413742v6.5453033
		c0.0026569,0.4129524,0.3598423,0.6848259,0.7243328,0.6848259c0.1764355,0,0.3545322-0.063736,0.4949493-0.2059784
		l2.031086-1.6242714h5.807106c1.1157112-0.0071373,2.0226212-0.962925,2.0154839-2.0785561v-3.3920288
		C35.2958336,51.5875931,34.3631973,50.7278214,33.2536278,50.7278214z"/>
	<path class="st0" d="M100.1630096,109.7928696v1.3597031c1.0177002,0,1.8506699,0.7815094,1.8568115,1.7334366v5.3324509
		c0.0065536,1.0203171-0.8234253,1.8876419-1.8036118,1.8939438h-9.1142426c-0.3087234,0-0.6081467,0.1050262-0.8493118,0.2978134
		l-2.8925171,2.3132477v-9.7351685c-0.0031586-0.4837036,0.1847305-0.9420166,0.5288086-1.2904892
		c0.3439102-0.3484726,0.7998505-0.5420837,1.2748795-0.5451584l10.9852448-0.0000381L100.1630096,109.7928696
		 M100.1630096,109.7928696l-0.0215759,0.0000839H89.163826c-1.7510757,0.0112-3.1745148,1.4530182-3.1633911,3.2040558v10.2728195
		c0.0041504,0.6481018,0.564827,1.0748749,1.1367874,1.0748749c0.2770233,0,0.5565338-0.0999985,0.7769547-0.3232422
		l3.1877899-2.5493546h9.1142426c1.7509918-0.0112,3.1745148-1.511322,3.1633072-3.2623596v-5.3237381
		C103.3684006,111.1422806,101.9044647,109.7928696,100.1630096,109.7928696z"/>
	<path class="st0" d="M131.6021729,58.1691589v1.3596992c0.3780975,0,0.6875763,0.2780151,0.6897278,0.6110535v3.4006615
		c0.0011597,0.1823273-0.0740204,0.3656502-0.2063141,0.5030823c-0.0739441,0.076767-0.231781,0.2057343-0.4494629,0.2071381
		H125.82901c-0.3086395,0-0.6081467,0.1049881-0.8492279,0.2977676l-1.0414352,0.8328857v-5.1795425
		c-0.0015793-0.2380142,0.1212463-0.3981018,0.1946106-0.472374c0.0732727-0.074276,0.2318726-0.1991768,0.4611664-0.2006721
		h7.0022507L131.6021729,58.1691589 M131.6021729,58.1691589h-0.0137787h-6.9942703
		c-1.1156235,0.0071373-2.0226212,0.9258308-2.01548,2.0414581v6.5452194
		c0.002655,0.4129562,0.3598404,0.6848297,0.7243347,0.6848297c0.1764297,0,0.3545303-0.063652,0.4949493-0.2058945
		l2.0310822-1.6242752h5.8071136c1.1156158-0.0071335,2.0226135-0.9630127,2.0154724-2.0786362v-3.3919487
		C133.6444702,59.0289307,132.7117462,58.1691589,131.6021729,58.1691589z"/>
	<path class="st0" d="M27.7170677,86.5146408v1.3597031c0.3780994,0,0.6876507,0.2780151,0.6898079,0.6110535v3.4007034
		c0.0011616,0.1822815-0.0740261,0.3656464-0.2063122,0.5030365c-0.0740261,0.076767-0.2318726,0.2057343-0.4494705,0.2071457
		H21.943985c-0.3087215,0-0.6081486,0.1050186-0.8493156,0.2978058l-1.0413513,0.83284v-5.1795425
		c-0.0016613-0.2379684,0.1211643-0.3981018,0.1945267-0.472374c0.0733624-0.0742798,0.2318726-0.1991348,0.461256-0.2006302
		l7.0021572-0.0000381L27.7170677,86.5146408 M27.7170677,86.5146408l-0.0137768,0.0000458h-6.9941902
		c-1.1157112,0.0071335-2.0226212,0.9257889-2.0154839,2.0414124v6.5452576
		c0.0026569,0.4129562,0.3598423,0.6848297,0.7243328,0.6848297c0.1764355,0,0.3545303-0.0636902,0.4949493-0.2059326
		l2.031086-1.6242752h5.8071079c1.1155453-0.0071335,2.0226192-0.9629669,2.0154839-2.078598v-3.391983
		C29.7594395,87.3744125,28.8266373,86.5146408,27.7170677,86.5146408z"/>
	<path class="st0" d="M88.9035721,27.7076111v1.3596992c0.3781052,0,0.6876526,0.2780151,0.6898117,0.6110516v3.4006634
		c0.0011597,0.1823273-0.074028,0.3656502-0.2063141,0.5030823c-0.074028,0.0767632-0.2318726,0.2057304-0.4494705,0.2071419
		h-5.807106c-0.3087234,0-0.6081467,0.1049805-0.8493195,0.2977638l-1.0413513,0.8328819v-5.1795387
		c-0.0016556-0.2380142,0.12117-0.3981018,0.1945267-0.4723778c0.0733643-0.074276,0.2318726-0.1991749,0.4612579-0.2006683
		h7.0021591L88.9035721,27.7076111 M88.9035721,27.7076111H88.889801h-6.994194
		c-1.1157074,0.0071373-2.0226212,0.9258308-2.01548,2.0414581v6.5452156
		c0.002655,0.4129562,0.3598404,0.6848297,0.7243271,0.6848297c0.1764374,0,0.354538-0.063652,0.4949493-0.2058945
		l2.0310898-1.6242714h5.807106c1.1155472-0.0071373,2.0226212-0.9630127,2.0154877-2.07864v-3.3919468
		C90.9459457,28.5673809,90.0131454,27.7076111,88.9035721,27.7076111z"/>
	<path class="st0" d="M124.4752045,40.411644v1.3596992c1.3108139,0,2.3837891,1.0123062,2.3917542,2.2478561v6.2177391
		c0.0040665,0.6350365-0.2422409,1.2429352-0.6936264,1.7115746c-0.4465637,0.4635811-1.0306473,0.721096-1.636055,0.7249985
		h-10.630043c-0.3086395,0-0.6081467,0.1049805-0.8492279,0.2977676l-3.7179337,2.9733467l-0.0229874,0.0200844V44.1399498
		c-0.0040665-0.6245804,0.2380981-1.2159653,0.681839-1.6654358c0.4436646-0.4493866,1.0319748-0.6991043,1.6478424-0.7030869
		h12.8119202L124.4752045,40.411644 M124.4752045,40.411644l-0.0252304,0.0000839h-12.8032074
		c-2.0422058,0.0131111-3.7024918,1.6946449-3.6893845,3.7369347v11.9811974
		c0.0048141,0.7559509,0.6586914,1.2536392,1.3258438,1.2536392c0.322998,0,0.6489792-0.1166,0.9060822-0.3770218
		l3.717926-2.9732666h10.630043c2.0422058-0.0130272,3.7024078-1.7626953,3.6893768-3.8049011v-6.2091103
		C128.2136383,41.9854584,126.5062866,40.411644,124.4752045,40.411644z"/>
	<path class="st0" d="M97.5798798,19.761198l0.0229034,1.3597012h11.6240921
		c1.1105652,0.0071373,2.0082626,0.9163704,2.0011292,2.0356503v10.4757633l-3.1970062-2.5567398
		c-0.2410889-0.1927834-0.540596-0.2978477-0.8492355-0.2978477l-9.6495209,0.000082
		c-1.0920563-0.0070534-2.0084305-0.9635086-2.0011215-2.097477v-5.6327477
		c0.0067978-1.0623474,0.925827-1.9266834,2.0488434-1.9266834L97.5798798,19.761198 M97.5798798,19.761116
		c-1.8452759,0.0001659-3.3966751,1.4299088-3.4084625,3.2777538v5.6414604
		c-0.0119476,1.8555622,1.4966354,3.4452267,3.3521118,3.4570942h9.6582336l3.378006,2.7014732
		c0.2336197,0.2366028,0.529808,0.3424988,0.8231735,0.3424988c0.6062393,0,1.2003632-0.4522095,1.2047577-1.1389465V23.1565495
		c0.0118713-1.8555641-1.4966278-3.3834-3.3521118-3.3953514H97.6027832L97.5798798,19.761116z"/>
	<path class="st0" d="M46.7205048,11.5858192l0.0149384,1.3597002h7.5832481
		c0.4564438,0.0029039,0.8396873,0.3910465,0.8367004,0.8562021v5.8544121l-1.3192024-1.0550461
		c-0.2410011-0.1927834-0.5405922-0.2977657-0.8491478-0.2977657h-6.29459
		c-0.2884712-0.0018253-0.4873123-0.1639881-0.5802612-0.2604218c-0.1644859-0.1707916-0.2579308-0.3994274-0.2564392-0.6361141
		v-3.6731157c0.0026588-0.4346161,0.3907166-0.7881508,0.8647537-0.7881508V11.5858192 M46.7205048,11.5858192
		c-1.2045097,0-2.2168159,0.933217-2.224453,2.1391373v3.6818295c-0.0078011,1.2109833,0.9766197,2.248436,2.187603,2.256237
		h6.3033867l2.2045326,1.7630291c0.1525345,0.1544418,0.3459015,0.2235737,0.5372734,0.2235737
		c0.3956947,0,0.7834206-0.2951107,0.7862434-0.7433376v-7.1045666c0.0078011-1.2109823-0.9767876-2.2081013-2.1877708-2.2159023
		h-7.591877H46.7205048z"/>
	<path class="st0" d="M79.6932297,92.148056l0.0149384,1.3597412l7.583252-0.0000458
		c0.4564438,0.0029449,0.8396912,0.3910522,0.8367004,0.8562088v5.8544464l-1.3191986-1.0550385
		c-0.2410049-0.1927872-0.540596-0.2978134-0.8491516-0.2978134H79.665184
		c-0.288475-0.0018234-0.4873199-0.1639404-0.5802612-0.2604218c-0.1644897-0.1707458-0.2579346-0.3993835-0.2564392-0.6360703
		v-3.6731567c0.002655-0.4345779,0.3907089-0.7881546,0.8647461-0.7881546V92.148056 M79.6932297,92.148056
		c-1.2045059,0.0000381-2.2168121,0.9332123-2.2244492,2.1391754v3.6818314
		c-0.0077972,1.2109833,0.9766235,2.248436,2.1876068,2.2561951h6.3033829l2.2045364,1.7630692
		c0.1525345,0.1544037,0.3458939,0.2235336,0.5372696,0.2235336c0.3956985,0,0.7834244-0.2951126,0.7862473-0.7433395v-7.1045609
		c0.0077972-1.2109833-0.9767914-2.208107-2.1877747-2.2158661H79.708168L79.6932297,92.148056z"/>
	<path class="st0" d="M12.6250925,25.8696423l0.0280504,1.3597832l14.222908-0.0000839
		c1.5260105,0.0097923,2.7597332,1.259367,2.7499409,2.7941742l0.0044804,13.3045483l-0.1108723,0.0362663l-0.0471382-0.0037346
		l-0.1185093-0.1066437l-4.1327114-3.3050575c-0.241003-0.1927834-0.5405941-0.2977638-0.8491497-0.2977638h-11.80725
		c-0.724-0.0046501-1.4116516-0.3073959-1.9366426-0.8523865c-0.5293074-0.5496407-0.8182764-1.2629356-0.8134632-2.0173111
		v-6.8931065c0.0094604-1.4660931,1.270237-2.6589012,2.810523-2.6589851L12.6250925,25.8696423 M12.6250925,25.8696423
		c-2.2576475,0.000082-4.1556168,1.7493362-4.1700573,4.0099697v6.9018211
		c-0.0144405,2.2700119,1.8309145,4.2148743,4.1010094,4.2293968h11.8160467l4.1327114,3.3049736
		c0.2856503,0.2894669,0.6481495,0.4190979,1.0069962,0.4190979c0.7415943,0,1.4684162-0.5532913,1.4738922-1.3934784V30.0235157
		c0.0144405-2.2700958-1.8309135-4.139267-4.1010094-4.1537914H12.6531429L12.6250925,25.8696423z"/>
	<path class="st0" d="M105.4645462,90.782959l0.0212479,1.359787l10.7883835-0.0000458
		c0.4698029,0.0030289,0.9125519,0.1910858,1.2467499,0.5295944c0.3342056,0.3385162,0.5166092,0.7836304,0.5135422,1.2621078
		v9.5199738l-2.8086166-2.2461472c-0.2410812-0.1927872-0.5405045-0.2978134-0.8492279-0.2978134l-8.9557343,0.0000458
		c-0.9605179-0.0061417-1.7665939-0.8489456-1.7602844-1.8490524v-5.2274628
		c0.0059738-0.9325104,0.8152008-1.691246,1.8040237-1.6912842L105.4645462,90.782959 M105.4645462,90.782959
		c-1.712822,0.0000839-3.1526871,1.3271713-3.1636429,3.0422745v5.2361755
		c-0.0109558,1.7222443,1.3890762,3.1977158,3.1113586,3.2087097h8.9643631l3.1353455,2.5074463
		c0.2167664,0.2195892,0.4917068,0.3178864,0.7640839,0.3178864c0.5625839,0,1.1140518-0.4197159,1.1181183-1.0571594V93.9344025
		c0.0110321-1.7222366-1.3890839-3.1403656-3.1112823-3.1513596h-10.7970963L105.4645462,90.782959z"/>
	<path class="st0" d="M100.7722397,63.9667244l0.0229034,1.3596992h11.6240921
		c1.1105652,0.0071411,2.0082626,0.9163742,2.0011215,2.0356522V77.837883l-3.1969986-2.5567856
		c-0.2410889-0.1927795-0.540596-0.2978439-0.8492355-0.2978439l-9.6495209,0.0000763
		c-1.09198-0.0070496-2.0083466-0.9635086-2.0011292-2.0974731v-5.6327515
		c0.0068054-1.0623474,0.9259186-1.9266815,2.0488434-1.9266815L100.7722397,63.9667244 M100.7722397,63.9666405
		c-1.8452759,0.0001678-3.3966827,1.4299126-3.4084625,3.2777519v5.6414642
		c-0.0118713,1.8555603,1.4966278,3.4452286,3.3521118,3.4570923h9.6582336l3.378006,2.7015152
		c0.2336121,0.2365646,0.529808,0.3424988,0.8231735,0.3424988c0.6062393,0,1.2003555-0.4522095,1.2047577-1.1389923V67.3620758
		c0.0118637-1.8555679-1.4966354-3.3834-3.3521118-3.3953514h-11.6328049L100.7722397,63.9666405z"/>
	<g>
		<path class="st0" d="M64.9257431,75.4653397V56.8909569l-3.4045601,3.6356049l-1.5854301-1.6524887l5.2874298-5.4534073h2.3130798
			v22.0446739H64.9257431z"/>
	</g>
	<path class="st1" d="M89.3558655,64.8918076h-2.0395508c-0.0011597,6.0764923-2.4573135,11.5590286-6.4384918,15.5434799
		c-3.9843216,3.9810867-9.4667816,6.4372864-15.5432663,6.438324c-6.0766602-0.0010376-11.5592804-2.4572372-15.5436058-6.4383621
		c-3.9811745-3.9844131-6.4373322-9.4669495-6.4384956-15.5434418c0.0011635-6.0765762,2.4573212-11.5591927,6.4384956-15.5435219
		c3.9843254-3.9811707,9.4669456-6.4373283,15.5436058-6.4384079c6.0764847,0.0010796,11.5589447,2.4572372,15.5432663,6.4384079
		c3.9811783,3.9843292,6.4373322,9.4668655,6.4384918,15.5435219H89.3558655h2.0393829
		c-0.0013275-14.3938675-11.6669922-26.0597038-26.0606918-26.0609474
		c-14.3940353,0.0012436-26.0598717,11.6670799-26.0610352,26.0609474
		c0.0011635,14.3938293,11.6669998,26.0595398,26.0610352,26.0608673
		c14.3936996-0.0013275,26.0593643-11.667038,26.0606918-26.0608673H89.3558655z"/>
</g>
</svg>
