<?xml version="1.0" encoding="utf-8"?>
<!-- Generator: Adobe Illustrator 19.0.1, SVG Export Plug-In . SVG Version: 6.00 Build 0)  -->
<svg version="1.1" id="Layer_1" xmlns="http://www.w3.org/2000/svg" xmlns:xlink="http://www.w3.org/1999/xlink" x="0px" y="0px"
	 width="41px" height="57.3333321px" viewBox="0 0 41 57.3333321" style="enable-background:new 0 0 41 57.3333321;"
	 xml:space="preserve">
<style type="text/css">
	.st0{fill:#71B82F;}
	.st1{fill:#DFD91A;}
	.st2{fill:#373838;}
	.st3{fill:#61D31E;}
	.st4{fill:#E0D919;}
	.st5{fill:none;stroke:#61D31E;stroke-linecap:round;stroke-linejoin:round;stroke-miterlimit:10;}
	.st6{fill:none;stroke:#61D31E;stroke-width:2;stroke-linecap:round;stroke-linejoin:round;stroke-miterlimit:10;}
</style>
<g>
	<rect x="0.776329" y="0.5011757" class="st2" width="38.7309799" height="9.6145754"/>
	<rect x="3.454963" y="25.7059689" class="st2" width="11.5268211" height="11.5269108"/>
	<path class="st2" d="M3.454963,20.3107986h34.0900726c1.6252861,0,2.9430504-1.3176708,2.9430504-2.9430485
		c0-1.6254663-1.3177643-2.9430485-2.9430504-2.9430485H3.454963c-1.6256462,0-2.9430485,1.3175821-2.9430485,2.9430485
		C0.5119144,18.9931278,1.8293167,20.3107986,3.454963,20.3107986"/>
	<path class="st2" d="M20.5,29.4411831h17.0450363c1.6252861,0,2.9430504-1.3176708,2.9430504-2.9430485
		c0-1.6254654-1.3177643-2.9430485-2.9430504-2.9430485H20.5c-1.6256466,0-2.9430485,1.3175831-2.9430485,2.9430485
		C17.5569515,28.1235123,18.8743534,29.4411831,20.5,29.4411831"/>
	<path class="st2" d="M20.5,38.5714798h17.0450363c1.6252861,0,2.9430504-1.3176727,2.9430504-2.9430504
		c0-1.6254654-1.3177643-2.9430466-2.9430504-2.9430466H20.5c-1.6256466,0-2.9430485,1.3175812-2.9430485,2.9430466
		C17.5569515,37.2538071,18.8743534,38.5714798,20.5,38.5714798"/>
	<path class="st2" d="M3.454963,47.7018623h34.0900726c1.6252861,0,2.9430504-1.3176727,2.9430504-2.9430466
		c0-1.6254692-1.3177643-2.9430504-2.9430504-2.9430504H3.454963c-1.6256462,0-2.9430485,1.3175812-2.9430485,2.9430504
		C0.5119144,46.3841896,1.8293167,47.7018623,3.454963,47.7018623"/>
	<path class="st2" d="M3.454963,56.8321571h34.0900726c1.6252861,0,2.9430504-1.3176727,2.9430504-2.9430466
		c0-1.6254692-1.3177643-2.9430504-2.9430504-2.9430504H3.454963c-1.6256462,0-2.9430485,1.3175812-2.9430485,2.9430504
		C0.5119144,55.5144844,1.8293167,56.8321571,3.454963,56.8321571"/>
</g>
</svg>
