<?xml version="1.0" encoding="utf-8"?>
<!-- Generator: Adobe Illustrator 19.0.1, SVG Export Plug-In . SVG Version: 6.00 Build 0)  -->
<svg version="1.1" id="Layer_1" xmlns="http://www.w3.org/2000/svg" xmlns:xlink="http://www.w3.org/1999/xlink" x="0px" y="0px"
	 width="71.6666641px" height="60.3333321px" viewBox="0 0 71.6666641 60.3333321"
	 style="enable-background:new 0 0 71.6666641 60.3333321;" xml:space="preserve">
<style type="text/css">
	.st0{fill:#71B82F;}
	.st1{fill:#DFD91A;}
	.st2{fill:#373838;}
	.st3{fill:#61D31E;}
	.st4{fill:#E0D919;}
	.st5{fill:none;stroke:#61D31E;stroke-linecap:round;stroke-linejoin:round;stroke-miterlimit:10;}
	.st6{fill:none;stroke:#61D31E;stroke-width:2;stroke-linecap:round;stroke-linejoin:round;stroke-miterlimit:10;}
</style>
<g>
	<g>
		<path class="st2" d="M41.4457016,24.7488384c-0.6628418,0-1.3239746,0.5292969-1.6040039,1.1470947v3.2498779
			c0.2800293,0.6177979,0.9411621,1.1760864,1.6040039,1.1760864c1.1616211,0,1.7054443-1.250061,1.7054443-2.7937622
			C43.1511459,25.9988995,42.6073227,24.7488384,41.4457016,24.7488384z"/>
	</g>
	<g>
		<path class="st2" d="M23.7773647,17.9707012c-2.2073975,0-2.7495117,3.052002-2.7495117,5.9085083
			c0,2.8356323,0.5196533,5.9310303,2.7495117,5.9310303s2.7703857-3.0953979,2.7703857-5.9310303
			C26.5477505,21.0227032,26.0072231,17.9707012,23.7773647,17.9707012z"/>
	</g>
	<g>
		<g>
			<path class="st2" d="M58.3263168,0.5523666H13.6449184C6.5177212,0.5067734,0.5106412,6.0148301,0.4649869,13.1419048v21.6687641
				c-0.0456543,7.1270752,5.748291,13.2329712,12.8754883,13.2786255h37.097168l12.9748535,10.3763428
				c2.7507324,2.7859497,7.7641602,0.8555908,7.7891846-3.0593262V13.593626
				C71.2472153,6.4665513,65.45327,0.5979599,58.3263168,0.5523666z M23.7773647,31.3467388
				c-3.3770752,0-4.5240479-4.0044556-4.5240479-7.4675293c0-3.4847412,1.1469727-7.4457397,4.5240479-7.4457397
				c3.3769531,0,4.5240479,3.9609985,4.5240479,7.4457397C28.3014126,27.3422832,27.1543179,31.3467388,23.7773647,31.3467388z
				 M37.4879379,24.9105206h-3.0004883v6.1763916h-1.0441895v-7.1030884h4.0446777V24.9105206z M41.7096176,31.2630596
				c-0.7207031,0-1.427002-0.4110718-1.8679199-1.2058105v3.7357197h-1.0440674v-9.809145h1.0440674v1.0151978
				c0.4118652-0.7207642,1.1181641-1.1914062,1.8679199-1.1914062c1.602417,0,2.5435791,1.4849854,2.5435791,3.72052
				C44.2531967,29.7483501,43.3120346,31.2630596,41.7096176,31.2630596z M50.7240219,31.0869122h-1.0441895v-3.2209473h-2.809082
				v3.2209473H45.826683v-7.1030884h1.0440674v2.9562378h2.809082v-2.9562378h1.0441895V31.0869122z M53.3722153,31.234129
				c-0.4263916,0-0.7786865-0.3531494-0.7786865-0.7940063c0-0.4118652,0.3522949-0.77948,0.7786865-0.77948
				c0.4262695,0,0.7946777,0.3676147,0.7946777,0.77948C54.166893,30.8809795,53.7984848,31.234129,53.3722153,31.234129z"/>
		</g>
	</g>
</g>
</svg>
