<?xml version="1.0" encoding="utf-8"?>
<!-- Generator: Adobe Illustrator 19.0.1, SVG Export Plug-In . SVG Version: 6.00 Build 0)  -->
<svg version="1.1" id="Layer_1" xmlns="http://www.w3.org/2000/svg" xmlns:xlink="http://www.w3.org/1999/xlink" x="0px" y="0px"
	 width="144px" height="154px" viewBox="0 0 144 154" style="enable-background:new 0 0 144 154;" xml:space="preserve">
<style type="text/css">
	.st0{fill:#71B82F;}
	.st1{fill:#DFD91A;}
	.st2{fill:#373838;}
	.st3{fill:#61D31E;}
	.st4{fill:#E0D919;}
	.st5{fill:none;stroke:#61D31E;stroke-linecap:round;stroke-linejoin:round;stroke-miterlimit:10;}
	.st6{fill:none;stroke:#61D31E;stroke-width:2;stroke-linecap:round;stroke-linejoin:round;stroke-miterlimit:10;}
</style>
<path class="st5" d="M8.0748549,58.1345406c0-1.0213013,0.8270006-1.8482018,1.8481007-1.8482018
	c0,0,20.6445007-7.2271004,37.0914993-7.9650002c0.3101883-0.013916,0.6198082-0.0266953,0.9287796-0.0383759"/>
<g>
	<polyline class="st5" points="52.0723,53.5123138 44.5271301,43.4850922 101.2660141,0.8015652 119.8184586,25.4631081 
		92.5685577,45.9564323 	"/>
	<path class="st5" d="M86.0684586,46.7611389l11.7652206-8.8324509c-3.2471466-1.726326-7.1626511-1.8836098-10.5013428-0.2863121
		c-0.0089493,0.0008392-0.0089493,0.0008392-0.0089493,0.0008392l-1.0964508-1.4603424
		c1.6028748-2.6543274,1.2616272-6.5671768-1.1079712-9.7137051c-2.9365616-3.9073257-7.1038132-4.1145782-10.2758865-1.7371998
		c-3.1608963,2.3834896-4.1250992,6.4513073-1.1787338,10.3537674c2.3712692,3.145813,6.0382767,4.5618668,9.0240555,3.7575684
		l1.0979767,1.459877c0,0,0,0,0.00354-0.0010757c-1.8453293,2.0894432-2.9163208,4.3691902-2.9714584,7.084034"/>
	<path class="st5" d="M103.1466675,9.0077152c1.3843002,1.8367472,1.017662,4.4521828-0.8257294,5.8328629
		c-1.8345871,1.3910656-4.4561081,1.0226183-5.8375854-0.8168688c-1.380127-1.8415718-1.0162582-4.4599276,0.8254623-5.8457441
		C99.1520004,6.8086367,101.7637711,7.1632242,103.1466675,9.0077152z"/>
	<path class="st5" d="M113.7080688,23.0394592c0.6606293,0.8852139,0.477272,2.1258354-0.3970413,2.790678
		c-0.8846512,0.6621323-2.1279144,0.4889889-2.7895889-0.393816c-0.6614609-0.875555-0.4800186-2.1286602,0.3936539-2.7894382
		C111.7931671,21.9810009,113.043869,22.1610813,113.7080688,23.0394592z"/>
	<path class="st5" d="M58.7225609,42.4365044c1.382122,1.8354225,1.0099449,4.4508743-0.8267365,5.8350487
		c-1.8408394,1.383564-4.4556541,1.0186157-5.8408241-0.8271713c-1.3846741-1.8383064-1.0239906-4.4482689,0.8309517-5.83424
		C54.7193069,40.2212257,57.3317413,40.5962029,58.7225609,42.4365044z"/>
</g>
<g>
	<polyline class="st5" points="61.4776192,54.2605133 60.9434586,50.2538376 80.6113739,47.6362381 131.3297577,40.8861389 
		135.3987579,71.4737396 100.4428177,76.126709 	"/>
	<path class="st5" d="M101.1110611,66.1626358c0,0,0,0,0.0034943-0.0070953l-0.240593-1.8091049
		c2.6911926-1.5238953,4.3113937-5.1062965,3.7927017-9.0130959c-0.6452026-4.8442001-4.1794052-7.0632019-8.1093063-6.5499992
		c-3.9123001,0.5276985-6.7479019,3.5914001-6.1008987,8.4427986c0.5205002,3.9048996,3.0192108,6.9349022,6.0242081,7.7048988
		l0.2333908,1.8054047c0,0,0.007103,0,0.0090027,0c-3.5094986,1.2172928-6.1865005,4.0618973-7.2879028,7.5836945
		l20.6905975-2.7555008C108.143959,68.4545364,104.8093567,66.4013367,101.1110611,66.1626358z"/>
	<path class="st5" d="M128.9451599,48.9651375c0.3047943,2.2814026-1.2994003,4.3756027-3.5843048,4.6786003
		c-2.2759933,0.3137016-4.3789978-1.3010979-4.6856003-3.5842972c-0.3011932-2.2795029,1.3029022-4.3772011,3.5860062-4.682003
		C126.5389557,45.0797386,128.6403656,46.6803398,128.9451599,48.9651375z"/>
	<path class="st5" d="M131.2584534,66.3710403c0.1462097,1.0926971-0.6201935,2.0905991-1.7144928,2.2368011
		c-1.0854034,0.147995-2.0905991-0.6112061-2.2331009-1.7092056c-0.1444016-1.0942993,0.6271973-2.0923996,1.7090988-2.2401962
		C130.1161652,64.51754,131.1140594,65.2822418,131.2584534,66.3710403z"/>
	<path class="st5" d="M66.0682449,54.7927742c0.6211929-1.0964622,1.7313538-1.8978157,3.0772171-2.0776367
		c2.1449738-0.2876244,4.1233139,1.1144485,4.6098557,3.1714706"/>
</g>
<g>
	<polyline class="st5" points="77.3207474,72.2018738 136.5684662,83.0622406 131.0049744,113.412117 85.3164597,105.0397568 	"/>
	<path class="st5" d="M100.0345459,97.7807159c0.002388-0.0031815,0.002388-0.0031815-0.0020599-0.0093002l0.3285522-1.7945404
		c3.0316849-0.6180954,5.6847-3.5226212,6.3925018-7.3943253c0.8871078-4.8145065-1.7961426-8.0148315-5.6903381-8.7277832
		c-3.8919601-0.716362-7.5299377,1.3310013-8.4150391,6.145607c-0.7075272,3.8698196,0.7345886,7.5298615,3.3497314,9.1816406
		l-0.3205872,1.7884445c-0.0013123,0.0089035-0.0013123,0.0089035-0.0030975,0.0086365
		c-3.7111893,0.0706635-7.1347275,1.9496918-9.2689056,4.9633255l20.5355301,3.7640915
		C106.0072327,102.1288757,103.4696426,99.1500549,100.0345459,97.7807159z"/>
	<path class="st5" d="M131.814621,90.0108719c-0.4171906,2.2604828-2.5889893,3.7625351-4.8598709,3.3418808
		c-2.2640457-0.4067993-3.7635422-2.5835724-3.3474655-4.8480606c0.4139938-2.2628784,2.5852585-3.7612686,4.8462524-3.347641
		C130.7230225,85.5755768,132.2236786,87.7452393,131.814621,90.0108719z"/>
	<path class="st5" d="M128.6482849,107.2853775c-0.2029114,1.079834-1.236557,1.795372-2.3255234,1.5927353
		c-1.0773087-0.1953583-1.797554-1.2333374-1.5998154-2.3138275c0.2039566-1.0869598,1.240387-1.79673,2.320816-1.597168
		C128.1255188,105.1685867,128.8423615,106.193428,128.6482849,107.2853775z"/>
</g>
<g>
	<polyline class="st5" points="77.4379959,97.884964 78.3214722,98.6830597 112.6934586,129.7331543 92.0073242,152.6351013 
		41.3184586,106.8861389 	"/>
	<path class="st5" d="M73.8801498,123.056488c-0.0057449-0.0098114-0.0057449-0.0098114-0.0057449-0.0098114l1.2266083-1.3562469
		c2.9071274,1.0692291,6.6851349-0.0099335,9.3264236-2.9319305c3.2750397-3.6294403,2.6888199-7.7566986-0.2475357-10.4205017
		c-2.9396515-2.649765-7.1181564-2.8258591-10.389389,0.8088379c-2.636879,2.9253464-3.3322906,6.7966919-1.9758224,9.5730667
		l-1.2227936,1.3557434c0,0,0,0-0.0000687,0.0056229c-3.2009583-1.8855209-7.1014175-2.0935516-10.4845352-0.6545792
		l15.4826202,13.9890518C76.6702042,129.9001617,76.080307,126.0285339,73.8801498,123.056488z"/>
	<path class="st5" d="M104.9957962,133.1374969c-1.5402451,1.7092896-4.1777954,1.8431396-5.8863068,0.2956085
		c-1.7115173-1.5337067-1.8486786-4.1781464-0.3057098-5.8844147c1.5462723-1.7051392,4.1857452-1.8441391,5.8970337-0.299202
		C106.3934708,128.7989197,106.5428925,131.4307404,104.9957962,133.1374969z"/>
	<path class="st5" d="M93.2275543,146.1750031c-0.7446976,0.8165283-1.9984207,0.8695984-2.8167114,0.1397095
		c-0.8182068-0.7453308-0.8860931-1.9950714-0.1459198-2.8151855c0.7350388-0.8163757,2.0003357-0.8747406,2.817894-0.1428833
		C93.9007645,144.0920563,93.9642563,145.3535919,93.2275543,146.1750031z"/>
</g>
<path class="st5" d="M77.3614502,103.638237c0,1.0213013-0.826889,1.8483047-1.8481979,1.8483047
	c0,0-17.2828979,1.2369995-32.7959976,1.2369995s-32.7943001-1.2369995-32.7943001-1.2369995
	c-1.0211,0-1.8481007-0.8270035-1.8481007-1.8483047V58.1345406c0-1.0213013,0.8270006-1.8482018,1.8481007-1.8482018
	c0,0,18.6428986-3.097599,31.5556068-3.097599c3.1430779,0,6.7725296,0.1835251,10.4653549,0.4612312
	c4.8321609,0.3633881,9.7728386,0.8880386,13.8743134,1.3737755c5.6413269,0.6681023,9.6950226,1.2625923,9.6950226,1.2625923
	c1.0213089,0,1.8481979,0.8269005,1.8481979,1.8482018v39.5014992v0.250267V103.638237z"/>
<path class="st5" d="M48.9944534,100.2217407c0,0.675499,0.5473022,1.2225952,1.2228012,1.2225952h19.237999
	c0.6736984,0,1.2226028-0.5470963,1.2226028-1.2225952l0,0c0-0.6755981-0.5489044-1.2228012-1.2226028-1.2228012h-19.237999
	C49.5417557,98.9989395,48.9944534,99.5461426,48.9944534,100.2217407L48.9944534,100.2217407z"/>
</svg>
