<?xml version="1.0" encoding="utf-8"?>
<!-- Generator: Adobe Illustrator 19.0.1, SVG Export Plug-In . SVG Version: 6.00 Build 0)  -->
<svg version="1.1" id="Layer_1" xmlns="http://www.w3.org/2000/svg" xmlns:xlink="http://www.w3.org/1999/xlink" x="0px" y="0px"
	 width="138.75px" height="104.25px" viewBox="0 0 138.75 104.25" style="enable-background:new 0 0 138.75 104.25;"
	 xml:space="preserve">
<style type="text/css">
	.st0{fill:#71B82F;}
	.st1{fill:#DFD91A;}
	.st2{fill:#373838;}
	.st3{fill:#61D31E;}
	.st4{fill:#E0D919;}
	.st5{fill:none;stroke:#61D31E;stroke-linecap:round;stroke-linejoin:round;stroke-miterlimit:10;}
	.st6{fill:none;stroke:#61D31E;stroke-width:2;stroke-linecap:round;stroke-linejoin:round;stroke-miterlimit:10;}
</style>
<g>
	<g>
		<g>
			<path class="st2" d="M5.890625,74.8320312c0-4.7700195,2.3847656-8.2280273,6.1767578-8.2280273
				c2.4091797,0,3.7919922,1.4545898,4.6513672,3.1005859l-1.5742188,0.7392578
				C14.5,69.1557617,13.4511719,68.2973633,12.0673828,68.2973633c-2.5751953,0-4.2207031,2.7666016-4.2207031,6.534668
				s1.6455078,6.534668,4.2207031,6.534668c1.4550781,0,2.5048828-1.0014648,3.1005859-2.3608398l1.5976562,0.7392578
				c-0.8818359,1.7646484-2.2412109,3.3149414-4.6982422,3.3149414C8.2753906,83.0600586,5.890625,79.578125,5.890625,74.8320312z"
				/>
			<path class="st2" d="M19.0576172,82.7739258V66.8662109h1.6933594v15.9077148H19.0576172z"/>
			<path class="st2" d="M30.125,82.7739258v-1.5981445c-0.6923828,1.0019531-1.9082031,1.8842773-3.3388672,1.8842773
				c-1.9560547,0-2.8857422-0.9775391-2.8857422-3.0766602v-8.7290039H25.59375v8.2285156
				c0,1.5263672,0.7148438,2.0507812,1.8359375,2.0507812c1.1445312,0,2.1943359-0.8344727,2.6953125-1.7885742v-8.4907227
				h1.7167969v11.5195312H30.125z"/>
			<path class="st2" d="M34.9921875,82.7739258V66.8662109h1.6933594v6.0581055
				c0.7158203-1.2880859,1.8603516-1.9560547,3.0292969-1.9560547c2.5996094,0,4.1259766,2.4804688,4.1259766,6.0581055
				c0,3.625-1.5263672,6.0336914-4.1259766,6.0336914c-1.2167969,0-2.3613281-0.7631836-3.0292969-1.9316406v1.6455078H34.9921875z
				 M39.2851562,81.5336914c1.8837891,0,2.7666016-2.0273438,2.7666016-4.5073242
				c0-2.5043945-0.8828125-4.5317383-2.7666016-4.5317383c-1.0732422,0-2.1464844,0.90625-2.5996094,1.9082031v5.2705078
				C37.1386719,80.675293,38.2119141,81.5336914,39.2851562,81.5336914z"/>
			<path class="st2" d="M51.6660156,82.7739258V66.8662109h1.9082031v14.2143555h5.7480469v1.6933594H51.6660156z"/>
			<path class="st2" d="M60.6113281,77.0024414c0-3.3388672,1.765625-6.0341797,4.6748047-6.0341797
				c3.0283203,0,4.5546875,2.7192383,4.5546875,6.081543v0.5249023h-7.4638672
				c0.0712891,2.3134766,1.2636719,4.0541992,3.3144531,4.0541992c1.0019531,0,2.0273438-0.5004883,2.7431641-1.4067383
				l0.90625,1.0014648c-0.9306641,1.1450195-2.2421875,1.8364258-3.7919922,1.8364258
				C62.4716797,83.0600586,60.6113281,80.5322266,60.6113281,77.0024414z M65.2626953,72.3994141
				c-2.0273438,0-2.8378906,2.2177734-2.8857422,3.9111328h5.7714844
				C68.1240234,74.5458984,67.3613281,72.3994141,65.2626953,72.3994141z"/>
			<path class="st2" d="M74.6845703,82.7739258l-3.7675781-11.5195312h1.859375l2.8623047,9.4921875l2.8857422-9.4921875h1.8369141
				l-3.7919922,11.5195312H74.6845703z"/>
			<path class="st2" d="M81.5078125,77.0024414c0-3.3388672,1.7646484-6.0341797,4.6738281-6.0341797
				c3.0292969,0,4.5556641,2.7192383,4.5556641,6.081543v0.5249023h-7.4648438
				c0.0712891,2.3134766,1.2636719,4.0541992,3.3154297,4.0541992c1.0009766,0,2.0263672-0.5004883,2.7421875-1.4067383
				l0.90625,1.0014648c-0.9296875,1.1450195-2.2421875,1.8364258-3.7919922,1.8364258
				C83.3681641,83.0600586,81.5078125,80.5322266,81.5078125,77.0024414z M86.1582031,72.3994141
				c-2.0273438,0-2.8378906,2.2177734-2.8857422,3.9111328h5.7714844
				C89.0205078,74.5458984,88.2568359,72.3994141,86.1582031,72.3994141z"/>
			<path class="st2" d="M93.2431641,82.7739258V66.8662109h1.6933594v15.9077148H93.2431641z"/>
			<path class="st2" d="M108.484375,82.7739258v-4.078125h-6.2958984v-1.6459961l5.7470703-10.1835938h2.4326172v10.1601562
				h1.7412109v1.6694336h-1.7412109v4.078125H108.484375z M108.484375,68.9174805l-4.5546875,8.1088867h4.5546875V68.9174805z"/>
			<path class="st2" d="M120.1484375,82.7739258l-2.6464844-4.6269531l-2.6474609,4.6269531h-1.9082031l3.5058594-5.8671875
				l-3.3154297-5.6523438h1.9082031l2.4570312,4.3886719l2.4560547-4.3886719h1.9082031l-3.3154297,5.6523438l3.5058594,5.8671875
				H120.1484375z"/>
			<path class="st2" d="M129.1894531,82.7739258v-4.078125h-6.2958984v-1.6459961l5.7470703-10.1835938h2.4326172v10.1601562
				h1.7412109v1.6694336h-1.7412109v4.078125H129.1894531z M129.1894531,68.9174805l-4.5546875,8.1088867h4.5546875V68.9174805z"/>
		</g>
	</g>
	<g>
		<path class="st2" d="M9.9243164,96.3808594l-1.7553711-2.6474609l-0.4951172,0.7207031v1.9267578H6.9536133v-6.0048828h0.7202148
			v3.1152344l2.0976562-3.1152344h0.8461914l-2.0078125,2.8535156l2.1787109,3.1513672H9.9243164z"/>
		<path class="st2" d="M10.9941406,94.2021484c0-1.2246094,0.6123047-2.2783203,1.7646484-2.2783203
			c1.1704102,0,1.7734375,1.0537109,1.7734375,2.2783203s-0.6030273,2.2861328-1.7734375,2.2861328
			C11.6064453,96.4882812,10.9941406,95.4267578,10.9941406,94.2021484z M13.8569336,94.2021484
			c0-0.8730469-0.3330078-1.7021484-1.0981445-1.7021484c-0.7470703,0-1.0893555,0.8291016-1.0893555,1.7021484
			c0,0.8818359,0.3422852,1.7099609,1.0893555,1.7099609C13.5239258,95.9121094,13.8569336,95.0839844,13.8569336,94.2021484z"/>
		<path class="st2" d="M15.503418,96.3808594v-4.3486328h0.6391602v1.8095703h1.7192383v-1.8095703h0.6396484v4.3486328h-0.6396484
			v-1.9716797h-1.7192383v1.9716797H15.503418z"/>
		<path class="st2" d="M20.3007812,96.3808594v-3.78125h-0.9995117v-0.5673828h2.6469727v0.5673828h-0.9995117v3.78125H20.3007812z"
			/>
		<path class="st2" d="M22.5317383,94.2021484c0-1.2607422,0.6665039-2.2783203,1.7646484-2.2783203
			c1.1435547,0,1.7197266,1.0263672,1.7197266,2.2958984v0.1982422h-2.8178711
			c0.0268555,0.8730469,0.4770508,1.5302734,1.2514648,1.5302734c0.3779297,0,0.7651367-0.1884766,1.0351562-0.53125
			l0.3417969,0.3789062c-0.3510742,0.4316406-0.8461914,0.6923828-1.4311523,0.6923828
			C23.2338867,96.4882812,22.5317383,95.5341797,22.5317383,94.2021484z M24.2875977,92.4648438
			c-0.765625,0-1.0712891,0.8369141-1.0893555,1.4755859h2.1787109
			C25.3676758,93.2744141,25.0795898,92.4648438,24.2875977,92.4648438z"/>
		<path class="st2" d="M26.9599609,96.3808594v-4.3486328h0.6391602v1.8095703h1.7197266v-1.8095703h0.6391602v4.3486328h-0.6391602
			v-1.9716797h-1.7197266v1.9716797H26.9599609z"/>
		<path class="st2" d="M31.7573242,96.3808594v-3.78125h-0.9995117v-0.5673828h2.6469727v0.5673828h-0.9995117v3.78125H31.7573242z"
			/>
		<path class="st2" d="M38.4985352,96.3808594v-3.78125h-1.7192383v3.78125h-0.6391602v-4.3486328h2.9980469v4.3486328H38.4985352z"
			/>
		<path class="st2" d="M40.9643555,95.75v2.2871094h-0.6391602v-6.0048828h0.6391602v0.6210938
			c0.2519531-0.4414062,0.684082-0.7294922,1.1435547-0.7294922c0.980957,0,1.5571289,0.9101562,1.5571289,2.2783203
			c0,1.359375-0.5761719,2.2861328-1.5571289,2.2861328C41.6665039,96.4882812,41.234375,96.2363281,40.9643555,95.75z
			 M42.9897461,94.2021484c0-0.9365234-0.3330078-1.7021484-1.0439453-1.7021484
			c-0.4052734,0-0.8105469,0.3242188-0.9814453,0.703125v1.9892578c0.1708984,0.3779297,0.5761719,0.7197266,0.9814453,0.7197266
			C42.6567383,95.9121094,42.9897461,95.1474609,42.9897461,94.2021484z"/>
		<path class="st2" d="M44.4106445,94.2021484c0-1.2246094,0.6123047-2.2783203,1.7646484-2.2783203
			c1.1704102,0,1.7734375,1.0537109,1.7734375,2.2783203s-0.6030273,2.2861328-1.7734375,2.2861328
			C45.0229492,96.4882812,44.4106445,95.4267578,44.4106445,94.2021484z M47.2739258,94.2021484
			c0-0.8730469-0.3334961-1.7021484-1.0986328-1.7021484c-0.7470703,0-1.0893555,0.8291016-1.0893555,1.7021484
			c0,0.8818359,0.3422852,1.7099609,1.0893555,1.7099609C46.9404297,95.9121094,47.2739258,95.0839844,47.2739258,94.2021484z"/>
		<path class="st2" d="M48.9199219,96.3808594v-4.3486328h1.800293c0.7744141,0,1.206543,0.4501953,1.206543,1.1162109
			c0,0.5224609-0.2880859,0.8554688-0.684082,0.9814453c0.4501953,0.1171875,0.7651367,0.5761719,0.7651367,1.0712891
			c0,0.7021484-0.4140625,1.1796875-1.2514648,1.1796875H48.9199219z M51.2607422,93.2294922
			c0-0.3603516-0.1894531-0.6572266-0.6572266-0.6572266H49.559082v1.3056641h1.0444336
			C51.0625,93.8779297,51.2607422,93.5898438,51.2607422,93.2294922z M51.3417969,95.1386719
			c0-0.3789062-0.2250977-0.7207031-0.7026367-0.7207031H49.559082v1.4130859h1.0800781
			C51.1074219,95.8310547,51.3417969,95.5703125,51.3417969,95.1386719z"/>
		<path class="st2" d="M55.328125,96.3808594v-0.46875c-0.2788086,0.3964844-0.7021484,0.5761719-1.1430664,0.5761719
			c-0.7021484,0-1.3144531-0.5400391-1.3144531-1.4492188s0.6030273-1.4316406,1.3144531-1.4316406
			c0.440918,0,0.8730469,0.171875,1.1430664,0.5585938v-0.7558594c0-0.5947266-0.3237305-0.9277344-0.8911133-0.9277344
			c-0.4052734,0-0.7563477,0.1533203-1.0893555,0.53125l-0.2880859-0.4589844
			c0.4140625-0.4326172,0.9272461-0.6308594,1.4765625-0.6308594c0.8642578,0,1.4404297,0.4238281,1.4404297,1.4140625v3.0429688
			H55.328125z M55.328125,95.4716797v-0.828125c-0.1977539-0.3691406-0.5581055-0.5585938-0.9360352-0.5585938
			c-0.5400391,0-0.8642578,0.4228516-0.8642578,0.9628906s0.3242188,0.9726562,0.8642578,0.9726562
			C54.7700195,96.0205078,55.1303711,95.8310547,55.328125,95.4716797z"/>
		<path class="st2" d="M57.1547852,96.3808594v-4.3486328h0.6386719v3.1601562l1.6933594-3.1601562h0.6660156v4.3486328h-0.6396484
			v-3.2324219l-1.7197266,3.2324219H57.1547852z M58.6577148,91.4746094c-0.5400391,0-1.0258789-0.2617188-1.3320312-0.6669922
			l0.3330078-0.2695312c0.2158203,0.3144531,0.5849609,0.5126953,0.9990234,0.5126953
			c0.4052734,0,0.7744141-0.1982422,0.9912109-0.5126953l0.3330078,0.2695312
			C59.675293,91.2128906,59.1987305,91.4746094,58.6577148,91.4746094z"/>
		<path class="st2" d="M60.9077148,95.8671875c0.3779297-0.0625,0.6210938-0.2695312,0.7470703-1.5839844l0.2158203-2.2509766
			h2.4667969v3.78125h0.4951172v1.6748047h-0.6386719v-1.1074219h-2.6376953v1.1074219h-0.6484375V95.8671875z
			 M62.3032227,94.3457031c-0.0810547,0.7929688-0.2617188,1.2333984-0.53125,1.4677734h1.9267578v-3.2138672H62.465332
			L62.3032227,94.3457031z"/>
		<path class="st2" d="M65.434082,94.2021484c0-1.2607422,0.6660156-2.2783203,1.7646484-2.2783203
			c1.1435547,0,1.7197266,1.0263672,1.7197266,2.2958984v0.1982422h-2.8183594
			c0.0273438,0.8730469,0.4775391,1.5302734,1.2519531,1.5302734c0.3779297,0,0.7646484-0.1884766,1.0351562-0.53125
			l0.3417969,0.3789062c-0.3505859,0.4316406-0.8457031,0.6923828-1.4316406,0.6923828
			C66.1362305,96.4882812,65.434082,95.5341797,65.434082,94.2021484z M67.1899414,92.4648438
			c-0.765625,0-1.0712891,0.8369141-1.0898438,1.4755859h2.1787109
			C68.2700195,93.2744141,67.9819336,92.4648438,67.1899414,92.4648438z"/>
		<path class="st2" d="M70.5014648,95.75v2.2871094h-0.6396484v-6.0048828h0.6396484v0.6210938
			c0.2519531-0.4414062,0.6845703-0.7294922,1.1435547-0.7294922c0.9814453,0,1.5576172,0.9101562,1.5576172,2.2783203
			c0,1.359375-0.5761719,2.2861328-1.5576172,2.2861328C71.2036133,96.4882812,70.7719727,96.2363281,70.5014648,95.75z
			 M72.5268555,94.2021484c0-0.9365234-0.3330078-1.7021484-1.0439453-1.7021484
			c-0.4052734,0-0.8105469,0.3242188-0.9814453,0.703125v1.9892578c0.1708984,0.3779297,0.5761719,0.7197266,0.9814453,0.7197266
			C72.1938477,95.9121094,72.5268555,95.1474609,72.5268555,94.2021484z"/>
		<path class="st2" d="M76.0991211,96.3808594v-4.3486328h0.6396484v3.1601562l1.6923828-3.1601562h0.6660156v4.3486328h-0.6386719
			v-3.2324219l-1.7197266,3.2324219H76.0991211z"/>
		<path class="st2" d="M81.8686523,95.8759766l0.3242188-0.4589844c0.2519531,0.3066406,0.6660156,0.5498047,1.1337891,0.5498047
			c0.5048828,0,0.8378906-0.2880859,0.8378906-0.7021484c0-1.0175781-2.1699219-0.6669922-2.1699219-2.1699219
			c0-0.6484375,0.5224609-1.1708984,1.3867188-1.1708984c0.5761719,0,1.0166016,0.2255859,1.3232422,0.5585938l-0.3066406,0.4414062
			c-0.2158203-0.2880859-0.5849609-0.4775391-1.0078125-0.4775391c-0.4775391,0-0.7744141,0.2792969-0.7744141,0.6298828
			c0,0.9277344,2.1699219,0.6035156,2.1699219,2.1699219c0,0.7207031-0.5585938,1.2421875-1.4492188,1.2421875
			C82.7241211,96.4882812,82.2290039,96.2910156,81.8686523,95.8759766z"/>
		<path class="st2" d="M90.0952148,96.3808594v-3.1513672c0-0.4677734-0.1884766-0.7294922-0.6025391-0.7294922
			c-0.3876953,0-0.7744141,0.3427734-0.9453125,0.6933594v3.1875h-0.6484375v-3.1513672
			c0-0.4677734-0.1894531-0.7294922-0.6123047-0.7294922c-0.3867188,0-0.7558594,0.3427734-0.9453125,0.6933594v3.1875h-0.6396484
			v-4.3486328h0.6396484v0.6210938c0.1796875-0.3242188,0.6660156-0.7294922,1.1884766-0.7294922
			c0.5576172,0,0.9003906,0.3154297,0.9814453,0.7744141c0.2158203-0.3955078,0.7021484-0.7744141,1.2236328-0.7744141
			c0.6396484,0,1.0087891,0.3515625,1.0087891,1.1347656v3.3222656H90.0952148z"/>
		<path class="st2" d="M91.5786133,95.8759766l0.3242188-0.4589844c0.2519531,0.3066406,0.6660156,0.5498047,1.1337891,0.5498047
			c0.5048828,0,0.8378906-0.2880859,0.8378906-0.7021484c0-1.0175781-2.1699219-0.6669922-2.1699219-2.1699219
			c0-0.6484375,0.5224609-1.1708984,1.3867188-1.1708984c0.5761719,0,1.0166016,0.2255859,1.3232422,0.5585938l-0.3066406,0.4414062
			c-0.2158203-0.2880859-0.5849609-0.4775391-1.0078125-0.4775391c-0.4775391,0-0.7744141,0.2792969-0.7744141,0.6298828
			c0,0.9277344,2.1699219,0.6035156,2.1699219,2.1699219c0,0.7207031-0.5585938,1.2421875-1.4492188,1.2421875
			C92.434082,96.4882812,91.9389648,96.2910156,91.5786133,95.8759766z"/>
		<path class="st2" d="M99.5805664,96.3808594v-0.46875c-0.2792969,0.3964844-0.7021484,0.5761719-1.1435547,0.5761719
			c-0.7021484,0-1.3144531-0.5400391-1.3144531-1.4492188s0.6035156-1.4316406,1.3144531-1.4316406
			c0.4414062,0,0.8730469,0.171875,1.1435547,0.5585938v-0.7558594c0-0.5947266-0.3242188-0.9277344-0.8916016-0.9277344
			c-0.4052734,0-0.7558594,0.1533203-1.0888672,0.53125l-0.2880859-0.4589844
			c0.4140625-0.4326172,0.9267578-0.6308594,1.4755859-0.6308594c0.8642578,0,1.4404297,0.4238281,1.4404297,1.4140625v3.0429688
			H99.5805664z M99.5805664,95.4716797v-0.828125c-0.1982422-0.3691406-0.5585938-0.5585938-0.9365234-0.5585938
			c-0.5400391,0-0.8642578,0.4228516-0.8642578,0.9628906s0.3242188,0.9726562,0.8642578,0.9726562
			C99.0219727,96.0205078,99.3823242,95.8310547,99.5805664,95.4716797z"/>
		<path class="st2" d="M103.8833008,92.5996094h-1.8369141v3.78125h-0.6396484v-4.3486328h2.4765625V92.5996094z"/>
		<path class="st2" d="M105.3217773,95.75v2.2871094h-0.6396484v-6.0048828h0.6396484v0.6210938
			c0.2519531-0.4414062,0.6845703-0.7294922,1.1435547-0.7294922c0.9814453,0,1.5576172,0.9101562,1.5576172,2.2783203
			c0,1.359375-0.5761719,2.2861328-1.5576172,2.2861328C106.0239258,96.4882812,105.5922852,96.2363281,105.3217773,95.75z
			 M107.347168,94.2021484c0-0.9365234-0.3330078-1.7021484-1.0439453-1.7021484
			c-0.4052734,0-0.8105469,0.3242188-0.9814453,0.703125v1.9892578c0.1708984,0.3779297,0.5761719,0.7197266,0.9814453,0.7197266
			C107.0141602,95.9121094,107.347168,95.1474609,107.347168,94.2021484z"/>
		<path class="st2" d="M108.769043,94.2021484c0-1.2607422,0.6660156-2.2783203,1.7646484-2.2783203
			c1.1435547,0,1.7197266,1.0263672,1.7197266,2.2958984v0.1982422h-2.8183594
			c0.0273438,0.8730469,0.4775391,1.5302734,1.2519531,1.5302734c0.3779297,0,0.7646484-0.1884766,1.0351562-0.53125
			l0.3417969,0.3789062c-0.3505859,0.4316406-0.8457031,0.6923828-1.4316406,0.6923828
			C109.4711914,96.4882812,108.769043,95.5341797,108.769043,94.2021484z M110.5249023,92.4648438
			c-0.765625,0-1.0712891,0.8369141-1.0898438,1.4755859h2.1787109
			C111.6049805,93.2744141,111.3168945,92.4648438,110.5249023,92.4648438z"/>
		<path class="st2" d="M115.6723633,92.5996094h-1.8369141v3.78125h-0.6396484v-4.3486328h2.4765625V92.5996094z"/>
		<path class="st2" d="M118.7055664,96.3808594v-0.46875c-0.2792969,0.3964844-0.7021484,0.5761719-1.1435547,0.5761719
			c-0.7021484,0-1.3144531-0.5400391-1.3144531-1.4492188s0.6035156-1.4316406,1.3144531-1.4316406
			c0.4414062,0,0.8730469,0.171875,1.1435547,0.5585938v-0.7558594c0-0.5947266-0.3242188-0.9277344-0.8916016-0.9277344
			c-0.4052734,0-0.7558594,0.1533203-1.0888672,0.53125l-0.2880859-0.4589844
			c0.4140625-0.4326172,0.9267578-0.6308594,1.4755859-0.6308594c0.8642578,0,1.4404297,0.4238281,1.4404297,1.4140625v3.0429688
			H118.7055664z M118.7055664,95.4716797v-0.828125c-0.1982422-0.3691406-0.5585938-0.5585938-0.9365234-0.5585938
			c-0.5400391,0-0.8642578,0.4228516-0.8642578,0.9628906s0.3242188,0.9726562,0.8642578,0.9726562
			C118.1469727,96.0205078,118.5073242,95.8310547,118.7055664,95.4716797z"/>
		<path class="st2" d="M121.1430664,96.3808594v-3.78125h-0.9990234v-0.5673828h2.6464844v0.5673828h-0.9990234v3.78125H121.1430664
			z"/>
		<path class="st2" d="M123.3754883,94.2021484c0-1.2246094,0.6123047-2.2783203,1.7646484-2.2783203
			c1.1708984,0,1.7734375,1.0537109,1.7734375,2.2783203s-0.6025391,2.2861328-1.7734375,2.2861328
			C123.987793,96.4882812,123.3754883,95.4267578,123.3754883,94.2021484z M126.2387695,94.2021484
			c0-0.8730469-0.3330078-1.7021484-1.0986328-1.7021484c-0.7470703,0-1.0888672,0.8291016-1.0888672,1.7021484
			c0,0.8818359,0.3417969,1.7099609,1.0888672,1.7099609C125.9057617,95.9121094,126.2387695,95.0839844,126.2387695,94.2021484z"/>
		<path class="st2" d="M128.5239258,95.75v2.2871094h-0.6396484v-6.0048828h0.6396484v0.6210938
			c0.2519531-0.4414062,0.6845703-0.7294922,1.1435547-0.7294922c0.9814453,0,1.5576172,0.9101562,1.5576172,2.2783203
			c0,1.359375-0.5761719,2.2861328-1.5576172,2.2861328C129.2260742,96.4882812,128.7944336,96.2363281,128.5239258,95.75z
			 M130.5493164,94.2021484c0-0.9365234-0.3330078-1.7021484-1.0439453-1.7021484
			c-0.4052734,0-0.8105469,0.3242188-0.9814453,0.703125v1.9892578c0.1708984,0.3779297,0.5761719,0.7197266,0.9814453,0.7197266
			C130.2163086,95.9121094,130.5493164,95.1474609,130.5493164,94.2021484z"/>
	</g>
	<g>
		<path class="st2" d="M64.8676147,28.4720459c0,0.0175781-0.0045776,0.0338745-0.005188,0.0512695l2.9788818,0.6294556
			c0.1528931-0.3811646,0.4651489-0.6758423,0.850769-0.8187256V12.4978027
			c-0.203186,0.0042114-0.3987427,0.0099487-0.6176758,0.0100098h-4.1639404v14.600769
			C64.4678345,27.3131714,64.8676147,27.84375,64.8676147,28.4720459z"/>
		<path class="st2" d="M58.225647,35.7124023l4.1879272-6.1825562c-0.2818604-0.265686-0.460144-0.6398926-0.460144-1.0578003
			c0-0.6282959,0.3997192-1.1588745,0.9570923-1.3634644v-14.600769h-3.449585
			c-0.454895,0.0028687-0.8968506,0.0654907-1.3319702,0.1540527v23.0181274
			C58.1607666,35.6918335,58.1948853,35.6985474,58.225647,35.7124023z"/>
		<path class="st2" d="M69.8552856,28.4031982l4.0551147-5.3569336c-0.2424316-0.2602539-0.3937988-0.6066895-0.3937988-0.9904175
			c0-0.6282349,0.3997192-1.1588745,0.9570923-1.3634644v-8.6288452c-1.4663086,0.2290039-3.0307617,0.3601685-4.7816772,0.4093018
			V28.340271C69.746582,28.3612061,69.803772,28.3766479,69.8552856,28.4031982z"/>
		<path class="st2" d="M56.171936,37.0390015c0-0.6282959,0.3997192-1.1588745,0.9570923-1.3634644v-22.723999
			c-2.7731934,0.9896851-4.7835083,3.6227417-4.7817383,6.7150269l0.0001831,0.0401611l0.000061,0.0025635v24.7175903
			c0.0060425,0.6331787,0.2713013,1.1355591,0.6864014,1.5063477c0.4147949,0.3684692,0.9845581,0.5838013,1.5484619,0.5827026
			c0.5473022-0.0018311,1.0795898-0.1917725,1.5132446-0.6289062l0.0201416-0.0205078l1.0132446-0.8102417v-6.6538086
			C56.5716553,38.197876,56.171936,37.6672974,56.171936,37.0390015z"/>
		<path class="st2" d="M76.4307861,22.0558472c0,0.053833-0.0101318,0.1047974-0.0158081,0.1571045l3.0360107,0.8791504
			c0.1636963-0.3338623,0.4539795-0.5880737,0.8041992-0.7191162V10.5747681
			c-1.626709,0.567749-3.1726685,1.0054932-4.7815552,1.3148193v8.8027954
			C76.0310059,20.8969727,76.4307861,21.4276123,76.4307861,22.0558472z"/>
		<path class="st2" d="M81.4874878,22.4770508l3.8469238-4.5481567c-0.2113037-0.2528687-0.3435669-0.5741577-0.3435669-0.9294434
			c0-0.6608887,0.4428711-1.2125854,1.0458984-1.3909912V8.9406738c-1.571167,0.182312-3.2626343,0.723938-4.7816162,1.2852173
			v12.1509399C81.3342896,22.4071655,81.4151001,22.4346313,81.4874878,22.4770508z"/>
		<path class="st2" d="M91.6598511,31.0460815l0.1584473-14.2783813c0.0003052-1.7288208-0.0789795-3.1027222-0.2920532-4.1742554
			c-0.213768-1.0748901-0.5523682-1.8323975-1.0570068-2.397583c-0.8786011-0.9784546-2.0338745-1.3337402-3.4042358-1.3388062
			c-0.0093384,0-0.0189819,0.0008545-0.0283203,0.0009155v6.8106079c0.5108643,0.2264404,0.8683472,0.736084,0.8683472,1.3308716
			s-0.3574829,1.1044922-0.8683472,1.3309326v19.6243896c1.3575439-0.4440918,2.4779053-1.1594849,3.2719116-2.2058716
			c0.8459473-1.1178589,1.3498535-2.6199341,1.3513794-4.6183472l-0.0001221-0.0789185V31.0460815z"/>
		<path class="st2" d="M79.2980957,23.7300415c0-0.053833,0.0101318-0.1047974,0.0158081-0.1571045l-3.0360107-0.8791504
			c-0.1637573,0.3338013-0.4539795,0.5880737-0.8042603,0.7191162V39.557251
			c1.7658691-0.0568848,3.352356-0.1680298,4.7815552-0.3187866V25.0935059
			C79.6978149,24.888916,79.2980957,24.3583374,79.2980957,23.7300415z"/>
		<path class="st2" d="M85.7155762,18.2524414l-3.8468018,4.5481567c0.2113037,0.2528076,0.3435059,0.5740967,0.3435059,0.9294434
			c0,0.6282959-0.3998032,1.1588745-0.9571533,1.3634644v14.0273438c1.8945923-0.2363281,3.4789429-0.5407104,4.7816162-0.8796997
			V18.3910522C85.9240723,18.3562622,85.8156128,18.3110962,85.7155762,18.2524414z"/>
		<path class="st2" d="M62.8296509,29.8071899l-4.1898193,6.1853638c0.274292,0.2649536,0.4462891,0.6349487,0.4462891,1.0464478
			c0,0.6282959-0.3998413,1.1588745-0.9571533,1.3634644v5.8540649l4.7815552-3.8238525V29.833252
			C62.8840332,29.8234253,62.8554077,29.8184204,62.8296509,29.8071899z"/>
		<path class="st2" d="M67.7349854,29.6936646c0-0.0175781,0.0045776-0.0338745,0.005188-0.0512695l-2.9789429-0.6294556
			c-0.152832,0.3812256-0.4650879,0.6759033-0.850769,0.8187866v9.8011475l0.0346069-0.0276489h4.7470093v-8.5481567
			C68.1347656,30.852478,67.7349854,30.3218994,67.7349854,29.6936646z"/>
		<path class="st2" d="M74.3103638,23.3462524l-4.0550537,5.3569336c0.2424927,0.2601929,0.3938599,0.6066895,0.3938599,0.9904785
			c0,0.6282349-0.3997803,1.1588745-0.9571533,1.3634644v8.5480957h3.0610962c0.5962524,0,1.1588135-0.0114746,1.7205811-0.0231323
			V23.4091797C74.4191284,23.3882446,74.3619385,23.3728027,74.3103638,23.3462524z"/>
	</g>
	<g>
		<path class="st2" d="M92.8027344,15.5336914c0.010498,0.3933716,0.0154419,0.8044434,0.015564,1.2366333v0.0054932
			L92.65979,31.0565186l0.0001221,0.0740356c0.0015259,2.1645508-0.5567017,3.907959-1.5543823,5.2224121
			c-0.9963379,1.3155518-2.4140625,2.1819458-4.0562134,2.6590576c-0.1347046,0.0390625-0.2710571,0.0710449-0.3800659,0.1011963
			l-0.6325073,0.1738281v-0.0151978c-1.3305054,0.333374-2.9120483,0.6287231-4.7816162,0.8572998v0.0075073l-0.4436035,0.050293
			L80.255188,40.250061v-0.0065308c-1.4359741,0.1488647-3.0223389,0.2584839-4.7815552,0.3143311v0.0050049l-0.4872437,0.0123901
			l-0.5126953,0.0130005v-0.0061035c-0.5615234,0.0115967-1.1234131,0.0230713-1.7205811,0.0230713h-8.4572144l-0.5731201,0.458313
			l-0.8122559,0.6495972v-0.0001221l-4.7815552,3.8240356l-0.2807617,0.2245483l-0.7191772,0.5751953v-0.000061
			l-0.3653564,0.2921753l-0.0015869-0.0020142c-0.6212158,0.6075439-1.4125366,0.8908691-2.1796875,0.8890381
			c-0.4642334-0.0006104-0.9174805-0.1082153-1.3377075-0.2915039c1.0109863,0.8294678,2.6173096,0.9345703,3.668396-0.1300049
			l7.6690674-6.1331177h22.4188843c4.2125244-0.0269775,7.637146-3.6359253,7.6101685-7.8485107V20.3050537
			C94.5994873,18.4682617,93.9171753,16.8138428,92.8027344,15.5336914z"/>
	</g>
</g>
</svg>
