<?xml version="1.0" encoding="utf-8"?>
<!-- Generator: Adobe Illustrator 19.0.1, SVG Export Plug-In . SVG Version: 6.00 Build 0)  -->
<svg version="1.1" id="Layer_1" xmlns="http://www.w3.org/2000/svg" xmlns:xlink="http://www.w3.org/1999/xlink" x="0px" y="0px"
	 width="99px" height="41.5px" viewBox="0 0 99 41.5" style="enable-background:new 0 0 99 41.5;" xml:space="preserve">
<style type="text/css">
	.st0{fill:#71B82F;}
	.st1{fill:#DFD91A;}
	.st2{fill:#373838;}
	.st3{fill:#61D31E;}
	.st4{fill:#E0D919;}
	.st5{fill:none;stroke:#61D31E;stroke-linecap:round;stroke-linejoin:round;stroke-miterlimit:10;}
	.st6{fill:none;stroke:#61D31E;stroke-width:2;stroke-linecap:round;stroke-linejoin:round;stroke-miterlimit:10;}
</style>
<g>
	<path class="st2" d="M26.6359367,33.2244263h-0.5c-0.0003662,1.6574402-0.6704102,3.1533813-1.7563477,4.2401123
		c-1.086792,1.0859375-2.5827637,1.756073-4.2401123,1.7563477c-1.6574707-0.0002747-3.1534424-0.6704102-4.2401114-1.7563477
		c-1.0859375-1.0867004-1.7559814-2.5826721-1.7563477-4.2401123c0.0003662-1.6574707,0.6704102-3.1534119,1.7563477-4.2401428
		c1.086669-1.085907,2.5826406-1.7560425,4.2401114-1.7563171c1.6573486,0.0002747,3.1533203,0.6704102,4.2401123,1.7563477
		c1.0859375,1.0867004,1.7559814,2.5826416,1.7563477,4.2401123H26.6359367h0.4998779
		c-0.0002441-3.8642273-3.1322021-6.9961243-6.9963379-6.9964294c-3.8642578,0.0003052-6.9960928,3.1322327-6.9963369,6.9964294
		c0.0002441,3.8641968,3.1320791,6.9961243,6.9963369,6.9964294c3.8641357-0.0003052,6.9960938-3.1322021,6.9963379-6.9964294
		H26.6359367z"/>
	<path class="st2" d="M85.4582672,33.2244263h-0.5c-0.0003052,1.6574402-0.6704102,3.1533813-1.7563477,4.2401123
		c-1.086731,1.0859375-2.5827026,1.756073-4.2401123,1.7563477c-1.6574707-0.0002747-3.1534424-0.6704102-4.2401733-1.7563477
		c-1.0859375-1.086731-1.7560425-2.5826721-1.7563477-4.2401123c0.0003052-1.6574707,0.6704102-3.1534119,1.7563477-4.2401123
		c1.086731-1.0859375,2.5827026-1.756073,4.2401733-1.7563477c1.6574097,0.0002747,3.1533813,0.6704102,4.2401123,1.7563477
		c1.0859375,1.0867004,1.7560425,2.5826416,1.7563477,4.2401123H85.4582672h0.499939
		c-0.0003052-3.8642273-3.1322021-6.9961243-6.9963989-6.9964294c-3.8642578,0.0003052-6.9961548,3.1322021-6.99646,6.9964294
		c0.0003052,3.8641968,3.1322021,6.9961243,6.99646,6.9964294c3.8641968-0.0003052,6.9960938-3.1322021,6.9963989-6.9964294
		H85.4582672z"/>
	<path class="st2" d="M29.8827629,32.9917297h38.4644203c0.276123,0,0.5-0.223877,0.5-0.5c0-0.2761536-0.223877-0.5-0.5-0.5
		H29.8827629c-0.2762451,0-0.5,0.2238464-0.5,0.5C29.3827629,32.7678528,29.6065178,32.9917297,29.8827629,32.9917297"/>
	<path class="st2" d="M88.5785065,32.9916992h4.3269043c2.9905396-0.0003052,5.4141846-2.4239807,5.4144897-5.4145203
		c0-1.4360657-0.5704346-2.8132629-1.5858765-3.8287048l-4.4629517-4.4629822
		c-0.8619995-0.861969-1.989624-1.4078674-3.2004395-1.5492859l-17.0899658-1.9962769
		c-0.7808228-0.091217-1.5231323-0.3892517-2.1502075-0.8633728L53.2947502,2.3746643
		c-0.9448242-0.7142639-2.0926514-1.0955505-3.2653809-1.09552c-0.2130127-0.0000305-0.4268799,0.0124817-0.640625,0.0380859
		l0.0594482,0.49646L49.4248772,1.314209L9.7187014,3.1612549L9.6828127,3.1642151
		C7.466382,3.4282227,5.6391115,5.025116,5.0807619,7.1863098l0.4841309,0.125061L5.0824709,7.179718L0.8546876,22.6721497
		l-0.001709,0.0064697c-0.1165771,0.4509888-0.1729736,0.9062805-0.1728516,1.3556519
		c-0.0002441,2.0484314,1.1673584,3.9728699,3.0875244,4.8875732l5.9136963,2.8158569
		c0.2492676,0.1187134,0.5476074,0.0128479,0.6663818-0.2364502c0.1186523-0.2493286,0.0128174-0.5476685-0.2364502-0.6663818
		l-5.9138184-2.8158875c-1.5656741-0.7450256-2.5172119-2.3156433-2.5174561-3.9847107
		c0.0001221-0.3659668,0.0457764-0.7366638,0.1411133-1.1053162l-0.4840088-0.1251526l0.4822998,0.1316223L6.0471926,7.4429932
		l0.001709-0.0065918C6.5039797,5.6744995,7.994092,4.372345,9.8010988,4.1572266l-0.059082-0.4964905l0.0231934,0.4994507
		L49.471386,2.3131409l0.0361328-0.0030212c0.1737061-0.0207825,0.3480225-0.0310059,0.5218506-0.0310059
		c0.9560547,0.0000305,1.8919678,0.3108826,2.6622314,0.8932495l16.5357704,12.5018921
		c0.769165,0.5814819,1.6795654,0.9470215,2.6372681,1.0589294l17.0899658,1.9962769
		c0.9871826,0.1152954,1.9065552,0.5603638,2.609375,1.2631531l4.4629517,4.4629822
		c0.8279419,0.8278809,1.2930298,1.9507446,1.2930298,3.121582c-0.0003052,1.2206116-0.4933472,2.3210754-1.2930298,3.1215515
		c-0.8004761,0.7996521-1.9009399,1.2927246-3.121521,1.2929993h-4.3269043c-0.2761841,0-0.5,0.2238464-0.5,0.5
		c0,0.276123,0.2238159,0.5,0.5,0.5V32.9916992z"/>
	<g>
		<path class="st2" d="M19.7373772,23.4598694l0.6230469-0.5629883c0.3710938,0.5991211,0.9580078,1.0424805,1.7119141,1.0424805
			c0.9707031,0,1.4501953-0.5991211,1.4501953-1.5214844c0-1.0898438-0.7070312-1.4492188-1.5214844-1.4492188
			c-0.2519531,0-0.5273438,0-0.6347656,0.0117188v-0.8623047c0.1074219,0.012207,0.4072266,0.012207,0.6103516,0.012207
			c0.8027344,0,1.4501953-0.4311523,1.4501953-1.3417969c0-0.9462891-0.5751953-1.4013672-1.3779297-1.4013672
			c-0.7070312,0-1.2099609,0.3710938-1.6171875,0.9462891l-0.5986328-0.5390625
			c0.4785156-0.7666016,1.28125-1.2578125,2.2753906-1.2578125c1.2939453,0,2.2646484,0.7070312,2.2646484,2.1201172
			c0,0.9941406-0.6953125,1.6889648-1.4257812,1.8569336c0.7070312,0.1079102,1.5332031,0.8261719,1.5332031,1.9760742
			c0,1.3295898-0.8505859,2.2998047-2.3720703,2.2998047C20.9707756,24.7894592,20.1446037,24.1908264,19.7373772,23.4598694z"/>
		<path class="st2" d="M25.4053459,23.4598694l0.6230469-0.5629883c0.3710938,0.5991211,0.9580078,1.0424805,1.7119141,1.0424805
			c0.9707031,0,1.4501953-0.5991211,1.4501953-1.5214844c0-1.0898438-0.7070312-1.4492188-1.5214844-1.4492188
			c-0.2519531,0-0.5273438,0-0.6347656,0.0117188v-0.8623047c0.1074219,0.012207,0.4072266,0.012207,0.6103516,0.012207
			c0.8027344,0,1.4501953-0.4311523,1.4501953-1.3417969c0-0.9462891-0.5751953-1.4013672-1.3779297-1.4013672
			c-0.7070312,0-1.2099609,0.3710938-1.6171875,0.9462891L25.501049,17.794342
			c0.4785156-0.7666016,1.28125-1.2578125,2.2753906-1.2578125c1.2939453,0,2.2646484,0.7070312,2.2646484,2.1201172
			c0,0.9941406-0.6953125,1.6889648-1.4257812,1.8569336c0.7070312,0.1079102,1.5332031,0.8261719,1.5332031,1.9760742
			c0,1.3295898-0.8505859,2.2998047-2.3720703,2.2998047C26.6387444,24.7894592,25.8125725,24.1908264,25.4053459,23.4598694z"/>
		<path class="st2" d="M31.08601,22.1302795V21.363678h8.109375v0.7666016H31.08601z"/>
		<path class="st2" d="M39.9063225,23.4598694l0.6230469-0.5629883c0.3710938,0.5991211,0.9580078,1.0424805,1.7128906,1.0424805
			c0.9697266,0,1.4492188-0.5991211,1.4492188-1.5214844c0-1.0898438-0.7070312-1.4492188-1.5214844-1.4492188
			c-0.2519531,0-0.5273438,0-0.6347656,0.0117188v-0.8623047c0.1074219,0.012207,0.4072266,0.012207,0.6103516,0.012207
			c0.8027344,0,1.4501953-0.4311523,1.4501953-1.3417969c0-0.9462891-0.5751953-1.4013672-1.3779297-1.4013672
			c-0.7070312,0-1.2099609,0.3710938-1.6171875,0.9462891l-0.5986328-0.5390625
			c0.4785156-0.7666016,1.28125-1.2578125,2.2753906-1.2578125c1.2939453,0,2.2636719,0.7070312,2.2636719,2.1201172
			c0,0.9941406-0.6943359,1.6889648-1.4248047,1.8569336c0.7070312,0.1079102,1.5332031,0.8261719,1.5332031,1.9760742
			c0,1.3295898-0.8505859,2.2998047-2.3720703,2.2998047C41.1397209,24.7894592,40.313549,24.1908264,39.9063225,23.4598694z"/>
		<path class="st2" d="M45.5742912,23.4598694l0.6230469-0.5629883c0.3710938,0.5991211,0.9580078,1.0424805,1.7128906,1.0424805
			c0.9697266,0,1.4492188-0.5991211,1.4492188-1.5214844c0-1.0898438-0.7070312-1.4492188-1.5214844-1.4492188
			c-0.2519531,0-0.5273438,0-0.6347656,0.0117188v-0.8623047c0.1074219,0.012207,0.4072266,0.012207,0.6103516,0.012207
			c0.8027344,0,1.4501953-0.4311523,1.4501953-1.3417969c0-0.9462891-0.5751953-1.4013672-1.3779297-1.4013672
			c-0.7070312,0-1.2099609,0.3710938-1.6171875,0.9462891l-0.5986328-0.5390625
			c0.4785156-0.7666016,1.28125-1.2578125,2.2753906-1.2578125c1.2939453,0,2.2636719,0.7070312,2.2636719,2.1201172
			c0,0.9941406-0.6943359,1.6889648-1.4248047,1.8569336c0.7070312,0.1079102,1.5332031,0.8261719,1.5332031,1.9760742
			c0,1.3295898-0.8505859,2.2998047-2.3720703,2.2998047C46.8076897,24.7894592,45.9815178,24.1908264,45.5742912,23.4598694z"/>
	</g>
	<path class="st2" d="M23.2853508,11.4411011h-0.6655273c-0.6593018,0-1.1986084-0.5393982-1.1986084-1.1986694V9.5769348
		c0-0.6593018,0.5393066-1.1987,1.1986084-1.1987h0.6655273c0.6593018,0,1.1987305,0.5393982,1.1987305,1.1987v0.6654968
		C24.4840813,10.9017029,23.9446526,11.4411011,23.2853508,11.4411011z"/>
	<path class="st2" d="M26.348217,14.5039978h-0.6655273c-0.6591797,0-1.1986084-0.5393982-1.1986084-1.1987V12.639801
		c0-0.6592712,0.5394287-1.1987,1.1986084-1.1987h0.6655273c0.6593018,0,1.1987305,0.5394287,1.1987305,1.1987v0.6654968
		C27.5469475,13.9645996,27.0075188,14.5039978,26.348217,14.5039978z"/>
	<path class="st2" d="M29.4110832,11.4411011h-0.6654053c-0.6593018,0-1.1987305-0.5393982-1.1987305-1.1986694V9.5769348
		c0-0.6593018,0.5394287-1.1987,1.1987305-1.1987h0.6654053c0.6593018,0,1.1987305,0.5393982,1.1987305,1.1987v0.6654968
		C30.6098137,10.9017029,30.070385,11.4411011,29.4110832,11.4411011z"/>
	<path class="st2" d="M32.4740715,14.5039978h-0.6655273c-0.6593018,0-1.1987305-0.5393982-1.1987305-1.1987V12.639801
		c0-0.6592712,0.5394287-1.1987,1.1987305-1.1987h0.6655273c0.6591797,0,1.1986084,0.5394287,1.1986084,1.1987v0.6654968
		C33.6726799,13.9645996,33.1332512,14.5039978,32.4740715,14.5039978z"/>
	<path class="st2" d="M35.5369377,11.4411011h-0.6655273c-0.6593018,0-1.1987305-0.5393982-1.1987305-1.1986694V9.5769348
		c0-0.6593018,0.5394287-1.1987,1.1987305-1.1987h0.6655273c0.6591797,0,1.1986084,0.5393982,1.1986084,1.1987v0.6654968
		C36.7355461,10.9017029,36.1961174,11.4411011,35.5369377,11.4411011z"/>
	<path class="st2" d="M38.5998039,14.5039978h-0.6655273c-0.6593018,0-1.1987305-0.5393982-1.1987305-1.1987V12.639801
		c0-0.6592712,0.5394287-1.1987,1.1987305-1.1987h0.6655273c0.6593018,0,1.1986084,0.5394287,1.1986084,1.1987v0.6654968
		C39.7984123,13.9645996,39.2591057,14.5039978,38.5998039,14.5039978z"/>
	<path class="st2" d="M41.6626701,11.4411011h-0.6655273c-0.6593018,0-1.1987305-0.5393982-1.1987305-1.1986694V9.5769348
		c0-0.6593018,0.5394287-1.1987,1.1987305-1.1987h0.6655273c0.6593018,0,1.1987305,0.5393982,1.1987305,1.1987v0.6654968
		C42.8614006,10.9017029,42.3219719,11.4411011,41.6626701,11.4411011z"/>
	<path class="st2" d="M44.7255363,14.5039978H44.060009c-0.6593018,0-1.1986084-0.5393982-1.1986084-1.1987V12.639801
		c0-0.6592712,0.5393066-1.1987,1.1986084-1.1987h0.6655273c0.6593018,0,1.1987305,0.5394287,1.1987305,1.1987v0.6654968
		C45.9242668,13.9645996,45.3848381,14.5039978,44.7255363,14.5039978z"/>
	<path class="st2" d="M47.7884026,11.4411011h-0.6655273c-0.6591797,0-1.1986084-0.5393982-1.1986084-1.1986694V9.5769348
		c0-0.6593018,0.5394287-1.1987,1.1986084-1.1987h0.6655273c0.6593018,0,1.1987305,0.5393982,1.1987305,1.1987v0.6654968
		C48.987133,10.9017029,48.4477043,11.4411011,47.7884026,11.4411011z"/>
</g>
</svg>
