<?xml version="1.0" encoding="utf-8"?>
<!-- Generator: Adobe Illustrator 19.0.1, SVG Export Plug-In . SVG Version: 6.00 Build 0)  -->
<svg version="1.1" id="Layer_1" xmlns="http://www.w3.org/2000/svg" xmlns:xlink="http://www.w3.org/1999/xlink" x="0px" y="0px"
	 width="73.6666641px" height="65px" viewBox="0 0 73.6666641 65" style="enable-background:new 0 0 73.6666641 65;"
	 xml:space="preserve">
<style type="text/css">
	.st0{fill:#71B82F;}
	.st1{fill:#DFD91A;}
	.st2{fill:#373838;}
	.st3{fill:#61D31E;}
	.st4{fill:#E0D919;}
	.st5{fill:none;stroke:#61D31E;stroke-linecap:round;stroke-linejoin:round;stroke-miterlimit:10;}
	.st6{fill:none;stroke:#61D31E;stroke-width:2;stroke-linecap:round;stroke-linejoin:round;stroke-miterlimit:10;}
</style>
<g>
	<path class="st2" d="M61.3875999,46.9609795v-2.9430504H12.2794266c-1.6166649-0.0007629-3.0745373-0.6554222-4.1548281-1.7315826
		c-1.0759807-1.080246-1.7305503-2.537941-1.7316284-4.1545143V12.558259
		c0.0010781-1.6166201,0.6556478-3.0743132,1.7316284-4.1545591c1.0802908-1.0761604,2.5381632-1.7308197,4.1548281-1.7315831
		h49.1081734c1.6163063,0.0007634,3.0741768,0.6554227,4.1544685,1.7315831
		c1.0759811,1.080246,1.7305527,2.5379391,1.7316284,4.1545591v25.5735741
		c-0.0010757,1.6165733-0.6556473,3.0742683-1.7316284,4.1545143c-1.0802917,1.0761604-2.5381622,1.7308197-4.1544685,1.7315826
		V46.9609795v2.9430008c6.4943199-0.0111809,11.7607002-5.2778244,11.7718315-11.7721481V12.558259
		c-0.0111313-6.4943228-5.2775116-11.761013-11.7718315-11.7721949H12.2794266
		C5.7847452,0.7972462,0.5183693,6.0639362,0.5072323,12.558259v25.5735741
		c0.011137,6.4943237,5.277513,11.7609673,11.7721939,11.7721481h49.1081734V46.9609795z"/>
	<path class="st2" d="M45.0517387,61.2709312v-2.9430466H28.6152859v1.5098305h1.5096073
		c-0.011137-0.8498268-0.6595993-1.4986038-1.5096073-1.5098305v1.5098305h1.5096073v-1.110157h-1.5096073v1.5097847
		c0.850008-0.0112267,1.4984703-0.6600037,1.5096073-1.5097847h-1.5096073v1.5097847h16.4364529v-1.5098305l-1.509964,0.0000458
		c0.0111351,0.849781,0.6595993,1.498558,1.509964,1.5097847v-1.5098305l-1.509964,0.0000458v1.110157h1.509964v-1.5098305
		c-0.8503647,0.0112267-1.4988289,0.6600037-1.509964,1.5098305h1.509964v-1.5098305V61.2709312v2.9430046
		c2.4264336-0.0112305,4.3646355-1.9499207,4.3757744-4.3762207v-1.110157
		c-0.0111389-2.426342-1.9493408-4.3650398-4.3757744-4.3762665H28.6152859
		c-2.4267921,0.0112267-4.364994,1.9499245-4.3761311,4.3762665v1.110157c0.011137,2.4263,1.9493389,4.3649902,4.3761311,4.3762207
		h16.4364529V61.2709312z"/>
	<path class="st2" d="M29.2037525,49.5361443v7.7581978c0,1.6253738,1.3174019,2.9430466,2.9430485,2.9430466
		c1.6252861,0,2.9430504-1.3176727,2.9430504-2.9430466v-7.7581978c0-1.6254196-1.3177643-2.9430466-2.9430504-2.9430466
		C30.5211544,46.5930977,29.2037525,47.9107246,29.2037525,49.5361443"/>
	<path class="st2" d="M38.5771751,49.5361443v7.7581978c0,1.6253738,1.3174019,2.9430466,2.9430504,2.9430466
		c1.6252861,0,2.9430466-1.3176727,2.9430466-2.9430466v-7.7581978c0-1.6254196-1.3177605-2.9430466-2.9430466-2.9430466
		C39.894577,46.5930977,38.5771751,47.9107246,38.5771751,49.5361443"/>
</g>
</svg>
