<?xml version="1.0" encoding="utf-8"?>
<!-- Generator: Adobe Illustrator 19.0.1, SVG Export Plug-In . SVG Version: 6.00 Build 0)  -->
<svg version="1.1" id="Layer_1" xmlns="http://www.w3.org/2000/svg" xmlns:xlink="http://www.w3.org/1999/xlink" x="0px" y="0px"
	 width="79px" height="64px" viewBox="0 0 79 64" style="enable-background:new 0 0 79 64;" xml:space="preserve">
<style type="text/css">
	.st0{fill:#71B82F;}
	.st1{fill:#DFD91A;}
	.st2{fill:#373838;}
	.st3{fill:#61D31E;}
	.st4{fill:#E0D919;}
	.st5{fill:none;stroke:#61D31E;stroke-linecap:round;stroke-linejoin:round;stroke-miterlimit:10;}
	.st6{fill:none;stroke:#61D31E;stroke-width:2;stroke-linecap:round;stroke-linejoin:round;stroke-miterlimit:10;}
</style>
<g>
	<path class="st2" d="M32.6435432,60.6747398v-2.9430466H12.4197855c-1.6166649-0.0007668-3.0745373-0.655426-4.154829-1.7315826
		c-1.0759802-1.0802498-1.7305503-2.537941-1.7316279-4.1545143V12.1544504
		c0.0010777-1.6166201,0.6556478-3.0743132,1.7316279-4.1545591c1.0802917-1.07616,2.5381641-1.7308197,4.154829-1.7315831
		h20.2237587c1.6163063,0.0007634,3.0741806,0.6554232,4.1544724,1.7315831
		c1.0759773,1.080246,1.7305489,2.5379391,1.7316246,4.1545591v39.6911469
		c-0.0010757,1.6165733-0.6556473,3.0742645-1.7316246,4.1545143c-1.0802917,1.0761566-2.538166,1.7308159-4.1544724,1.7315826
		V60.6747398v2.9430046c6.4943237-0.0111809,11.7607002-5.277874,11.7718353-11.7721481V12.1544504
		C44.4042435,5.6601276,39.137867,0.3934378,32.6435432,0.3822559H12.4197855
		C5.9251032,0.3934378,0.6587276,5.6601276,0.6475906,12.1544504v39.6911469
		c0.011137,6.4942741,5.2775126,11.7609673,11.7721949,11.7721481h20.2237587V60.6747398z"/>
	<circle class="st2" cx="15.961359" cy="26.220108" r="3.0210078"/>
	<circle class="st2" cx="28.6922359" cy="26.220108" r="3.0208282"/>
	<path class="st2" d="M11.6473789,35.3976898c3.2362032,1.7573166,6.9362106,2.7546616,10.8841057,2.7552032
		c3.9482555-0.0005417,7.648262-0.9978867,10.8844662-2.7552032c0.9753876-0.5297699,2.1954308-0.1686707,2.725338,0.8065834
		c0.5295486,0.9752502,0.1684914,2.1953392-0.8065376,2.7251549c-3.8052692,2.0678062-8.1742153,3.2431679-12.8032665,3.2426262
		c-4.6286907,0.0005417-8.9976377-1.1748199-12.8029079-3.2426262c-0.975028-0.5298157-1.3364429-1.7499046-0.8065357-2.7251549
		c0.5299063-0.9752541,1.7499495-1.3363533,2.725338-0.8065376V35.3976898z"/>
	<path class="st2" d="M12.2821894,14.2738085h20.498951c1.6252899,0,2.9430504-1.3176718,2.9430504-2.9430485
		c0-1.6254225-1.3177605-2.9430494-2.9430504-2.9430494h-20.498951c-1.6256466,0-2.9430494,1.317627-2.9430494,2.9430494
		C9.3391399,12.9561367,10.6565428,14.2738085,12.2821894,14.2738085"/>
	<path class="st2" d="M12.2821894,54.6071396h20.498951c1.6252899,0,2.9430504-1.3176727,2.9430504-2.9430466
		c0-1.6254234-1.3177605-2.9430504-2.9430504-2.9430504h-20.498951c-1.6256466,0-2.9430494,1.317627-2.9430494,2.9430504
		C9.3391399,53.2894669,10.6565428,54.6071396,12.2821894,54.6071396"/>
	<path class="st2" d="M49.9476089,9.746069c6.2273903,0.001482,11.8386574,2.5159349,15.9230728,6.5956783
		c4.0797424,4.0844593,6.5941925,9.6955433,6.595993,15.9232941c-0.0018005,6.2277107-2.5162506,11.8388405-6.595993,15.9232521
		c-4.0844154,4.0797462-9.6956825,6.5941963-15.9230728,6.5956802c-1.6256485,0-2.9430504,1.317627-2.9430504,2.9430466
		c0,1.6253777,1.3174019,2.9430504,2.9430504,2.9430504c15.6884766-0.001976,28.4030075-12.7161942,28.4048004-28.4050293
		C78.3506165,16.5761642,65.6360855,3.8619025,49.9476089,3.8600163c-1.6256485,0-2.9430504,1.317627-2.9430504,2.9430485
		c0,1.6253772,1.3174019,2.943049,2.9430504,2.943049V9.746069z"/>
	<path class="st2" d="M49.9476089,30.4608898c0.9951439,0.0018406,1.8020401,0.8089161,1.8041954,1.8041515
		c-0.0021553,0.9951935-0.8090515,1.802269-1.8041954,1.8041115c-1.6256485,0-2.9430504,1.317627-2.9430504,2.9430466
		c0,1.6253777,1.3174019,2.9430504,2.9430504,2.9430504c4.2482338-0.0019302,7.6881371-3.4418793,7.6899338-7.6902084
		c-0.0017967-4.2483692-3.4417-7.6883183-7.6899338-7.6902027c-1.6256485,0-2.9430504,1.317625-2.9430504,2.9430485
		c0,1.6253757,1.3174019,2.9430485,2.9430504,2.9430485V30.4608898z"/>
	<path class="st2" d="M49.9476089,21.3981819c3.0098686,0.001482,5.7079048,1.2117348,7.6838264,3.1828537
		c1.9712524,1.9757881,3.1812363,4.6738682,3.183033,7.6840057c-0.0017967,3.0101433-1.2117805,5.7082214-3.183033,7.6840096
		c-1.9759216,1.9711189-4.6739578,3.1813736-7.6838264,3.1828537c-1.6256485,0-2.9430504,1.317627-2.9430504,2.9430504
		c0,1.6253777,1.3174019,2.9430466,2.9430504,2.9430466c9.2534294-0.0019302,16.7508011-7.4994392,16.7526016-16.7529602
		c-0.0018005-9.2535191-7.4991722-16.7510262-16.7526016-16.7529125c-1.6256485,0-2.9430504,1.317627-2.9430504,2.9430485
		c0,1.6253777,1.3174019,2.9430485,2.9430504,2.9430485V21.3981819z"/>
</g>
</svg>
