<?xml version="1.0" encoding="utf-8"?>
<!-- Generator: Adobe Illustrator 19.0.1, SVG Export Plug-In . SVG Version: 6.00 Build 0)  -->
<svg class="icon_nomer_s_tarifikaciej_soglasno_dejstvuyushhemu_tarifnomu_planu_abonenta" version="1.1" id="Layer_1" xmlns="http://www.w3.org/2000/svg" xmlns:xlink="http://www.w3.org/1999/xlink" x="0px" y="0px"
	 width="44.3333321px" height="92.6666641px" viewBox="0 0 44.3333321 92.6666641"
	 style="enable-background:new 0 0 44.3333321 92.6666641;" xml:space="preserve">
<style type="text/css">
	.icon_nomer_s_tarifikaciej_soglasno_dejstvuyushhemu_tarifnomu_planu_abonenta .st0{fill:#71B82F;}
	.icon_nomer_s_tarifikaciej_soglasno_dejstvuyushhemu_tarifnomu_planu_abonenta .st1{fill:#DFD91A;}
	.icon_nomer_s_tarifikaciej_soglasno_dejstvuyushhemu_tarifnomu_planu_abonenta .st2{fill:#373838;}
	.icon_nomer_s_tarifikaciej_soglasno_dejstvuyushhemu_tarifnomu_planu_abonenta .st3{fill:#61D31E;}
	.icon_nomer_s_tarifikaciej_soglasno_dejstvuyushhemu_tarifnomu_planu_abonenta .st4{fill:#E0D919;}
	.icon_nomer_s_tarifikaciej_soglasno_dejstvuyushhemu_tarifnomu_planu_abonenta .st5{fill:none;stroke:#61D31E;stroke-linecap:round;stroke-linejoin:round;stroke-miterlimit:10;}
	.icon_nomer_s_tarifikaciej_soglasno_dejstvuyushhemu_tarifnomu_planu_abonenta .st6{fill:none;stroke:#61D31E;stroke-width:2;stroke-linecap:round;stroke-linejoin:round;stroke-miterlimit:10;}
</style>
<g>
	<g>
		<path class="st2" d="M10.6804047,0.4935186h24.5211296c3.9113312,0.0250258,7.0910339,3.2456818,7.0660095,7.1570129v22.9468021
			c-0.0137482,2.1485043-2.7651291,3.2078609-4.2746506,1.6789494l-7.1206284-5.6945534H10.5133152
			c-3.9113317-0.0250244-7.0910363-3.3759422-7.0660105-7.2872753V7.4026365
			C3.4723303,3.4913049,6.7690735,0.4684929,10.6804047,0.4935186z"/>
	</g>
	<g>
		<path class="st2" d="M16.1714573,48.6027336h25.3716412c1.2406425,0,2.2465401-1.0058289,2.2465401-2.2465401
			c0-1.2407494-1.0058975-2.2465439-2.2465401-2.2465439H16.1714573c-1.2407818,0-2.2465429,1.0057945-2.2465429,2.2465439
			C13.9249144,47.5969048,14.9306755,48.6027336,16.1714573,48.6027336"/>
		<path class="st2" d="M16.1714573,55.9688187h8.8099728c1.2406425,0,2.246542-1.0058289,2.246542-2.2465401
			c0-1.2407494-1.0058994-2.2465439-2.246542-2.2465439h-8.8099728c-1.2407818,0-2.2465429,1.0057945-2.2465429,2.2465439
			C13.9249144,54.9629898,14.9306755,55.9688187,16.1714573,55.9688187"/>
		<path class="st2" d="M16.1714573,63.334938H31.721468c1.2406445,0,2.246542-1.0058289,2.246542-2.2465401
			c0-1.2407494-1.0058975-2.2465439-2.246542-2.2465439H16.1714573c-1.2407818,0-2.2465429,1.0057945-2.2465429,2.2465439
			C13.9249144,62.3291092,14.9306755,63.334938,16.1714573,63.334938"/>
		<path class="st2" d="M16.1714573,77.4410629h25.3716412c1.2406425,0,2.2465401-1.0058289,2.2465401-2.2465439
			c0-1.2407761-1.0058975-2.2465439-2.2465401-2.2465439H16.1714573c-1.2407818,0-2.2465429,1.0057678-2.2465429,2.2465439
			C13.9249144,76.4352341,14.9306755,77.4410629,16.1714573,77.4410629"/>
		<path class="st2" d="M16.1714573,84.8071823h20.0433674c1.2406464,0,2.2465439-1.0058289,2.2465439-2.2465439
			c0-1.2407761-1.0058975-2.2465439-2.2465439-2.2465439H16.1714573c-1.2407818,0-2.2465429,1.0057678-2.2465429,2.2465439
			C13.9249144,83.8013535,14.9306755,84.8071823,16.1714573,84.8071823"/>
		<path class="st2" d="M16.1714573,92.1733017H31.721468c1.2406445,0,2.246542-1.0058289,2.246542-2.2465439
			c0-1.2407761-1.0058975-2.2465439-2.246542-2.2465439H16.1714573c-1.2407818,0-2.2465429,1.0057678-2.2465429,2.2465439
			C13.9249144,91.1674728,14.9306755,92.1733017,16.1714573,92.1733017"/>
		<circle class="st2" cx="5.5360308" cy="45.9473076" r="4.9923315"/>
		<circle class="st2" cx="5.5360308" cy="75.194519" r="4.9923315"/>
	</g>
</g>
</svg>
