<?xml version="1.0" encoding="utf-8"?>
<!-- Generator: Adobe Illustrator 19.0.1, SVG Export Plug-In . SVG Version: 6.00 Build 0)  -->
<svg version="1.1" id="Layer_1" xmlns="http://www.w3.org/2000/svg" xmlns:xlink="http://www.w3.org/1999/xlink" x="0px" y="0px"
	 width="76px" height="75.3333359px" viewBox="0 0 76 75.3333359" style="enable-background:new 0 0 76 75.3333359;"
	 xml:space="preserve">
<style type="text/css">
	.st0{fill:#71B82F;}
	.st1{fill:#DFD91A;}
	.st2{fill:#373838;}
	.st3{fill:#61D31E;}
	.st4{fill:#E0D919;}
	.st5{fill:none;stroke:#61D31E;stroke-linecap:round;stroke-linejoin:round;stroke-miterlimit:10;}
	.st6{fill:none;stroke:#61D31E;stroke-width:2;stroke-linecap:round;stroke-linejoin:round;stroke-miterlimit:10;}
</style>
<g>
	<path class="st2" d="M29.6432762,40.7548065l11.6195107-11.619688c1.8652725-1.8415604,4.8981323-1.8221607,6.7400551,0.0432014
		L58.8761711,40.051918c1.011673,1.0246048,0.2098045,2.8304214-1.229744,2.8211708l-6.0729103,0.675766l-9.6471786,9.6473579
		c-1.8652725,1.8416519-4.9599304,1.7604561-6.8014908-0.1048126l-5.6349754-5.635067
		C27.647953,45.5909729,27.7780037,42.5963707,29.6432762,40.7548065z"/>
	<path class="st2" d="M69.577774,51.1894836l-2.0811844-2.0810966L49.5372353,67.0677338
		c-1.1438789,1.1424484-2.6380386,1.7102509-4.1623726,1.7132187c-1.5254135-0.0029678-3.0192108-0.5709534-4.1616554-1.7128601
		L7.6077743,33.4626617l-0.6247511,0.6244812l0.7260623-0.5071831l-0.1013112-0.1174774l-0.6247511,0.6246605l0.7260623-0.5071831
		l-0.1120892,0.078228l0.1171184-0.0706825l-0.0050292-0.0075455l-0.1120892,0.078228l0.1171184-0.0706825
		c-0.0197592-0.0204773-0.176755-0.3582726-0.3017774-0.8821602c-0.413866-1.6043625-0.6319361-4.7317104-0.6222363-8.1349697
		C6.789742,20.553503,7.040864,16.0542336,7.3088708,12.4529333C7.510056,9.7772636,9.5750761,7.6660786,12.247962,7.4028316
		c4.3139811-0.419704,9.9435663-0.8517127,14.549983-0.8504553C28.9200878,6.5508494,30.830267,6.64749,32.20084,6.8487644
		c0.6815147,0.0978084,1.2275887,0.2255249,1.5473289,0.3352785l0.2859688,0.1162205l0.0057487,0.0031433l0.4465599-0.718338
		l-0.594574,0.5945735l0.1480141,0.1237645l0.4465599-0.718338l-0.594574,0.5945735l33.6047173,33.6045341
		c1.1424408,1.1435242,1.7100677,2.6370506,1.7133026,4.1619263c-0.0032349,1.5244255-0.5708618,3.0184937-1.7136612,4.1626434
		L69.577774,51.1894836l2.0811844,2.0806465c2.2902756-2.2901878,3.4399033-5.322422,3.4366684-8.324028
		c0.0032349-3.001339-1.1456757-6.0339317-3.437027-8.3241196L38.0535278,3.0169992
		c-0.8007889-0.7781546-1.6105576-1.123582-2.4206886-1.4091029c-1.218605-0.4061422-2.5316963-0.609842-4.0125618-0.75139
		c-1.4758358-0.1363387-3.10256-0.1898683-4.8223324-0.1901377C21.8434067,0.667626,16.1002941,1.1161608,11.6792545,1.5443075
		C6.169661,2.0752022,1.8441843,6.4937272,1.4389403,12.0177813c-0.2737553,3.6916542-0.534218,8.2979822-0.5345773,12.5525942
		c0.0010778,2.66642,0.0991554,5.1854534,0.3865626,7.3396587c0.1465776,1.0808296,0.3362663,2.0704079,0.6294215,2.9985542
		c0.309322,0.9236565,0.662114,1.8220711,1.5254132,2.7163582l33.6050758,33.6048965
		c2.2895584,2.2911682,5.322422,3.4400787,8.324028,3.4371185c3.0012474,0.0029602,6.0337524-1.1459503,8.324028-3.4368515
		l17.9597092-17.9596214L69.577774,51.1894836z"/>
	<circle class="st2" cx="19.0332832" cy="18.6043892" r="5.8860083"/>
</g>
</svg>
