<?xml version="1.0" encoding="utf-8"?>
<!-- Generator: Adobe Illustrator 19.0.1, SVG Export Plug-In . SVG Version: 6.00 Build 0)  -->
<svg version="1.1" id="Layer_1" xmlns="http://www.w3.org/2000/svg" xmlns:xlink="http://www.w3.org/1999/xlink" x="0px" y="0px"
	 width="95px" height="65.3333359px" viewBox="0 0 95 65.3333359" style="enable-background:new 0 0 95 65.3333359;"
	 xml:space="preserve">
<style type="text/css">
	.st0{fill:#71B82F;}
	.st1{fill:#DFD91A;}
	.st2{fill:#373838;}
	.st3{fill:#61D31E;}
	.st4{fill:#E0D919;}
	.st5{fill:none;stroke:#61D31E;stroke-linecap:round;stroke-linejoin:round;stroke-miterlimit:10;}
	.st6{fill:none;stroke:#61D31E;stroke-width:2;stroke-linecap:round;stroke-linejoin:round;stroke-miterlimit:10;}
</style>
<g>
	<path class="st2" d="M78.2835541,7.0739312l1.9760132,0.0123444c1.489563,0.0073395,2.7097168,1.2371831,2.7078857,2.7247014
		v0.0247498l0.5-0.0044708l-0.5-0.0031433l-0.0149536,2.3880463l-0.0941162,15.0744314
		c-0.0073853,1.4895935-1.2372437,2.7097321-2.7247314,2.7078552l-0.0202026-0.0000305h0.0031128l-27.6483803-0.1726074
		l-2.1022949-0.0131226c-1.4897461-0.00737-2.710083-1.2372437-2.708252-2.7246399v-0.0056915l-0.3399658-0.003067
		l0.3391113,0.0245361l0.0008545-0.0214691l-0.3399658-0.003067l0.3391113,0.0245361l0.0012207-0.0330048l0.0119629-1.9232635
		c0.001709-0.2760773-0.2208252-0.5012665-0.4968262-0.5029755c-0.276123-0.0017242-0.5012207,0.2207031-0.5029297,0.4967804
		l-0.012085,1.9232483l0.5,0.0031128l-0.4987793-0.0361176l-0.0015869,0.0564423
		c0.0018311,2.0415192,1.6577148,3.7098846,3.7019043,3.7246246l2.1022949,0.0131226l27.6483192,0.1726074h0.0031738
		l0.0202026,0.0000305c2.0415039-0.0018768,3.7099609-1.6574402,3.7246704-3.7015991l0.0941162-15.0744162l0.0149536-2.388031
		V9.8267698V9.810977c-0.0018311-2.0414891-1.6574097-3.7099919-3.7015381-3.7246861l-1.9760132-0.0123444
		c-0.2761841-0.0017242-0.5014038,0.2207336-0.5031128,0.4968872c-0.00177,0.2761383,0.2207031,0.5013885,0.4968872,0.5031128
		L78.2835541,7.0739312z"/>
	<path class="st2" d="M83.684494,12.4668303l1.9005737,0.0118713c1.489624,0.0073547,2.7097168,1.2371979,2.7078857,2.7247009
		v0.0247498l0.5-0.0044708l-0.5-0.0031281l-0.1090088,17.4624634c-0.0074463,1.4896088-1.2373047,2.7097626-2.7247314,2.7078857
		l-0.019165-0.0000458l-29.7487221-0.1857452c-1.489502-0.0073395-2.7098389-1.2372894-2.7080078-2.7248535l-0.0001221-0.0018616
		l0.0002441-0.0151215l0.0108643-1.7331867c0.001709-0.2760773-0.2207031-0.5012817-0.4968262-0.503006
		c-0.276001-0.0017395-0.5012207,0.2206726-0.5029297,0.4967499l-0.0109863,1.7331715l0.5,0.0031433l-0.4997559-0.0182648
		l-0.0003662,0.0383759c0.0018311,2.0415649,1.6574707,3.7101135,3.7016602,3.7248383l29.7506752,0.1857452l0.0234375,0.0000458
		c2.0414429-0.0018768,3.7098999-1.6574554,3.7246704-3.7015991l0.1090088-17.4624939v-0.0075989v-0.0157928
		c-0.0018311-2.0414734-1.6573486-3.7099762-3.7015381-3.7246857l-1.9005737-0.0118713
		c-0.2761841-0.0017242-0.5014038,0.2207336-0.5031128,0.4968872c-0.00177,0.2761383,0.2207031,0.5013885,0.4968872,0.5031128
		L83.684494,12.4668303z"/>
	<path class="st2" d="M89.0255585,17.8593616l1.8850098,0.0117645c1.489624,0.0073547,2.7097168,1.2371521,2.7078857,2.7246094
		v0.0248413l0.5-0.0044708l-0.5-0.0031281l-0.1090088,17.4624805c-0.0073853,1.4895782-1.2373047,2.7097321-2.7247314,2.7078552
		l-0.0202026-0.0000305h0.0031128l-29.7507362-0.18573c-1.4897461-0.00737-2.710083-1.2372437-2.708252-2.7246399v-0.0056915
		l-0.3395996-0.003067l0.3387451,0.0245361l0.0008545-0.0214691l-0.3395996-0.003067l0.3387451,0.0245361l0.0012207-0.0329742
		l0.010376-1.6516724c0.001709-0.2760773-0.2207031-0.5012817-0.4968262-0.503006
		c-0.276001-0.0017395-0.5012207,0.2206726-0.5029297,0.4967499l-0.010498,1.6516571l0.5,0.0031433l-0.4987793-0.0361176
		l-0.0015869,0.0564423c0.0018311,2.0415192,1.6577148,3.7098846,3.7019043,3.7246246l29.7506752,0.18573h0.0031738
		l0.0202026,0.0000305c2.0414429-0.0018768,3.7099609-1.6574249,3.7246704-3.7015991l0.1090088-17.4624805v-0.0075989v-0.0158844
		c-0.0018311-2.0414581-1.6574707-3.7098846-3.7015381-3.7245941l-1.8850098-0.0117645
		c-0.2761841-0.0017242-0.5014038,0.2207336-0.5031128,0.4968872c-0.00177,0.2761383,0.2207031,0.5013885,0.4968872,0.5031128
		L89.0255585,17.8593616z"/>
	<path class="st2" d="M74.7236176,1.2377039l0.0031128-0.5L44.9759941,0.5519587l-0.0234375-0.0000916
		c-2.041626,0.0018768-3.710083,1.6575013-3.7246094,3.7017059l-0.1090088,17.4624176l0.5,0.0031281l-0.5-0.0090179
		l-0.0003662,0.0293427c0.0018311,2.0414886,1.6574707,3.7098846,3.7019043,3.7246246l29.7506752,0.18573l0.0233154,0.0000458
		c2.0413818-0.0018921,3.7097778-1.6574554,3.7247314-3.7015533l0.1090088-17.4625092V4.4826684V4.4622979
		c-0.0018921-2.0414579-1.6575317-3.7099152-3.7015381-3.7245941L74.7236176,1.2377039l-0.0031128,0.4999847
		c1.4893188,0.0072937,2.7096558,1.2371827,2.7077637,2.7246094v0.0203705V4.4795403L77.3192596,21.941988
		c-0.0075684,1.4895935-1.2374268,2.7097626-2.7247925,2.7078705l-0.0178833-0.0000458l-29.7498817-0.18573
		c-1.4899902-0.0074158-2.710083-1.2371826-2.708252-2.7246399l0.0003662-0.011322v-0.0058899L42.2278252,4.259768
		c0.0072021-1.4895933,1.2371826-2.7097931,2.7247314-2.7079163l0.0169678,0.0000916l29.7509193,0.1857452L74.7236176,1.2377039z
		 M62.8904228,9.268405L62.88731,9.7683897c0.4145508,0.0021973,0.7495117,0.3398895,0.7492065,0.7537994l0.0020752,0.0521851
		l0.4981117-0.0440216l-0.5000038-0.0031433c-0.0022583,0.4146576-0.3400269,0.7496796-0.7541504,0.7493896l-0.0078125-0.0000153
		h0.0031128c-0.4147949-0.0021973-0.75-0.3400879-0.7497559-0.7539978h-0.157959l0.157959,0.0018311v-0.0018311h-0.157959
		l0.157959,0.0018311l-0.4691162-0.0054474l0.4645996,0.0652161l0.0045166-0.0597687l-0.4691162-0.0054474l0.4645996,0.0652161
		l0.0047607-0.0664825c0.0021973-0.4146423,0.3398438-0.7496796,0.7539673-0.7493744V9.5756712l-0.005188,0.1925507
		l0.005188,0.0001068V9.5756712l-0.005188,0.1925507L62.88731,9.7683897L62.8904228,9.268405l0.0132446-0.4998322
		l-0.0213623-0.0002289c-0.9640503,0.0003052-1.7477417,0.7779999-1.7538452,1.7433319l0.5,0.0030212l-0.4952393-0.0695038
		l-0.0050049,0.067627v0.0121155l0.2709961-0.0023651l-0.2709961,0.0000153v0.0023499l0.2709961-0.0023651l-0.2709961,0.0000153
		c0.0002441,0.9641571,0.7780762,1.7475739,1.7433472,1.7539825h0.0031738l0.0078125,0.0000153
		c0.9639893-0.0002899,1.7476845-0.7778168,1.7540932-1.743103l-0.0018921-0.0471649l-0.4448853,0.0393219l0.4465942-0.0050201
		l-0.001709-0.0343018l-0.4448853,0.0393219l0.4465942-0.0050201l-0.1395874,0.0015717h0.1395874v-0.0015717l-0.1395874,0.0015717
		h0.1395874c-0.0003052-0.963913-0.7777748-1.747406-1.7429848-1.7537842L62.8904228,9.268405l0.0132446-0.4998322
		L62.8904228,9.268405z M57.6052666,9.2354155l-0.0031738,0.4999847c0.4145508,0.0021973,0.7493896,0.3398285,0.7491455,0.7537994
		h0.2617188l-0.2617188-0.0022125v0.0022125h0.2617188l-0.2617188-0.0022125l0.0045166,0.0760956l0.4957275-0.0657196
		l-0.5-0.0030975c-0.0021973,0.4146576-0.3399658,0.7496185-0.7540283,0.7493439l-0.0078125-0.0000153h0.0030518
		c-0.414917-0.0022278-0.75-0.3401184-0.7497559-0.7539978h-0.1583252l0.1583252,0.0018311v-0.0018311h-0.1583252
		l0.1583252,0.0018311L56.3736992,10.48598l0.4647217,0.0652161l0.0045166-0.0597687L56.3736992,10.48598l0.4647217,0.0652161
		l0.0047607-0.0664062c0.0021973-0.4147644,0.3399658-0.7497559,0.7537842-0.7494354V9.6712523L57.595623,9.7353086
		l0.0013428,0.0000458V9.6712523L57.595623,9.7353086l0.0064697,0.0000916L57.6052666,9.2354155l0.0095215-0.4999084
		l-0.0178223-0.0001373c-0.9639893,0.0003204-1.7473145,0.7780609-1.7536621,1.7432404l0.5,0.0030975l-0.4952393-0.0695038
		l-0.0050049,0.067627v0.0121155l0.2709961-0.0023651l-0.2709961,0.0000153v0.0023499l0.2709961-0.0023651l-0.2709961,0.0000153
		c0.0002441,0.9641571,0.7781982,1.7475739,1.7434082,1.7539825h0.0031738l0.0078125,0.0000153
		c0.9639893-0.0002747,1.7475586-0.7778625,1.7539062-1.7431488l-0.0042725-0.0688171l-0.4616699,0.0612335l0.4656982-0.0052338
		l-0.0040283-0.0559998l-0.4616699,0.0612335l0.4656982-0.0052338l-0.1396484,0.0015717h0.1396484V10.487628l-0.1396484,0.0015717
		h0.1396484c-0.0002441-0.9638824-0.77771-1.747406-1.7427979-1.7537842L57.6052666,9.2354155l0.0095215-0.4999084
		L57.6052666,9.2354155z M47.8061943,21.5962696l0.0030518-0.5c-1.0390625-0.0061188-1.8775635-0.851181-1.8773193-1.8884125
		v-0.004715l-0.3840332-0.0022888l0.3830566,0.0276031l0.0009766-0.0253143l-0.3840332-0.0022888l0.3830566,0.0276031
		l0.0012207-0.0328827c0.0061035-1.0388947,0.8510742-1.8772888,1.8884277-1.8769836l0.0096436,0.0000305
		c1.0415039,0.0061188,1.8798828,0.8512421,1.8796387,1.8885803l0.0001221,0.0271454l0.4998779-0.0119934l-0.5-0.0031586
		c-0.0062256,1.0389709-0.8514404,1.8774109-1.8886719,1.8770905l-0.0167236-0.0000153h0.0047607L47.8061943,21.5962696
		l0.0015869,0.4999847l0.0134277,0.0000153c1.5874023-0.0003204,2.8781738-1.2812653,2.8885498-2.8707733l-0.0001221-0.015152
		L50.4624443,19.21628l0.2473145,0.0014954l-0.0001221-0.007431L50.4624443,19.21628l0.2473145,0.0014954V19.207201
		c-0.0002441-1.5874023-1.28125-2.8782349-2.8707275-2.8885345l-0.0184326-0.000061
		c-1.5875244,0.0003052-2.8782959,1.2813568-2.8883057,2.8708496l0.5,0.003067l-0.4987793-0.0359497l-0.0014648,0.0512848
		c0.0002441,1.5874176,1.2813721,2.8780975,2.8709717,2.8883972h0.0047607L47.8061943,21.5962696z M47.8833427,9.2344236
		l0.0030518-0.5c-1.0390625-0.0061188-1.8775635-0.8511815-1.8773193-1.888413v-0.004715L45.625164,6.8390069l0.3829346,0.0276031
		l0.0009766-0.0253143L45.625164,6.8390069l0.3829346,0.0276031l0.0012207-0.0328827
		c0.0061035-1.0388947,0.8510742-1.8772888,1.8884277-1.8769836l0.0096436,0.0000305
		c1.0415039,0.0061035,1.8798828,0.8512421,1.8796387,1.8885651l0.0001221,0.0271454l0.4998779-0.0119934l-0.5-0.0031128
		c-0.0061035,1.0389252-0.8513184,1.8773808-1.8886719,1.8770604l-0.0167236-0.0000153h0.0047607L47.8833427,9.2344236
		l0.0015869,0.4999847l0.0134277,0.0000153c1.5872803-0.0003204,2.8782959-1.28125,2.8885498-2.8708348l-0.0001221-0.0151062
		l-0.2471924,0.0059357l0.2473145,0.0014954l-0.0001221-0.007431l-0.2471924,0.0059357l0.2473145,0.0014954V6.8453393
		c-0.0002441-1.5873871-1.28125-2.8782346-2.8707275-2.888519l-0.0184326-0.000061
		c-1.5875244,0.0003052-2.8782959,1.2813566-2.8883057,2.8708494l0.5,0.003067l-0.4987793-0.0359497l-0.0014648,0.0512848
		c0.0002441,1.5874181,1.2813721,2.878098,2.8709717,2.8883977h0.0047607L47.8833427,9.2344236z M65.6071625,15.8158445
		l-0.2360229-0.4408112c-1.4949379,0.8001394-3.2044716,1.2539053-5.0155067,1.2539968l-0.0693359-0.0001984
		c-1.8363037-0.0113678-3.564209-0.4880524-5.067749-1.3171835c-0.1113281-0.0610657-0.1726074-0.1746979-0.1733398-0.2935333
		l0.0413818-0.1595459l0.0006104-0.0011597c0.0609131-0.1111145,0.1744385-0.1722717,0.2932129-0.1729736l0.161377,0.042038
		c0.1550293,0.0852966,0.3430176,0.0823517,0.4953613-0.0077362c0.1523438-0.0901031,0.2456055-0.2533722,0.2456055-0.4303894
		v-0.000061h-0.5l-0.2414551,0.4378815c1.4091797,0.776947,3.0262451,1.2232971,4.7495117,1.2341461l0.0622559,0.0001678
		c1.7001953,0.0001831,3.3005981-0.4248199,4.7025795-1.1748962l0.1570435-0.0397949
		c0.1203613,0.0007172,0.2351685,0.0634766,0.2955933,0.1768646l0.0396118,0.1568909
		c-0.0006714,0.1202393-0.0636597,0.23526-0.1768188,0.295517L65.6071625,15.8158445l0.2360229,0.4407644
		c0.4483643-0.2404633,0.7053223-0.701705,0.7046509-1.177062c0.0001831-0.2124786-0.0513306-0.4298096-0.1578979-0.6287231
		c-0.2406006-0.4487915-0.7020874-0.7057343-1.1772461-0.7050171c-0.2125854-0.0001678-0.4299927,0.0514679-0.6288452,0.1580963
		c-1.2621498,0.6747742-2.6974525,1.0564117-4.2307777,1.0565948L60.2967949,14.96033
		c-1.5540771-0.0101471-3.0041504-0.4109497-4.2727051-1.1099396c-0.1551514-0.0854492-0.3432617-0.0826416-0.4957275,0.0073853
		c-0.1523438,0.0900269-0.2456055,0.253479-0.2456055,0.4305115v0.000061h0.5l0.2408447-0.4381409
		c-0.2026367-0.1116333-0.425415-0.1659698-0.6431885-0.1657562c-0.4692383-0.0007019-0.9260254,0.2498779-1.1690674,0.6903076
		l0.0006104-0.0011597c-0.1130371,0.2036591-0.1668701,0.4272766-0.166626,0.644516
		c-0.0007324,0.4694366,0.25,0.926178,0.6903076,1.169219c1.6450195,0.9074402,3.5384521,1.4292603,5.5449219,1.4414825
		l0.0750732,0.0001984c1.9786377,0.0000916,3.8518105-0.4966125,5.4874916-1.3723755L65.6071625,15.8158445z M71.6340179,21.7450275
		l0.0031128-0.5c-1.0389404-0.0061035-1.8774414-0.8511963-1.8771362-1.8885345v-0.0061188l-0.2711792-0.000824l0.2709961,0.0098419
		l0.0001831-0.0090179l-0.2711792-0.000824l0.2709961,0.0098419l0.0003052-0.0150146
		c0.0061035-1.0389252,0.8511353-1.8773499,1.8884277-1.8770294l0.0093994,0.0000305
		c1.041687,0.006134,1.8800659,0.8511658,1.8797607,1.8884735l0.0001831,0.0271454l0.4998779-0.0118866l-0.5-0.0031433
		c-0.0061646,1.0389862-0.8511963,1.8773804-1.8886108,1.8770752l-0.0167236-0.0000153h0.0046997L71.6340179,21.7450275
		l0.0015259,0.4999847l0.0136108,0.0000153c1.5874023-0.0003052,2.8782349-1.2812958,2.8885498-2.8707886l-0.0001221-0.0150299
		l-0.1781616,0.0042419h0.1782227l-0.000061-0.0042419l-0.1781616,0.0042419h0.1782227v-0.0075989
		c-0.0003052-1.5873413-1.281189-2.8781433-2.8706665-2.8884277l-0.0184326-0.000061
		c-1.5874023,0.0003204-2.8781128,1.2813416-2.8883667,2.8708038l0.5,0.0031128l-0.4996948-0.0181274l-0.0004272,0.0333405
		c0.0003052,1.5874329,1.281311,2.8782043,2.8707886,2.8885193h0.0046997L71.6340179,21.7450275z M71.7112274,9.3831816
		l0.0031128-0.5c-1.0389404-0.0061035-1.8774414-0.8511963-1.8771362-1.888535V6.9885278l-0.2714233-0.000824l0.2712402,0.0098419
		l0.0001831-0.0090179l-0.2714233-0.000824l0.2712402,0.0098419l0.0003052-0.0150146
		c0.0061035-1.0389252,0.8511353-1.8773499,1.8884277-1.8770294l0.0093994,0.0000305l0.0028076,0.0000305
		c1.0388794,0.0060883,1.8772583,0.8511353,1.8769531,1.8884277l0.0001831,0.0271454l0.4998779-0.0118866l-0.5-0.0031433
		c-0.0061646,1.0390019-0.8511963,1.8773961-1.8886108,1.8770909l-0.0167236-0.0000153h0.0046997L71.7112274,9.3831816
		l0.0015259,0.4999847l0.0136108,0.0000153c1.5874023-0.0003052,2.8782349-1.2812958,2.8885498-2.8708043l-0.0001221-0.0150299
		l-0.1781616,0.0042419h0.1782227l-0.000061-0.0042419l-0.1781616,0.0042419h0.1782227V6.9939904
		c-0.0003052-1.5873413-1.281189-2.8781433-2.8707275-2.8884125l0.0028076,0.0000305l-0.0211792-0.0000916
		c-1.5874023,0.0003204-2.8781128,1.2813416-2.8883667,2.8708038l0.5,0.0031128l-0.4996948-0.0181274L68.837265,6.9946465
		c0.0003052,1.5874333,1.281311,2.8782048,2.8707886,2.8885198h0.0046997L71.7112274,9.3831816z"/>
	<path class="st2" d="M35.7195244,59.9870491l0.4604492-0.1948853l-5.8299561-13.7748413l4.2236328-1.7557373
		c0.15271-0.0635223,0.2633057-0.1968384,0.2973633-0.3588104s-0.0134277-0.3284607-0.1276855-0.4481354L17.7914238,25.6975269
		c-0.1450195-0.1517639-0.3709717-0.1969299-0.5629883-0.1123962c-0.1921387,0.0845184-0.3115234,0.2816162-0.2974854,0.4910278
		l1.614502,24.133379c0.0106201,0.1600952,0.098999,0.3070068,0.2353516,0.391571
		c0.1363525,0.084549,0.307251,0.0983124,0.4554443,0.0367432l4.4819336-1.8633423l5.8475342,13.8169403
		c0.5803223,1.3676147,1.9154053,2.1901512,3.3155518,2.1900139c0.4649658,0.0000916,0.9382324-0.0910797,1.3909912-0.282608
		c1.3679199-0.5802269,2.1903076-1.9156151,2.1900635-3.3157616c0.0001221-0.4650726-0.0910645-0.9382019-0.2823486-1.3906708
		L35.7195244,59.9870491l-0.4605713,0.1946106c0.1383057,0.3274994,0.2033691,0.6663818,0.2034912,1.0014343
		c-0.0002441,1.0115814-0.5963135,1.9799652-1.5797119,2.3947754c-0.3277588,0.1384735-0.6665039,0.2035217-1.0014648,0.2036133
		c-1.0113525-0.0001373-1.9797363-0.5963898-2.3945312-1.5798035l-6.0411377-14.2744751
		c-0.1070557-0.2528992-0.3989258-0.3722839-0.6524658-0.2668152l-4.2966309,1.7862549l-1.4758301-22.060976l15.4960938,16.2322865
		l-4.0152588,1.66922c-0.1234131,0.0512848-0.2202148,0.1487579-0.270874,0.2723999
		c-0.0505371,0.123642-0.0498047,0.2611084,0.0023193,0.3841705l6.026001,14.2381744L35.7195244,59.9870491z"/>
	<path class="st2" d="M10.5200624,35.6373482l0.2689209-0.4215088c-1.6982422-1.0835114-3.1112061-2.5821381-4.092041-4.3458576
		c-0.9699707-1.7453308-1.5205078-3.7422791-1.520752-5.8852081l0.0003662-0.0685883v-0.006134
		c0.0223389-3.3566284,1.3929443-6.363266,3.6053467-8.5521851c2.1994629-2.168334,5.1947021-3.4975119,8.5214834-3.4979849
		l0.0736084,0.0002594c3.3571777,0.0223999,6.3637695,1.3928375,8.5527344,3.6052389
		c2.1682129,2.1994476,3.4974365,5.1947021,3.4979248,8.5213928l-0.0001221,0.0776062h0.5l-0.4998779-0.0150452L29.4272881,25.07654
		c0.0002441,1.3172607,1.0631104,2.3881989,2.3823242,2.3969269l0.0150146,0.0000153
		c1.3172607-0.000351,2.3880615-1.0631409,2.3972168-2.381958v-0.0016327l0.0002441-0.1092072
		c0.0001221-4.6219482-1.8662109-8.8350067-4.8814697-11.8846579c-3.0355225-3.0773926-7.2679443-5.0021667-11.9331055-5.0302124
		l-0.1108398-0.0003815c-4.6218252-0.000061-8.8348379,1.8660431-11.8842764,4.8815765
		c-3.0773928,3.0354462-5.0020752,7.2678061-5.0301514,11.933074l-0.0006104,0.1101532
		c-0.0001221,2.9700012,0.7716064,5.7788544,2.1256104,8.2105885c1.3699951,2.4623871,3.3334963,4.5443115,5.7022705,6.056488
		c0.3979492,0.2542725,0.8468018,0.3769684,1.2877197,0.376709c0.7895508,0.0007477,1.5654297-0.3921356,2.022583-1.1074677
		c0.2543945-0.3984528,0.3769531-0.8473969,0.3765869-1.2881775c0.0007324-0.7897339-0.3922119-1.565567-1.1072998-2.0223541
		l-0.269043,0.421402h0.4998779v-0.0000763c0-0.1704559-0.0872803-0.3298187-0.230957-0.4215088L10.5200624,35.6373482h-0.5
		v0.0000763c0,0.1704865,0.0870361,0.3296051,0.230835,0.4213867c0.4179688,0.2668152,0.6448975,0.7168732,0.6456299,1.1795654
		c-0.0003662,0.257782-0.0701904,0.5156555-0.2196045,0.75c-0.2672119,0.4182892-0.7171631,0.6449127-1.1796875,0.6456604
		c-0.2574463-0.0002594-0.5153809-0.070282-0.7497559-0.219635c-2.229126-1.4229431-4.0773926-3.3828888-5.3664551-5.6998901
		c-1.2735596-2.287569-1.9993896-4.9279346-1.9995117-7.7242756l0.0006104-0.1037292
		c0.0266113-4.3917084,1.836792-8.370163,4.7329102-11.2280111c2.8710938-2.8380432,6.8314209-4.5930176,11.1816397-4.5930786
		l0.1044922,0.0003815c4.3916016,0.0265198,8.3701172,1.8366394,11.2280273,4.7328949
		c2.8376465,2.8711691,4.5928955,6.8317251,4.5930176,11.1819906l-0.0002441,0.1058044V25.084856
		c-0.0047607,0.7685852-0.630249,1.3889771-1.3973389,1.3886414l-0.0100098-0.0000153
		c-0.7674561-0.0045166-1.3876953-0.629776-1.3874512-1.3969421h-0.095459l0.0955811,0.0028687L30.427166,25.07654h-0.095459
		l0.0955811,0.0028687l0.0001221-0.0150299l0.0001221-0.0776062c0.0004883-3.5963287-1.4417725-6.848175-3.7862549-9.2240744
		c-2.364502-2.3921204-5.6289062-3.8793488-9.2572021-3.9025421l-0.0806885-0.0002594
		c-3.5964346-0.000473-6.8482656,1.4419556-9.2242422,3.7864685c-2.3920898,2.3643637-3.8793945,5.6288443-3.9024658,9.2571707
		l0.5,0.0032654l-0.5-0.0093994l-0.0003662,0.0873718c-0.0002441,2.315094,0.5969238,4.4832764,1.6466064,6.37117
		c1.0622559,1.909853,2.5897217,3.529726,4.4281006,4.702898L10.5200624,35.6373482h-0.5H10.5200624z"/>
	<path class="st2" d="M14.4518251,29.4641895l0.2687988-0.4215393c-0.6732178-0.4293213-1.236084-1.0262756-1.6241455-1.7248993
		c-0.3848877-0.6938019-0.6020508-1.4786377-0.602417-2.334137v-0.0134735l0.0002441-0.0142212
		c0.0100098-1.3367615,0.5491943-2.5175476,1.4299316-3.3916473l-0.0010986,0.0010986
		c0.8787842-0.8636932,2.0560303-1.3867798,3.3812246-1.387558l0.0257568,0.0000916
		c1.3383789,0.0100708,2.519043,0.5492249,3.3933105,1.4299469l-0.0010986-0.0011444
		c0.8635254,0.8787994,1.3864746,2.0559845,1.3873291,3.3814087l0.0002441,0.0425262l0.4998779-0.0118866l-0.4998779-0.0150452
		l-0.0003662,0.0272064c0.0002441,1.3172607,1.0631104,2.3882446,2.3823242,2.3968658l0.0150146,0.0000153
		c1.3172607-0.000351,2.3880615-1.0632477,2.3970947-2.3820953l0.0001221-0.0642548
		c0-2.6199036-1.0606689-5.0155487-2.7703857-6.7434235c-1.7197266-1.7449341-4.1270752-2.8388815-6.7719727-2.8544302
		l-0.0640869-0.0002289c-2.6198721,0.0000763-5.015624,1.0605307-6.7432852,2.7705221
		c-1.744873,1.7196808-2.8387451,4.1270905-2.8543701,6.7719421v-0.0031128l-0.0004883,0.0663757
		c-0.0001221,1.6823425,0.4382324,3.2796173,1.2070312,4.6595459c0.77771,1.3973541,1.890625,2.577425,3.2346191,3.4354877
		c0.3980713,0.2542877,0.8469238,0.3769836,1.2878418,0.3767242c0.7895508,0.0007477,1.5654297-0.3921204,2.022583-1.1074371
		c0.2543945-0.3984852,0.3769531-0.8474293,0.3765869-1.2882099c0.0007324-0.7897339-0.3922119-1.565567-1.1072998-2.0223541
		l-0.269043,0.421402h0.5v-0.000061c0-0.1705017-0.0875244-0.329895-0.2312012-0.4215393L14.4518251,29.4641895h-0.5v0.000061
		c0,0.1704865,0.0870361,0.3296051,0.230835,0.4213867c0.4179688,0.2668152,0.6448975,0.7168732,0.6456299,1.1795654
		c-0.0003662,0.257782-0.0701904,0.5156555-0.2196045,0.7500305c-0.2672119,0.4182453-0.7171631,0.6448841-1.1796875,0.6456318
		c-0.2576904-0.0002594-0.5153809-0.0702515-0.7497559-0.2196198c-1.2044678-0.7689838-2.2021484-1.8267994-2.8989258-3.079073
		c-0.6881104-1.2351685-1.0808105-2.6648865-1.0809326-4.1730804l0.0004883-0.054245v-0.0031128
		c0.013916-2.3701172,0.9940186-4.5250092,2.557251-6.0663605c1.5484619-1.5320282,3.6929932-2.4821014,6.0405264-2.4820251
		l0.0578613,0.0002289c2.3704834,0.0137787,4.5253906,0.9938049,6.0666504,2.5570831
		c1.5317383,1.5486908,2.4820557,3.6933136,2.4820557,6.0407867l-0.0001221,0.0579834
		c-0.0047607,0.76828-0.630127,1.3887329-1.3972168,1.388382l-0.0100098-0.0000153
		c-0.7674561-0.0044708-1.3876953-0.629715-1.3874512-1.3968811h-0.0959473l0.0960693,0.0028687l-0.0001221-0.0028687h-0.0959473
		l0.0960693,0.0028687v-0.0269318v-0.0187378c0.0008545-1.5933838-0.6368408-3.0303345-1.6746826-4.082962l-0.0010986-0.0011444
		c-1.046875-1.0581818-2.4885254-1.7157745-4.0950928-1.7260742l-0.0343018-0.0001068
		c-1.5933828-0.0007782-3.0301504,0.637146-4.0827627,1.674942l-0.0010986,0.0010986
		c-1.0582275,1.0467987-1.7158203,2.4884796-1.7260742,4.0951691l0.5,0.0034485l-0.4997559-0.0176697l-0.0004883,0.0487976
		c-0.0003662,1.0265961,0.263916,1.9848022,0.7281494,2.819809c0.4700928,0.8454132,1.1467285,1.562973,1.9605713,2.0822906
		L14.4518251,29.4641895h-0.5H14.4518251z"/>
</g>
</svg>
